<?xml version="1.0" encoding="utf-8"?>
<!-- Generator: Adobe Illustrator 28.2.0, SVG Export Plug-In . SVG Version: 6.00 Build 0)  -->
<svg version="1.1" id="Layer_1" xmlns="http://www.w3.org/2000/svg" xmlns:xlink="http://www.w3.org/1999/xlink" x="0px" y="0px"
	 viewBox="0 0 1440 900" style="enable-background:new 0 0 1440 900;" xml:space="preserve">
<rect fill="#F4E9D4" id="f05_bg" class="scene-bg" y="1" width="1440" height="898.23"/>
<g id="f05_leaves_early" class="adjunto3">
<polygon fill="#D3AD00" points="645.67,155.06 644.07,264.94 615.15,347.09 552.22,419.96 495.11,433.59 406.71,420.13 327.62,378.65 290.13,336.27 230.11,275.67 225.44,156.55 "/>
<polygon fill="#FF9800" points="1153.46,556.72 1202.73,513.17 1236.1,386.43 1189.02,288.33 1130.12,221.71 1047.05,201.43 993.84,221.87 914.83,265.45 878.79,321.85 800.55,388.19 817.18,451.85 882.77,501.48 966.9,583.83 1038.73,564.69 "/>
<polygon fill="#5D2F47" points="1231.53,217.42 1223.07,401.94 1164.49,491.79 1030.42,498.8 848.17,430.43 759.01,369.07 696.52,288.43 705.26,217.42 "/>
<polygon fill="#B2AB6A" points="381.57,221.03 872.32,221.03 704.52,251.06 589.75,283.98 491.89,243.4 428.28,302.47 381.88,318.43 "/>
<polygon opacity="0.9" fill="#CDD700" points="380.4,815.93 460.18,671.98 734.06,606.35 936.6,606.35 1063.78,731.96 1091.9,815.93 "/>
<polygon fill="#FFAE00" points="263.29,760.33 263.29,568.91 311.96,409.02 347.9,267.73 422.03,212.74 553.07,325.01 771.71,681.67 792.39,760.33 "/>
<polygon fill="#4C4475" points="639.84,665.85 543.56,617.67 426.47,517.84 463.92,417.26 553.57,400.51 680.31,338.89 863.04,470.38 881.5,529.28 865.12,572.31 "/>
</g>
<g id="f05_adjunto1" class="adjunto1">
<polygon fill="#BCAB8E" points="560.34,174.14 558.35,123.29 507.67,65.26 500.24,54.61 495.62,63.59 525.22,90.93 545.55,114.37 556.37,133.35 555.13,174.14 "/>
<polygon fill="#BCAB8E" points="645.88,171.32 692.11,146.89 735.1,155.13 747.25,157.45 761.55,157.45 761.55,169.08 693.41,151.15 648.7,174.58 "/>
</g>
<g id="f05_adjunto2" class="adjunto2">
<polygon fill="#B0B902" points="1199.35,592.75 1180.73,595.02 1131.23,601.03 1135.63,614.51 1155.29,602.02 1184.71,599.69 1197.41,607.37 1186.97,632.62 1200.48,612.84 1225.35,628.94 1201.2,609.96 1211.82,601.27 1228.79,594.92 1249.57,593.48 1267.2,595.74 1273.29,599.9 1259.5,587.99 1246.15,590.33 1223.12,590.55 1212.34,593.65 1230.1,574.89 1247.52,563.87 1254.48,553.68 1244.63,555.42 1226.11,571.67 1209.56,589.78 1198.34,596.05 1190.83,598.89 1187.18,597.89 "/>
<polygon fill="#B8CE04" points="1036.8,771.58 1033.95,751.89 1026.38,699.55 1041.01,697.14 1033.96,723.02 1039.71,753.5 1050.83,762.27 1073.12,739.13 1057.12,762.57 1079.97,779.23 1054.45,764.75 1048.71,779.71 1047.03,799.81 1051.29,821.24 1058.37,837.65 1064.19,841.63 1048.54,833.9 1047.22,819.42 1041.12,796.37 1041.26,784.07 1027.44,811.22 1021.23,834.13 1012.99,846.21 1012.03,835.52 1023.14,808.87 1036.64,783.24 1039.8,768.91 1040.58,760 1038.59,756.86 "/>
</g>
<g id="f05_leaf_st49" class="adjunto3">
<polygon fill="#FFCB00" points="665.96,727.86 665.96,538.78 714.41,380.83 750.19,241.27 823.99,186.95 954.45,297.85 1172.12,650.16 1192.71,727.86 "/>
</g>
<g id="f05_bug_core">
<polygon fill="#F4957E" points="614.45,144.82 629.84,151.31 634.93,128.13 "/>
<polygon fill="#D60023" points="772.35,438.97 800.48,380.81 778.8,251.41 693.38,177.66 610.02,137.33 523.31,148.65 481.78,186.85 425.65,255.81 415.35,321.08 369.48,410.83 411.8,463.73 494.35,485.91 608.05,531.65 667.66,487.92 "/>
</g>
<g id="f05_leaves_front" class="adjunto3">
<polygon fill="#860256" points="623.12,674.66 623.12,716.58 669.56,786.03 736.3,804.97 792.99,804.97 837.76,773.86 850.46,739.81 863.01,683.67 851.28,642.64 852.64,577.26 815.21,558.32 763.81,568.69 688.95,574.1 667.76,616.49 "/>
<polygon fill="#D60023" points="1108.01,293.33 1108.01,322.47 1121.54,334.36 1162.92,334.36 1177.45,327.59 1177.45,289.41 1156.26,264.47 1120.88,264.47 "/>
<polygon fill="#D60023" points="259.68,754.02 259.68,783.16 273.21,795.05 314.59,795.05 329.12,788.29 329.12,750.1 307.93,725.16 272.55,725.16 "/>
<polygon fill="#F8F8F8" fill-opacity="0.9" points="757.72,618.74 820.25,674.3 776.31,709.47 865.83,690.62 915.06,704.02 987.42,646.09 840.49,658.1 "/>
</g>
</svg>
