<?xml version="1.0" encoding="utf-8"?>
<svg version="1.1" xmlns="http://www.w3.org/2000/svg" viewBox="0 0 1440 900">
<rect id="f08_bg" class="scene-bg" fill="#F4E9D4" width="1440" height="900"/>
<g id="f08_back" class="layer-back">
<polygon fill="#D3AD00" points="478.59,1.79 476.79,125.19 444.07,217.45 372.82,299.29 308.15,314.58 208.05,299.46 118.5,252.87 76.04,205.26 8.07,137.2 2.76,3.4 "/>
<polygon opacity="0.9" fill="#C2D1C0" points="0.62,479.1 49.72,463.22 93.14,463.22 127.15,446.86 178.14,435.27 271.06,444.13 354.53,418.9 415.34,396.05 485.21,375.94 562.64,382.07 650.65,327.86 786.24,273.65 894.27,239.55 985.67,260.01 1068.01,287.63 1173.01,347.98 1212.66,389.12 1279.9,581.88 1337.69,637.11 1378.86,708.72 1412.48,779.98 1438,815.88 1438,871.82 1415.5,872.38 1191.14,619.04 974.72,500.73 850.07,425.04 600.04,491.18 430.82,569.6 323.93,568.24 217.4,555.97 107.51,540.62 25.17,543.35 0.62,544.83 "/>
<polygon fill="#4C4475" points="636.33,801.24 539.29,752.68 421.28,652.06 459.02,550.68 549.38,533.8 677.12,471.69 861.29,604.22 879.9,663.58 863.39,706.96 "/>
<polygon fill="#5D2F47" points="1439.66,0 1431.13,185.97 1372.09,276.53 1236.95,283.6 1053.27,214.69 963.39,152.84 900.41,71.56 909.22,0 "/>
<polygon fill="#FFAE00" points="1.07,900 1.07,709.34 49.67,550.08 85.56,409.35 159.57,354.58 290.41,466.4 508.72,821.65 529.36,900 "/>
<polygon fill="#B2AB6A" points="0.77,1.16 490.8,1.16 323.24,31.43 208.65,64.61 110.93,23.71 47.41,83.25 1.07,99.33 "/>
<polygon opacity="0.9" fill="#CDD700" points="720.41,900 801.09,751.63 1078.09,683.99 1282.94,683.99 1411.56,813.45 1440,900 "/>
<polygon fill="#F8F8F8" fill-opacity="0.9" points="947.65,781.06 1010.68,837.06 966.39,872.51 1056.61,853.52 1106.23,867.02 1179.17,808.63 1031.07,820.73 "/>
<polygon opacity="0.9" fill="#E1E100" points="1067.22,542.78 1075.4,568.25 1079.42,579.86 1087.98,584.8 1075.58,616.26 1042.3,652.84 1028.47,697.85 1013.75,707.21 1002.99,715.96 979.9,726.23 957.19,720.98 946.02,714.54 930.02,705.3 925.15,686.04 922.29,673.66 912.1,667.77 893.61,661.39 880.2,653.65 877.23,647.64 916.5,626.69 957.2,595.84 964.64,564.37 966.06,522.28 953.62,502.94 952.88,496.79 978.77,513.89 991.31,526.85 1002.91,527.82 1010.69,523.02 1027.9,522.94 1050.39,527.34 1063.32,538.39 "/>
</g>
<g id="f08_bug_left_body" class="bug-left-body">
<polygon fill="#6D8B5C" points="237.29,218.05 300.12,219.13 359.41,243.32 425.54,292.55 456.8,318.37 425.29,363.82 412.65,423.8 370.73,427.27 287.41,410.38 248.24,393.71 214.76,381.23 195.79,371.54 185.91,350.99 177.62,287.5 222.61,232.4 "/>
<polygon fill="#6D8B5C" points="490.21,357.77 452.1,433.66 487.49,442.42 510.69,428.22 518.18,408.21 517.76,397.13 508.94,380.65 "/>
<circle fill="#F4C837" cx="485.57" cy="419.84" r="16.24"/>
<circle opacity="0.2" fill="#C7B16F" cx="483.3" cy="418.71" r="16.24"/>
</g>
<g id="f08_bug_left_eyes" class="bug-left-eyes">
<circle opacity="0.4" fill="#EE9D20" cx="485.81" cy="419.99" r="14.06"/>
<ellipse opacity="0.3" fill="#F7E0B8" transform="matrix(0.9774 -0.2113 0.2113 0.9774 -70.2999 114.2651)" cx="499.51" cy="386.07" rx="14.5" ry="14.53"/>
<ellipse fill="#F5DBA9" transform="matrix(0.9774 -0.2113 0.2113 0.9774 -71.0072 114.0027)" cx="497.93" cy="389.25" rx="14.46" ry="14.53"/>
<polygon fill="#F4957E" points="518.87,408.94 510.07,422.59 531.42,431.35 "/>
<circle fill="#BCAB8E" cx="497.99" cy="389.19" r="6.34"/>
<circle fill="#746B40" cx="498.75" cy="388.01" r="3.37"/>
<circle fill="#745C2B" cx="498.75" cy="388.01" r="2.18"/>
<circle fill="#FAE9CC" cx="487.39" cy="421.67" r="6.54"/>
<circle fill="#7A8455" cx="487.39" cy="421.67" r="3.37"/>
<polygon fill="#F0BA8A" points="205.83,271.62 322.13,300.3 318.41,329.9 197.39,303.52 "/>
<polygon fill="#9DA12D" points="400.3,281.76 375.98,315.48 370.2,340.37 426.41,360.4 455.8,323.18 "/>
</g>
<g id="f08_bug_left_body_tail" class="bug-left-body">
<polygon fill="#E5E1A2" points="193.21,299.17 427.86,361.02 425.99,367.72 191.48,306.54 "/>
<polygon fill="#E1CF58" points="320.78,301.5 317.27,329.45 368.54,344.25 374.74,315.78 "/>
<polygon opacity="0.3" fill="#F2DF9C" points="320.24,302.57 317.05,329.8 365.92,344.5 371.67,316.78 "/>
<polygon fill="#F5AE51" points="236.14,285.29 232.31,297.94 297.61,311.41 297.08,318.09 318.97,325.18 325.04,303.51 312.34,297.72 "/>
<polygon fill="#BCBBB0" points="204.71,278.98 229.83,285.15 227.01,289.3 203.12,282.77 "/>
<polygon fill="#ECA08E" points="226.57,301.81 298.69,316.43 296.15,322.89 313.38,329.67 313.96,332.38 222.58,311.07 "/>
<polygon fill="#DFB155" points="202.78,285.94 228.85,294.09 226.39,297.91 201.58,289.48 "/>
<polygon fill="#BCBBB0" points="200.85,292.63 225.52,300.44 222.44,304.39 199.02,296.31 "/>
<polygon fill="#DEB381" points="280.01,296.82 278.8,300.37 322.67,311.9 323.46,307.13 "/>
<polygon fill="#CCBFAB" points="277.79,305.06 276.59,308.61 320.46,320.14 321.25,315.37 "/>
<polygon fill="#B6AF9C" points="275.39,312.15 274.18,315.69 318.05,327.23 318.84,322.46 "/>
<polygon fill="#98C196" points="455.17,323.32 467.73,330.95 481.63,348.46 490.34,358.4 451.34,433.16 426.36,430.03 412.54,423.82 425.21,363.94 "/>
<polygon fill="#A99E5C" points="188.96,318.31 423.02,372.66 419.29,373.93 185.21,319.76 "/>
<polygon fill="#B9D5B9" points="187.48,333.19 420.7,395.56 416.91,397.28 183.67,335.14 "/>
<polygon fill="#EBDFA2" points="185.91,349.61 419.13,411.99 415.35,413.71 182.11,351.56 "/>
<polygon fill="#9DA12D" points="411.56,425.35 402.87,425.91 397.79,446.71 411.03,450.95 420.17,428.74 "/>
<polygon fill="#98C196" points="403.36,451.42 395.61,467.01 467.24,504.94 483.26,561.01 486.56,560.3 470.78,505.84 400.78,465.18 405.31,452 "/>
<polygon fill="#B6AF9C" points="456.65,295.41 464.29,291.76 466.5,294.11 454.01,314.89 447.5,309.33 "/>
<polygon fill="#9DA12D" points="467.93,290.97 478.48,278.32 495.95,290.17 513.83,310.64 522.87,320.5 541.71,325.63 586.62,323.8 585.73,319.64 526.99,318.3 507.86,300.65 491.58,280.82 478.4,276.05 465.41,289.07 "/>
<polygon fill="#DEB381" points="412.38,234.71 419.8,238.33 422.65,239.72 401.35,272.39 389.09,265.42 "/>
<polygon fill="#E5E1A2" points="428.13,219.74 394.03,197.8 361.63,188.32 352.52,182.64 348.57,179.55 347.45,189.56 351.31,186.18 393.46,201.89 422.21,219.45 415.7,234 419.8,238.33 "/>
<polygon fill="#6D8B5C" points="299.46,414.39 301.17,422.3 299.99,440.93 302.84,442.05 306.05,417.29 "/>
<polygon fill="#DEB381" points="300.37,442.68 229.95,484.52 221.24,486.4 222.86,493.92 228.98,489.12 302.51,446.75 306.78,441.29 "/>
<polygon fill="#B9D5B9" points="238.03,391.27 234.24,422.31 235.9,423.92 244.14,395.21 "/>
<polygon fill="#ECA08E" points="234.09,426.64 178.67,434.61 177.27,438.68 194.92,435.06 229.92,430.43 236.39,428.61 "/>
<polygon fill="#9DA12D" points="177.16,437.76 167.73,436.68 172.82,448.06 "/>
<polygon fill="#ECA08E" points="295.29,194.35 281.57,194.69 279.28,217.52 292.51,217.94 "/>
<polygon fill="#9DA12D" points="289.74,192.93 291.25,169.61 293.05,165.76 212.96,138.59 202.47,135.61 201.31,142.43 210.86,141.02 288.96,168.14 285.55,191.86 "/>
<polygon fill="#BCAB8E" points="510.69,428.22 543.4,467.12 544.4,509.66 544.68,521.67 547.62,535.26 536.57,537.65 539.61,469.23 508.17,431.57 "/>
<polygon fill="#BCAB8E" points="521.27,404.25 569.17,391.93 613.9,331.86 622.49,322.61 613.01,320.06 593.11,353.8 575.01,377.93 559.21,392.11 520.2,399.3 "/>
<polygon fill="#D4BDB0" points="465.73,335.12 502.53,295.31 137.18,44.32 114.49,49.23 463.67,288.37 477.87,299.46 486.86,301.06 473.85,317.24 461.09,331.01 "/>
<polygon fill="#D4BDB0" points="179.2,315.82 146.18,351.55 474.03,576.77 494.39,572.37 181.05,357.77 168.31,347.82 160.24,346.39 171.92,331.87 183.37,319.51 "/>
<polygon fill="#ECA08E" points="237.27,116.46 229,127.41 245.46,143.39 254.01,133.3 "/>
<polygon fill="#DEB381" points="279.82,166.1 278.03,158.04 277.34,154.94 316.17,151.25 318.35,165.18 "/>
<polygon opacity="0.3" fill="#F2DF9C" points="251,141.43 249.49,157.98 277.17,167.44 280.11,150.62 "/>
<polygon opacity="0.3" fill="#F2DF9C" points="288.11,434.89 284.92,462.11 333.79,476.81 339.54,449.09 "/>
<polygon fill="#DEB381" points="320.13,470.45 318.33,462.39 317.64,459.29 356.47,455.6 358.65,469.54 "/>
<polygon fill="#ECA08E" points="296.06,440.59 287.79,451.55 304.25,467.53 312.8,457.44 "/>
<polygon fill="#E5E1A2" points="263.91,235.63 263.29,247.5 256.08,239.85 245.28,237.38 243.7,226.92 254.44,233.06 255.79,227.18 267.33,229.83 "/>
<polygon fill="#ECA08E" points="359.23,492.9 399.68,511.08 451.27,554.85 461.16,556.35 453.52,557.98 397.36,514.67 "/>
<polygon fill="#E5E1A2" points="377,222.41 417.45,240.59 469.03,284.36 478.92,285.86 471.29,287.49 415.12,244.17 "/>
</g>
<g id="f08_bug_right" class="bug-right">
<polygon fill="#B8CE04" points="885.1,712.25 882.71,695.69 876.34,651.67 888.64,649.65 882.71,671.41 887.54,697.04 896.9,704.42 915.64,684.96 902.19,704.67 921.41,718.68 899.94,706.5 895.11,719.08 893.7,735.99 897.28,754 903.24,767.81 908.13,771.15 894.98,764.65 893.86,752.47 888.73,733.09 888.85,722.75 877.23,745.58 872.01,764.85 865.08,775 864.27,766.01 873.61,743.61 884.97,722.05 887.63,710 888.28,702.51 886.6,699.87 "/>
<polygon fill="#B0B902" points="1033.12,499 1017.46,500.91 975.84,505.97 979.55,517.3 996.08,506.8 1020.82,504.84 1031.49,511.29 1022.71,532.53 1034.07,515.89 1054.99,529.44 1034.68,513.47 1043.61,506.17 1057.88,500.83 1075.35,499.61 1090.18,501.52 1095.3,505.02 1083.7,495 1072.48,496.97 1053.11,497.15 1044.05,499.76 1058.98,483.98 1073.63,474.72 1079.49,466.15 1071.2,467.61 1055.63,481.28 1041.71,496.51 1032.27,501.77 1025.96,504.17 1022.89,503.33 "/>
<polyline fill="#BCAB8E" points="442.66,420.68 431.86,418.21 430.27,407.76 441.02,413.9 442.36,408.02 453.91,410.66 450.48,416.47 449.86,428.34 442.66,420.68 "/>
<polygon fill="#92C199" points="778.43,608.56 771.97,581.63 768.73,569.32 760.28,563.55 775.55,532.04 812.76,496.88 830.56,451.48 846.49,442.97 858.27,434.78 882.92,425.98 905.96,433.17 916.99,440.7 932.79,451.49 936.3,471.75 938.29,484.76 948.36,491.63 966.94,499.67 980.18,508.71 982.78,515.14 940.59,533.7 896.16,562.38 886.02,594.28 881.27,637.63 892.6,658.57 892.88,664.97 867.49,645.3 855.56,630.94 843.66,629.03 835.25,633.38 817.48,632.12 794.6,625.81 782.11,613.4 "/>
<polygon opacity="0.9" fill="#D6DF00" points="782.45,605.19 776.21,579.18 773.08,567.29 764.93,561.72 779.67,531.29 815.61,497.33 832.8,453.48 848.19,445.26 859.57,437.35 883.37,428.85 905.62,435.8 916.27,443.07 931.53,453.49 934.93,473.06 936.85,485.62 946.57,492.26 964.52,500.02 977.31,508.75 979.81,514.96 939.07,532.89 896.16,560.59 886.37,591.4 881.78,633.27 892.72,653.49 892.99,659.67 868.47,640.68 856.94,626.8 845.45,624.96 837.33,629.16 820.16,627.94 798.07,621.85 786.01,609.87 "/>
<polygon fill="#CCA002" points="779.46,537.77 803.64,535.84 823.08,550.59 847.72,553.4 863.2,556.14 868.47,556.5 866.32,551.56 826.73,543.09 810.65,528.82 783.13,528.02 "/>
<polygon fill="#CCA002" points="830.32,461.1 838.12,483.16 858.87,495.99 871.06,517.04 879.58,529.96 881.98,534.54 876.74,534.12 853.64,501.49 834.64,491.5 823.1,467.29 "/>
<polygon fill="#6AAF96" points="777.58,569.68 791.02,561.89 808.92,564.79 826.04,573.27 846.15,587 848.24,598.02 837.7,613.45 839.55,619.38 855.64,595.83 848.16,578.16 814.36,556.82 788.79,550.04 773.1,562.2 "/>
<polygon fill="#6AAF96" points="861.42,441.02 859.88,455.66 869.99,471.19 884.88,484.34 905.83,498.65 916.79,497.26 926.55,482.97 932.75,482.9 917.87,504.69 898.57,503.14 864.95,478.57 848.09,457.17 852.7,439.15 "/>
<polygon fill="#CCB02F" points="897.05,649.01 893.66,643.95 891.22,628.26 887.64,615.75 890.4,596.79 897.16,576.07 905.72,561.61 919.52,545.53 929.04,536.68 940.28,531.61 955.06,521.97 967.52,517.03 978.39,513.29 984.9,518.34 974.87,510.56 962.61,515.66 939.27,524.34 915.73,537.79 907.73,548.1 898.26,555.82 890.42,582.2 882.01,602.46 880.29,624.81 888.16,635.63 886.83,646.76 "/>
<ellipse fill="#E9D102" fill-opacity="0.8" transform="matrix(0.2863 -0.9581 0.9581 0.2863 202.1183 1178.1416)" cx="891.86" cy="453.4" rx="21.55" ry="27.05"/>
<ellipse fill="#D99C26" transform="matrix(0.2863 -0.9581 0.9581 0.2863 203.5574 1173.8391)" cx="889.69" cy="450.29" rx="19.18" ry="24.08"/>
<ellipse fill="#B4BE9B" transform="matrix(0.2863 -0.9581 0.9581 0.2863 206.9438 1173.1061)" cx="890.9" cy="447.65" rx="16.5" ry="20.71"/>
<ellipse fill="#060604" transform="matrix(0.2863 -0.9581 0.9581 0.2863 208.3472 1171.8685)" cx="890.77" cy="446.09" rx="15.59" ry="19.57"/>
<ellipse fill="#F4F3EB" transform="matrix(0.2863 -0.9581 0.9581 0.2863 219.1158 1179.1071)" cx="901.01" cy="442.48" rx="3.07" ry="3.86"/>
<ellipse fill="#E9D102" fill-opacity="0.8" transform="matrix(0.2863 -0.9581 0.9581 0.2863 7.3031 1204.9678)" cx="812.46" cy="597.58" rx="27.06" ry="33.97"/>
<ellipse fill="#D99C26" transform="matrix(0.2863 -0.9581 0.9581 0.2863 2.5158 1208.2999)" cx="812.31" cy="602.46" rx="22.34" ry="28.05"/>
<ellipse fill="#B4BE9B" transform="matrix(0.2863 -0.9581 0.9581 0.2863 -1.4286 1209.1538)" cx="810.91" cy="605.54" rx="19.21" ry="24.12"/>
<ellipse fill="#060604" transform="matrix(0.2863 -0.9581 0.9581 0.2863 -3.0633 1210.5952)" cx="811.06" cy="607.35" rx="18.16" ry="22.8"/>
<ellipse fill="#F4F3EB" transform="matrix(0.2863 -0.9581 0.9581 0.2863 -15.6066 1202.1638)" cx="799.13" cy="611.56" rx="3.58" ry="4.5"/>
<polyline fill="#FFEC00" fill-opacity="0.8" points="953.28,501.38 960.95,504.97 960.45,513.03 953.41,506.71 951.46,510.88 943.26,507.04 946.76,503.26 949.14,494.49 953.28,501.38 "/>
<polygon fill="#D75F5B" points="778.48,534.65 776.03,501.95 792.16,489.99 792.16,463.71 808.78,452.9 826.89,448.7 826.03,469.91 808.78,498.07 782.39,523.43 "/>
<polygon fill="#E5E1A2" points="772.94,628.23 792.01,659.12 811.72,676.5 816.84,684.57 818.97,688.72 821.11,678.43 818.12,681.11 792.95,654.94 776.74,629.88 783.01,616.04 780.96,610.54 "/>
<ellipse fill="#E5E1A2" transform="matrix(0.5 -0.866 0.866 0.5 -43.8316 1036.3939)" cx="875.63" cy="556.16" rx="5.72" ry="2.12"/>
<ellipse fill="#E5E1A2" transform="matrix(0.5 -0.866 0.866 0.5 -27.5773 1036.4519)" cx="883.8" cy="542.11" rx="5.72" ry="2.12"/>
<polygon opacity="0.4" fill="#DAE0D7" points="798.04,523 824.83,521.37 833.32,538.35 865.77,545.48 872.37,537.09 852.54,508.1 832.41,510.56 826.89,486.59 825.81,512.87 "/>
<polygon fill="#DCFC85" points="857.12,555.73 861.9,595.4 871.38,628.4 873.41,622.94 879.69,625.1 867.34,593.24 861.42,556.73 "/>
<polygon fill="#DCFC85" points="876.1,524.69 914.8,515.75 948.99,512.95 944.64,516.45 948.93,521.04 914.76,521.04 878.59,527.99 "/>
<polygon fill="#865470" points="893.11,643.34 900.13,611.3 919.01,604.46 926.53,579.28 945.54,573.68 964.1,574.84 957.2,594.91 932.61,616.95 900.07,633.7 "/>
<polygon fill="#93C6A9" points="989.55,531.95 989.96,547.93 1004.86,566.73 1025.27,583.65 1053.33,602.81 1066.61,603 1076.37,588.72 1083.99,589.61 1069.11,611.41 1045.1,606.64 999.82,574.11 975.68,547.74 978.52,528.51 "/>
<polygon fill="#93C6A9" points="906.68,645.05 922.21,638.89 945.41,645.53 968.69,658.25 996.75,677.41 1001.49,690.11 991.07,705.36 994.54,712.34 1010.43,689.07 997.61,667.92 950.79,637.65 917.13,625.22 899.59,635.83 "/>
<polygon fill="#E5E1A2" points="898.73,412.77 928.74,419.55 949.49,431.47 957.39,433.36 961.24,433.88 954.88,439.27 955.49,435.68 926.19,421.81 901.53,415.65 894.44,425.96 889.68,425.96 "/>
<polygon opacity="0.4" fill="#DAE0D7" points="929.65,621.98 969.75,619.54 982.47,644.97 1031.05,655.64 1040.94,643.09 1011.24,599.67 981.1,603.36 972.84,567.48 971.22,606.82 "/>
<polygon fill="#CF4C39" points="1010.46,542.78 1010.72,552.72 1019.98,564.4 1032.66,574.91 1050.1,586.82 1058.35,586.94 1064.41,578.06 1069.15,578.62 1059.9,592.16 1044.98,589.2 1016.84,568.99 1001.84,552.6 1003.61,540.65 "/>
<polygon fill="#8C2241" points="1022.35,541.47 1022.18,549.25 1028.74,558.06 1037.93,565.83 1050.65,574.52 1056.88,574.31 1061.78,567.13 1065.34,567.4 1057.86,578.35 1046.7,576.57 1026.21,561.77 1015.49,549.48 1017.25,540.05 "/>
<polygon fill="#CF4C39" points="981.72,695.14 981.47,685.21 972.21,673.52 959.52,663.01 942.08,651.1 933.83,650.98 927.77,659.86 923.03,659.3 932.28,645.76 947.2,648.72 975.34,668.94 990.34,685.33 988.58,697.27 "/>
<polygon fill="#8C2241" points="970.8,695.8 970.98,688.02 964.42,679.21 955.23,671.44 942.5,662.75 936.28,662.96 931.38,670.14 927.82,669.87 935.3,658.92 946.45,660.7 966.95,675.5 977.67,687.79 975.9,697.22 "/>
<polyline fill="#1C1468" fill-opacity="0.8" points="1028.75,674.42 1028.75,687.16 1017.44,691.61 1021.57,678 1014.63,678 1014.63,664.38 1022.02,666.73 1035.48,664.38 1028.75,674.42 "/>
</g>
<g id="f08_antenna_branch" class="bug-left-antenna">
<polyline fill="#FF8C00" fill-opacity="0.8" points="364.58,296 351.17,298.9 343.9,288.01 359.18,289.25 357.6,281.95 371.94,278.85 371.14,287.16 376.69,300.8 364.58,296 "/>
</g>
<g id="f08_red_overlay" class="layer-red">
<polygon opacity="0.8" fill="#D60023" points="853.09,342.95 881.45,284.33 859.6,153.9 773.5,79.57 689.47,38.92 602.08,50.33 560.22,88.83 503.65,158.34 493.26,224.13 447.03,314.59 489.69,367.9 572.89,390.26 687.49,436.36 747.58,392.28 "/>
</g>
<g id="f08_overlays" class="layer-overlays">
<polygon opacity="0.8" fill="#FF9800" points="1078.98,660 1145.25,660 1255.06,586.57 1285,481.06 1285,391.44 1235.81,320.67 1181.99,300.58 1093.23,280.74 1028.36,299.28 924.99,297.14 895.05,356.31 911.45,437.58 920,555.92 987.01,589.42 "/>
<polygon opacity="0.8" fill="#FFCB00" points="8.8,900 8.8,710.74 57.64,552.65 93.7,412.95 168.09,358.58 299.58,469.58 518.97,822.22 539.72,900 "/>
<polygon fill="#FF9800" points="178.79,499.09 217.04,499.09 243.72,643.22 263.54,445.48 298.67,456.44 322.95,422.83 343.72,422.83 300.19,687.22 306.84,900 215.43,900 "/>
</g>
</svg>
