<?xml version="1.0" encoding="utf-8"?>
<svg version="1.1" xmlns="http://www.w3.org/2000/svg" viewBox="0 0 1440 900">
<rect id="f18_bg" class="scene-bg" fill="#36230F" width="1440" height="900"/>
<g id="f18_bug_body" class="bug-main-body">
<polygon fill="#6D8B5C" points="324.66,257.88 383.56,255.18 440.5,274.33 505.33,316.54 536.12,338.87 509.3,383.28 501,440.19 461.95,445.92 382.93,435.02 345.27,421.72 313.19,412 294.85,404.05 284.39,385.39 272.88,326.43 311.76,272.18 "/>
<polygon fill="#6D8B5C" points="569.73,373.8 538.52,447.1 572.18,453.22 593.06,438.55 598.9,419.37 597.85,409.03 588.62,394.11 "/>
<circle fill="#F4C837" cx="569.05" cy="432.19" r="15.24"/>
<circle opacity="0.2" fill="#C7B16F" cx="566.86" cy="431.26" r="15.24"/>
<circle opacity="0.4" fill="#EE9D20" cx="569.28" cy="432.32" r="13.19"/>
<ellipse opacity="0.3" fill="#F7E0B8" transform="matrix(0.9622 -0.2723 0.2723 0.9622 -86.9334 173.0767)" cx="580.11" cy="399.75" rx="13.6" ry="13.64"/>
<ellipse fill="#F5DBA9" transform="matrix(0.9622 -0.2723 0.2723 0.9622 -87.8181 172.8406)" cx="578.81" cy="402.82" rx="13.56" ry="13.64"/>
<polygon fill="#F4957E" points="599.59,420.01 592.16,433.32 612.66,440.26 "/>
<circle fill="#BCAB8E" cx="578.87" cy="402.76" r="5.95"/>
<circle fill="#746B40" cx="579.51" cy="401.61" r="3.16"/>
<circle fill="#745C2B" cx="579.51" cy="401.61" r="2.04"/>
<circle fill="#FAE9CC" cx="570.86" cy="433.8" r="6.13"/>
<circle fill="#7A8455" cx="570.86" cy="433.8" r="3.16"/>
<polygon fill="#F0BA8A" points="298.36,309.89 408.96,329.89 407.22,357.82 292.34,340.26 "/>
<polygon fill="#9DA12D" points="481.06,307.92 460.28,340.93 456.33,364.58 510.15,380.02 535.47,343.43 "/>
<polygon fill="#E5E1A2" points="288.16,336.43 511.54,380.51 510.18,386.9 286.98,343.43 "/>
<polygon fill="#E1CF58" points="407.76,331.09 406.12,357.47 455.01,368.31 459.13,341.29 "/>
<polygon opacity="0.3" fill="#F2DF9C" points="407.32,332.13 405.93,357.81 452.57,368.69 456.31,342.4 "/>
<polygon fill="#F5AE51" points="327.55,320.91 324.7,332.98 386.65,341.74 386.55,348.02 407.47,353.37 411.87,332.72 399.63,328.05 "/>
<polygon fill="#BCBBB0" points="297.74,316.85 321.64,321.15 319.24,325.2 296.48,320.49 "/>
<polygon fill="#ECA08E" points="319.57,336.94 387.96,346.37 385.96,352.57 402.49,357.91 403.2,360.41 316.37,345.84 "/>
<polygon fill="#DFB155" points="296.35,323.48 321.24,329.58 319.16,333.3 295.43,326.87 "/>
<polygon fill="#BCBBB0" points="294.94,329.86 318.5,335.71 315.84,339.6 293.44,333.42 "/>
<polygon fill="#DEB381" points="369.31,329.12 368.39,332.51 410.14,340.72 410.6,336.21 "/>
<polygon fill="#CCBFAB" points="367.72,336.96 366.8,340.35 408.56,348.57 409.02,344.06 "/>
<polygon fill="#B6AF9C" points="365.88,343.74 364.96,347.13 406.72,355.35 407.18,350.83 "/>
<polygon fill="#98C196" points="534.89,343.6 547.1,350 561.14,365.59 569.89,374.38 537.78,446.69 514.2,445.22 500.9,440.22 509.23,383.41 "/>
<polygon fill="#A99E5C" points="285.32,354.61 507.7,391.7 504.28,393.11 281.89,356.18 "/>
<polygon fill="#B9D5B9" points="284.81,368.63 506.87,413.28 503.43,415.11 281.36,370.67 "/>
<polygon fill="#EBDFA2" points="284.31,384.1 506.37,428.76 502.93,430.59 280.86,386.15 "/>
<polygon fill="#9DA12D" points="500.07,441.71 491.97,442.75 488.43,462.53 501.08,465.71 508.33,444.38 "/>
<polygon fill="#98C196" points="493.93,466.61 487.59,481.66 556.9,512.96 575.21,564.52 578.26,563.66 560.26,513.59 492.32,479.65 495.79,467.04 "/>
<polygon fill="#B6AF9C" points="534.63,317.38 541.57,313.51 543.77,315.58 533.3,335.78 526.88,330.95 "/>
<polygon fill="#9DA12D" points="544.93,312.56 554.06,300.09 571.12,310.16 589.07,328.27 598.11,336.97 616.06,340.66 658.01,336.3 656.92,332.45 601.84,334.67 582.89,319.27 566.48,301.66 553.85,297.97 542.45,310.92 "/>
<polygon fill="#DEB381" points="489.59,263.16 496.76,266.1 499.51,267.23 481.49,299.09 469.6,293.28 "/>
<polygon fill="#E5E1A2" points="503.46,248.2 470.24,229.67 439.34,222.71 430.47,217.92 426.59,215.26 426.13,224.7 429.55,221.31 469.94,233.54 497.9,248.28 492.66,262.29 496.76,266.1 "/>
<polygon fill="#6D8B5C" points="394.45,438.06 396.52,445.37 396.52,462.88 399.25,463.76 400.79,440.39 "/>
<polygon fill="#DEB381" points="396.98,464.49 333.5,507.83 325.45,510.11 327.42,517.05 332.86,512.19 399.22,468.18 402.89,462.82 "/>
<polygon fill="#B9D5B9" points="335.57,420.04 333.84,449.32 335.5,450.73 341.52,423.36 "/>
<polygon fill="#ECA08E" points="333.97,453.39 282.54,464.12 281.47,468.01 297.78,463.58 330.28,457.18 336.23,455.09 "/>
<polygon fill="#9DA12D" points="281.31,467.16 272.42,466.7 277.85,477.06 "/>
<polygon fill="#ECA08E" points="377.57,232.26 364.75,233.39 363.95,254.9 376.36,254.52 "/>
<polygon fill="#9DA12D" points="372.29,231.26 372.34,209.34 373.79,205.62 297.2,184.91 287.19,182.73 286.51,189.18 295.37,187.3 370.1,208.09 368.31,230.5 "/>
<polygon fill="#ECA08E" points="318.65,162.74 311.56,173.49 327.91,187.49 335.32,177.53 "/>
<polygon fill="#DEB381" points="361.43,206.72 359.27,199.28 358.44,196.42 394.58,190.67 397.45,203.59 "/>
<polygon opacity="0.3" fill="#F2DF9C" points="332.98,185.32 332.54,200.91 359.02,208.14 360.79,192.21 "/>
<polygon opacity="0.3" fill="#F2DF9C" points="385.04,457.92 383.65,483.61 430.28,494.49 434.03,468.19 "/>
<polygon fill="#DEB381" points="417.11,489.33 414.95,481.89 414.13,479.04 450.27,473.29 453.13,486.21 "/>
<polygon fill="#ECA08E" points="392.81,462.8 385.72,473.54 402.07,487.54 409.49,477.58 "/>
<polygon fill="#E5E1A2" points="350.62,272.77 350.74,283.92 343.54,277.18 333.28,275.5 331.19,265.8 341.61,270.92 342.52,265.34 353.49,267.13 "/>
<polygon fill="#ECA08E" points="455.05,508.05 494,522.69 544.89,560.64 554.24,561.46 547.18,563.43 492.04,526.19 "/>
<polygon fill="#E5E1A2" points="455.74,253.72 494.69,268.35 545.57,306.3 554.92,307.13 547.87,309.1 492.72,271.85 "/>
<polyline fill="#FF8C00" fill-opacity="0.8" points="448.45,323.36 436.06,326.87 428.62,317.09 443,317.36 441.09,310.62 454.33,306.87 454.08,314.7 460.07,327.14 448.45,323.36 "/>
<polygon fill="#CCA002" points="926.1,587.91 947.05,586.24 963.89,599.02 985.24,601.45 998.65,603.83 1003.22,604.14 1001.36,599.86 967.05,592.52 953.12,580.16 929.28,579.46 "/>
<polygon fill="#CCA002" points="970.16,521.49 976.92,540.6 994.9,551.72 1005.46,569.95 1012.84,581.15 1014.92,585.11 1010.38,584.75 990.37,556.48 973.91,547.83 963.91,526.85 "/>
<polygon fill="#6AAF96" points="924.47,615.56 936.11,608.81 951.62,611.32 966.45,618.67 983.88,630.56 985.69,640.11 976.55,653.48 978.16,658.62 992.1,638.21 985.62,622.91 956.34,604.42 934.18,598.54 920.59,609.08 "/>
<polygon fill="#6AAF96" points="997.11,504.09 995.77,516.78 1004.53,530.23 1017.43,541.62 1035.59,554.02 1045.08,552.82 1053.54,540.44 1058.91,540.37 1046.01,559.26 1029.29,557.91 1000.16,536.63 985.56,518.08 989.55,502.47 "/>
<polygon fill="#93C6A9" points="1108.12,582.87 1108.47,596.72 1121.38,613.01 1139.07,627.66 1163.38,644.26 1174.88,644.43 1183.34,632.05 1189.94,632.83 1177.04,651.71 1156.25,647.58 1117.02,619.4 1096.1,596.55 1098.56,579.89 "/>
<polygon fill="#93C6A9" points="1036.32,680.86 1049.77,675.52 1069.88,681.27 1090.05,692.29 1114.36,708.9 1118.46,719.9 1109.44,733.12 1112.44,739.16 1126.21,719 1115.1,700.67 1074.54,674.45 1045.37,663.68 1030.18,672.87 "/>
<polygon fill="#CF4C39" points="1126.24,592.26 1126.46,600.86 1134.48,610.99 1145.47,620.09 1160.58,630.41 1167.73,630.51 1172.98,622.82 1177.08,623.3 1169.07,635.04 1156.14,632.47 1131.76,614.96 1118.77,600.76 1120.3,590.41 "/>
<polygon fill="#8C2241" points="1136.54,591.12 1136.39,597.86 1142.07,605.5 1150.03,612.23 1161.06,619.76 1166.45,619.57 1170.7,613.35 1173.78,613.58 1167.3,623.07 1157.63,621.53 1139.88,608.71 1130.59,598.06 1132.12,589.89 "/>
<polygon fill="#CF4C39" points="1101.33,724.26 1101.11,715.65 1093.09,705.53 1082.1,696.42 1066.99,686.1 1059.84,686 1054.59,693.69 1050.49,693.21 1058.5,681.47 1071.43,684.04 1095.81,701.55 1108.8,715.75 1107.27,726.11 "/>
<polygon fill="#8C2241" points="1091.88,724.82 1092.03,718.09 1086.34,710.45 1078.38,703.72 1067.36,696.19 1061.96,696.37 1057.72,702.59 1054.64,702.37 1061.12,692.88 1070.78,694.42 1088.54,707.24 1097.82,717.89 1096.29,726.06 "/>
</g>
<g id="f18_bug_legs" class="bug-main-legs">
<polygon fill="#BCAB8E" points="593.06,438.55 625.98,473.05 629.43,512.83 630.4,524.06 633.96,536.61 623.75,539.5 622.56,475.25 590.9,441.84 "/>
<polygon fill="#BCAB8E" points="601.56,415.49 645.69,401.12 684.02,342.24 691.52,333.07 682.49,331.24 665.85,364.01 650.33,387.67 636.37,401.88 600.26,410.92 "/>
<polygon fill="#D4BDB0" points="545.47,354.03 577.59,314.58 220.68,101.1 199.72,107.03 540.79,310.38 554.74,319.92 563.25,320.89 552.02,336.81 540.89,350.46 "/>
<polygon fill="#D4BDB0" points="276.03,352.85 247.22,388.25 567.5,579.82 586.3,574.5 280.24,392.03 267.72,383.46 260.08,382.6 270.16,368.31 280.15,356.06 "/>
<polyline fill="#BCAB8E" points="528.91,435.51 518.65,433.83 516.55,424.14 526.98,429.25 527.89,423.67 538.86,425.46 535.99,431.1 536.11,442.25 528.91,435.51 "/>
</g>
<g id="f18_leaf_a" class="leaf-a">
<polygon fill="#4F2413" points="182.1,147.01 131.17,237.86 147.46,444.8 269.08,566.91 391.95,635.78 526.76,622.72 595.64,564.37 691.03,457.95 715.46,354.78 797.82,214.73 739.71,128.22 615.71,88.25 446.92,9.06 349.5,75.17 "/>
</g>
<g id="f18_leaf_b" class="leaf-b">
<polygon fill="#424722" points="1231.98,758 1291.81,672.75 1296.47,465.22 1187.78,331.47 1072.49,250.56 937.06,249.95 862.64,301.06 757,397.32 722.29,497.5 626.23,628.53 675.31,720.46 794.65,772.73 954.59,868.55 1058.18,812.59 "/>
</g>
</svg>
