<?xml version="1.0" encoding="utf-8"?>
<svg version="1.1" xmlns="http://www.w3.org/2000/svg" viewBox="0 0 1440 900">
<rect id="f09_bg" class="scene-bg" fill="#F9F3B5" x="2.06" y="1.07" width="1437.94" height="898.79"/>
<g id="f09_pieces" class="red-pieces">
<polygon fill="#D60023" points="47.48,71 47.48,97.63 59.83,108.48 97.63,108.48 110.9,102.3 110.9,67.43 91.55,44.65 59.23,44.65 "/>
<polygon fill="#D60023" points="125.32,71 125.32,97.63 137.67,108.48 175.47,108.48 188.74,102.3 188.74,67.43 169.38,44.65 137.07,44.65 "/>
<polygon fill="#D60023" points="207.68,71 207.68,97.63 220.04,108.48 257.83,108.48 271.11,102.3 271.11,67.43 251.75,44.65 219.43,44.65 "/>
<polygon fill="#D60023" points="288.4,69.77 288.4,96.39 300.76,107.25 338.55,107.25 351.83,101.07 351.83,66.19 332.47,43.41 300.16,43.41 "/>
<polygon fill="#D60023" points="365.01,69.77 365.01,96.39 377.36,107.25 415.16,107.25 428.43,101.07 428.43,66.19 409.07,43.41 376.76,43.41 "/>
<polygon fill="#D60023" points="443.26,69.77 443.26,96.39 455.61,107.25 493.41,107.25 506.68,101.07 506.68,66.19 487.32,43.41 455.01,43.41 "/>
<polygon fill="#D60023" points="521.09,71 521.09,97.63 533.45,108.48 571.24,108.48 584.52,102.3 584.52,67.43 565.16,44.65 532.84,44.65 "/>
<polygon fill="#D60023" points="612.11,70.59 612.11,97.21 624.46,108.07 662.26,108.07 675.53,101.89 675.53,67.02 656.18,44.24 623.86,44.24 "/>
<polygon fill="#D60023" points="689.95,70.59 689.95,97.21 702.3,108.07 740.1,108.07 753.37,101.89 753.37,67.02 734.01,44.24 701.7,44.24 "/>
<polygon fill="#D60023" points="772.31,70.59 772.31,97.21 784.67,108.07 822.46,108.07 835.74,101.89 835.74,67.02 816.38,44.24 784.06,44.24 "/>
<polygon fill="#D60023" points="853.03,69.36 853.03,95.98 865.39,106.83 903.18,106.83 916.46,100.66 916.46,65.78 897.1,43 864.78,43 "/>
<polygon fill="#D60023" points="929.64,69.36 929.64,95.98 941.99,106.83 979.79,106.83 993.06,100.66 993.06,65.78 973.7,43 941.39,43 "/>
<polygon fill="#D60023" points="1007.88,69.36 1007.88,95.98 1020.24,106.83 1058.03,106.83 1071.31,100.66 1071.31,65.78 1051.95,43 1019.63,43 "/>
<polygon fill="#D60023" points="1085.72,70.59 1085.72,97.21 1098.08,108.07 1135.87,108.07 1149.14,101.89 1149.14,67.02 1129.79,44.24 1097.47,44.24 "/>
<polygon fill="#D60023" points="52.01,162.02 52.01,188.64 64.36,199.5 102.16,199.5 115.43,193.32 115.43,158.45 96.08,135.66 63.76,135.66 "/>
<polygon fill="#D60023" points="129.85,162.02 129.85,188.64 142.2,199.5 180,199.5 193.27,193.32 193.27,158.45 173.91,135.66 141.6,135.66 "/>
<polygon fill="#D60023" points="212.21,162.02 212.21,188.64 224.57,199.5 262.36,199.5 275.64,193.32 275.64,158.45 256.28,135.66 223.97,135.66 "/>
<polygon fill="#D60023" points="292.93,160.79 292.93,187.41 305.29,198.26 343.09,198.26 356.36,192.09 356.36,157.21 337,134.43 304.69,134.43 "/>
<polygon fill="#D60023" points="369.54,160.79 369.54,187.41 381.89,198.26 419.69,198.26 432.96,192.09 432.96,157.21 413.6,134.43 381.29,134.43 "/>
<polygon fill="#D60023" points="447.79,160.79 447.79,187.41 460.14,198.26 497.94,198.26 511.21,192.09 511.21,157.21 491.85,134.43 459.54,134.43 "/>
<polygon fill="#D60023" points="525.62,162.02 525.62,188.64 537.98,199.5 575.77,199.5 589.05,193.32 589.05,158.45 569.69,135.66 537.37,135.66 "/>
<polygon fill="#D60023" points="616.64,161.61 616.64,188.23 628.99,199.09 666.79,199.09 680.06,192.91 680.06,158.03 660.71,135.25 628.39,135.25 "/>
<polygon fill="#D60023" points="694.48,161.61 694.48,188.23 706.83,199.09 744.63,199.09 757.9,192.91 757.9,158.03 738.54,135.25 706.23,135.25 "/>
<polygon fill="#D60023" points="776.84,161.61 776.84,188.23 789.2,199.09 826.99,199.09 840.27,192.91 840.27,158.03 820.91,135.25 788.59,135.25 "/>
<polygon fill="#D60023" points="857.56,160.37 857.56,187 869.92,197.85 907.71,197.85 920.99,191.67 920.99,156.8 901.63,134.02 869.31,134.02 "/>
<polygon fill="#D60023" points="934.17,160.37 934.17,187 946.52,197.85 984.32,197.85 997.59,191.67 997.59,156.8 978.23,134.02 945.92,134.02 "/>
<polygon fill="#D60023" points="1012.41,160.37 1012.41,187 1024.77,197.85 1062.56,197.85 1075.84,191.67 1075.84,156.8 1056.48,134.02 1024.17,134.02 "/>
<polygon fill="#D60023" points="1090.25,161.61 1090.25,188.23 1102.61,199.09 1140.4,199.09 1153.67,192.91 1153.67,158.03 1134.32,135.25 1102,135.25 "/>
<polygon fill="#D60023" points="52.01,246.86 52.01,273.48 64.36,284.34 102.16,284.34 115.43,278.16 115.43,243.28 96.08,220.5 63.76,220.5 "/>
<polygon fill="#D60023" points="129.85,246.86 129.85,273.48 142.2,284.34 180,284.34 193.27,278.16 193.27,243.28 173.91,220.5 141.6,220.5 "/>
<polygon fill="#D60023" points="212.21,246.86 212.21,273.48 224.57,284.34 262.36,284.34 275.64,278.16 275.64,243.28 256.28,220.5 223.97,220.5 "/>
<polygon fill="#D60023" points="292.93,245.62 292.93,272.25 305.29,283.1 343.09,283.1 356.36,276.92 356.36,242.05 337,219.27 304.69,219.27 "/>
<polygon fill="#D60023" points="369.54,245.62 369.54,272.25 381.89,283.1 419.69,283.1 432.96,276.92 432.96,242.05 413.6,219.27 381.29,219.27 "/>
<polygon fill="#D60023" points="447.79,245.62 447.79,272.25 460.14,283.1 497.94,283.1 511.21,276.92 511.21,242.05 491.85,219.27 459.54,219.27 "/>
<polygon fill="#D60023" points="525.62,246.86 525.62,273.48 537.98,284.34 575.77,284.34 589.05,278.16 589.05,243.28 569.69,220.5 537.37,220.5 "/>
<polygon fill="#D60023" points="616.64,246.45 616.64,273.07 628.99,283.92 666.79,283.92 680.06,277.75 680.06,242.87 660.71,220.09 628.39,220.09 "/>
<polygon fill="#D60023" points="694.48,246.45 694.48,273.07 706.83,283.92 744.63,283.92 757.9,277.75 757.9,242.87 738.54,220.09 706.23,220.09 "/>
<polygon fill="#D60023" points="776.84,246.45 776.84,273.07 789.2,283.92 826.99,283.92 840.27,277.75 840.27,242.87 820.91,220.09 788.59,220.09 "/>
<polygon fill="#D60023" points="857.56,245.21 857.56,271.83 869.92,282.69 907.71,282.69 920.99,276.51 920.99,241.64 901.63,218.85 869.31,218.85 "/>
<polygon fill="#D60023" points="934.17,245.21 934.17,271.83 946.52,282.69 984.32,282.69 997.59,276.51 997.59,241.64 978.23,218.85 945.92,218.85 "/>
<polygon fill="#D60023" points="1012.41,245.21 1012.41,271.83 1024.77,282.69 1062.56,282.69 1075.84,276.51 1075.84,241.64 1056.48,218.85 1024.17,218.85 "/>
<polygon fill="#D60023" points="1090.25,246.45 1090.25,273.07 1102.61,283.92 1140.4,283.92 1153.67,277.75 1153.67,242.87 1134.32,220.09 1102,220.09 "/>
<polygon fill="#D60023" points="51.6,330.05 51.6,356.67 63.95,367.53 101.75,367.53 115.02,361.35 115.02,326.48 95.66,303.69 63.35,303.69 "/>
<polygon fill="#D60023" points="129.44,330.05 129.44,356.67 141.79,367.53 179.59,367.53 192.86,361.35 192.86,326.48 173.5,303.69 141.19,303.69 "/>
<polygon fill="#D60023" points="211.8,330.05 211.8,356.67 224.16,367.53 261.95,367.53 275.23,361.35 275.23,326.48 255.87,303.69 223.55,303.69 "/>
<polygon fill="#D60023" points="292.52,328.82 292.52,355.44 304.88,366.29 342.67,366.29 355.95,360.11 355.95,325.24 336.59,302.46 304.27,302.46 "/>
<polygon fill="#D60023" points="369.12,328.82 369.12,355.44 381.48,366.29 419.27,366.29 432.55,360.11 432.55,325.24 413.19,302.46 380.88,302.46 "/>
<polygon fill="#D60023" points="447.37,328.82 447.37,355.44 459.73,366.29 497.52,366.29 510.8,360.11 510.8,325.24 491.44,302.46 459.12,302.46 "/>
<polygon fill="#D60023" points="525.21,330.05 525.21,356.67 537.57,367.53 575.36,367.53 588.63,361.35 588.63,326.48 569.28,303.69 536.96,303.69 "/>
<polygon fill="#D60023" points="616.23,329.64 616.23,356.26 628.58,367.12 666.38,367.12 679.65,360.94 679.65,326.06 660.29,303.28 627.98,303.28 "/>
<polygon fill="#D60023" points="694.06,329.64 694.06,356.26 706.42,367.12 744.21,367.12 757.49,360.94 757.49,326.06 738.13,303.28 705.81,303.28 "/>
<polygon fill="#D60023" points="776.43,329.64 776.43,356.26 788.79,367.12 826.58,367.12 839.85,360.94 839.85,326.06 820.5,303.28 788.18,303.28 "/>
<polygon fill="#D60023" points="857.15,328.4 857.15,355.02 869.51,365.88 907.3,365.88 920.57,359.7 920.57,324.83 901.22,302.05 868.9,302.05 "/>
<polygon fill="#D60023" points="933.75,328.4 933.75,355.02 946.11,365.88 983.9,365.88 997.18,359.7 997.18,324.83 977.82,302.05 945.5,302.05 "/>
<polygon fill="#D60023" points="1012,328.4 1012,355.02 1024.36,365.88 1062.15,365.88 1075.43,359.7 1075.43,324.83 1056.07,302.05 1023.75,302.05 "/>
<polygon fill="#D60023" points="1089.84,329.64 1089.84,356.26 1102.19,367.12 1139.99,367.12 1153.26,360.94 1153.26,326.06 1133.91,303.28 1101.59,303.28 "/>
<polygon fill="#D60023" points="51.6,414.89 51.6,441.51 63.95,452.37 101.75,452.37 115.02,446.19 115.02,411.31 95.66,388.53 63.35,388.53 "/>
<polygon fill="#D60023" points="129.44,414.89 129.44,441.51 141.79,452.37 179.59,452.37 192.86,446.19 192.86,411.31 173.5,388.53 141.19,388.53 "/>
<polygon fill="#D60023" points="211.8,414.89 211.8,441.51 224.16,452.37 261.95,452.37 275.23,446.19 275.23,411.31 255.87,388.53 223.55,388.53 "/>
<polygon fill="#D60023" points="292.52,413.65 292.52,440.28 304.88,451.13 342.67,451.13 355.95,444.95 355.95,410.08 336.59,387.3 304.27,387.3 "/>
<polygon fill="#D60023" points="369.12,413.65 369.12,440.28 381.48,451.13 419.27,451.13 432.55,444.95 432.55,410.08 413.19,387.3 380.88,387.3 "/>
<polygon fill="#D60023" points="447.37,413.65 447.37,440.28 459.73,451.13 497.52,451.13 510.8,444.95 510.8,410.08 491.44,387.3 459.12,387.3 "/>
<polygon fill="#D60023" points="525.21,414.89 525.21,441.51 537.57,452.37 575.36,452.37 588.63,446.19 588.63,411.31 569.28,388.53 536.96,388.53 "/>
<polygon fill="#D60023" points="616.23,414.48 616.23,441.1 628.58,451.95 666.38,451.95 679.65,445.78 679.65,410.9 660.29,388.12 627.98,388.12 "/>
<polygon fill="#D60023" points="694.06,414.48 694.06,441.1 706.42,451.95 744.21,451.95 757.49,445.78 757.49,410.9 738.13,388.12 705.81,388.12 "/>
<polygon fill="#D60023" points="776.43,414.48 776.43,441.1 788.79,451.95 826.58,451.95 839.85,445.78 839.85,410.9 820.5,388.12 788.18,388.12 "/>
<polygon fill="#D60023" points="857.15,413.24 857.15,439.86 869.51,450.72 907.3,450.72 920.57,444.54 920.57,409.67 901.22,386.88 868.9,386.88 "/>
<polygon fill="#D60023" points="933.75,413.24 933.75,439.86 946.11,450.72 983.9,450.72 997.18,444.54 997.18,409.67 977.82,386.88 945.5,386.88 "/>
<polygon fill="#D60023" points="1012,413.24 1012,439.86 1024.36,450.72 1062.15,450.72 1075.43,444.54 1075.43,409.67 1056.07,386.88 1023.75,386.88 "/>
<polygon fill="#D60023" points="1090.25,412.83 1090.25,439.45 1102.61,450.31 1140.4,450.31 1153.67,444.13 1153.67,409.25 1134.32,386.47 1102,386.47 "/>
<polygon fill="#D60023" points="1167.24,73.86 1167.24,100.49 1179.6,111.34 1217.4,111.34 1230.67,105.16 1230.67,70.29 1211.31,47.51 1179,47.51 "/>
<polygon fill="#D60023" points="1247.96,72.63 1247.96,99.25 1260.32,110.11 1298.12,110.11 1311.39,103.93 1311.39,69.05 1292.03,46.27 1259.72,46.27 "/>
<polygon fill="#D60023" points="1324.57,72.63 1324.57,99.25 1336.92,110.11 1374.72,110.11 1387.99,103.93 1387.99,69.05 1368.63,46.27 1336.32,46.27 "/>
<polygon fill="#D60023" points="1171.77,164.88 1171.77,191.5 1184.13,202.36 1221.93,202.36 1235.2,196.18 1235.2,161.3 1215.84,138.52 1183.53,138.52 "/>
<polygon fill="#D60023" points="1252.49,163.64 1252.49,190.27 1264.85,201.12 1302.65,201.12 1315.92,194.94 1315.92,160.07 1296.56,137.29 1264.25,137.29 "/>
<polygon fill="#D60023" points="1329.1,163.64 1329.1,190.27 1341.45,201.12 1379.25,201.12 1392.52,194.94 1392.52,160.07 1373.16,137.29 1340.85,137.29 "/>
<polygon fill="#D60023" points="1171.77,249.72 1171.77,276.34 1184.13,287.2 1221.93,287.2 1235.2,281.02 1235.2,246.14 1215.84,223.36 1183.53,223.36 "/>
<polygon fill="#D60023" points="1252.49,248.48 1252.49,275.1 1264.85,285.96 1302.65,285.96 1315.92,279.78 1315.92,244.91 1296.56,222.13 1264.25,222.13 "/>
<polygon fill="#D60023" points="1329.1,248.48 1329.1,275.1 1341.45,285.96 1379.25,285.96 1392.52,279.78 1392.52,244.91 1373.16,222.13 1340.85,222.13 "/>
<polygon fill="#D60023" points="1171.36,332.91 1171.36,359.53 1183.72,370.39 1221.51,370.39 1234.79,364.21 1234.79,329.33 1215.43,306.55 1183.11,306.55 "/>
<polygon fill="#D60023" points="1252.08,331.67 1252.08,358.3 1264.44,369.15 1302.23,369.15 1315.51,362.97 1315.51,328.1 1296.15,305.32 1263.83,305.32 "/>
<polygon fill="#D60023" points="1328.68,331.67 1328.68,358.3 1341.04,369.15 1378.84,369.15 1392.11,362.97 1392.11,328.1 1372.75,305.32 1340.44,305.32 "/>
<polygon fill="#D60023" points="1171.36,417.75 1171.36,444.37 1183.72,455.23 1221.51,455.23 1234.79,449.05 1234.79,414.17 1215.43,391.39 1183.11,391.39 "/>
<polygon fill="#D60023" points="1252.08,416.51 1252.08,443.13 1264.44,453.99 1302.23,453.99 1315.51,447.81 1315.51,412.94 1296.15,390.15 1263.83,390.15 "/>
<polygon fill="#D60023" points="1328.68,416.51 1328.68,443.13 1341.04,453.99 1378.84,453.99 1392.11,447.81 1392.11,412.94 1372.75,390.15 1340.44,390.15 "/>
</g>
</svg>
