<?xml version="1.0" encoding="utf-8"?>
<svg version="1.1" xmlns="http://www.w3.org/2000/svg" viewBox="0 0 1440 900">
<rect id="f17_bg" class="scene-bg" fill="#DEB381" width="1440" height="900"/>
<g id="f17_bug_body" class="bug-main-body">
<polygon fill="#6D8B5C" points="324.72,258.23 383.62,255.53 440.56,274.68 505.39,316.89 536.18,339.22 509.36,383.63 501.06,440.54 462.01,446.27 382.99,435.36 345.33,422.07 313.25,412.35 294.91,404.4 284.45,385.74 272.94,326.78 311.82,272.53 "/>
<polygon fill="#6D8B5C" points="569.79,374.15 538.58,447.45 572.24,453.57 593.12,438.9 598.96,419.72 597.91,409.38 588.68,394.46 "/>
<circle fill="#F4C837" cx="569.11" cy="432.54" r="15.24"/>
<circle opacity="0.2" fill="#C7B16F" cx="566.92" cy="431.61" r="15.24"/>
<circle opacity="0.4" fill="#EE9D20" cx="569.34" cy="432.66" r="13.19"/>
<ellipse opacity="0.3" fill="#F7E0B8" transform="matrix(0.9622 -0.2723 0.2723 0.9622 -87.0261 173.1063)" cx="580.17" cy="400.1" rx="13.6" ry="13.64"/>
<ellipse fill="#F5DBA9" transform="matrix(0.9622 -0.2723 0.2723 0.9622 -87.9108 172.8701)" cx="578.87" cy="403.17" rx="13.56" ry="13.64"/>
<polygon fill="#F4957E" points="599.65,420.36 592.22,433.67 612.72,440.61 "/>
<circle fill="#BCAB8E" cx="578.93" cy="403.11" r="5.95"/>
<circle fill="#746B40" cx="579.57" cy="401.96" r="3.16"/>
<circle fill="#745C2B" cx="579.57" cy="401.96" r="2.04"/>
<circle fill="#FAE9CC" cx="570.92" cy="434.15" r="6.13"/>
<circle fill="#7A8455" cx="570.92" cy="434.15" r="3.16"/>
<polygon fill="#F0BA8A" points="298.42,310.24 409.02,330.24 407.28,358.17 292.4,340.61 "/>
<polygon fill="#9DA12D" points="481.12,308.27 460.34,341.28 456.39,364.93 510.21,380.37 535.53,343.78 "/>
<polygon fill="#E5E1A2" points="288.22,336.78 511.6,380.86 510.24,387.24 287.04,343.78 "/>
<polygon fill="#E1CF58" points="407.82,331.44 406.18,357.82 455.07,368.66 459.19,341.64 "/>
<polygon opacity="0.3" fill="#F2DF9C" points="407.38,332.48 405.99,358.16 452.63,369.04 456.37,342.75 "/>
<polygon fill="#F5AE51" points="327.61,321.26 324.76,333.33 386.71,342.09 386.61,348.37 407.53,353.72 411.93,333.07 399.69,328.4 "/>
<polygon fill="#BCBBB0" points="297.8,317.2 321.7,321.5 319.3,325.54 296.54,320.84 "/>
<polygon fill="#ECA08E" points="319.63,337.29 388.02,346.72 386.02,352.92 402.55,358.26 403.26,360.76 316.43,346.19 "/>
<polygon fill="#DFB155" points="296.41,323.83 321.3,329.93 319.22,333.64 295.49,327.22 "/>
<polygon fill="#BCBBB0" points="295,330.21 318.56,336.06 315.9,339.94 293.5,333.77 "/>
<polygon fill="#DEB381" points="369.37,329.47 368.45,332.86 410.2,341.07 410.66,336.56 "/>
<polygon fill="#CCBFAB" points="367.78,337.31 366.86,340.7 408.62,348.91 409.08,344.4 "/>
<polygon fill="#B6AF9C" points="365.94,344.09 365.02,347.48 406.78,355.69 407.24,351.18 "/>
<polygon fill="#98C196" points="534.95,343.95 547.16,350.35 561.2,365.94 569.95,374.73 537.84,447.03 514.26,445.57 500.96,440.57 509.29,383.76 "/>
<polygon fill="#A99E5C" points="285.38,354.95 507.76,392.05 504.34,393.46 281.95,356.53 "/>
<polygon fill="#B9D5B9" points="284.87,368.97 506.93,413.63 503.49,415.46 281.42,371.02 "/>
<polygon fill="#EBDFA2" points="284.37,384.45 506.43,429.11 502.99,430.94 280.92,386.5 "/>
<polygon fill="#9DA12D" points="500.13,442.06 492.03,443.1 488.49,462.88 501.14,466.06 508.39,444.73 "/>
<polygon fill="#98C196" points="493.99,466.95 487.65,482.01 556.96,513.3 575.27,564.87 578.32,564.01 560.32,513.94 492.38,480 495.85,467.39 "/>
<polygon fill="#B6AF9C" points="534.69,317.73 541.63,313.86 543.83,315.93 533.36,336.12 526.94,331.3 "/>
<polygon fill="#9DA12D" points="544.99,312.91 554.12,300.44 571.18,310.5 589.13,328.61 598.17,337.32 616.12,341.01 658.07,336.64 656.98,332.8 601.9,335.01 582.95,319.61 566.54,302.01 553.91,298.32 542.51,311.27 "/>
<polygon fill="#DEB381" points="489.65,263.5 496.82,266.45 499.57,267.58 481.55,299.44 469.66,293.63 "/>
<polygon fill="#E5E1A2" points="503.52,248.55 470.3,230.02 439.4,223.06 430.53,218.27 426.65,215.61 426.19,225.05 429.61,221.66 470,233.89 497.96,248.63 492.72,262.64 496.82,266.45 "/>
<polygon fill="#6D8B5C" points="394.51,438.41 396.58,445.72 396.58,463.23 399.31,464.11 400.85,440.73 "/>
<polygon fill="#DEB381" points="397.04,464.84 333.56,508.18 325.51,510.46 327.48,517.4 332.92,512.54 399.28,468.53 402.95,463.17 "/>
<polygon fill="#B9D5B9" points="335.63,420.39 333.9,449.67 335.56,451.08 341.58,423.71 "/>
<polygon fill="#ECA08E" points="334.03,453.74 282.6,464.47 281.53,468.36 297.84,463.92 330.34,457.53 336.29,455.44 "/>
<polygon fill="#9DA12D" points="281.37,467.51 272.48,467.05 277.91,477.41 "/>
<polygon fill="#ECA08E" points="377.63,232.61 364.81,233.74 364.01,255.25 376.42,254.86 "/>
<polygon fill="#9DA12D" points="372.35,231.6 372.4,209.68 373.85,205.97 297.26,185.26 287.25,183.08 286.57,189.53 295.43,187.65 370.16,208.44 368.37,230.85 "/>
<polygon fill="#ECA08E" points="318.71,163.09 311.62,173.84 327.97,187.84 335.38,177.88 "/>
<polygon fill="#DEB381" points="361.49,207.07 359.33,199.63 358.5,196.77 394.64,191.02 397.51,203.94 "/>
<polygon opacity="0.3" fill="#F2DF9C" points="333.04,185.67 332.6,201.26 359.08,208.48 360.85,192.56 "/>
<polygon opacity="0.3" fill="#F2DF9C" points="385.1,458.27 383.71,483.95 430.34,494.83 434.09,468.54 "/>
<polygon fill="#DEB381" points="417.17,489.68 415.01,482.24 414.19,479.38 450.33,473.64 453.19,486.56 "/>
<polygon fill="#ECA08E" points="392.87,463.15 385.78,473.89 402.13,487.89 409.55,477.93 "/>
<polygon fill="#E5E1A2" points="350.68,273.12 350.8,284.27 343.6,277.53 333.34,275.85 331.25,266.15 341.67,271.27 342.58,265.69 353.55,267.48 "/>
<polygon fill="#ECA08E" points="455.11,508.4 494.06,523.04 544.95,560.99 554.3,561.81 547.24,563.78 492.1,526.53 "/>
<polygon fill="#E5E1A2" points="455.8,254.07 494.75,268.7 545.63,306.65 554.98,307.47 547.93,309.44 492.78,272.2 "/>
<polyline fill="#FF8C00" fill-opacity="0.8" points="448.51,323.71 436.12,327.22 428.68,317.44 443.06,317.71 441.15,310.96 454.39,307.22 454.14,315.05 460.13,327.49 448.51,323.71 "/>
<polygon fill="#CCA002" points="926.16,588.26 947.11,586.59 963.95,599.37 985.3,601.8 998.71,604.18 1003.28,604.49 1001.42,600.21 967.11,592.87 953.18,580.51 929.34,579.81 "/>
<polygon fill="#CCA002" points="970.22,521.84 976.98,540.95 994.96,552.07 1005.52,570.3 1012.9,581.5 1014.98,585.46 1010.44,585.1 990.43,556.83 973.97,548.17 963.97,527.2 "/>
<polygon fill="#6AAF96" points="924.53,615.91 936.17,609.16 951.68,611.67 966.51,619.01 983.94,630.91 985.75,640.46 976.61,653.83 978.22,658.97 992.16,638.56 985.68,623.26 956.4,604.76 934.24,598.89 920.65,609.43 "/>
<polygon fill="#6AAF96" points="997.17,504.43 995.83,517.12 1004.59,530.58 1017.49,541.97 1035.65,554.37 1045.14,553.17 1053.6,540.79 1058.97,540.72 1046.07,559.61 1029.35,558.26 1000.22,536.97 985.62,518.43 989.61,502.82 "/>
<polygon fill="#93C6A9" points="1108.18,583.22 1108.53,597.06 1121.44,613.36 1139.13,628.01 1163.44,644.61 1174.94,644.78 1183.4,632.4 1190,633.18 1177.1,652.06 1156.31,647.93 1117.08,619.75 1096.16,596.9 1098.62,580.24 "/>
<polygon fill="#93C6A9" points="1036.38,681.21 1049.83,675.87 1069.94,681.62 1090.11,692.64 1114.42,709.24 1118.52,720.25 1109.5,733.46 1112.5,739.51 1126.27,719.35 1115.16,701.02 1074.6,674.8 1045.43,664.03 1030.24,673.22 "/>
<polygon fill="#CF4C39" points="1126.3,592.61 1126.52,601.21 1134.54,611.34 1145.53,620.44 1160.64,630.76 1167.79,630.86 1173.04,623.17 1177.14,623.65 1169.13,635.39 1156.2,632.82 1131.82,615.31 1118.83,601.11 1120.36,590.76 "/>
<polygon fill="#8C2241" points="1136.6,591.47 1136.45,598.21 1142.13,605.84 1150.09,612.58 1161.12,620.11 1166.51,619.92 1170.76,613.7 1173.84,613.93 1167.36,623.42 1157.69,621.88 1139.94,609.06 1130.65,598.41 1132.18,590.24 "/>
<polygon fill="#CF4C39" points="1101.39,724.6 1101.17,716 1093.15,705.88 1082.16,696.77 1067.05,686.45 1059.91,686.35 1054.65,694.04 1050.55,693.56 1058.56,681.82 1071.49,684.39 1095.87,701.9 1108.86,716.1 1107.33,726.46 "/>
<polygon fill="#8C2241" points="1091.94,725.17 1092.09,718.44 1086.4,710.8 1078.44,704.07 1067.42,696.54 1062.02,696.72 1057.78,702.94 1054.7,702.72 1061.18,693.23 1070.84,694.76 1088.6,707.59 1097.88,718.24 1096.35,726.41 "/>
</g>
<g id="f17_bug_legs" class="bug-main-legs">
<polygon fill="#BCAB8E" points="593.12,438.9 626.04,473.4 629.49,513.17 630.46,524.41 634.02,536.96 623.81,539.85 622.62,475.6 590.96,442.19 "/>
<polygon fill="#BCAB8E" points="601.62,415.84 645.75,401.47 684.08,342.59 691.58,333.42 682.55,331.59 665.91,364.36 650.39,388.02 636.43,402.23 600.32,411.27 "/>
<polygon fill="#D4BDB0" points="545.53,354.38 577.65,314.93 220.74,101.45 199.78,107.38 540.85,310.72 554.8,320.27 563.31,321.23 552.08,337.16 540.95,350.8 "/>
<polygon fill="#D4BDB0" points="276.09,353.2 247.28,388.6 567.56,580.17 586.36,574.85 280.3,392.37 267.78,383.81 260.14,382.94 270.22,368.65 280.21,356.41 "/>
<polyline fill="#BCAB8E" points="528.97,435.86 518.71,434.18 516.62,424.48 527.04,429.6 527.95,424.02 538.92,425.81 536.05,431.45 536.17,442.6 528.97,435.86 "/>
</g>
<g id="f17_leaf_a" class="leaf-a">
<polygon fill="#4F2413" points="182.16,147.36 131.23,238.21 147.52,445.15 269.14,567.26 392.01,636.12 526.82,623.07 595.7,564.72 691.09,458.3 715.52,355.13 797.88,215.07 739.77,128.57 615.77,88.6 446.98,9.4 349.56,75.52 "/>
</g>
<g id="f17_leaf_b" class="leaf-b">
<polygon fill="#36230F" points="1232.04,758.35 1291.87,673.1 1296.53,465.57 1187.84,331.82 1072.55,250.91 937.12,250.3 862.7,301.41 757.06,397.67 722.35,497.85 626.29,628.88 675.37,720.81 794.71,773.08 954.65,868.89 1058.24,812.94 "/>
</g>
</svg>
