<?xml version="1.0" encoding="utf-8"?>
<svg version="1.1" xmlns="http://www.w3.org/2000/svg" viewBox="0 0 1440 900">
<rect id="f06_bg" class="scene-bg" fill="#F4E9D4" y="0.03" width="1437.05" height="898.97"/>
<g id="f06_back" class="layer-back">
<polygon opacity="0.9" fill="#C2D1C0" points="4.37,471.34 53.35,455.52 96.66,455.52 130.58,439.21 181.44,427.66 274.12,436.49 357.37,411.35 418.03,388.59 487.72,368.54 564.95,374.66 652.73,320.64 787.98,266.62 895.72,232.64 986.89,253.03 1069.02,280.55 1173.75,340.68 1213.3,381.68 1280.37,573.76 1338.01,628.8 1379.07,700.15 1412.6,771.15 1438.06,806.93 1438.06,862.67 1415.62,863.23 1191.84,610.79 975.97,492.89 851.65,417.47 602.25,483.38 433.47,561.52 326.86,560.17 220.59,547.93 110.99,532.65 28.86,535.36 4.37,536.84 "/>
</g>
<g id="f06_left_blob" class="layer-left">
<polygon fill="#FF9800" points="254.56,495.4 297.26,495.4 327.05,640.21 349.18,441.55 388.41,452.56 415.51,418.79 438.7,418.79 390.1,684.42 397.52,898.2 295.47,898.2 "/>
<polyline fill="#FFA100" points="381.85,0.14 409.32,162.44 471.02,162.44 458.49,0.14 372.31,0.14 "/>
</g>
<g id="f06_center" class="layer-center">
<polygon fill="#FF7800" points="463.09,0.14 478.4,177.75 450.04,498.65 557.67,498.65 514.94,181.23 521.71,0.14 "/>
<polygon fill="#E07689" points="721.1,0.03 695.81,203.22 755.1,203.22 768.09,72.71 768.09,0.03 "/>
<polygon fill="#FFB8A2" points="687.69,478.69 687.69,719.3 687.69,898.09 753.05,898.09 772.96,503.44 794.99,396.91 759.97,396.91 741.34,468.48 723.83,376.61 687.69,376.61 "/>
<polygon fill="#FFAD00" points="815.16,197.88 767.49,386.14 810.12,391.49 857.77,203.67 "/>
<polygon fill="#FF9380" points="687.18,207.29 687.18,360.05 723.32,360.05 755.51,216.87 734.05,217.88 732.8,207.29 "/>
<polygon fill="#FFBD27" points="526.14,0.03 541.77,0.03 622.13,0.03 613.2,144.44 535.66,132.09 "/>
<polygon fill="#DFCBD7" points="648.99,0.05 619.36,143.7 694.87,161.44 712.98,0 "/>
<polygon fill="#FF7173" points="559.18,347.07 621.94,337.44 621.94,554.19 613.01,743.98 605.57,900 550.51,900 573.94,516.77 "/>
<polygon fill="#B76D54" points="632.36,423.11 670.91,423.11 678.33,898.09 615.23,898.09 "/>
<polygon fill="#FFBF79" points="619.46,145.76 687.79,164.41 679.34,334.39 627.93,331.24 "/>
<polygon fill="#FF9800" points="530.97,137.64 547.15,280.05 609.65,283.82 612.86,146.21 "/>
</g>
<g id="f06_mid" class="layer-mid">
<polygon fill="#FF7400" points="785.8,119.84 840.92,105.98 879.93,202.43 888.23,300.28 847.93,295.75 866.56,196.45 811.78,184.86 "/>
<polygon fill="#5A3B42" points="781.29,0.03 829.27,0.03 837.02,95.47 785.8,117.47 778.41,103.61 "/>
<polygon fill="#FF9800" points="899.17,0.03 944.56,0.03 934,102.31 899.17,99.64 "/>
<polygon fill="#E07689" points="899.63,101.47 890.17,162.61 894.9,230.1 922.33,230.1 933.33,104.64 "/>
<polygon fill="#5A3B42" points="889.15,324.3 916.13,324.3 921.94,239.88 893.88,234.22 "/>
<polygon fill="#A4858F" points="547.15,287.75 551.87,346.21 621.33,332.6 609.65,284.72 "/>
<polygon fill="#FAB96C" points="627.32,340.31 627.32,406.82 674.78,406.82 674.78,334.39 "/>
<polygon fill="#B76D54" points="1016.08,9.64 1029.75,63.64 1039.65,342.47 1130.96,332.16 1113.91,121.08 1124.26,9.64 "/>
<polygon fill="#FF9800" points="1039.65,350.82 1130.96,332.16 1130.96,406.53 1219.51,248.71 1238.22,260 1130.96,497.14 1138.93,635.69 1024.28,635.69 "/>
</g>
<g id="f06_right_bug" class="layer-right">
<polygon fill="#5F4047" points="1024.28,646.37 1024.28,895.32 1141.21,899 1141.21,646.37 "/>
<polygon fill="#B69E17" points="1168.06,9.64 1203.97,9.64 1191.3,176.06 1203.97,276.4 1221.71,399.42 1260.22,507.91 1214.14,526.76 1168.06,248.71 "/>
<polygon fill="#FF9380" points="1219.51,649.78 1282.85,649.78 1294.32,898.09 1229.33,898.09 "/>
<polygon fill="#D7C762" points="1244.82,9.64 1251.91,176.06 1289.37,182.93 1292.87,96.29 1276.94,9.64 "/>
<polygon fill="#DFCBD7" points="1249.22,184.4 1286.07,193.73 1274.52,372.42 1280.02,642.9 1219.51,642.9 1206.08,526.76 1221.71,399.42 "/>
</g>
<g id="f06_towers" class="layer-towers">
<polygon fill="#CDD700" points="1365.99,9.64 1365.82,166.73 1347.12,290.93 1286.07,290.93 1300.37,80.33 1281.12,9.64 "/>
<polygon fill="#5A3B42" points="1301.25,879.16 1415.73,898.09 1389.5,778.37 1368.15,650.09 1358.49,528.97 1351.34,411.51 1354.92,294.86 1286.35,296.73 1282.77,557.84 "/>
</g>
<g id="f06_ground" class="layer-ground">
<polygon opacity="0.9" fill="#CDD700" points="639.33,898.09 729.1,756.66 1037.31,692.18 1265.24,692.18 1408.36,815.59 1440,898.09 "/>
<polygon fill="#F8F8F8" fill-opacity="0.9" points="1068.74,772.23 1139.11,828.04 1089.67,863.36 1190.39,844.43 1245.8,857.89 1327.23,799.7 1161.88,811.77 "/>
</g>
</svg>
