<?xml version="1.0" encoding="utf-8"?>
<!-- Generator: Adobe Illustrator 28.2.0, SVG Export Plug-In . SVG Version: 6.00 Build 0)  -->
<svg version="1.1" id="Layer_1" xmlns="http://www.w3.org/2000/svg" xmlns:xlink="http://www.w3.org/1999/xlink" x="0px" y="0px"
	 viewBox="0 0 1440 900" style="enable-background:new 0 0 1440 900;" xml:space="preserve">
<rect fill="#F4E9D4" x="0.6" y="1.83" width="1438.48" height="897.5"/>
<polygon opacity="0.8" fill="#C1BB51" points="-0.52,900.43 1440,900.43 1439.74,860.27 1346.77,852.53 1213.16,771.18 1025.69,810.07 748.54,860.56 464.33,875.27 108.2,762.93 -0.52,688.18 "/>
<polygon opacity="0.9" fill="#C1BB51" points="-0.11,254.14 168.86,224.2 325.78,183.85 497.94,106.34 736.63,58.75 895.59,76.88 1032.71,102.26 1376.57,1.18 1439.49,1.18 1439.46,52.87 1288.15,45.6 1065.72,149.86 708.19,167.54 471.24,254.14 219.14,353.84 -0.25,413.66 "/>
<polygon fill="#B8BE82" points="21.29,282.22 21.29,407.71 238.35,344.96 698.75,167.54 979.73,153.46 798.46,92.74 623.09,106.8 457.34,207.42 180.63,353.38 "/>
<polygon fill="#C2D1C0" points="-0.17,454.31 49.03,438.48 92.53,438.48 126.6,422.15 177.69,410.59 270.79,419.43 354.42,394.27 415.35,371.48 485.36,351.42 562.94,357.54 651.12,303.47 786.98,249.4 895.21,215.4 986.79,235.8 1069.29,263.34 1174.5,323.54 1214.22,364.57 1281.59,556.82 1339.49,611.91 1380.74,683.32 1414.43,754.39 1440,790.2 1440,845.99 1417.45,846.55 1192.66,593.88 975.82,475.88 850.93,400.39 600.41,466.36 430.87,544.58 323.77,543.21 217.03,530.97 106.93,515.67 24.43,518.39 -0.17,519.87 "/>
<polygon fill="#B2AB6A" points="-0.36,1 552.45,1 363.42,31.19 234.15,64.28 123.91,23.48 52.25,82.86 -0.01,98.91 "/>
<polygon fill="#757F42" fill-opacity="0.9" points="1134.4,767.77 1195.02,815.84 1152.43,846.28 1239.21,829.97 1286.93,841.56 1357.09,791.44 1214.64,801.83 "/>
</svg>
