<?xml version="1.0" encoding="utf-8"?>
<!-- Generator: Adobe Illustrator 28.2.0, SVG Export Plug-In . SVG Version: 6.00 Build 0)  -->
<svg version="1.1" id="Layer_1" xmlns="http://www.w3.org/2000/svg" xmlns:xlink="http://www.w3.org/1999/xlink" x="0px" y="0px"
	 viewBox="0 0 1440 900" style="enable-background:new 0 0 1440 900;" xml:space="preserve">
<rect opacity="0.9" fill="#C2D1C0" id="f02_bg" class="scene-bg" x="0.73" y="1.13" width="1438" height="899.75"/>
<g id="f02_leafA" class="leaf insect-a-base adjunto2">
<polygon fill="#F7EBDF" points="184.21,147.44 133.28,238.3 149.57,445.24 271.19,567.35 394.06,636.21 528.87,623.16 597.75,564.81 693.14,458.39 717.57,355.22 799.93,215.16 741.82,128.66 617.82,88.69 449.03,9.49 351.61,75.61 "/>
</g>
<g id="f02_leafB" class="leaf insect-b-base adjunto3">
<polygon fill="#F7EBDF" points="1234.09,758.44 1293.92,673.19 1298.58,465.66 1189.89,331.91 1074.6,251 939.17,250.39 864.75,301.5 759.11,397.76 724.4,497.94 628.34,628.97 677.42,720.9 796.76,773.16 956.7,868.98 1060.29,813.03 "/>
</g>
<g id="f02_bugA" class="insect-a">
  <g id="f02_bugA_body" class="insect-a-body">
<polygon fill="#6D8B5C" points="326.77,258.32 385.67,255.62 442.61,274.77 507.44,316.98 538.23,339.3 511.41,383.72 503.11,440.63 464.06,446.36 385.04,435.45 347.38,422.16 315.3,412.44 296.96,404.49 286.5,385.82 274.99,326.87 313.87,272.61 "/>
<polygon fill="#6D8B5C" points="571.84,374.24 540.63,447.54 574.29,453.66 595.17,438.99 601.01,419.81 599.96,409.47 590.73,394.55 "/>
<polygon fill="#F4957E" points="601.7,420.45 594.27,433.76 614.77,440.7 "/>
<polygon fill="#F0BA8A" points="300.47,310.33 411.07,330.33 409.33,358.26 294.45,340.7 "/>
<polygon fill="#9DA12D" points="483.17,308.36 462.39,341.37 458.44,365.02 512.26,380.46 537.58,343.87 "/>
<polygon fill="#E5E1A2" points="290.27,336.87 513.65,380.95 512.29,387.33 289.09,343.87 "/>
<polygon fill="#E1CF58" points="409.87,331.53 408.23,357.91 457.12,368.75 461.24,341.72 "/>
<polygon opacity="0.3" fill="#F2DF9C" points="409.43,332.57 408.04,358.25 454.68,369.13 458.42,342.84 "/>
<polygon fill="#F5AE51" points="329.66,321.34 326.82,333.42 388.76,342.17 388.66,348.46 409.58,353.81 413.98,333.16 401.74,328.48 "/>
<polygon fill="#BCBBB0" points="299.85,317.28 323.75,321.58 321.35,325.63 298.59,320.93 "/>
<polygon fill="#ECA08E" points="321.68,337.37 390.07,346.81 388.07,353.01 404.6,358.35 405.31,360.85 318.48,346.28 "/>
<polygon fill="#DFB155" points="298.46,323.91 323.35,330.01 321.27,333.73 297.54,327.3 "/>
<polygon fill="#BCBBB0" points="297.05,330.3 320.61,336.15 317.95,340.03 295.55,333.85 "/>
<polygon fill="#DEB381" points="371.42,329.56 370.5,332.95 412.25,341.16 412.71,336.65 "/>
<polygon fill="#CCBFAB" points="369.83,337.4 368.91,340.79 410.67,349 411.13,344.49 "/>
<polygon fill="#B6AF9C" points="367.99,344.18 367.07,347.57 408.83,355.78 409.29,351.27 "/>
<polygon fill="#98C196" points="537,344.03 549.21,350.44 563.25,366.02 572,374.81 539.89,447.12 516.31,445.66 503.01,440.66 511.34,383.85 "/>
<polygon fill="#A99E5C" points="287.43,355.04 509.81,392.14 506.39,393.55 284,356.62 "/>
<polygon fill="#B9D5B9" points="286.92,369.06 508.98,413.72 505.54,415.55 283.47,371.11 "/>
<polygon fill="#EBDFA2" points="286.42,384.54 508.48,429.19 505.04,431.02 282.97,386.58 "/>
<polygon fill="#9DA12D" points="502.18,442.15 494.08,443.19 490.54,462.96 503.19,466.15 510.44,444.81 "/>
<polygon fill="#98C196" points="496.04,467.04 489.7,482.1 559.01,513.39 577.32,564.96 580.37,564.09 562.37,514.03 494.43,480.08 497.9,467.48 "/>
<polygon fill="#B6AF9C" points="536.74,317.82 543.68,313.95 545.88,316.02 535.41,336.21 528.99,331.39 "/>
<polygon fill="#9DA12D" points="547.04,313 556.17,300.53 573.23,310.59 591.18,328.7 600.22,337.41 618.17,341.09 660.12,336.73 659.03,332.89 603.95,335.1 585,319.7 568.59,302.1 555.96,298.41 544.56,311.36 "/>
<polygon fill="#DEB381" points="491.7,263.59 498.87,266.54 501.62,267.67 483.6,299.52 471.71,293.71 "/>
<polygon fill="#E5E1A2" points="505.57,248.64 472.35,230.11 441.45,223.14 432.58,218.36 428.7,215.7 428.24,225.13 431.66,221.75 472.05,233.97 500.01,248.72 494.77,262.72 498.87,266.54 "/>
<polygon fill="#6D8B5C" points="396.56,438.5 398.63,445.81 398.63,463.31 401.36,464.2 402.9,440.82 "/>
<polygon fill="#DEB381" points="399.09,464.93 335.61,508.26 327.56,510.54 329.53,517.48 334.97,512.63 401.33,468.62 405,463.25 "/>
<polygon fill="#B9D5B9" points="337.68,420.47 335.95,449.75 337.61,451.17 343.63,423.8 "/>
<polygon fill="#ECA08E" points="336.08,453.83 284.65,464.55 283.58,468.45 299.89,464.01 332.39,457.62 338.34,455.53 "/>
<polygon fill="#9DA12D" points="283.42,467.59 274.53,467.14 279.96,477.49 "/>
<polygon fill="#ECA08E" points="379.68,232.7 366.86,233.83 366.06,255.33 378.47,254.95 "/>
<polygon fill="#9DA12D" points="374.4,231.69 374.45,209.77 375.9,206.06 299.31,185.34 289.3,183.17 288.62,189.62 297.48,187.74 372.21,208.53 370.42,230.94 "/>
<polygon fill="#BCAB8E" points="595.17,438.99 628.09,473.49 631.54,513.26 632.51,524.5 636.07,537.05 625.86,539.94 624.67,475.69 593.01,442.28 "/>
<polygon fill="#BCAB8E" points="603.67,415.93 647.8,401.56 686.13,342.68 693.63,333.51 684.6,331.68 667.96,364.45 652.44,388.11 638.48,402.32 602.37,411.36 "/>
<polygon fill="#D4BDB0" points="547.58,354.47 579.7,315.02 222.79,101.54 201.83,107.47 542.9,310.81 556.85,320.36 565.36,321.32 554.13,337.25 543,350.89 "/>
<polygon fill="#D4BDB0" points="278.14,353.29 249.33,388.69 569.61,580.26 588.41,574.94 282.35,392.46 269.83,383.9 262.19,383.03 272.27,368.74 282.26,356.5 "/>
<polygon fill="#ECA08E" points="320.76,163.18 313.67,173.93 330.02,187.92 337.43,177.96 "/>
<polygon fill="#DEB381" points="363.54,207.15 361.38,199.71 360.55,196.86 396.69,191.11 399.56,204.03 "/>
<polygon opacity="0.3" fill="#F2DF9C" points="335.09,185.75 334.65,201.34 361.13,208.57 362.9,192.64 "/>
<polygon opacity="0.3" fill="#F2DF9C" points="387.15,458.36 385.76,484.04 432.39,494.92 436.14,468.63 "/>
<polygon fill="#DEB381" points="419.22,489.77 417.06,482.33 416.24,479.47 452.38,473.72 455.24,486.64 "/>
<polygon fill="#ECA08E" points="394.92,463.23 387.83,473.98 404.18,487.98 411.6,478.02 "/>
<polygon fill="#E5E1A2" points="352.73,273.2 352.85,284.36 345.65,277.61 335.39,275.94 333.3,266.24 343.72,271.36 344.63,265.77 355.6,267.57 "/>
<polygon fill="#ECA08E" points="457.16,508.49 496.11,523.12 547,561.07 556.35,561.9 549.29,563.87 494.15,526.62 "/>
<polygon fill="#E5E1A2" points="457.85,254.16 496.8,268.79 547.68,306.74 557.03,307.56 549.98,309.53 494.83,272.29 "/>
<polyline fill="#BCAB8E" points="531.02,435.94 520.76,434.27 518.67,424.57 529.09,429.69 530,424.1 540.97,425.9 538.1,431.54 538.22,442.69 531.02,435.94 "/>
<polyline fill="#FF8C00" fill-opacity="0.8" points="450.56,323.8 438.17,327.3 430.73,317.53 445.11,317.8 443.2,311.05 456.44,307.3 456.19,315.13 462.18,327.58 450.56,323.8 "/>
  </g>
  <g id="f02_eyesA" class="insect-a-eyes adjunto1">
<circle fill="#F4C837" cx="571.16" cy="432.62" r="15.24"/>
<circle opacity="0.2" fill="#C7B16F" cx="568.97" cy="431.7" r="15.24"/>
<circle opacity="0.4" fill="#EE9D20" cx="571.39" cy="432.75" r="13.19"/>
<ellipse opacity="0.3" fill="#F7E0B8" transform="matrix(0.9622 -0.2723 0.2723 0.9622 -86.9725 173.6678)" cx="582.22" cy="400.18" rx="13.6" ry="13.64"/>
<ellipse fill="#F5DBA9" transform="matrix(0.9622 -0.2723 0.2723 0.9622 -87.8572 173.4317)" cx="580.92" cy="403.25" rx="13.56" ry="13.64"/>
<circle fill="#BCAB8E" cx="580.98" cy="403.2" r="5.95"/>
<circle fill="#746B40" cx="581.62" cy="402.05" r="3.16"/>
<circle fill="#745C2B" cx="581.62" cy="402.05" r="2.04"/>
<circle fill="#FAE9CC" cx="572.97" cy="434.24" r="6.13"/>
<circle fill="#7A8455" cx="572.97" cy="434.24" r="3.16"/>
  </g>
</g>
<g id="f02_bugB" class="insect-b">
  <g id="f02_bugB_body" class="insect-b-body">
<polygon opacity="0.9" fill="#E1E100" points="1177.52,592.69 1184.61,614.75 1188.09,624.82 1195.5,629.1 1184.76,656.35 1155.93,688.04 1143.95,727.04 1131.19,735.15 1121.88,742.73 1101.87,751.63 1082.19,747.08 1072.51,741.5 1058.65,733.49 1054.43,716.81 1051.95,706.08 1043.12,700.98 1027.11,695.45 1015.49,688.75 1012.92,683.54 1046.94,665.39 1082.2,638.66 1088.65,611.4 1089.88,574.93 1079.1,558.18 1078.46,552.85 1100.89,567.66 1111.76,578.89 1121.8,579.73 1128.54,575.57 1143.45,575.5 1162.94,579.32 1174.14,588.88 "/>
<polygon fill="#B8CE04" points="1019.73,739.51 1017.66,725.17 1012.14,687.03 1022.8,685.28 1017.67,704.13 1021.85,726.34 1029.95,732.73 1046.2,715.88 1034.54,732.95 1051.19,745.08 1032.59,734.54 1028.41,745.44 1027.19,760.08 1030.29,775.69 1035.45,787.65 1039.69,790.55 1028.29,784.91 1027.32,774.36 1022.88,757.57 1022.98,748.61 1012.91,768.39 1008.39,785.09 1002.39,793.88 1001.68,786.09 1009.78,766.68 1019.62,748.01 1021.92,737.57 1022.49,731.07 1021.04,728.79 "/>
<polygon fill="#B0B902" points="1147.98,554.76 1134.41,556.41 1098.35,560.8 1101.56,570.61 1115.88,561.52 1137.32,559.82 1146.57,565.41 1138.96,583.81 1148.8,569.4 1166.92,581.13 1149.33,567.3 1157.07,560.97 1169.43,556.34 1184.57,555.29 1197.41,556.94 1201.85,559.97 1191.8,551.3 1182.08,553 1165.3,553.16 1157.44,555.42 1170.38,541.75 1183.08,533.72 1188.15,526.3 1180.97,527.57 1167.48,539.4 1155.42,552.6 1147.24,557.16 1141.77,559.24 1139.11,558.51 "/>
<polygon fill="#92C199" points="927.32,649.68 921.72,626.35 918.91,615.68 911.59,610.69 924.82,583.39 957.06,552.92 972.48,513.59 986.28,506.21 996.49,499.12 1017.84,491.5 1037.81,497.73 1047.36,504.25 1061.05,513.6 1064.1,531.15 1065.82,542.42 1074.54,548.38 1090.64,555.34 1102.11,563.17 1104.36,568.74 1067.81,584.82 1029.32,609.67 1020.53,637.31 1016.42,674.87 1026.23,693.01 1026.48,698.56 1004.48,681.51 994.14,669.07 983.83,667.41 976.54,671.19 961.15,670.09 941.33,664.63 930.51,653.88 "/>
<polygon opacity="0.9" fill="#D6DF00" points="930.8,646.76 925.4,624.22 922.68,613.92 915.62,609.1 928.39,582.73 959.53,553.31 974.42,515.32 987.75,508.2 997.61,501.35 1018.23,493.99 1037.52,500 1046.74,506.3 1059.96,515.33 1062.9,532.29 1064.57,543.17 1072.99,548.92 1088.54,555.64 1099.62,563.21 1101.79,568.59 1066.49,584.12 1029.32,608.12 1020.83,634.81 1016.86,671.09 1026.33,688.61 1026.57,693.97 1005.32,677.51 995.34,665.49 985.38,663.89 978.35,667.53 963.47,666.47 944.33,661.2 933.88,650.81 "/>
<polygon fill="#CCA002" points="928.21,588.35 949.16,586.68 966,599.46 987.35,601.89 1000.76,604.26 1005.33,604.58 1003.47,600.3 969.16,592.96 955.23,580.6 931.39,579.9 "/>
<polygon fill="#CCA002" points="972.27,521.92 979.03,541.04 997.01,552.16 1007.57,570.39 1014.95,581.58 1017.03,585.55 1012.49,585.18 992.48,556.92 976.02,548.26 966.02,527.29 "/>
<polygon fill="#6AAF96" points="926.58,616 938.22,609.25 953.73,611.76 968.56,619.1 985.99,631 987.8,640.55 978.66,653.92 980.27,659.05 994.21,638.65 987.73,623.34 958.45,604.85 936.29,598.98 922.7,609.51 "/>
<polygon fill="#6AAF96" points="999.22,504.52 997.88,517.21 1006.64,530.67 1019.54,542.06 1037.7,554.46 1047.19,553.25 1055.65,540.87 1061.02,540.81 1048.12,559.69 1031.4,558.34 1002.27,537.06 987.67,518.52 991.66,502.91 "/>
<polygon fill="#CCB02F" points="1030.08,684.72 1027.15,680.34 1025.04,666.75 1021.94,655.91 1024.32,639.48 1030.19,621.53 1037.6,609 1049.55,595.07 1057.8,587.41 1067.54,583.01 1080.34,574.66 1091.14,570.38 1100.56,567.14 1106.2,571.52 1097.5,564.77 1086.89,569.19 1066.67,576.71 1046.27,588.36 1039.34,597.3 1031.13,603.99 1024.34,626.84 1017.06,644.39 1015.56,663.76 1022.39,673.13 1021.23,682.78 "/>
<polyline fill="#FFEC00" fill-opacity="0.8" points="1078.81,556.82 1085.45,559.93 1085.01,566.92 1078.92,561.44 1077.22,565.05 1070.12,561.73 1073.15,558.45 1075.21,550.85 1078.81,556.82 "/>
<polygon fill="#D75F5B" points="927.36,585.65 925.24,557.32 939.21,546.95 939.21,524.19 953.61,514.82 969.3,511.18 968.56,529.55 953.61,553.95 930.74,575.92 "/>
<polygon fill="#E5E1A2" points="922.56,666.73 939.08,693.49 956.16,708.54 960.59,715.53 962.44,719.13 964.29,710.22 961.7,712.53 939.9,689.86 925.85,668.15 931.29,656.16 929.51,651.39 "/>
<ellipse fill="#E5E1A2" transform="matrix(0.5 -0.866 0.866 0.5 -17.5583 1178.1472)" cx="1011.53" cy="604.28" rx="4.95" ry="1.84"/>
<ellipse fill="#E5E1A2" transform="matrix(0.5 -0.866 0.866 0.5 -3.4758 1178.1975)" cx="1018.61" cy="592.11" rx="4.95" ry="1.84"/>
<polygon opacity="0.4" fill="#DAE0D7" points="944.31,575.55 967.52,574.14 974.88,588.85 1002.99,595.03 1008.71,587.76 991.52,562.64 974.08,564.77 969.3,544.01 968.37,566.78 "/>
<polygon fill="#DCFC85" points="995.5,603.91 999.63,638.28 1007.84,666.87 1009.61,662.14 1015.05,664.02 1004.35,636.41 999.22,604.78 "/>
<polygon fill="#DCFC85" points="1011.94,577.02 1045.46,569.27 1075.09,566.85 1071.32,569.88 1075.04,573.85 1045.43,573.86 1014.09,579.88 "/>
<polygon fill="#865470" points="1026.67,679.81 1032.75,652.06 1049.11,646.13 1055.63,624.32 1072.1,619.46 1088.18,620.47 1082.2,637.86 1060.9,656.95 1032.7,671.46 "/>
<polygon fill="#93C6A9" points="1110.23,583.31 1110.58,597.15 1123.49,613.44 1141.18,628.1 1165.49,644.7 1176.99,644.87 1185.45,632.49 1192.05,633.26 1179.15,652.15 1158.36,648.01 1119.13,619.84 1098.21,596.98 1100.67,580.33 "/>
<polygon fill="#93C6A9" points="1038.43,681.29 1051.88,675.96 1071.99,681.71 1092.16,692.73 1116.47,709.33 1120.57,720.34 1111.55,733.55 1114.55,739.59 1128.32,719.44 1117.21,701.11 1076.65,674.89 1047.48,664.12 1032.29,673.31 "/>
<polygon fill="#E5E1A2" points="1031.54,480.05 1057.54,485.93 1075.52,496.25 1082.36,497.89 1085.7,498.34 1080.19,503.01 1080.72,499.9 1055.34,487.89 1033.97,482.54 1027.83,491.48 1023.7,491.48 "/>
<polygon opacity="0.4" fill="#DAE0D7" points="1058.33,661.31 1093.08,659.19 1104.09,681.23 1146.18,690.47 1154.75,679.59 1129.02,641.98 1102.9,645.17 1095.75,614.09 1094.35,648.18 "/>
<polygon fill="#CF4C39" points="1128.35,592.69 1128.57,601.3 1136.59,611.42 1147.58,620.53 1162.69,630.85 1169.84,630.95 1175.09,623.26 1179.19,623.74 1171.18,635.48 1158.25,632.91 1133.87,615.4 1120.88,601.2 1122.41,590.84 "/>
<polygon fill="#8C2241" points="1138.65,591.56 1138.5,598.29 1144.18,605.93 1152.14,612.66 1163.17,620.19 1168.56,620.01 1172.81,613.79 1175.89,614.02 1169.41,623.51 1159.74,621.97 1141.99,609.14 1132.7,598.49 1134.23,590.33 "/>
<polygon fill="#CF4C39" points="1103.44,724.69 1103.22,716.09 1095.2,705.96 1084.21,696.86 1069.1,686.54 1061.96,686.44 1056.7,694.13 1052.6,693.65 1060.61,681.91 1073.54,684.48 1097.92,701.99 1110.91,716.19 1109.38,726.54 "/>
<polygon fill="#8C2241" points="1093.99,725.26 1094.14,718.53 1088.45,710.89 1080.49,704.16 1069.47,696.63 1064.07,696.81 1059.83,703.03 1056.75,702.8 1063.23,693.31 1072.89,694.85 1090.65,707.68 1099.93,718.33 1098.4,726.49 "/>
<polyline fill="#1C1468" fill-opacity="0.8" points="1144.19,706.74 1144.19,717.78 1134.39,721.64 1137.97,709.84 1131.96,709.84 1131.96,698.04 1138.36,700.08 1150.02,698.04 1144.19,706.74 "/>
  </g>
  <g id="f02_eyesB" class="insect-b-eyes">
<ellipse fill="#E9D102" fill-opacity="0.8" transform="matrix(0.2863 -0.9581 0.9581 0.2863 238.3006 1350.4198)" cx="1025.59" cy="515.26" rx="18.67" ry="23.43"/>
<ellipse fill="#D99C26" transform="matrix(0.2863 -0.9581 0.9581 0.2863 239.5475 1346.6921)" cx="1023.71" cy="512.55" rx="16.62" ry="20.86"/>
<ellipse fill="#B4BE9B" transform="matrix(0.2863 -0.9581 0.9581 0.2863 242.4813 1346.057)" cx="1024.75" cy="510.27" rx="14.29" ry="17.94"/>
<ellipse fill="#060604" transform="matrix(0.2863 -0.9581 0.9581 0.2863 243.6973 1344.9847)" cx="1024.64" cy="508.92" rx="13.51" ry="16.96"/>
<ellipse fill="#F4F3EB" transform="matrix(0.2863 -0.9581 0.9581 0.2863 253.027 1351.2562)" cx="1033.52" cy="505.79" rx="2.66" ry="3.34"/>
<ellipse fill="#E9D102" fill-opacity="0.8" transform="matrix(0.2863 -0.9581 0.9581 0.2863 69.5151 1373.6615)" cx="956.8" cy="640.17" rx="23.45" ry="29.43"/>
<ellipse fill="#D99C26" transform="matrix(0.2863 -0.9581 0.9581 0.2863 65.3674 1376.5486)" cx="956.66" cy="644.4" rx="19.36" ry="24.3"/>
<ellipse fill="#B4BE9B" transform="matrix(0.2863 -0.9581 0.9581 0.2863 61.9501 1377.2883)" cx="955.45" cy="647.06" rx="16.65" ry="20.9"/>
<ellipse fill="#060604" transform="matrix(0.2863 -0.9581 0.9581 0.2863 60.5338 1378.5372)" cx="955.58" cy="648.64" rx="15.74" ry="19.75"/>
<ellipse fill="#F4F3EB" transform="matrix(0.2863 -0.9581 0.9581 0.2863 49.6665 1371.2323)" cx="945.25" cy="652.28" rx="3.1" ry="3.9"/>
  </g>
</g>
</svg>
