<?xml version="1.0" encoding="utf-8"?>
<!-- Generator: Adobe Illustrator 28.2.0, SVG Export Plug-In . SVG Version: 6.00 Build 0)  -->
<svg version="1.1" id="Layer_1" xmlns="http://www.w3.org/2000/svg" xmlns:xlink="http://www.w3.org/1999/xlink" x="0px" y="0px"
	 viewBox="0 0 1440 900" style="enable-background:new 0 0 1440 900;" xml:space="preserve">
<rect fill="#F4E9D4" x="1.42" y="0.89" width="1437.57" height="898.66"/>
<polygon opacity="0.8" fill="#C1BB51" points="0.4,900 1440,900 1439.74,859.79 1346.83,852.04 1213.3,770.58 1025.96,809.52 748.98,860.08 464.95,874.81 109.05,762.32 0.4,687.48 "/>
<polygon fill="#D3AD00" points="474.73,-0.23 472.93,110.36 440.38,193.05 369.54,266.41 305.24,280.12 205.72,266.57 116.7,224.83 74.49,182.16 6.93,121.17 1.66,1.27 "/>
<polygon opacity="0.9" fill="#C2D1C0" points="-0.08,466.8 49.08,450.94 92.56,450.94 126.61,434.6 177.67,423.02 270.7,431.88 354.29,406.68 415.18,383.86 485.14,363.78 562.67,369.9 650.79,315.76 786.56,261.63 894.73,227.58 986.25,248.01 1068.7,275.59 1173.84,335.85 1213.53,376.94 1280.87,569.44 1338.73,624.6 1379.95,696.1 1413.61,767.27 1439.17,803.12 1439.17,858.98 1416.64,859.54 1191.99,606.55 975.28,488.4 850.48,412.81 600.11,478.86 430.68,557.18 323.65,555.82 216.98,543.56 106.95,528.24 24.5,530.96 -0.08,532.44 "/>
<polygon fill="#FF9800" points="1194.88,664.37 1268.9,664.37 1391.55,591.04 1424.99,485.68 1424.99,396.17 1370.05,325.5 1309.93,305.44 1210.8,285.63 1138.35,304.14 1022.89,302.01 989.45,361.09 1007.77,442.25 1017.32,560.43 1092.17,593.89 "/>
<polygon fill="#4C4475" points="712.49,743.56 604.1,695.06 472.29,594.58 514.45,493.34 615.37,476.48 758.04,414.46 963.75,546.8 984.53,606.09 966.09,649.41 "/>
<polygon fill="#5D2F47" points="1438.94,0.89 1429.41,186.61 1363.47,277.04 1212.53,284.1 1007.38,215.28 907,153.52 836.66,72.35 846.49,0.89 "/>
<polygon fill="#FFAE00" points="0.11,899.93 0.11,707.26 54.9,546.32 95.36,404.11 178.81,348.76 326.32,461.76 572.46,820.75 595.74,899.93 "/>
<polygon fill="#FFCB00" points="1.63,899.93 1.63,714.69 53.27,559.95 91.4,423.21 170.05,370 309.08,478.65 541.06,823.8 563,899.93 "/>
<polygon fill="#B2AB6A" points="1.79,-1 554.25,-1 365.35,29.23 236.15,62.36 125.98,21.51 54.37,80.97 2.14,97.04 "/>
<polygon opacity="0.9" fill="#CDD700" points="635.11,899.06 724.91,754.17 1033.23,688.12 1261.24,688.12 1404.41,814.54 1436.06,899.06 "/>
<polygon fill="#F8F8F8" fill-opacity="0.9" points="1064.67,768.35 1135.06,824.27 1085.6,859.68 1186.37,840.7 1241.79,854.19 1323.25,795.88 1157.84,807.97 "/>
<polygon fill="#D60023" points="871.78,332.52 903.46,273.98 879.05,143.73 782.89,69.5 689.04,28.91 591.43,40.3 544.68,78.75 481.49,148.16 469.89,213.86 418.25,304.19 465.9,357.44 558.83,379.76 686.83,425.8 753.94,381.79 "/>
</svg>
