<?xml version="1.0" encoding="utf-8"?>
<svg version="1.1" xmlns="http://www.w3.org/2000/svg" viewBox="0 0 1440 900">
<rect id="f16_bg" class="scene-bg" fill="#DEB381" width="1440" height="900"/>
<g id="f16_bg_layers" class="layer-bg">
<polygon fill="#B5849B" points="0.73,582.64 0.73,715.47 785.99,2.19 "/>
<polygon fill="#827E9F" points="0.73,137.53 652.41,2.07 765.54,2.07 0.73,533.65 "/>
<polygon opacity="0.8" fill="#C1BB51" points="0.73,901.76 1440.73,901.76 1440.47,861.61 1347.53,853.88 1213.97,772.55 1026.57,811.43 749.52,861.9 465.41,876.6 109.41,764.3 0.73,689.58 "/>
<polygon fill="#B2AB6A" points="0.73,2.11 581.34,2.11 382.81,32.32 247.03,65.42 131.25,24.61 55.99,84.01 1.09,100.07 "/>
<polygon fill="#C2D1C0" points="0.73,396.33 49.86,380.48 93.31,380.48 127.33,364.15 178.35,352.58 271.32,361.43 354.84,336.25 415.69,313.46 485.6,293.39 563.07,299.51 651.13,245.42 786.8,191.33 894.89,157.31 986.34,177.72 1068.73,205.28 1173.79,265.49 1213.46,306.55 1280.74,498.87 1338.56,553.98 1379.76,625.42 1413.39,696.53 1438.93,732.35 1438.93,788.16 1416.41,788.72 1191.93,535.95 975.38,417.9 850.67,342.38 600.49,408.38 431.18,486.62 324.23,485.26 217.63,473.01 107.68,457.71 25.3,460.43 0.73,461.9 "/>
<polygon opacity="0.9" fill="#C1BB51" points="0.88,255.63 169.66,225.68 326.42,185.32 498.39,107.77 736.83,60.16 895.61,78.3 1032.58,103.69 1376.07,2.57 1438.93,2.57 1438.9,54.28 1287.75,47.01 1065.56,151.31 708.42,168.99 471.72,255.63 219.89,355.37 0.73,415.22 "/>
<polygon fill="#B8BE82" points="0.73,285.74 0.73,411.28 218.79,348.51 681.31,171.01 963.59,156.92 781.49,96.18 605.3,110.24 438.79,210.91 160.81,356.93 "/>
<polygon fill="#4C4475" points="998.76,762.73 1052.88,810.83 1014.85,841.27 1092.32,824.95 1134.93,836.55 1197.57,786.41 1070.39,796.8 "/>
<circle fill="#8E8E18" cx="907.34" cy="58.83" r="4.36"/>
<circle fill="#802940" cx="173.02" cy="613.2" r="4.1"/>
<circle fill="#802940" cx="194.16" cy="615.96" r="5.26"/>
<circle fill="#F4E9D4" cx="159.53" cy="614.16" r="5.26"/>
<circle fill="#802940" cx="204.44" cy="591.33" r="5.26"/>
<circle fill="#802940" cx="203.34" cy="624.52" r="5.26"/>
<circle fill="#F4E9D4" cx="185.64" cy="603.87" r="5.26"/>
<circle fill="#8E8E18" cx="173.12" cy="609.3" r="4.36"/>
<polygon fill="#802940" points="304.25,717.01 339.16,696.36 370.33,708 375.4,691.99 380.72,697.05 374.03,707.76 382.55,698.78 383.86,700.02 374.92,713.22 385.74,701.81 387.68,703.64 378.86,716.38 389.65,705 392.42,707.57 383.71,720.41 390.38,737.15 386.42,755.65 368.71,776.14 338.65,778.27 309.24,750.36 300.98,733.86 "/>
<circle fill="#802940" cx="345.99" cy="736.55" r="4.1"/>
<circle fill="#802940" cx="352.41" cy="756.88" r="5.26"/>
<circle fill="#F4E9D4" cx="339.42" cy="724.73" r="5.26"/>
<circle fill="#802940" cx="379.08" cy="755.8" r="5.26"/>
<circle fill="#802940" cx="348.52" cy="768.82" r="5.26"/>
<circle fill="#F4E9D4" cx="359.78" cy="744.06" r="5.26"/>
<circle fill="#8E8E18" cx="349.57" cy="735" r="4.36"/>
<polygon fill="#802940" points="847.82,239.66 843.83,199.29 867.54,175.95 855.17,164.6 862,161.91 868.88,172.49 864.34,160.98 866.02,160.32 874.21,174 868.43,159.36 870.91,158.39 878.74,171.76 872.98,157.17 876.47,155.74 884.44,169.06 902.43,170.07 917.53,181.47 928.63,206.18 917.87,234.33 880.16,249.22 861.72,249.73 "/>
<circle fill="#802940" cx="883.16" cy="210.07" r="4.1"/>
<circle fill="#802940" cx="904.29" cy="212.83" r="5.26"/>
<circle fill="#F4E9D4" cx="869.66" cy="211.03" r="5.26"/>
<circle fill="#802940" cx="914.57" cy="188.2" r="5.26"/>
<circle fill="#802940" cx="913.47" cy="221.39" r="5.26"/>
<circle fill="#F4E9D4" cx="895.78" cy="200.73" r="5.26"/>
<circle fill="#8E8E18" cx="883.26" cy="206.17" r="4.36"/>
<circle fill="#802940" cx="1299.46" cy="337.37" r="4.1"/>
<circle fill="#802940" cx="1310.37" cy="355.67" r="5.26"/>
<circle fill="#F4E9D4" cx="1290.35" cy="327.36" r="5.26"/>
<circle fill="#802940" cx="1336.08" cy="348.5" r="5.26"/>
<circle fill="#802940" cx="1309.34" cy="368.18" r="5.26"/>
<circle fill="#F4E9D4" cx="1314.61" cy="341.5" r="5.26"/>
<circle fill="#8E8E18" cx="1302.59" cy="335.03" r="4.36"/>
<polygon fill="#802940" points="1158.95,242.88 1154.97,202.51 1178.67,179.17 1166.3,167.82 1173.13,165.12 1180.01,175.71 1175.47,164.2 1177.15,163.53 1185.34,177.21 1179.57,162.58 1182.05,161.6 1189.87,174.97 1184.11,160.38 1187.61,158.95 1195.57,172.27 1213.56,173.29 1228.66,184.69 1239.77,209.39 1229.01,237.54 1191.3,252.43 1172.85,252.95 "/>
<circle fill="#802940" cx="1194.29" cy="213.28" r="4.1"/>
<circle fill="#802940" cx="1215.42" cy="216.04" r="5.26"/>
<circle fill="#F4E9D4" cx="1180.79" cy="214.24" r="5.26"/>
<circle fill="#802940" cx="1225.7" cy="191.41" r="5.26"/>
<circle fill="#802940" cx="1224.6" cy="224.6" r="5.26"/>
<circle fill="#F4E9D4" cx="1206.91" cy="203.94" r="5.26"/>
<circle fill="#8E8E18" cx="1194.39" cy="209.38" r="4.36"/>
<circle fill="#802940" cx="1060.2" cy="131.91" r="4.1"/>
<circle fill="#F4E9D4" cx="1046.71" cy="126.61" r="5.26"/>
<circle fill="#F4E9D4" cx="1073.62" cy="134.61" r="5.26"/>
<polygon fill="#802940" points="1270.96,139.48 1266.97,99.12 1290.68,75.78 1278.31,64.42 1285.14,61.73 1292.02,72.31 1287.48,60.8 1289.16,60.14 1297.35,73.82 1291.57,59.19 1294.05,58.21 1301.88,71.58 1296.12,56.99 1299.61,55.56 1307.58,68.88 1325.57,69.89 1340.67,81.3 1351.77,106 1341.01,134.15 1303.3,149.04 1284.86,149.56 "/>
<circle fill="#802940" cx="1306.29" cy="109.89" r="4.1"/>
<circle fill="#802940" cx="1327.43" cy="112.65" r="5.26"/>
<circle fill="#F4E9D4" cx="1292.8" cy="110.85" r="5.26"/>
<circle fill="#802940" cx="1337.71" cy="88.02" r="5.26"/>
<circle fill="#802940" cx="1336.61" cy="121.21" r="5.26"/>
<circle fill="#F4E9D4" cx="1318.92" cy="100.55" r="5.26"/>
<circle fill="#8E8E18" cx="1306.39" cy="105.99" r="4.36"/>
<polygon fill="#802940" points="871.91,92.32 867.92,51.96 891.63,28.61 879.25,17.26 886.08,14.57 892.97,25.15 888.42,13.64 890.1,12.98 898.3,26.66 892.52,12.03 895,11.05 902.82,24.42 897.07,9.83 900.56,8.4 908.52,21.72 926.51,22.73 941.61,34.14 952.72,58.84 941.96,86.99 904.25,101.88 885.8,102.4 "/>
<circle fill="#802940" cx="907.24" cy="62.73" r="4.1"/>
<circle fill="#802940" cx="928.38" cy="65.49" r="5.26"/>
<circle fill="#F4E9D4" cx="893.75" cy="63.69" r="5.26"/>
<circle fill="#802940" cx="937.56" cy="74.05" r="5.26"/>
<circle fill="#802940" cx="224.77" cy="834.54" r="4.1"/>
<circle fill="#802940" cx="245.9" cy="837.3" r="5.26"/>
<circle fill="#F4E9D4" cx="211.28" cy="835.5" r="5.26"/>
<circle fill="#802940" cx="256.18" cy="812.66" r="5.26"/>
<circle fill="#802940" cx="255.08" cy="845.85" r="5.26"/>
<circle fill="#F4E9D4" cx="237.39" cy="825.2" r="5.26"/>
<circle fill="#8E8E18" cx="224.87" cy="830.63" r="4.36"/>
</g>
<g id="f16_leaves" class="leaves-white">
<polygon fill="#F7EBDF" points="184.48,146.57 133.55,237.42 149.84,444.36 271.47,566.47 394.33,635.33 529.14,622.28 598.02,563.93 693.41,457.51 717.85,354.34 800.2,214.28 742.09,127.78 618.09,87.81 449.3,8.61 351.88,74.73 "/>
<polygon fill="#F7EBDF" points="1234.36,757.56 1294.19,672.31 1298.85,464.78 1190.16,331.03 1074.87,250.12 939.44,249.51 865.02,300.62 759.38,396.88 724.67,497.06 628.61,628.09 677.69,720.02 797.03,772.28 956.98,868.1 1060.56,812.15 "/>
</g>
<g id="f16_bug_body" class="bug-main-body">
<polygon fill="#93C6A9" points="1123.73,502.64 1130.34,516.3 1150.58,526.74 1174.85,533.4 1206.62,539 1218.18,533.98 1221.04,517.8 1227.98,515.59 1223.63,540.27 1200.99,545.53 1149.1,535.1 1117.91,521.72 1112.84,503.98 "/>
<polygon fill="#93C6A9" points="1096.26,632.89 1107.29,621.49 1129.96,618.16 1155.07,620.06 1186.84,625.66 1195.91,634.8 1192.86,652.07 1198.59,656.74 1203.24,630.4 1183.88,617.11 1131.53,609.24 1097.55,611.65 1086.53,627.69 "/>
<polygon fill="#CF4C39" points="1146.06,503.83 1150.16,512.33 1162.74,518.82 1177.83,522.95 1197.57,526.43 1204.76,523.31 1206.53,513.26 1210.85,511.89 1208.14,527.22 1194.07,530.49 1161.83,524.01 1142.44,515.69 1139.29,504.67 "/>
<polygon fill="#8C2241" points="1155.83,498.05 1158.72,504.84 1167.85,509.91 1178.83,513.04 1193.24,515.58 1198.54,512.96 1199.98,504.83 1203.16,503.67 1200.97,516.07 1190.63,518.9 1167.1,514.1 1153.02,507.66 1150.87,498.82 "/>
<polygon fill="#CF4C39" points="1180.77,646.88 1176.67,638.39 1164.09,631.9 1149,627.76 1129.26,624.28 1122.08,627.4 1120.3,637.46 1115.99,638.83 1118.69,623.49 1132.76,620.22 1165,626.71 1184.39,635.02 1187.54,646.05 "/>
<polygon fill="#8C2241" points="1171.58,651.72 1168.69,644.92 1159.57,639.86 1148.58,636.73 1134.18,634.19 1128.87,636.81 1127.44,644.93 1124.26,646.1 1126.45,633.7 1136.79,630.87 1160.31,635.66 1174.39,642.11 1176.55,650.95 "/>
<polygon fill="#6D8B5C" points="327.05,257.44 385.94,254.74 442.88,273.89 507.71,316.1 538.5,338.42 511.68,382.84 503.38,439.75 464.33,445.48 385.31,434.57 347.65,421.28 315.57,411.56 297.23,403.61 286.77,384.94 275.26,325.99 314.14,271.73 "/>
<polygon fill="#6D8B5C" points="572.11,373.36 540.9,446.66 574.56,452.78 595.44,438.11 601.28,418.93 600.23,408.59 591,393.67 "/>
<circle fill="#F4C837" cx="571.43" cy="431.74" r="15.24"/>
<circle opacity="0.2" fill="#C7B16F" cx="569.24" cy="430.82" r="15.24"/>
<circle opacity="0.4" fill="#EE9D20" cx="571.66" cy="431.87" r="13.19"/>
<ellipse opacity="0.3" fill="#F7E0B8" transform="matrix(0.9622 -0.2723 0.2723 0.9622 -86.7228 173.7084)" cx="582.49" cy="399.31" rx="13.6" ry="13.64"/>
<ellipse fill="#F5DBA9" transform="matrix(0.9622 -0.2723 0.2723 0.9622 -87.6075 173.4722)" cx="581.19" cy="402.37" rx="13.56" ry="13.64"/>
<polygon fill="#F4957E" points="601.97,419.57 594.54,432.88 615.04,439.82 "/>
<circle fill="#BCAB8E" cx="581.25" cy="402.32" r="5.95"/>
<circle fill="#746B40" cx="581.89" cy="401.17" r="3.16"/>
<circle fill="#745C2B" cx="581.89" cy="401.17" r="2.04"/>
<circle fill="#FAE9CC" cx="573.24" cy="433.36" r="6.13"/>
<circle fill="#7A8455" cx="573.24" cy="433.36" r="3.16"/>
<polygon fill="#F0BA8A" points="300.74,309.45 411.34,329.45 409.6,357.38 294.72,339.82 "/>
<polygon fill="#9DA12D" points="483.44,307.48 462.66,340.49 458.71,364.14 512.53,379.58 537.85,342.99 "/>
<polygon fill="#E5E1A2" points="290.55,335.99 513.92,380.07 512.56,386.45 289.36,342.99 "/>
<polygon fill="#E1CF58" points="410.14,330.65 408.5,357.03 457.39,367.87 461.51,340.85 "/>
<polygon opacity="0.3" fill="#F2DF9C" points="409.7,331.69 408.32,357.37 454.95,368.25 458.69,341.96 "/>
<polygon fill="#F5AE51" points="329.93,320.46 327.09,332.54 389.03,341.29 388.93,347.58 409.85,352.93 414.25,332.28 402.01,327.61 "/>
<polygon fill="#BCBBB0" points="300.12,316.4 324.02,320.71 321.62,324.75 298.86,320.05 "/>
<polygon fill="#ECA08E" points="321.95,336.49 390.34,345.93 388.34,352.13 404.87,357.47 405.58,359.97 318.76,345.4 "/>
<polygon fill="#DFB155" points="298.73,323.03 323.62,329.14 321.54,332.85 297.82,326.42 "/>
<polygon fill="#BCBBB0" points="297.32,329.42 320.88,335.27 318.22,339.15 295.82,332.97 "/>
<polygon fill="#DEB381" points="371.69,328.68 370.77,332.07 412.53,340.28 412.98,335.77 "/>
<polygon fill="#CCBFAB" points="370.1,336.52 369.18,339.91 410.94,348.12 411.4,343.61 "/>
<polygon fill="#B6AF9C" points="368.26,343.3 367.35,346.69 409.1,354.9 409.56,350.39 "/>
<polygon fill="#98C196" points="537.27,343.16 549.48,349.56 563.53,365.14 572.27,373.94 540.16,446.24 516.58,444.78 503.28,439.78 511.61,382.97 "/>
<polygon fill="#A99E5C" points="287.7,354.16 510.08,391.26 506.66,392.67 284.27,355.74 "/>
<polygon fill="#B9D5B9" points="287.19,368.18 509.25,412.84 505.81,414.67 283.74,370.23 "/>
<polygon fill="#EBDFA2" points="286.69,383.66 508.75,428.31 505.31,430.14 283.24,385.71 "/>
<polygon fill="#9DA12D" points="502.45,441.27 494.35,442.31 490.81,462.09 503.46,465.27 510.71,443.94 "/>
<polygon fill="#98C196" points="496.31,466.16 489.97,481.22 559.28,512.51 577.59,564.08 580.64,563.21 562.65,513.15 494.7,479.2 498.17,466.6 "/>
<polygon fill="#B6AF9C" points="537.01,316.94 543.95,313.07 546.15,315.14 535.69,335.33 529.26,330.51 "/>
<polygon fill="#9DA12D" points="547.32,312.12 556.45,299.65 573.5,309.71 591.45,327.82 600.49,336.53 618.44,340.21 660.39,335.85 659.3,332.01 604.22,334.22 585.27,318.82 568.86,301.22 556.23,297.53 544.84,310.48 "/>
<polygon fill="#DEB381" points="491.97,262.71 499.14,265.66 501.89,266.79 483.87,298.65 471.98,292.83 "/>
<polygon fill="#E5E1A2" points="505.84,247.76 472.62,229.23 441.72,222.26 432.85,217.48 428.97,214.82 428.51,224.26 431.93,220.87 472.33,233.1 500.28,247.84 495.04,261.84 499.14,265.66 "/>
<polygon fill="#6D8B5C" points="396.83,437.62 398.9,444.93 398.9,462.43 401.63,463.32 403.18,439.94 "/>
<polygon fill="#DEB381" points="399.36,464.05 335.88,507.38 327.83,509.66 329.8,516.6 335.24,511.75 401.6,467.74 405.28,462.38 "/>
<polygon fill="#B9D5B9" points="337.95,419.59 336.23,448.88 337.88,450.29 343.9,422.92 "/>
<polygon fill="#ECA08E" points="336.35,452.95 284.93,463.68 283.85,467.57 300.16,463.13 332.67,456.74 338.61,454.65 "/>
<polygon fill="#9DA12D" points="283.69,466.71 274.8,466.26 280.23,476.61 "/>
<polygon fill="#ECA08E" points="379.95,231.82 367.13,232.95 366.33,254.46 378.74,254.07 "/>
<polygon fill="#9DA12D" points="374.67,230.81 374.72,208.89 376.17,205.18 299.58,184.47 289.57,182.29 288.89,188.74 297.75,186.86 372.49,207.65 370.69,230.06 "/>
<polygon fill="#ECA08E" points="321.03,162.3 313.94,173.05 330.29,187.04 337.7,177.08 "/>
<polygon fill="#DEB381" points="363.81,206.27 361.65,198.83 360.82,195.98 396.96,190.23 399.83,203.15 "/>
<polygon opacity="0.3" fill="#F2DF9C" points="335.37,184.88 334.92,200.46 361.4,207.69 363.17,191.76 "/>
<polygon opacity="0.3" fill="#F2DF9C" points="387.42,457.48 386.03,483.16 432.66,494.04 436.41,467.75 "/>
<polygon fill="#DEB381" points="419.49,488.89 417.34,481.45 416.51,478.59 452.65,472.84 455.51,485.77 "/>
<polygon fill="#ECA08E" points="395.19,462.36 388.1,473.1 404.45,487.1 411.87,477.14 "/>
<polygon fill="#E5E1A2" points="353,272.33 353.12,283.48 345.92,276.73 335.67,275.06 333.57,265.36 343.99,270.48 344.9,264.89 355.87,266.69 "/>
<polygon fill="#ECA08E" points="457.43,507.61 496.38,522.25 547.27,560.2 556.62,561.02 549.56,562.99 494.42,525.74 "/>
<polygon fill="#E5E1A2" points="458.12,253.28 497.07,267.91 547.96,305.86 557.3,306.68 550.25,308.65 495.11,271.41 "/>
<polyline fill="#FF8C00" fill-opacity="0.8" points="450.83,322.92 438.45,326.42 431,316.65 445.38,316.92 443.47,310.17 456.71,306.42 456.46,314.26 462.45,326.7 450.83,322.92 "/>
</g>
<g id="f16_bug_legs" class="bug-main-legs">
<polygon fill="#BCAB8E" points="595.44,438.11 628.36,472.61 631.81,512.38 632.79,523.62 636.34,536.17 626.13,539.06 624.94,474.81 593.28,441.4 "/>
<polygon fill="#BCAB8E" points="603.94,415.05 648.07,400.68 686.4,341.8 693.91,332.63 684.87,330.8 668.24,363.57 652.71,387.23 638.75,401.44 602.64,410.48 "/>
<polygon fill="#D4BDB0" points="547.86,353.59 579.97,314.14 223.06,100.66 202.1,106.59 543.17,309.93 557.12,319.48 565.64,320.44 554.4,336.37 543.27,350.01 "/>
<polygon fill="#D4BDB0" points="278.41,352.41 249.6,387.81 569.88,579.38 588.68,574.06 282.62,391.58 270.1,383.02 262.46,382.15 272.54,367.86 282.53,355.62 "/>
<polyline fill="#BCAB8E" points="531.29,435.06 521.03,433.39 518.94,423.69 529.36,428.81 530.27,423.22 541.24,425.02 538.37,430.66 538.49,441.81 531.29,435.06 "/>
</g>
<g id="f16_creature_0" class="creature">
<polygon fill="#802940" points="496.37,756.53 492.38,716.16 516.09,692.82 503.72,681.47 510.55,678.78 517.43,689.36 512.89,677.85 514.57,677.19 522.76,690.87 516.98,676.23 519.46,675.26 527.29,688.63 521.53,674.04 525.02,672.61 532.99,685.93 550.98,686.94 566.08,698.34 577.18,723.05 566.42,751.2 528.71,766.09 510.27,766.6 "/>
<circle fill="#802940" cx="531.7" cy="726.94" r="4.1"/>
<circle fill="#802940" cx="552.84" cy="729.7" r="5.26"/>
<circle fill="#F4E9D4" cx="518.21" cy="727.9" r="5.26"/>
<circle fill="#802940" cx="563.12" cy="705.07" r="5.26"/>
<circle fill="#802940" cx="562.02" cy="738.26" r="5.26"/>
<circle fill="#F4E9D4" cx="544.33" cy="717.6" r="5.26"/>
<circle fill="#8E8E18" cx="531.8" cy="723.04" r="4.36"/>
</g>
<g id="f16_creature_1" class="creature">
<polygon fill="#802940" points="610.45,771.94 649.12,759.71 676.85,778.09 685.41,763.64 689.45,769.76 680.52,778.68 690.84,771.86 691.84,773.37 680.14,784.21 693.27,775.54 694.74,777.76 683.27,788.18 696.35,779.53 698.47,782.66 687.09,793.2 689.8,811.01 681.76,828.14 659.88,844.1 630.12,839.38 607.77,805.55 603.46,787.61 "/>
<circle fill="#802940" cx="646.69" cy="800.4" r="4.1"/>
<circle fill="#802940" cx="648.35" cy="821.65" r="5.26"/>
<circle fill="#F4E9D4" cx="642.97" cy="787.4" r="5.26"/>
<circle fill="#802940" cx="674.58" cy="826.63" r="5.26"/>
<circle fill="#802940" cx="641.87" cy="832.4" r="5.26"/>
<circle fill="#F4E9D4" cx="658.43" cy="810.83" r="5.26"/>
<circle fill="#8E8E18" cx="650.53" cy="799.7" r="4.36"/>
</g>
</svg>
