<?xml version="1.0" encoding="utf-8"?>
<svg version="1.1" xmlns="http://www.w3.org/2000/svg" viewBox="0 0 1440 900">
<rect id="f14_bg" class="scene-bg" fill="#B5D3FF" width="1440" height="900"/>
<g id="f14_bg_layers" class="layer-bg">
<polygon fill="#B5849B" points="0,580.88 0,713.71 785.26,0.43 "/>
<polygon fill="#827E9F" points="0,135.77 651.68,0.32 764.81,0.32 0,531.89 "/>
<polygon opacity="0.8" fill="#C1BB51" points="0,900 1440,900 1439.74,859.85 1346.8,852.12 1213.24,770.79 1025.84,809.67 748.79,860.14 464.68,874.85 108.68,762.54 0,687.82 "/>
<polygon fill="#B2AB6A" points="0,0.36 580.61,0.36 382.08,30.56 246.3,63.66 130.52,22.85 55.26,82.25 0.36,98.31 "/>
<polygon fill="#C2D1C0" points="0,394.57 49.19,378.72 92.69,378.72 126.76,362.39 177.84,350.83 270.93,359.67 354.55,334.5 415.47,311.7 485.48,291.63 563.05,297.76 651.21,243.66 787.05,189.57 895.27,155.55 986.85,175.96 1069.34,203.52 1174.53,263.74 1214.25,304.79 1281.61,497.11 1339.51,552.22 1380.75,623.67 1414.43,694.77 1440,730.59 1440,786.4 1417.46,786.96 1192.69,534.19 975.87,416.14 851,340.62 600.51,406.62 430.99,484.86 323.9,483.5 217.17,471.26 107.08,455.95 24.6,458.67 0,460.15 "/>
<polygon opacity="0.9" fill="#C1BB51" points="0.15,253.87 169.14,223.92 326.1,183.56 498.29,106.02 737.02,58.4 896,76.54 1033.14,101.93 1377.06,0.81 1440,0.81 1439.97,52.52 1288.63,45.25 1066.16,149.55 708.57,167.23 471.58,253.87 219.43,353.61 0,413.46 "/>
<polygon fill="#B8BE82" points="0,283.98 0,409.52 218.06,346.75 680.58,169.25 962.86,155.16 780.76,94.43 604.57,108.48 438.06,209.15 160.08,355.17 "/>
<polygon fill="#4C4475" points="998.03,760.98 1052.15,809.07 1014.12,839.51 1091.59,823.2 1134.2,834.79 1196.84,784.65 1069.66,795.05 "/>
<circle fill="#8E8E18" cx="906.61" cy="57.07" r="4.36"/>
</g>
<g id="f14_leaves" class="leaves-white">
<polygon fill="#F7EBDF" points="183.75,144.81 132.82,235.66 149.11,442.6 270.73,564.71 393.6,633.58 528.41,620.52 597.29,562.17 692.68,455.75 717.11,352.58 799.47,212.52 741.36,126.02 617.36,86.05 448.57,6.85 351.15,72.97 "/>
<polygon fill="#F7EBDF" points="1233.63,755.8 1293.46,670.55 1298.12,463.02 1189.43,329.27 1074.14,248.36 938.71,247.75 864.29,298.86 758.65,395.12 723.94,495.3 627.88,626.33 676.96,718.26 796.3,770.53 956.24,866.35 1059.83,810.39 "/>
</g>
<g id="f14_bug_left_body" class="bug-left-body">
<polygon fill="#6D8B5C" points="326.31,255.68 385.21,252.98 442.15,272.13 506.98,314.34 537.77,336.67 510.95,381.08 502.65,437.99 463.6,443.72 384.58,432.82 346.92,419.52 314.84,409.8 296.5,401.85 286.04,383.19 274.53,324.23 313.41,269.98 "/>
<polygon fill="#6D8B5C" points="571.38,371.6 540.17,444.9 573.83,451.02 594.71,436.35 600.55,417.17 599.5,406.83 590.27,391.91 "/>
<circle fill="#F4C837" cx="570.7" cy="429.99" r="15.24"/>
<circle opacity="0.2" fill="#C7B16F" cx="568.51" cy="429.06" r="15.24"/>
<circle opacity="0.4" fill="#EE9D20" cx="570.93" cy="430.11" r="13.19"/>
<ellipse opacity="0.3" fill="#F7E0B8" transform="matrix(0.9622 -0.2723 0.2723 0.9622 -86.2718 173.4429)" cx="581.76" cy="397.55" rx="13.6" ry="13.64"/>
<ellipse fill="#F5DBA9" transform="matrix(0.9622 -0.2723 0.2723 0.9622 -87.1565 173.2067)" cx="580.46" cy="400.62" rx="13.56" ry="13.64"/>
<polygon fill="#F4957E" points="601.24,417.81 593.81,431.12 614.31,438.06 "/>
<circle fill="#BCAB8E" cx="580.52" cy="400.56" r="5.95"/>
<circle fill="#746B40" cx="581.16" cy="399.41" r="3.16"/>
<circle fill="#745C2B" cx="581.16" cy="399.41" r="2.04"/>
<circle fill="#FAE9CC" cx="572.51" cy="431.6" r="6.13"/>
<circle fill="#7A8455" cx="572.51" cy="431.6" r="3.16"/>
<polygon fill="#F0BA8A" points="300.01,307.69 410.61,327.69 408.87,355.62 293.99,338.06 "/>
<polygon fill="#9DA12D" points="482.71,305.72 461.93,338.73 457.98,362.38 511.8,377.82 537.12,341.23 "/>
<polygon fill="#E5E1A2" points="289.81,334.23 513.19,378.31 511.83,384.7 288.63,341.23 "/>
<polygon fill="#E1CF58" points="409.41,328.89 407.77,355.27 456.66,366.11 460.78,339.09 "/>
<polygon opacity="0.3" fill="#F2DF9C" points="408.97,329.93 407.58,355.61 454.22,366.49 457.96,340.2 "/>
<polygon fill="#F5AE51" points="329.2,318.71 326.35,330.78 388.3,339.54 388.2,345.82 409.12,351.17 413.52,330.52 401.28,325.85 "/>
<polygon fill="#BCBBB0" points="299.39,314.65 323.29,318.95 320.89,322.99 298.13,318.29 "/>
<polygon fill="#ECA08E" points="321.22,334.74 389.61,344.17 387.61,350.37 404.14,355.71 404.85,358.21 318.02,343.64 "/>
<polygon fill="#DFB155" points="298,321.28 322.89,327.38 320.81,331.1 297.08,324.67 "/>
<polygon fill="#BCBBB0" points="296.59,327.66 320.15,333.51 317.49,337.39 295.09,331.22 "/>
<polygon fill="#DEB381" points="370.96,326.92 370.04,330.31 411.79,338.52 412.25,334.01 "/>
<polygon fill="#CCBFAB" points="369.37,334.76 368.45,338.15 410.21,346.37 410.67,341.85 "/>
<polygon fill="#B6AF9C" points="367.53,341.54 366.61,344.93 408.37,353.14 408.83,348.63 "/>
<polygon fill="#98C196" points="536.54,341.4 548.75,347.8 562.79,363.39 571.54,372.18 539.43,444.48 515.85,443.02 502.55,438.02 510.88,381.21 "/>
<polygon fill="#A99E5C" points="286.97,352.4 509.35,389.5 505.93,390.91 283.54,353.98 "/>
<polygon fill="#B9D5B9" points="286.46,366.42 508.52,411.08 505.08,412.91 283.01,368.47 "/>
<polygon fill="#EBDFA2" points="285.96,381.9 508.02,426.56 504.58,428.39 282.51,383.95 "/>
<polygon fill="#9DA12D" points="501.72,439.51 493.62,440.55 490.08,460.33 502.73,463.51 509.98,442.18 "/>
<polygon fill="#98C196" points="495.58,464.4 489.24,479.46 558.55,510.75 576.86,562.32 579.91,561.46 561.91,511.39 493.97,477.45 497.44,464.84 "/>
<polygon fill="#B6AF9C" points="536.28,315.18 543.22,311.31 545.42,313.38 534.95,333.58 528.53,328.75 "/>
<polygon fill="#9DA12D" points="546.58,310.36 555.71,297.89 572.77,307.95 590.72,326.06 599.76,334.77 617.71,338.46 659.66,334.09 658.57,330.25 603.49,332.47 584.54,317.06 568.13,299.46 555.5,295.77 544.1,308.72 "/>
<polygon fill="#DEB381" points="491.24,260.95 498.41,263.9 501.16,265.03 483.14,296.89 471.25,291.08 "/>
<polygon fill="#E5E1A2" points="505.11,246 471.89,227.47 440.99,220.51 432.12,215.72 428.24,213.06 427.78,222.5 431.2,219.11 471.59,231.34 499.55,246.08 494.31,260.09 498.41,263.9 "/>
<polygon fill="#6D8B5C" points="396.1,435.86 398.17,443.17 398.17,460.68 400.9,461.56 402.44,438.19 "/>
<polygon fill="#DEB381" points="398.63,462.29 335.15,505.63 327.1,507.91 329.07,514.85 334.51,509.99 400.87,465.98 404.54,460.62 "/>
<polygon fill="#B9D5B9" points="337.22,417.84 335.49,447.12 337.15,448.53 343.17,421.16 "/>
<polygon fill="#ECA08E" points="335.62,451.19 284.19,461.92 283.12,465.81 299.43,461.38 331.93,454.98 337.88,452.89 "/>
<polygon fill="#9DA12D" points="282.96,464.96 274.07,464.5 279.5,474.86 "/>
<polygon fill="#ECA08E" points="379.22,230.06 366.4,231.19 365.6,252.7 378.01,252.32 "/>
<polygon fill="#9DA12D" points="373.94,229.05 373.99,207.14 375.44,203.42 298.85,182.71 288.84,180.53 288.16,186.98 297.02,185.1 371.75,205.89 369.96,228.3 "/>
<polygon fill="#ECA08E" points="320.3,160.54 313.21,171.29 329.56,185.29 336.97,175.33 "/>
<polygon fill="#DEB381" points="363.08,204.52 360.92,197.08 360.09,194.22 396.23,188.47 399.1,201.39 "/>
<polygon opacity="0.3" fill="#F2DF9C" points="334.63,183.12 334.19,198.71 360.67,205.93 362.44,190.01 "/>
<polygon opacity="0.3" fill="#F2DF9C" points="386.69,455.72 385.3,481.41 431.93,492.28 435.68,465.99 "/>
<polygon fill="#DEB381" points="418.76,487.13 416.6,479.69 415.78,476.83 451.92,471.09 454.78,484.01 "/>
<polygon fill="#ECA08E" points="394.46,460.6 387.37,471.34 403.72,485.34 411.14,475.38 "/>
<polygon fill="#E5E1A2" points="352.27,270.57 352.39,281.72 345.19,274.98 334.93,273.3 332.84,263.6 343.26,268.72 344.17,263.14 355.14,264.93 "/>
<polygon fill="#ECA08E" points="456.7,505.85 495.65,520.49 546.54,558.44 555.89,559.26 548.83,561.23 493.69,523.98 "/>
<polygon fill="#E5E1A2" points="457.39,251.52 496.34,266.15 547.22,304.1 556.57,304.92 549.52,306.9 494.37,269.65 "/>
<polyline fill="#FF8C00" fill-opacity="0.8" points="450.1,321.16 437.71,324.67 430.27,314.89 444.65,315.16 442.74,308.41 455.98,304.67 455.73,312.5 461.72,324.94 450.1,321.16 "/>
</g>
<g id="f14_bug_left_legs" class="bug-left-legs">
<polygon fill="#BCAB8E" points="594.71,436.35 627.63,470.85 631.08,510.62 632.05,521.86 635.61,534.41 625.4,537.3 624.21,473.05 592.55,439.64 "/>
<polygon fill="#BCAB8E" points="603.21,413.29 647.34,398.92 685.67,340.04 693.17,330.87 684.14,329.04 667.5,361.81 651.98,385.47 638.02,399.68 601.91,408.72 "/>
<polygon fill="#D4BDB0" points="547.12,351.83 579.24,312.38 222.33,98.9 201.37,104.83 542.44,308.18 556.39,317.72 564.9,318.68 553.67,334.61 542.54,348.26 "/>
<polygon fill="#D4BDB0" points="277.68,350.65 248.87,386.05 569.15,577.62 587.95,572.3 281.89,389.83 269.37,381.26 261.73,380.39 271.81,366.1 281.8,353.86 "/>
<polyline fill="#BCAB8E" points="530.56,433.31 520.3,431.63 518.21,421.93 528.63,427.05 529.54,421.47 540.51,423.26 537.64,428.9 537.76,440.05 530.56,433.31 "/>
</g>
<g id="f14_bug_right_body" class="bug-right-body">
<polygon fill="#92C199" points="970.31,649.71 954.19,628.94 946.58,619.56 937.02,617.87 937.9,584.64 956.34,539.67 953.99,493.44 964.44,479.84 971.43,468.15 989.31,450.9 1012.06,448.11 1024.54,450.32 1042.43,453.47 1053.4,469.63 1060.21,480.1 1071.6,482.11 1090.82,481.79 1105.81,484.44 1110.57,488.99 1081.33,521.54 1054.11,563.72 1057.81,595.29 1070.65,634.65 1088.64,648.33 1091.39,653.76 1061.73,646.67 1045.79,638.92 1034.75,641.91 1029.18,648.97 1013.3,654.82 991.05,658.32 975.39,652.46 "/>
<polygon opacity="0.9" fill="#D6DF00" points="972.47,645.22 956.91,625.16 949.55,616.1 940.32,614.47 941.17,582.38 958.98,538.95 956.71,494.29 966.81,481.16 973.56,469.87 990.83,453.21 1012.8,450.52 1024.85,452.65 1042.13,455.69 1052.72,471.29 1059.29,481.41 1070.3,483.35 1088.86,483.05 1103.34,485.6 1107.94,489.99 1079.7,521.43 1053.4,562.17 1056.98,592.66 1069.38,630.67 1086.76,643.89 1089.41,649.14 1060.77,642.29 1045.37,634.8 1034.71,637.69 1029.33,644.51 1014,650.16 992.5,653.53 977.38,647.88 "/>
<polygon fill="#CCA002" points="943.52,588.07 963.69,576.94 986.27,582.1 1008.69,574.9 1023.15,571.22 1027.85,569.47 1024.06,566.03 986.5,574.18 967.01,568.13 942.88,578.2 "/>
<polygon fill="#CCA002" points="957.54,501.85 972.92,517.89 995.89,520.88 1014.66,534.32 1027.08,542.16 1030.95,545.18 1026.25,546.87 993.51,527.68 973.17,526.46 953.72,510.03 "/>
<polygon fill="#6AAF96" points="954.38,616.41 962.96,604.42 979.58,599.92 997.7,600.56 1020.47,604.58 1026.58,613.29 1023.5,630.77 1027.42,635.17 1032.13,608.51 1018.75,596.15 981.17,590.9 956.39,595.04 947.58,611.69 "/>
<polygon fill="#6AAF96" points="976.6,472.31 980.99,485.59 995.81,495.07 1013.83,500.62 1037.55,504.81 1046.49,499.32 1049.35,483.15 1054.68,480.65 1050.33,505.33 1033.03,511.53 994.33,503.43 971.38,491.5 968.32,474.12 "/>
<polygon fill="#CCB02F" points="1088.75,638.32 1083.84,635.27 1075.59,622.65 1067.61,613.23 1062.57,595.74 1060.33,575.18 1062.08,559.32 1067.73,540.02 1072.5,528.64 1080.24,519.85 1089.26,505.74 1098.11,496.59 1106.05,489.1 1113.66,490.93 1101.93,488.12 1093.32,497.32 1076.53,513.96 1061.42,534.8 1058.53,546.84 1053.36,557.23 1056.89,583.12 1057.54,603.93 1064.78,623.94 1075.83,630.22 1079.03,640.38 "/>
<ellipse fill="#E9D102" fill-opacity="0.8" transform="matrix(0.991 -0.1338 0.1338 0.991 -53.967 139.05)" cx="1007.78" cy="471.13" rx="25.68" ry="20.46"/>
<ellipse fill="#D99C26" transform="matrix(0.991 -0.1338 0.1338 0.991 -53.7475 138.6194)" cx="1004.68" cy="469.28" rx="22.86" ry="18.21"/>
<ellipse fill="#B4BE9B" transform="matrix(0.991 -0.1338 0.1338 0.991 -53.3791 138.5956)" cx="1004.69" cy="466.53" rx="19.66" ry="15.66"/>
<ellipse fill="#060604" transform="matrix(0.991 -0.1338 0.1338 0.991 -53.2117 138.4873)" cx="1003.97" cy="465.23" rx="18.58" ry="14.8"/>
<ellipse fill="#F4F3EB" transform="matrix(0.991 -0.1338 0.1338 0.991 -52.1913 139.4199)" cx="1011.42" cy="458.1" rx="3.66" ry="2.92"/>
<ellipse fill="#E9D102" fill-opacity="0.8" transform="matrix(0.991 -0.1338 0.1338 0.991 -74.9173 138.8031)" cx="995.46" cy="626.91" rx="32.25" ry="25.69"/>
<ellipse fill="#D99C26" transform="matrix(0.991 -0.1338 0.1338 0.991 -75.4743 139.0786)" cx="997.23" cy="631.19" rx="26.63" ry="21.21"/>
<ellipse fill="#B4BE9B" transform="matrix(0.991 -0.1338 0.1338 0.991 -75.9034 139.1064)" cx="997.23" cy="634.4" rx="22.9" ry="18.24"/>
<ellipse fill="#060604" transform="matrix(0.991 -0.1338 0.1338 0.991 -76.0983 139.2325)" cx="998.07" cy="635.91" rx="21.65" ry="17.24"/>
<polygon fill="#D75F5B" points="941.45,585.76 926.55,558.42 935.83,541.76 925.56,519.03 935.7,503.18 949.73,492.46 957.28,511.15 953.36,542.25 940.45,574.52 "/>
<polygon fill="#E5E1A2" points="973.25,668.88 1001.83,688.15 1025.68,695.47 1033.26,700.45 1036.73,703.21 1034.56,693.47 1033.02,696.95 1001.01,684.16 977.19,668.82 977.2,654.39 973.27,650.44 "/>
<ellipse fill="#E5E1A2" transform="matrix(0.0989 -0.9951 0.9951 0.0989 368.0402 1539.1819)" cx="1033.91" cy="566.37" rx="5.43" ry="2.02"/>
<ellipse fill="#E5E1A2" transform="matrix(0.0989 -0.9951 0.9951 0.0989 384.7403 1526.9236)" cx="1035.49" cy="551.02" rx="5.43" ry="2.02"/>
<polygon opacity="0.4" fill="#DAE0D7" points="953.83,568.02 976.36,556.14 990.35,567.51 1021.2,560.99 1023.64,551.15 995.14,533.82 978.69,543.82 964.55,525.25 973.89,548.4 "/>
<polygon fill="#DCFC85" points="1017.74,573.24 1037.38,605.69 1058.48,630.53 1058.11,625.01 1064.39,624.43 1041.24,601.69 1021.84,572.42 "/>
<polygon fill="#DCFC85" points="1022.02,538.97 1051.99,516.1 1080.48,500.31 1078.09,505.04 1083.6,507.32 1054.03,520.69 1025.46,540.84 "/>
<polygon fill="#865470" points="1083.12,634.96 1076.67,604.5 1090.32,591.19 1086.99,566.47 1101.25,554.19 1117.76,547.94 1119.64,568 1106.98,596.68 1085.37,623.9 "/>
<polygon fill="#93C6A9" points="1123,500.88 1129.6,514.55 1149.85,524.99 1174.12,531.64 1205.89,537.24 1217.45,532.22 1220.31,516.04 1227.25,513.84 1222.9,538.51 1200.26,543.77 1148.37,533.34 1117.18,519.96 1112.11,502.22 "/>
<polygon fill="#93C6A9" points="1095.53,631.13 1106.56,619.73 1129.23,616.4 1154.34,618.3 1186.11,623.91 1195.17,633.05 1192.13,650.31 1197.86,654.99 1202.51,628.65 1183.14,615.36 1130.8,607.48 1096.82,609.89 1085.79,625.93 "/>
<polygon fill="#E5E1A2" points="997.83,433.29 1026.44,427.42 1049.05,429.62 1056.62,428.17 1060.16,427.11 1056.77,434.26 1055.89,430.91 1025.12,430.37 1001.37,434.68 999.28,446.38 995.15,448.24 "/>
<polygon opacity="0.4" fill="#DAE0D7" points="1106.38,602.2 1140.13,584.4 1161.07,601.43 1207.27,591.66 1210.91,576.93 1168.25,550.98 1143.61,565.96 1122.44,538.15 1136.42,572.82 "/>
<polygon fill="#CF4C39" points="1145.33,502.08 1149.43,510.57 1162.01,517.06 1177.1,521.19 1196.84,524.68 1204.02,521.55 1205.8,511.5 1210.11,510.13 1207.41,525.46 1193.34,528.73 1161.1,522.25 1141.71,513.94 1138.56,502.91 "/>
<polygon fill="#8C2241" points="1155.1,496.29 1157.99,503.09 1167.11,508.15 1178.1,511.28 1192.51,513.82 1197.81,511.2 1199.25,503.08 1202.42,501.91 1200.24,514.31 1189.9,517.14 1166.37,512.35 1152.29,505.91 1150.14,497.06 "/>
<polygon fill="#CF4C39" points="1180.04,645.12 1175.94,636.63 1163.36,630.14 1148.27,626.01 1128.53,622.52 1121.34,625.65 1119.57,635.7 1115.25,637.07 1117.96,621.73 1132.03,618.47 1164.27,624.95 1183.66,633.26 1186.81,644.29 "/>
<polygon fill="#8C2241" points="1170.85,649.96 1167.96,643.17 1158.84,638.1 1147.85,634.97 1133.45,632.43 1128.14,635.05 1126.71,643.18 1123.53,644.34 1125.72,631.94 1136.06,629.12 1159.58,633.91 1173.66,640.35 1175.82,649.2 "/>
</g>
<g id="f14_bug_right_legs" class="bug-right-legs">
<polygon fill="#B8CE04" points="1103.14,697.7 1094.59,684.31 1071.88,648.72 1081.73,642.16 1085.11,663.31 1099.31,683.59 1110.29,686.32 1118.9,662.16 1114.96,684.47 1137.06,689.07 1113.73,686.93 1114.47,699.7 1119.87,714.88 1130.01,729.07 1140.56,738.68 1146.1,739.66 1132.17,739.17 1126.45,729.08 1114.43,714.31 1110.49,705.32 1109.36,729.62 1112.39,748.33 1110.36,759.82 1106.14,752.36 1105.46,729.33 1106.86,706.24 1104.45,694.77 1102.08,688.03 1099.6,686.41 "/>
<polygon fill="#B0B902" points="1147.81,455.34 1135.01,463.11 1100.98,483.77 1108.62,492.12 1118.81,476.57 1139.45,465.2 1151.21,466.61 1151.92,488.42 1155.24,469.58 1178.63,473.12 1154.82,467.25 1159.69,457.44 1169.95,447.24 1184.59,439.35 1198.16,435.2 1203.96,436.23 1190.01,432.1 1181.07,438.19 1164.38,445.92 1157.56,451.72 1164.31,432.24 1173.36,418.49 1175.07,408.79 1168.48,413.29 1160.35,431.2 1154.26,449.82 1148.16,458.07 1143.63,462.61 1140.65,463.08 "/>
<polyline fill="#FFEC00" fill-opacity="0.8" points="1079.67,488.61 1087.71,488.72 1090.43,495.89 1081.87,493.17 1081.81,497.55 1073.22,497.44 1074.76,492.8 1073.39,484.28 1079.67,488.61 "/>
<polyline fill="#1C1468" fill-opacity="0.8" points="1212.62,608.81 1217.6,619.83 1209.56,628.1 1207.81,614.71 1201.81,617.42 1196.49,605.64 1203.8,604.79 1214.52,597.49 1212.62,608.81 "/>
</g>
<g id="f14_creature_0" class="creature">
<polygon fill="#802940" points="495.64,754.77 491.65,714.41 515.36,691.06 502.99,679.71 509.81,677.02 516.7,687.6 512.16,676.09 513.84,675.43 522.03,689.11 516.25,674.48 518.73,673.5 526.56,686.87 520.8,672.28 524.29,670.85 532.26,684.17 550.25,685.18 565.35,696.59 576.45,721.29 565.69,749.44 527.98,764.33 509.54,764.85 "/>
<circle fill="#802940" cx="530.97" cy="725.18" r="4.1"/>
<circle fill="#802940" cx="552.11" cy="727.94" r="5.26"/>
<circle fill="#F4E9D4" cx="517.48" cy="726.14" r="5.26"/>
<circle fill="#802940" cx="562.39" cy="703.31" r="5.26"/>
<circle fill="#802940" cx="561.29" cy="736.5" r="5.26"/>
<circle fill="#F4E9D4" cx="543.6" cy="715.84" r="5.26"/>
<circle fill="#8E8E18" cx="531.07" cy="721.28" r="4.36"/>
</g>
<g id="f14_creature_1" class="creature">
<polygon fill="#802940" points="609.71,770.18 648.39,757.95 676.12,776.33 684.67,761.88 688.72,768.01 679.78,776.93 690.11,770.11 691.1,771.61 679.41,782.45 692.54,773.78 694.01,776 682.54,786.42 695.62,777.78 697.74,780.9 686.36,791.44 689.07,809.25 681.03,826.38 659.15,842.34 629.39,837.62 607.04,803.8 602.73,785.86 "/>
<circle fill="#802940" cx="645.96" cy="798.65" r="4.1"/>
<circle fill="#802940" cx="647.62" cy="819.9" r="5.26"/>
<circle fill="#F4E9D4" cx="642.24" cy="785.64" r="5.26"/>
<circle fill="#802940" cx="673.84" cy="824.87" r="5.26"/>
<circle fill="#802940" cx="641.14" cy="830.65" r="5.26"/>
<circle fill="#F4E9D4" cx="657.7" cy="809.07" r="5.26"/>
<circle fill="#8E8E18" cx="649.8" cy="797.94" r="4.36"/>
</g>
<g id="f14_creature_2" class="creature">
<polygon opacity="0.9" fill="#E1E100" points="136.96,641.04 132.97,600.67 156.68,577.33 144.3,565.98 151.13,563.28 158.02,573.87 153.47,562.36 155.15,561.7 163.35,575.37 157.57,560.74 160.05,559.76 167.87,573.13 162.12,558.55 165.61,557.12 173.57,570.43 191.56,571.45 206.66,582.85 217.77,607.56 207.01,635.71 169.3,650.59 150.85,651.11 "/>
<circle fill="#802940" cx="172.29" cy="611.45" r="4.1"/>
<circle fill="#802940" cx="193.42" cy="614.2" r="5.26"/>
<circle fill="#F4E9D4" cx="158.8" cy="612.41" r="5.26"/>
<circle fill="#802940" cx="203.7" cy="589.57" r="5.26"/>
<circle fill="#802940" cx="202.61" cy="622.76" r="5.26"/>
<circle fill="#F4E9D4" cx="184.91" cy="602.11" r="5.26"/>
<circle fill="#8E8E18" cx="172.39" cy="607.54" r="4.36"/>
</g>
<g id="f14_creature_3" class="creature">
<polygon fill="#802940" points="303.52,715.25 338.43,694.6 369.6,706.24 374.67,690.24 379.99,695.29 373.3,706 381.82,697.02 383.13,698.26 374.19,711.46 385.01,700.05 386.95,701.89 378.13,714.62 388.92,703.25 391.69,705.81 382.98,718.65 389.65,735.39 385.69,753.89 367.98,774.38 337.92,776.51 308.51,748.61 300.25,732.1 "/>
<circle fill="#802940" cx="345.26" cy="734.8" r="4.1"/>
<circle fill="#802940" cx="351.68" cy="755.12" r="5.26"/>
<circle fill="#F4E9D4" cx="338.69" cy="722.97" r="5.26"/>
<circle fill="#802940" cx="378.35" cy="754.04" r="5.26"/>
<circle fill="#802940" cx="347.79" cy="767.06" r="5.26"/>
<circle fill="#F4E9D4" cx="359.05" cy="742.3" r="5.26"/>
<circle fill="#8E8E18" cx="348.84" cy="733.24" r="4.36"/>
</g>
<g id="f14_creature_4" class="creature">
<polygon fill="#802940" points="847.09,237.9 843.1,197.54 866.81,174.19 854.44,162.84 861.27,160.15 868.15,170.73 863.61,159.22 865.29,158.56 873.48,172.24 867.7,157.61 870.18,156.63 878.01,170 872.25,155.41 875.74,153.98 883.71,167.3 901.7,168.31 916.8,179.72 927.9,204.42 917.14,232.57 879.43,247.46 860.99,247.98 "/>
<circle fill="#802940" cx="882.42" cy="208.31" r="4.1"/>
<circle fill="#802940" cx="903.56" cy="211.07" r="5.26"/>
<circle fill="#F4E9D4" cx="868.93" cy="209.27" r="5.26"/>
<circle fill="#802940" cx="913.84" cy="186.44" r="5.26"/>
<circle fill="#802940" cx="912.74" cy="219.63" r="5.26"/>
<circle fill="#F4E9D4" cx="895.05" cy="198.97" r="5.26"/>
<circle fill="#8E8E18" cx="882.52" cy="204.41" r="4.36"/>
</g>
<g id="f14_creature_5" class="creature">
<polygon opacity="0.9" fill="#E1E100" points="1253.61,326.18 1282.85,298.06 1315.86,302.23 1317.11,285.48 1323.45,289.18 1319.4,301.14 1325.63,290.44 1327.19,291.35 1321.52,306.25 1329.44,292.66 1331.74,294 1326.08,308.42 1333.97,294.87 1337.26,296.73 1331.73,311.23 1342.07,325.98 1342.46,344.9 1329.94,368.92 1301.17,377.89 1266.13,357.49 1254.31,343.33 "/>
<circle fill="#802940" cx="1298.73" cy="335.61" r="4.1"/>
<circle fill="#802940" cx="1309.64" cy="353.91" r="5.26"/>
<circle fill="#F4E9D4" cx="1289.62" cy="325.61" r="5.26"/>
<circle fill="#802940" cx="1335.35" cy="346.74" r="5.26"/>
<circle fill="#802940" cx="1308.6" cy="366.42" r="5.26"/>
<circle fill="#F4E9D4" cx="1313.87" cy="339.74" r="5.26"/>
<circle fill="#8E8E18" cx="1301.85" cy="333.27" r="4.36"/>
</g>
<g id="f14_creature_6" class="creature">
<polygon fill="#802940" points="1158.22,241.12 1154.24,200.75 1177.94,177.41 1165.57,166.06 1172.4,163.36 1179.28,173.95 1174.74,162.44 1176.42,161.77 1184.61,175.45 1178.84,160.82 1181.31,159.84 1189.14,173.21 1183.38,158.63 1186.87,157.2 1194.84,170.51 1212.83,171.53 1227.93,182.93 1239.03,207.63 1228.28,235.78 1190.56,250.67 1172.12,251.19 "/>
<circle fill="#802940" cx="1193.56" cy="211.52" r="4.1"/>
<circle fill="#802940" cx="1214.69" cy="214.28" r="5.26"/>
<circle fill="#F4E9D4" cx="1180.06" cy="212.49" r="5.26"/>
<circle fill="#802940" cx="1224.97" cy="189.65" r="5.26"/>
<circle fill="#802940" cx="1223.87" cy="222.84" r="5.26"/>
<circle fill="#F4E9D4" cx="1206.18" cy="202.19" r="5.26"/>
<circle fill="#8E8E18" cx="1193.66" cy="207.62" r="4.36"/>
</g>
<g id="f14_creature_7" class="creature">
<polygon opacity="0.9" fill="#E1E100" points="1011.13,133.92 1032.89,99.69 1065.95,95.94 1063.21,79.37 1070.25,81.46 1069.14,94.04 1072.66,82.18 1074.39,82.69 1072.4,98.51 1076.88,83.43 1079.44,84.19 1077.35,99.54 1081.81,84.51 1085.45,85.53 1083.5,100.93 1097.04,112.82 1101.89,131.11 1095.39,157.41 1069.56,172.93 1030.7,161.39 1015.86,150.42 "/>
<circle fill="#802940" cx="1059.46" cy="130.15" r="4.1"/>
<circle fill="#F4E9D4" cx="1045.98" cy="124.85" r="5.26"/>
<circle fill="#F4E9D4" cx="1072.89" cy="132.85" r="5.26"/>
</g>
<g id="f14_creature_8" class="creature">
<polygon fill="#802940" points="1270.23,137.73 1266.24,97.36 1289.95,74.02 1277.58,62.67 1284.4,59.97 1291.29,70.56 1286.75,59.05 1288.43,58.38 1296.62,72.06 1290.84,57.43 1293.32,56.45 1301.15,69.82 1295.39,55.24 1298.88,53.8 1306.85,67.12 1324.84,68.14 1339.94,79.54 1351.04,104.24 1340.28,132.39 1302.57,147.28 1284.13,147.8 "/>
<circle fill="#802940" cx="1305.56" cy="108.13" r="4.1"/>
<circle fill="#802940" cx="1326.7" cy="110.89" r="5.26"/>
<circle fill="#F4E9D4" cx="1292.07" cy="109.09" r="5.26"/>
<circle fill="#802940" cx="1336.98" cy="86.26" r="5.26"/>
<circle fill="#802940" cx="1335.88" cy="119.45" r="5.26"/>
<circle fill="#F4E9D4" cx="1318.19" cy="98.8" r="5.26"/>
<circle fill="#8E8E18" cx="1305.66" cy="104.23" r="4.36"/>
</g>
<g id="f14_creature_9" class="creature">
<polygon fill="#802940" points="871.18,90.57 867.19,50.2 890.9,26.86 878.52,15.51 885.35,12.81 892.24,23.4 887.69,11.89 889.37,11.22 897.57,24.9 891.79,10.27 894.27,9.29 902.09,22.66 896.33,8.08 899.83,6.64 907.79,19.96 925.78,20.98 940.88,32.38 951.99,57.08 941.23,85.23 903.52,100.12 885.07,100.64 "/>
<circle fill="#802940" cx="906.51" cy="60.97" r="4.1"/>
<circle fill="#802940" cx="927.64" cy="63.73" r="5.26"/>
<circle fill="#F4E9D4" cx="893.02" cy="61.93" r="5.26"/>
<circle fill="#802940" cx="936.83" cy="72.29" r="5.26"/>
</g>
<g id="f14_creature_10" class="creature">
<polygon opacity="0.9" fill="#E1E100" points="188.7,862.37 184.72,822 208.42,798.66 196.05,787.31 202.88,784.62 209.76,795.2 205.22,783.69 206.9,783.03 215.09,796.71 209.32,782.07 211.8,781.1 219.62,794.47 213.86,779.88 217.36,778.45 225.32,791.77 243.31,792.78 258.41,804.18 269.52,828.89 258.76,857.04 221.05,871.93 202.6,872.44 "/>
<circle fill="#802940" cx="224.04" cy="832.78" r="4.1"/>
<circle fill="#802940" cx="245.17" cy="835.54" r="5.26"/>
<circle fill="#F4E9D4" cx="210.54" cy="833.74" r="5.26"/>
<circle fill="#802940" cx="255.45" cy="810.91" r="5.26"/>
<circle fill="#802940" cx="254.35" cy="844.1" r="5.26"/>
<circle fill="#F4E9D4" cx="236.66" cy="823.44" r="5.26"/>
<circle fill="#8E8E18" cx="224.14" cy="828.88" r="4.36"/>
</g>
<g id="f14_creature_11" class="creature">
<polygon opacity="0.9" fill="#E1E100" points="1194.43,479.88 1211.47,498.71 1219.49,507.19 1228.82,508.12 1230.39,540.18 1215.91,584.83 1221.54,629.19 1212.47,643.05 1206.59,654.82 1190.62,672.73 1168.92,677.07 1156.74,675.86 1139.28,674.13 1127.54,659.37 1120.22,649.78 1109.11,648.67 1090.62,650.38 1075.99,648.93 1071.07,644.89 1096.86,611.41 1120,568.8 1114.13,538.67 1098.9,501.7 1080.58,489.84 1077.53,484.81 1106.61,489.47 1122.53,495.78 1132.94,492.09 1137.8,484.89 1152.65,478.09 1173.83,473.11 1189.34,477.6 "/>
</g>
</svg>
