<?xml version="1.0" encoding="utf-8"?>
<svg version="1.1" xmlns="http://www.w3.org/2000/svg" viewBox="0 0 1440 900">
<rect id="f12_bg" class="scene-bg" fill="#F9F3B5" width="1440" height="900"/>
<g id="f12_bg_shapes" class="layer-bg">
<polygon fill="#F7EBDF" points="294.03,198.01 243.28,288.56 259.51,494.8 380.73,616.5 503.18,685.13 637.53,672.12 706.18,613.97 801.25,507.9 825.61,405.08 907.68,265.5 849.77,179.28 726.19,139.45 557.96,60.52 460.87,126.41 "/>
<polygon opacity="0.6" fill="#EA8200" points="2,901 2,703.68 52.14,538.85 89.16,393.2 165.52,336.52 300.51,452.25 525.74,819.91 547.05,901 "/>
<polygon fill="#FFA500" points="1,901 1,715.53 48.68,560.6 83.9,423.7 156.52,370.42 284.91,479.2 499.12,824.78 519.38,901 "/>
<polygon fill="#D60023" points="168.73,60.11 168.73,89.32 182.29,101.24 223.76,101.24 238.33,94.46 238.33,56.19 217.09,31.18 181.62,31.18 "/>
<polygon fill="#D60023" points="254.15,60.11 254.15,89.32 267.7,101.24 309.18,101.24 323.75,94.46 323.75,56.19 302.5,31.18 267.04,31.18 "/>
<polygon fill="#D60023" points="344.53,60.11 344.53,89.32 358.09,101.24 399.57,101.24 414.13,94.46 414.13,56.19 392.89,31.18 357.43,31.18 "/>
<polygon fill="#D60023" points="433.12,58.75 433.12,87.97 446.67,99.88 488.15,99.88 502.72,93.1 502.72,54.83 481.47,29.83 446.01,29.83 "/>
<polygon fill="#D60023" points="517.18,58.75 517.18,87.97 530.74,99.88 572.21,99.88 586.78,93.1 586.78,54.83 565.54,29.83 530.07,29.83 "/>
<polygon fill="#D60023" points="603.05,58.75 603.05,87.97 616.61,99.88 658.08,99.88 672.65,93.1 672.65,54.83 651.41,29.83 615.94,29.83 "/>
<polygon fill="#D60023" points="688.47,60.11 688.47,89.32 702.02,101.24 743.5,101.24 758.06,94.46 758.06,56.19 736.82,31.18 701.36,31.18 "/>
<polygon fill="#D60023" points="788.34,59.66 788.34,88.87 801.9,100.78 843.38,100.78 857.94,94 857.94,55.73 836.7,30.73 801.24,30.73 "/>
<polygon fill="#D60023" points="873.76,59.66 873.76,88.87 887.32,100.78 928.8,100.78 943.36,94 943.36,55.73 922.12,30.73 886.66,30.73 "/>
<polygon fill="#D60023" points="964.15,59.66 964.15,88.87 977.71,100.78 1019.19,100.78 1033.75,94 1033.75,55.73 1012.51,30.73 977.05,30.73 "/>
<polygon fill="#D60023" points="1052.73,58.3 1052.73,87.52 1066.29,99.43 1107.77,99.43 1122.33,92.65 1122.33,54.38 1101.09,29.38 1065.63,29.38 "/>
<polygon fill="#D60023" points="1136.79,58.3 1136.79,87.52 1150.35,99.43 1191.83,99.43 1206.39,92.65 1206.39,54.38 1185.15,29.38 1149.69,29.38 "/>
<polygon fill="#D60023" points="1222.66,58.3 1222.66,87.52 1236.22,99.43 1277.7,99.43 1292.26,92.65 1292.26,54.38 1271.02,29.38 1235.56,29.38 "/>
<polygon fill="#D60023" points="173.7,159.99 173.7,189.2 187.26,201.12 228.73,201.12 243.3,194.34 243.3,156.06 222.06,131.06 186.59,131.06 "/>
<polygon fill="#D60023" points="259.12,159.99 259.12,189.2 272.68,201.12 314.15,201.12 328.72,194.34 328.72,156.06 307.48,131.06 272.01,131.06 "/>
<polygon fill="#D60023" points="349.51,159.99 349.51,189.2 363.06,201.12 404.54,201.12 419.11,194.34 419.11,156.06 397.86,131.06 362.4,131.06 "/>
<polygon fill="#D60023" points="438.09,158.63 438.09,187.85 451.65,199.76 493.12,199.76 507.69,192.98 507.69,154.71 486.45,129.71 450.98,129.71 "/>
<polygon fill="#D60023" points="522.15,158.63 522.15,187.85 535.71,199.76 577.18,199.76 591.75,192.98 591.75,154.71 570.51,129.71 535.04,129.71 "/>
<polygon fill="#D60023" points="608.02,158.63 608.02,187.85 621.58,199.76 663.05,199.76 677.62,192.98 677.62,154.71 656.38,129.71 620.91,129.71 "/>
<polygon fill="#D60023" points="693.44,159.99 693.44,189.2 706.99,201.12 748.47,201.12 763.04,194.34 763.04,156.06 741.79,131.06 706.33,131.06 "/>
<polygon fill="#D60023" points="793.32,159.54 793.32,188.75 806.87,200.66 848.35,200.66 862.92,193.88 862.92,155.61 841.67,130.61 806.21,130.61 "/>
<polygon fill="#D60023" points="878.73,159.54 878.73,188.75 892.29,200.66 933.77,200.66 948.33,193.88 948.33,155.61 927.09,130.61 891.63,130.61 "/>
<polygon fill="#D60023" points="969.12,159.54 969.12,188.75 982.68,200.66 1024.16,200.66 1038.72,193.88 1038.72,155.61 1017.48,130.61 982.02,130.61 "/>
<polygon fill="#D60023" points="1057.7,158.18 1057.7,187.39 1071.26,199.31 1112.74,199.31 1127.3,192.53 1127.3,154.26 1106.06,129.26 1070.6,129.26 "/>
<polygon fill="#D60023" points="1141.77,158.18 1141.77,187.39 1155.32,199.31 1196.8,199.31 1211.37,192.53 1211.37,154.26 1190.12,129.26 1154.66,129.26 "/>
<polygon fill="#D60023" points="1227.64,158.18 1227.64,187.39 1241.19,199.31 1282.67,199.31 1297.23,192.53 1297.23,154.26 1275.99,129.26 1240.53,129.26 "/>
<polygon fill="#D60023" points="173.7,253.09 173.7,282.3 187.26,294.22 228.73,294.22 243.3,287.44 243.3,249.17 222.06,224.16 186.59,224.16 "/>
<polygon fill="#D60023" points="259.12,253.09 259.12,282.3 272.68,294.22 314.15,294.22 328.72,287.44 328.72,249.17 307.48,224.16 272.01,224.16 "/>
<polygon fill="#D60023" points="349.51,253.09 349.51,282.3 363.06,294.22 404.54,294.22 419.11,287.44 419.11,249.17 397.86,224.16 362.4,224.16 "/>
<polygon fill="#D60023" points="438.09,251.73 438.09,280.95 451.65,292.86 493.12,292.86 507.69,286.08 507.69,247.81 486.45,222.81 450.98,222.81 "/>
<polygon fill="#D60023" points="522.15,251.73 522.15,280.95 535.71,292.86 577.18,292.86 591.75,286.08 591.75,247.81 570.51,222.81 535.04,222.81 "/>
<polygon fill="#D60023" points="608.02,251.73 608.02,280.95 621.58,292.86 663.05,292.86 677.62,286.08 677.62,247.81 656.38,222.81 620.91,222.81 "/>
<polygon fill="#D60023" points="693.44,253.09 693.44,282.3 706.99,294.22 748.47,294.22 763.04,287.44 763.04,249.17 741.79,224.16 706.33,224.16 "/>
<polygon fill="#D60023" points="793.32,252.64 793.32,281.85 806.87,293.76 848.35,293.76 862.92,286.99 862.92,248.71 841.67,223.71 806.21,223.71 "/>
<polygon fill="#D60023" points="878.73,252.64 878.73,281.85 892.29,293.76 933.77,293.76 948.33,286.99 948.33,248.71 927.09,223.71 891.63,223.71 "/>
<polygon fill="#D60023" points="969.12,252.64 969.12,281.85 982.68,293.76 1024.16,293.76 1038.72,286.99 1038.72,248.71 1017.48,223.71 982.02,223.71 "/>
<polygon fill="#D60023" points="1057.7,251.28 1057.7,280.5 1071.26,292.41 1112.74,292.41 1127.3,285.63 1127.3,247.36 1106.06,222.36 1070.6,222.36 "/>
<polygon fill="#D60023" points="1141.77,251.28 1141.77,280.5 1155.32,292.41 1196.8,292.41 1211.37,285.63 1211.37,247.36 1190.12,222.36 1154.66,222.36 "/>
<polygon fill="#D60023" points="1227.64,251.28 1227.64,280.5 1241.19,292.41 1282.67,292.41 1297.23,285.63 1297.23,247.36 1275.99,222.36 1240.53,222.36 "/>
</g>
<g id="f12_bug_right_body" class="bug-right-body">
<polygon fill="#860256" points="797.96,705.11 797.96,747.13 844.51,816.74 911.4,835.72 968.22,835.72 1013.09,804.54 1025.82,770.42 1038.4,714.15 1026.65,673.02 1028,607.49 990.49,588.51 938.97,598.9 863.95,604.33 842.7,646.81 "/>
<polygon fill="#860256" points="1107.09,705.11 1107.09,747.13 1153.64,816.74 1220.53,835.72 1277.35,835.72 1322.22,804.54 1334.95,770.42 1347.53,714.15 1335.78,673.02 1337.13,607.49 1299.62,588.51 1248.1,598.9 1173.08,604.33 1151.84,646.81 "/>
<polygon fill="#8B8057" points="581.86,0.61 580.12,119.74 540.45,208.7 453.63,287.45 374.61,301.97 252.15,286.99 142.47,241.67 90.37,195.54 7,129.58 0,0.38 "/>
<polygon fill="#4C4475" points="1440.11,0 1430.99,358.55 1367.8,533.14 1223.16,546.76 1026.57,413.91 930.38,294.67 862.98,137.97 872.4,0 "/>
<polygon fill="#D3AD00" points="526.21,1.04 524.72,103.22 488.9,179.48 410.46,246.96 339.01,259.36 228.27,246.43 129.07,207.49 81.93,167.89 6.5,111.26 0.08,0.45 "/>
<polygon opacity="0.9" fill="#E1E100" points="1318.51,406.11 1328.27,436.46 1333.06,450.31 1343.25,456.19 1328.47,493.69 1288.81,537.28 1272.32,590.94 1254.78,602.1 1241.96,612.52 1214.44,624.76 1187.36,618.51 1174.05,610.82 1154.98,599.81 1149.18,576.86 1145.77,562.1 1133.62,555.09 1111.59,547.48 1095.6,538.25 1092.06,531.09 1138.87,506.12 1187.39,469.34 1196.25,431.84 1197.94,381.67 1183.12,358.62 1182.23,351.29 1213.09,371.67 1228.04,387.12 1241.86,388.28 1251.14,382.55 1271.65,382.46 1298.45,387.7 1313.87,400.87 "/>
<polygon fill="#92C199" points="974.3,484.5 966.6,452.4 962.74,437.73 952.67,430.86 970.87,393.3 1015.22,351.4 1036.43,297.28 1055.42,287.14 1069.47,277.37 1098.84,266.89 1126.31,275.46 1139.45,284.44 1158.28,297.3 1162.47,321.45 1164.84,336.95 1176.84,345.14 1198.99,354.71 1214.77,365.49 1217.87,373.16 1167.59,395.28 1114.63,429.46 1102.54,467.49 1096.88,519.16 1110.38,544.11 1110.72,551.75 1080.45,528.3 1066.23,511.18 1052.05,508.9 1042.03,514.09 1020.84,512.58 993.58,505.07 978.69,490.28 "/>
<polygon opacity="0.9" fill="#D6DF00" points="979.1,480.49 971.66,449.49 967.93,435.32 958.21,428.68 975.78,392.4 1018.61,351.93 1039.11,299.67 1057.44,289.87 1071.01,280.44 1099.38,270.31 1125.91,278.59 1138.6,287.26 1156.78,299.68 1160.83,323.01 1163.12,337.98 1174.71,345.89 1196.1,355.14 1211.35,365.54 1214.33,372.95 1165.77,394.32 1114.62,427.33 1102.95,464.05 1097.48,513.95 1110.52,538.06 1110.85,545.43 1081.62,522.79 1067.88,506.25 1054.18,504.05 1044.51,509.06 1024.05,507.61 997.71,500.35 983.33,486.06 "/>
<polygon fill="#CCA002" points="975.53,400.13 1004.36,397.83 1027.52,415.41 1056.89,418.76 1075.34,422.03 1081.62,422.46 1079.06,416.57 1031.87,406.47 1012.71,389.47 979.9,388.51 "/>
<polygon fill="#CCA002" points="1036.15,308.75 1045.45,335.05 1070.18,350.34 1084.7,375.42 1094.86,390.82 1097.72,396.28 1091.48,395.78 1063.94,356.89 1041.3,344.98 1027.55,316.13 "/>
<polygon fill="#6AAF96" points="973.29,438.17 989.31,428.88 1010.64,432.34 1031.05,442.44 1055.02,458.81 1057.51,471.94 1044.94,490.34 1047.15,497.4 1066.32,469.33 1057.41,448.28 1017.13,422.83 986.64,414.75 967.95,429.25 "/>
<polygon fill="#6AAF96" points="1073.22,284.81 1071.38,302.27 1083.43,320.78 1101.18,336.45 1126.15,353.5 1139.22,351.85 1150.85,334.82 1158.24,334.73 1140.5,360.71 1117.5,358.85 1077.42,329.57 1057.33,304.06 1062.83,282.59 "/>
<polygon fill="#CCB02F" points="1115.68,532.72 1111.65,526.69 1108.74,507.99 1104.47,493.08 1107.75,470.47 1115.82,445.78 1126.02,428.55 1142.47,409.38 1153.81,398.84 1167.21,392.79 1184.82,381.3 1199.68,375.41 1212.64,370.96 1220.4,376.98 1208.43,367.7 1193.83,373.78 1166.01,384.12 1137.95,400.15 1128.42,412.44 1117.13,421.65 1107.78,453.09 1097.76,477.23 1095.7,503.87 1105.1,516.77 1103.51,530.04 "/>
<ellipse fill="#E9D102" fill-opacity="0.8" transform="matrix(0.2863 -0.9581 0.9581 0.2863 504.8442 1276.8821)" cx="1109.5" cy="299.57" rx="25.68" ry="32.24"/>
<ellipse fill="#D99C26" transform="matrix(0.2863 -0.9581 0.9581 0.2863 506.5594 1271.7539)" cx="1106.92" cy="295.86" rx="22.86" ry="28.7"/>
<ellipse fill="#B4BE9B" transform="matrix(0.2863 -0.9581 0.9581 0.2863 510.5957 1270.8801)" cx="1108.35" cy="292.71" rx="19.66" ry="24.68"/>
<ellipse fill="#060604" transform="matrix(0.2863 -0.9581 0.9581 0.2863 512.2684 1269.405)" cx="1108.2" cy="290.85" rx="18.58" ry="23.33"/>
<ellipse fill="#F4F3EB" transform="matrix(0.2863 -0.9581 0.9581 0.2863 525.1036 1278.0327)" cx="1120.41" cy="286.55" rx="3.66" ry="4.6"/>
<ellipse fill="#E9D102" fill-opacity="0.8" transform="matrix(0.2863 -0.9581 0.9581 0.2863 272.642 1308.8563)" cx="1014.86" cy="471.42" rx="32.26" ry="40.49"/>
<ellipse fill="#D99C26" transform="matrix(0.2863 -0.9581 0.9581 0.2863 266.936 1312.828)" cx="1014.68" cy="477.24" rx="26.63" ry="33.43"/>
<ellipse fill="#B4BE9B" transform="matrix(0.2863 -0.9581 0.9581 0.2863 262.2346 1313.8458)" cx="1013.01" cy="480.9" rx="22.9" ry="28.75"/>
<ellipse fill="#060604" transform="matrix(0.2863 -0.9581 0.9581 0.2863 260.2862 1315.5638)" cx="1013.19" cy="483.07" rx="21.65" ry="27.17"/>
<ellipse fill="#F4F3EB" transform="matrix(0.2863 -0.9581 0.9581 0.2863 245.3358 1305.5144)" cx="998.97" cy="488.08" rx="4.27" ry="5.36"/>
<polyline fill="#FFEC00" fill-opacity="0.8" points="1182.71,356.75 1191.85,361.03 1191.25,370.64 1182.87,363.11 1180.54,368.08 1170.76,363.51 1174.93,359 1177.77,348.55 1182.71,356.75 "/>
<polygon fill="#D75F5B" points="974.36,396.42 971.44,357.44 990.67,343.18 990.67,311.86 1010.48,298.97 1032.07,293.97 1031.04,319.24 1010.48,352.81 979.02,383.04 "/>
<polygon fill="#E5E1A2" points="967.75,507.96 990.48,544.77 1013.98,565.48 1020.08,575.1 1022.63,580.05 1025.17,567.79 1021.61,570.98 991.61,539.79 972.29,509.92 979.77,493.42 977.32,486.86 "/>
<ellipse fill="#E5E1A2" transform="matrix(0.5 -0.866 0.866 0.5 179.5727 1155.1232)" cx="1090.15" cy="422.05" rx="6.81" ry="2.53"/>
<ellipse fill="#E5E1A2" transform="matrix(0.5 -0.866 0.866 0.5 198.9462 1155.1924)" cx="1099.9" cy="405.3" rx="6.81" ry="2.53"/>
<polygon opacity="0.4" fill="#DAE0D7" points="997.68,382.53 1029.61,380.58 1039.73,400.83 1078.4,409.32 1086.27,399.33 1062.63,364.76 1038.64,367.7 1032.07,339.14 1030.78,370.46 "/>
<polygon fill="#DCFC85" points="1068.1,421.54 1073.78,468.82 1085.08,508.16 1087.51,501.65 1095,504.23 1080.28,466.25 1073.22,422.73 "/>
<polygon fill="#DCFC85" points="1090.72,384.55 1136.84,373.88 1177.59,370.55 1172.41,374.72 1177.53,380.19 1136.8,380.2 1093.68,388.47 "/>
<polygon fill="#865470" points="1110.98,525.96 1119.35,487.78 1141.86,479.62 1150.82,449.61 1173.49,442.93 1195.61,444.32 1187.38,468.24 1158.08,494.51 1119.28,514.47 "/>
<polygon fill="#93C6A9" points="1225.94,393.19 1226.43,412.24 1244.18,434.65 1268.51,454.82 1301.96,477.66 1317.79,477.89 1329.42,460.86 1338.5,461.92 1320.76,487.9 1292.15,482.21 1238.18,443.45 1209.41,412.01 1212.79,389.09 "/>
<polygon fill="#93C6A9" points="1127.16,528 1145.67,520.66 1173.33,528.57 1201.08,543.73 1234.52,566.57 1240.16,581.71 1227.75,599.89 1231.89,608.2 1250.83,580.47 1235.55,555.25 1179.74,519.18 1139.62,504.37 1118.71,517.02 "/>
<polygon opacity="0.4" fill="#DAE0D7" points="1154.54,500.51 1202.34,497.59 1217.5,527.91 1275.4,540.62 1287.19,525.66 1251.79,473.91 1215.86,478.3 1206.03,435.54 1204.09,482.44 "/>
<polygon fill="#CF4C39" points="1250.86,406.11 1251.17,417.95 1262.2,431.87 1277.32,444.4 1298.11,458.6 1307.94,458.74 1315.17,448.16 1320.81,448.82 1309.79,464.96 1292.01,461.43 1258.47,437.34 1240.59,417.8 1242.69,403.56 "/>
<polygon fill="#8C2241" points="1265.03,404.55 1264.83,413.81 1272.65,424.32 1283.6,433.58 1298.77,443.94 1306.18,443.69 1312.03,435.13 1316.27,435.44 1307.35,448.5 1294.06,446.38 1269.63,428.74 1256.85,414.09 1258.96,402.85 "/>
<polygon fill="#CF4C39" points="1216.61,587.7 1216.3,575.86 1205.27,561.94 1190.15,549.41 1169.36,535.21 1159.53,535.07 1152.3,545.65 1146.65,544.99 1157.68,528.85 1175.46,532.38 1209,556.47 1226.88,576.01 1224.78,590.25 "/>
<polygon fill="#8C2241" points="1203.59,588.48 1203.8,579.22 1195.98,568.71 1185.03,559.45 1169.86,549.09 1162.44,549.34 1156.6,557.9 1152.36,557.59 1161.28,544.53 1174.57,546.65 1199,564.29 1211.78,578.94 1209.67,590.18 "/>
<polyline fill="#1C1468" fill-opacity="0.8" points="1272.66,563.01 1272.66,578.19 1259.18,583.5 1264.1,567.27 1255.84,567.27 1255.84,551.04 1264.64,553.84 1280.68,551.04 1272.66,563.01 "/>
</g>
<g id="f12_bug_right_legs" class="bug-right-legs">
<polygon fill="#B8CE04" points="1101.44,608.09 1098.59,588.35 1091,535.89 1105.66,533.48 1098.6,559.42 1104.36,589.97 1115.5,598.76 1137.85,575.57 1121.81,599.06 1144.72,615.76 1119.13,601.24 1113.38,616.24 1111.7,636.39 1115.96,657.86 1123.06,674.32 1128.89,678.3 1113.21,670.55 1111.88,656.04 1105.77,632.94 1105.91,620.61 1092.06,647.82 1085.84,670.79 1077.58,682.89 1076.61,672.17 1087.75,645.47 1101.28,619.78 1104.45,605.42 1105.23,596.48 1103.23,593.34 "/>
<polygon fill="#B0B902" points="1277.87,353.93 1259.21,356.2 1209.6,362.23 1214.01,375.73 1233.71,363.22 1263.2,360.89 1275.93,368.58 1265.46,393.89 1279,374.06 1303.94,390.2 1279.73,371.17 1290.38,362.46 1307.38,356.1 1328.21,354.65 1345.88,356.92 1351.98,361.09 1338.16,349.16 1324.78,351.5 1301.7,351.72 1290.9,354.83 1308.7,336.02 1326.16,324.98 1333.13,314.76 1323.26,316.51 1304.7,332.8 1288.1,350.95 1276.86,357.23 1269.33,360.08 1265.68,359.08 "/>
</g>
<g id="f12_bug_left_body" class="bug-left-body">
<polygon fill="#6D8B5C" points="375.24,688.48 390.01,625.4 427.3,570.92 491.33,515 524.16,489.11 563.1,530.77 620.8,556.58 615.17,599.59 579.99,679.88 554.66,715.73 534.78,746.75 520.88,763.76 498.02,769.24 432.23,763.76 386.49,706.41 "/>
<polygon fill="#6D8B5C" points="571.16,464.03 639.33,518.97 655.88,485.21 646.61,458.74 628.08,446.82 616.83,444.84 598.29,450.13 "/>
<circle fill="#F4C837" cx="632.7" cy="482.22" r="16.74"/>
<circle opacity="0.2" fill="#C7B16F" cx="631.06" cy="484.27" r="16.74"/>
<circle opacity="0.4" fill="#EE9D20" cx="632.9" cy="482.02" r="14.5"/>
<ellipse opacity="0.3" fill="#F7E0B8" cx="601.7" cy="460.82" rx="14.99" ry="14.95"/>
<ellipse fill="#F5DBA9" cx="604.56" cy="463.11" rx="14.99" ry="14.91"/>
<polygon fill="#F4957E" points="628.96,446.29 640.81,458.13 654.28,438.53 "/>
<circle fill="#BCAB8E" cx="604.52" cy="463.03" r="6.53"/>
<circle fill="#746B40" cx="603.49" cy="462.01" r="3.47"/>
<circle fill="#745C2B" cx="603.49" cy="462.01" r="2.25"/>
<circle fill="#FAE9CC" cx="634.94" cy="480.79" r="6.74"/>
<circle fill="#7A8455" cx="634.94" cy="480.79" r="3.47"/>
<polygon fill="#F0BA8A" points="422.36,731.87 476.62,620.9 505.63,631.1 452.68,747.32 "/>
<polygon fill="#9DA12D" points="474.95,538.08 503.64,569.93 527.47,581.19 559.9,528.9 528.79,491.17 "/>
<polygon fill="#E5E1A2" points="447.38,750.59 560.84,527.57 567.18,530.92 454.43,753.94 "/>
<polygon fill="#E1CF58" points="477.52,622.52 504.93,632.15 531.02,583.7 503.68,571.26 "/>
<polygon opacity="0.3" fill="#F2DF9C" points="478.49,623.3 505.23,632.45 530.69,586.4 504.01,574.57 "/>
<polygon fill="#F5AE51" points="442.75,704.3 454.66,710.92 482.46,648.04 489.08,650.02 501,629.5 480.48,618.67 471.87,630.21 "/>
<polygon fill="#BCBBB0" points="429.54,734.6 441.23,710.62 444.8,714.37 433.01,737.03 "/>
<polygon fill="#ECA08E" points="457.31,717.54 487.76,648.04 493.71,652.01 504.3,636.12 507.17,636.12 465.77,723.58 "/>
<polygon fill="#DFB155" points="436.13,738.05 450.03,713.56 453.34,716.87 439.44,740.04 "/>
<polygon fill="#BCBBB0" points="442.46,741.46 455.7,718.3 459.01,722.27 445.77,744.11 "/>
<polygon fill="#DEB381" points="463.93,662.6 467.24,664.58 488.42,622.89 483.79,621.05 "/>
<polygon fill="#CCBFAB" points="471.75,666.62 475.06,668.61 496.24,626.91 491.61,625.08 "/>
<polygon fill="#B6AF9C" points="478.37,670.59 481.68,672.58 502.86,630.88 498.23,629.05 "/>
<polygon fill="#98C196" points="528.79,491.83 539.22,480.84 559.9,470.65 571.82,464.03 638.67,519.63 630.06,544.12 620.8,556.7 563.21,530.88 "/>
<polygon fill="#A99E5C" points="465.75,759.04 571.52,534.98 571.99,539.02 466.39,763.14 "/>
<polygon fill="#B9D5B9" points="480.42,763.77 594.1,542.32 595,546.5 481.55,768.03 "/>
<polygon fill="#EBDFA2" points="496.63,768.93 610.31,547.48 611.22,551.66 497.77,773.19 "/>
<polygon fill="#9DA12D" points="622.12,558.02 620.8,566.9 640.65,576.55 647.81,564.13 627.42,550.08 "/>
<polygon fill="#98C196" points="646.61,571.96 660.63,583.17 714.47,519.24 774.47,515.31 774.47,511.83 716.15,515.88 659.92,577.56 647.62,570.13 "/>
<polygon fill="#B6AF9C" points="501,484.27 498.98,475.77 501.82,474.06 520.05,491.17 513.02,496.52 "/>
<polygon fill="#9DA12D" points="498.98,471.92 488.52,458.54 504.27,443.52 528.79,429.95 540.71,423 549.98,405.12 557.92,359.45 553.53,359.45 539.38,418.36 517.43,433.79 493.9,445.88 486.22,458.13 496.51,474.06 "/>
<polygon fill="#DEB381" points="430.17,515.66 435.43,508.97 437.45,506.39 465.75,534.98 456.04,545.82 "/>
<polygon fill="#E5E1A2" points="418.51,496.52 388.97,526.11 372.36,556.7 364.65,564.64 360.67,567.95 370.51,571.26 367.96,566.62 392.97,527.57 416.94,502.42 430.17,512.16 435.43,508.97 "/>
<polygon fill="#6D8B5C" points="586.66,668.61 595,668.61 613.52,673.85 615.27,671.23 591.01,662.6 "/>
<polygon fill="#DEB381" points="615.36,673.85 642.19,753.94 642.19,763.14 650.12,763.14 646.61,755.93 619.93,672.58 615.36,667.09 "/>
<polygon fill="#B9D5B9" points="549.98,725.48 580.42,736.07 582.41,734.74 555.27,720.18 "/>
<polygon fill="#ECA08E" points="584.76,737.16 580.72,794.75 584.52,797.05 584.71,778.47 587.67,742.19 587.24,735.27 "/>
<polygon fill="#9DA12D" points="583.56,796.96 580.42,806.23 593,803.58 "/>
<polygon fill="#ECA08E" points="363.98,624.87 361.34,638.77 383.84,646.05 387.15,632.81 "/>
<polygon fill="#9DA12D" points="361.34,630.15 338.17,623.55 334.67,620.9 289.85,695.69 284.56,705.62 291.18,708.27 291.84,698.34 336.18,625.53 359.35,634.14 "/>
<polygon fill="#ECA08E" points="272.84,666.38 282.08,677.09 301.77,663.99 293.46,653.17 "/>
<polygon fill="#DEB381" points="332.14,634.3 323.62,634.36 320.35,634.38 325.09,594.43 339.61,595.28 "/>
<polygon opacity="0.3" fill="#F2DF9C" points="301,657.97 317.35,663.11 332.92,637.27 316.6,630.64 "/>
<polygon opacity="0.3" fill="#F2DF9C" points="604.84,684.51 631.58,693.66 657.04,647.61 630.36,635.78 "/>
<polygon fill="#DEB381" points="647.66,659.99 639.14,660.05 635.87,660.07 640.61,620.13 655.13,620.97 "/>
<polygon fill="#ECA08E" points="612.32,677.75 621.56,688.46 641.26,675.36 632.95,664.54 "/>
<polygon fill="#E5E1A2" points="398.75,665.49 410.58,668.7 401.29,674.3 396.45,684.64 385.57,683.96 394.1,674.47 388.47,671.83 393.64,660.77 "/>
<polygon fill="#ECA08E" points="678.81,625.47 705.94,588.67 761.3,546.21 764.96,536.57 764.94,544.62 709.05,591.79 "/>
<polygon fill="#E5E1A2" points="410.06,548.63 437.19,511.83 492.55,469.37 496.22,459.73 496.19,467.78 440.31,514.95 "/>
<polyline fill="#BCAB8E" points="624.2,525.66 619.35,536.01 608.47,535.32 617,525.83 611.37,523.2 616.55,512.14 621.65,516.86 633.48,520.06 624.2,525.66 "/>
<polyline fill="#FF8C00" fill-opacity="0.8" points="481.53,577.18 481.53,591.33 468.96,596.28 473.55,581.15 465.84,581.15 465.84,566.03 474.05,568.64 489,566.03 481.53,577.18 "/>
<polygon fill="#860256" points="506.33,163.15 506.33,205.17 552.88,274.78 619.77,293.76 676.59,293.76 721.46,262.58 734.19,228.46 746.77,172.19 735.02,131.06 736.37,65.53 698.86,46.55 647.34,56.95 572.32,62.37 551.07,104.85 "/>
<polygon fill="#860256" points="197.2,163.15 197.2,205.17 243.75,274.78 310.64,293.76 367.46,293.76 412.33,262.58 425.06,228.46 437.64,172.19 425.88,131.06 427.24,65.53 389.73,46.55 338.21,56.95 263.18,62.37 241.94,104.85 "/>
<polygon fill="#860256" points="1120.98,155.02 1120.98,197.03 1167.53,266.65 1234.41,285.63 1291.24,285.63 1336.1,254.45 1348.83,220.32 1361.41,164.06 1349.66,122.93 1351.02,57.4 1313.5,38.42 1261.98,48.81 1186.96,54.23 1165.72,96.72 "/>
<polygon fill="#860256" points="811.85,155.02 811.85,197.03 858.4,266.65 925.28,285.63 982.11,285.63 1026.97,254.45 1039.7,220.32 1052.28,164.06 1040.53,122.93 1041.89,57.4 1004.37,38.42 952.85,48.81 877.83,54.23 856.59,96.72 "/>
</g>
<g id="f12_bug_left_legs" class="bug-left-legs">
<polygon fill="#BCAB8E" points="646.61,458.74 692.94,434.25 736.04,442.51 748.21,444.84 762.55,444.84 762.55,456.5 694.25,438.53 649.44,462.01 "/>
<polygon fill="#BCAB8E" points="624.77,442.85 622.78,391.89 571.99,333.73 564.54,323.05 559.9,332.05 589.57,359.45 609.94,382.95 620.8,401.97 619.55,442.85 "/>
<polygon fill="#D4BDB0" points="542.99,483.76 510.89,438 178.33,751.53 178.33,775.46 495.43,475.65 509.7,463.76 513.26,455.04 526.74,471.69 537.84,487.54 "/>
<polygon fill="#D4BDB0" points="461.11,768.33 489.92,809.4 788.35,528.05 788.35,506.57 503.8,775.61 490.99,786.28 487.79,794.11 475.7,779.17 465.74,764.94 "/>
</g>
</svg>
