<?xml version="1.0" encoding="utf-8"?>
<svg version="1.1" xmlns="http://www.w3.org/2000/svg" viewBox="0 0 1440 900">
<rect id="f15_bg" class="scene-bg" fill="#FFAE00" width="1440" height="900"/>
<g id="f15_bg_layers" class="layer-bg">
<polygon fill="#B5849B" points="1.8,580.88 1.8,713.71 787.06,0.43 "/>
<polygon fill="#827E9F" points="1.8,135.78 653.48,0.32 766.61,0.32 1.8,531.89 "/>
<polygon opacity="0.8" fill="#C1BB51" points="1.8,900 1441.8,900 1441.54,859.86 1348.6,852.12 1215.04,770.79 1027.64,809.67 750.59,860.14 466.48,874.85 110.48,762.54 1.8,687.82 "/>
<polygon fill="#B2AB6A" points="1.8,0.36 582.41,0.36 383.88,30.56 248.1,63.67 132.32,22.85 57.06,82.26 2.16,98.31 "/>
<polygon fill="#C2D1C0" points="1.8,394.57 50.93,378.73 94.38,378.73 128.4,362.4 179.42,350.83 272.39,359.67 355.91,334.5 416.76,311.71 486.67,291.63 564.14,297.76 652.2,243.67 787.87,189.57 895.96,155.55 987.41,175.97 1069.8,203.52 1174.86,263.74 1214.53,304.79 1281.81,497.11 1339.63,552.23 1380.83,623.67 1414.46,694.77 1440,730.59 1440,786.4 1417.48,786.96 1193,534.2 976.45,416.15 851.74,340.62 601.56,406.62 432.25,484.87 325.3,483.51 218.7,471.26 108.75,455.95 26.37,458.67 1.8,460.15 "/>
<polygon opacity="0.9" fill="#C1BB51" points="1.95,253.87 170.73,223.92 327.49,183.56 499.46,106.02 737.89,58.4 896.68,76.54 1033.65,101.94 1377.14,0.81 1440,0.81 1439.97,52.52 1288.82,45.25 1066.63,149.55 709.49,167.24 472.79,253.87 220.95,353.61 1.8,413.46 "/>
<polygon fill="#B8BE82" points="1.8,283.98 1.8,409.52 219.86,346.75 682.38,169.25 964.66,155.17 782.56,94.43 606.37,108.49 439.86,209.15 161.88,355.18 "/>
<polygon fill="#4C4475" points="999.83,760.98 1053.95,809.07 1015.92,839.51 1093.39,823.2 1136,834.8 1198.64,784.65 1071.46,795.05 "/>
<circle fill="#8E8E18" cx="908.41" cy="57.07" r="4.36"/>
</g>
<g id="f15_leaves" class="leaves-white">
<polygon fill="#F7EBDF" points="185.55,144.81 134.62,235.66 150.91,442.6 272.53,564.71 395.4,633.58 530.21,620.53 599.09,562.18 694.48,455.75 718.91,352.58 801.27,212.53 743.16,126.02 619.16,86.06 450.37,6.86 352.95,72.97 "/>
<polygon fill="#F7EBDF" points="1235.43,755.81 1295.26,670.55 1299.92,463.03 1191.23,329.27 1075.94,248.37 940.51,247.76 866.09,298.86 760.45,395.12 725.74,495.3 629.68,626.34 678.76,718.26 798.1,770.53 958.05,866.35 1061.63,810.39 "/>
</g>
<g id="f15_bug_left_body" class="bug-left-body">
<polygon fill="#6D8B5C" points="328.11,255.68 387.01,252.99 443.95,272.14 508.78,314.34 539.57,336.67 512.75,381.09 504.45,438 465.4,443.73 386.38,432.82 348.72,419.52 316.64,409.81 298.3,401.85 287.84,383.19 276.33,324.23 315.21,269.98 "/>
<polygon fill="#6D8B5C" points="573.18,371.6 541.97,444.9 575.63,451.03 596.51,436.35 602.35,417.17 601.3,406.83 592.07,391.92 "/>
<circle fill="#F4C837" cx="572.5" cy="429.99" r="15.24"/>
<circle opacity="0.2" fill="#C7B16F" cx="570.31" cy="429.07" r="15.24"/>
<circle opacity="0.4" fill="#EE9D20" cx="572.73" cy="430.12" r="13.19"/>
<ellipse opacity="0.3" fill="#F7E0B8" transform="matrix(0.9622 -0.2723 0.2723 0.9622 -86.2045 173.9333)" cx="583.56" cy="397.55" rx="13.6" ry="13.64"/>
<ellipse fill="#F5DBA9" transform="matrix(0.9622 -0.2723 0.2723 0.9622 -87.0892 173.6971)" cx="582.26" cy="400.62" rx="13.56" ry="13.64"/>
<polygon fill="#F4957E" points="603.04,417.82 595.61,431.12 616.11,438.06 "/>
<circle fill="#BCAB8E" cx="582.32" cy="400.56" r="5.95"/>
<circle fill="#746B40" cx="582.96" cy="399.41" r="3.16"/>
<circle fill="#745C2B" cx="582.96" cy="399.41" r="2.04"/>
<circle fill="#FAE9CC" cx="574.31" cy="431.6" r="6.13"/>
<circle fill="#7A8455" cx="574.31" cy="431.6" r="3.16"/>
<polygon fill="#F0BA8A" points="301.81,307.69 412.41,327.7 410.67,355.62 295.79,338.07 "/>
<polygon fill="#9DA12D" points="484.51,305.72 463.73,338.73 459.78,362.38 513.6,377.82 538.92,341.24 "/>
<polygon fill="#E5E1A2" points="291.61,334.24 514.99,378.32 513.63,384.7 290.43,341.24 "/>
<polygon fill="#E1CF58" points="411.21,328.89 409.57,355.27 458.46,366.11 462.58,339.09 "/>
<polygon opacity="0.3" fill="#F2DF9C" points="410.77,329.93 409.38,355.62 456.02,366.49 459.76,340.2 "/>
<polygon fill="#F5AE51" points="331,318.71 328.16,330.78 390.1,339.54 390,345.83 410.92,351.17 415.32,330.52 403.08,325.85 "/>
<polygon fill="#BCBBB0" points="301.19,314.65 325.09,318.95 322.69,323 299.93,318.29 "/>
<polygon fill="#ECA08E" points="323.02,334.74 391.41,344.18 389.41,350.38 405.94,355.71 406.65,358.22 319.82,343.64 "/>
<polygon fill="#DFB155" points="299.8,321.28 324.69,327.38 322.61,331.1 298.88,324.67 "/>
<polygon fill="#BCBBB0" points="298.39,327.67 321.95,333.52 319.29,337.4 296.89,331.22 "/>
<polygon fill="#DEB381" points="372.76,326.92 371.84,330.31 413.59,338.52 414.05,334.01 "/>
<polygon fill="#CCBFAB" points="371.17,334.77 370.25,338.16 412.01,346.37 412.47,341.86 "/>
<polygon fill="#B6AF9C" points="369.33,341.55 368.41,344.94 410.17,353.15 410.63,348.64 "/>
<polygon fill="#98C196" points="538.34,341.4 550.55,347.8 564.6,363.39 573.34,372.18 541.23,444.49 517.65,443.02 504.35,438.03 512.68,381.21 "/>
<polygon fill="#A99E5C" points="288.77,352.41 511.15,389.5 507.73,390.91 285.34,353.99 "/>
<polygon fill="#B9D5B9" points="288.26,366.43 510.32,411.09 506.88,412.92 284.81,368.48 "/>
<polygon fill="#EBDFA2" points="287.76,381.9 509.82,426.56 506.38,428.39 284.31,383.95 "/>
<polygon fill="#9DA12D" points="503.52,439.51 495.42,440.55 491.88,460.33 504.53,463.52 511.78,442.18 "/>
<polygon fill="#98C196" points="497.38,464.41 491.04,479.46 560.35,510.76 578.66,562.32 581.71,561.46 563.72,511.4 495.77,477.45 499.24,464.84 "/>
<polygon fill="#B6AF9C" points="538.08,315.19 545.02,311.31 547.22,313.38 536.75,333.58 530.33,328.75 "/>
<polygon fill="#9DA12D" points="548.38,310.36 557.52,297.89 574.57,307.96 592.52,326.07 601.56,334.77 619.51,338.46 661.46,334.1 660.37,330.26 605.29,332.47 586.34,317.07 569.93,299.46 557.3,295.77 545.9,308.73 "/>
<polygon fill="#DEB381" points="493.04,260.96 500.21,263.9 502.96,265.04 484.94,296.89 473.05,291.08 "/>
<polygon fill="#E5E1A2" points="506.91,246 473.69,227.47 442.79,220.51 433.92,215.72 430.04,213.06 429.58,222.5 433,219.11 473.39,231.34 501.35,246.09 496.11,260.09 500.21,263.9 "/>
<polygon fill="#6D8B5C" points="397.9,435.86 399.97,443.17 399.97,460.68 402.7,461.56 404.24,438.19 "/>
<polygon fill="#DEB381" points="400.43,462.3 336.95,505.63 328.9,507.91 330.87,514.85 336.31,509.99 402.67,465.98 406.35,460.62 "/>
<polygon fill="#B9D5B9" points="339.02,417.84 337.3,447.12 338.95,448.53 344.97,421.16 "/>
<polygon fill="#ECA08E" points="337.42,451.19 285.99,461.92 284.92,465.81 301.23,461.38 333.74,454.98 339.68,452.89 "/>
<polygon fill="#9DA12D" points="284.76,464.96 275.87,464.51 281.3,474.86 "/>
<polygon fill="#ECA08E" points="381.02,230.07 368.2,231.19 367.4,252.7 379.81,252.32 "/>
<polygon fill="#9DA12D" points="375.74,229.06 375.79,207.14 377.24,203.42 300.65,182.71 290.64,180.53 289.96,186.99 298.82,185.1 373.56,205.89 371.76,228.31 "/>
<polygon fill="#ECA08E" points="322.1,160.55 315.01,171.29 331.36,185.29 338.77,175.33 "/>
<polygon fill="#DEB381" points="364.88,204.52 362.72,197.08 361.89,194.22 398.03,188.47 400.9,201.39 "/>
<polygon opacity="0.3" fill="#F2DF9C" points="336.43,183.12 335.99,198.71 362.47,205.94 364.24,190.01 "/>
<polygon opacity="0.3" fill="#F2DF9C" points="388.49,455.73 387.1,481.41 433.73,492.29 437.48,466 "/>
<polygon fill="#DEB381" points="420.56,487.14 418.41,479.7 417.58,476.84 453.72,471.09 456.58,484.01 "/>
<polygon fill="#ECA08E" points="396.26,460.6 389.17,471.35 405.52,485.34 412.94,475.38 "/>
<polygon fill="#E5E1A2" points="354.07,270.57 354.19,281.72 346.99,274.98 336.73,273.3 334.64,263.61 345.06,268.73 345.97,263.14 356.94,264.93 "/>
<polygon fill="#ECA08E" points="458.5,505.86 497.45,520.49 548.34,558.44 557.69,559.26 550.63,561.23 495.49,523.99 "/>
<polygon fill="#E5E1A2" points="459.19,251.52 498.14,266.16 549.03,304.11 558.37,304.93 551.32,306.9 496.17,269.65 "/>
<polyline fill="#FF8C00" fill-opacity="0.8" points="451.9,321.16 439.52,324.67 432.07,314.9 446.45,315.16 444.54,308.42 457.78,304.67 457.53,312.5 463.52,324.95 451.9,321.16 "/>
</g>
<g id="f15_bug_left_legs" class="bug-left-legs">
<polygon fill="#BCAB8E" points="596.51,436.35 629.43,470.85 632.88,510.63 633.86,521.86 637.41,534.42 627.2,537.3 626.01,473.05 594.35,439.64 "/>
<polygon fill="#BCAB8E" points="605.01,413.29 649.14,398.93 687.47,340.04 694.97,330.87 685.94,329.05 669.31,361.81 653.78,385.47 639.82,399.69 603.71,408.72 "/>
<polygon fill="#D4BDB0" points="548.92,351.83 581.04,312.38 224.13,98.9 203.17,104.83 544.24,308.18 558.19,317.72 566.71,318.69 555.47,334.61 544.34,348.26 "/>
<polygon fill="#D4BDB0" points="279.48,350.65 250.67,386.06 570.95,577.62 589.75,572.3 283.69,389.83 271.17,381.26 263.53,380.4 273.61,366.11 283.6,353.86 "/>
<polyline fill="#BCAB8E" points="532.36,433.31 522.1,431.63 520.01,421.94 530.43,427.06 531.34,421.47 542.31,423.26 539.44,428.9 539.56,440.05 532.36,433.31 "/>
</g>
<g id="f15_bug_right_body" class="bug-right-body">
<polygon fill="#92C199" points="975.9,593.11 970.31,569.78 967.5,559.12 960.18,554.12 973.41,526.82 1005.65,496.36 1021.07,457.03 1034.87,449.65 1045.08,442.55 1066.43,434.93 1086.4,441.16 1095.95,447.69 1109.64,457.03 1112.68,474.59 1114.41,485.86 1123.13,491.81 1139.23,498.77 1150.7,506.6 1152.95,512.18 1116.4,528.26 1077.91,553.1 1069.12,580.74 1065.01,618.3 1074.82,636.44 1075.07,641.99 1053.07,624.95 1042.72,612.5 1032.42,610.85 1025.13,614.62 1009.73,613.52 989.92,608.06 979.09,597.31 "/>
<polygon opacity="0.9" fill="#D6DF00" points="979.39,590.19 973.98,567.66 971.27,557.36 964.21,552.53 976.98,526.17 1008.11,496.75 1023.01,458.76 1036.34,451.63 1046.2,444.78 1066.82,437.42 1086.1,443.44 1095.33,449.74 1108.55,458.77 1111.49,475.72 1113.16,486.61 1121.58,492.36 1137.13,499.08 1148.21,506.64 1150.38,512.03 1115.08,527.56 1077.9,551.55 1069.42,578.25 1065.44,614.52 1074.92,632.04 1075.16,637.4 1053.91,620.94 1043.93,608.92 1033.97,607.32 1026.93,610.97 1012.06,609.91 992.92,604.63 982.47,594.25 "/>
<polygon fill="#CCA002" points="976.8,531.78 997.75,530.11 1014.59,542.89 1035.94,545.32 1049.35,547.7 1053.92,548.01 1052.06,543.73 1017.75,536.39 1003.82,524.03 979.97,523.34 "/>
<polygon fill="#CCA002" points="1020.86,465.36 1027.62,484.47 1045.6,495.59 1056.16,513.82 1063.54,525.02 1065.62,528.98 1061.08,528.62 1041.06,500.35 1024.6,491.7 1014.61,470.72 "/>
<polygon fill="#6AAF96" points="975.17,559.43 986.81,552.68 1002.32,555.19 1017.15,562.54 1034.58,574.44 1036.39,583.98 1027.25,597.36 1028.86,602.49 1042.79,582.08 1036.32,566.78 1007.04,548.29 984.88,542.41 971.29,552.95 "/>
<polygon fill="#6AAF96" points="1047.81,447.96 1046.47,460.65 1055.23,474.1 1068.13,485.49 1086.28,497.89 1095.78,496.69 1104.24,484.31 1109.61,484.24 1096.71,503.13 1079.99,501.78 1050.86,480.5 1036.25,461.95 1040.25,446.35 "/>
<polygon fill="#CCB02F" points="1078.67,628.16 1075.74,623.78 1073.63,610.18 1070.53,599.34 1072.91,582.92 1078.77,564.97 1086.19,552.44 1098.14,538.51 1106.39,530.84 1116.13,526.45 1128.93,518.1 1139.73,513.82 1149.15,510.58 1154.79,514.95 1146.09,508.21 1135.47,512.63 1115.26,520.15 1094.86,531.8 1087.93,540.73 1079.72,547.42 1072.93,570.28 1065.65,587.83 1064.15,607.19 1070.98,616.57 1069.82,626.22 "/>
<ellipse fill="#E9D102" fill-opacity="0.8" transform="matrix(0.2863 -0.9581 0.9581 0.2863 327.1777 1356.6028)" cx="1074.18" cy="458.69" rx="18.67" ry="23.43"/>
<ellipse fill="#D99C26" transform="matrix(0.2863 -0.9581 0.9581 0.2863 328.4245 1352.8751)" cx="1072.3" cy="455.99" rx="16.62" ry="20.86"/>
<ellipse fill="#B4BE9B" transform="matrix(0.2863 -0.9581 0.9581 0.2863 331.3584 1352.24)" cx="1073.34" cy="453.7" rx="14.29" ry="17.94"/>
<ellipse fill="#060604" transform="matrix(0.2863 -0.9581 0.9581 0.2863 332.5743 1351.1678)" cx="1073.23" cy="452.35" rx="13.51" ry="16.96"/>
<ellipse fill="#F4F3EB" transform="matrix(0.2863 -0.9581 0.9581 0.2863 341.9041 1357.4392)" cx="1082.11" cy="449.22" rx="2.66" ry="3.34"/>
<ellipse fill="#E9D102" fill-opacity="0.8" transform="matrix(0.2863 -0.9581 0.9581 0.2863 158.3922 1379.8446)" cx="1005.39" cy="583.6" rx="23.45" ry="29.43"/>
<ellipse fill="#D99C26" transform="matrix(0.2863 -0.9581 0.9581 0.2863 154.2445 1382.7316)" cx="1005.25" cy="587.83" rx="19.36" ry="24.3"/>
<ellipse fill="#B4BE9B" transform="matrix(0.2863 -0.9581 0.9581 0.2863 150.8271 1383.4713)" cx="1004.04" cy="590.5" rx="16.65" ry="20.9"/>
<ellipse fill="#060604" transform="matrix(0.2863 -0.9581 0.9581 0.2863 149.4108 1384.7202)" cx="1004.17" cy="592.07" rx="15.74" ry="19.75"/>
<polygon fill="#D75F5B" points="975.94,529.08 973.83,500.75 987.8,490.39 987.8,467.62 1002.2,458.25 1017.89,454.61 1017.14,472.99 1002.2,497.38 979.33,519.36 "/>
<polygon fill="#E5E1A2" points="971.14,610.16 987.67,636.92 1004.75,651.98 1009.18,658.97 1011.03,662.57 1012.88,653.65 1010.29,655.97 988.49,633.3 974.44,611.59 979.88,599.59 978.1,594.83 "/>
<ellipse fill="#E5E1A2" transform="matrix(0.5 -0.866 0.866 0.5 55.7232 1191.9436)" cx="1060.12" cy="547.71" rx="4.95" ry="1.84"/>
<ellipse fill="#E5E1A2" transform="matrix(0.5 -0.866 0.866 0.5 69.8057 1191.9939)" cx="1067.2" cy="535.54" rx="4.95" ry="1.84"/>
<polygon opacity="0.4" fill="#DAE0D7" points="992.9,518.99 1016.11,517.57 1023.46,532.29 1051.57,538.46 1057.29,531.2 1040.11,506.08 1022.67,508.21 1017.89,487.45 1016.95,510.21 "/>
<polygon fill="#DCFC85" points="1044.08,547.35 1048.22,581.71 1056.43,610.31 1058.2,605.58 1063.64,607.45 1052.94,579.84 1047.81,548.21 "/>
<polygon fill="#DCFC85" points="1060.53,520.45 1094.05,512.7 1123.67,510.28 1119.91,513.32 1123.63,517.29 1094.02,517.29 1062.68,523.31 "/>
<polygon fill="#865470" points="1075.26,623.24 1081.34,595.49 1097.7,589.56 1104.21,567.75 1120.69,562.89 1136.77,563.9 1130.79,581.29 1109.49,600.39 1081.29,614.9 "/>
<polygon fill="#93C6A9" points="1158.82,526.74 1159.17,540.59 1172.08,556.88 1189.76,571.53 1214.08,588.14 1225.58,588.3 1234.03,575.92 1240.64,576.7 1227.74,595.58 1206.94,591.45 1167.71,563.27 1146.8,540.42 1149.26,523.76 "/>
<polygon fill="#93C6A9" points="1087.02,624.73 1100.47,619.39 1120.58,625.14 1140.74,636.16 1165.06,652.77 1169.16,663.77 1160.13,676.99 1163.14,683.03 1176.91,662.87 1165.8,644.54 1125.24,618.32 1096.07,607.55 1080.87,616.75 "/>
<polygon fill="#E5E1A2" points="1080.13,423.49 1106.13,429.36 1124.11,439.68 1130.95,441.33 1134.29,441.78 1128.78,446.45 1129.31,443.34 1103.93,431.32 1082.55,425.98 1076.42,434.92 1072.29,434.92 "/>
<polygon opacity="0.4" fill="#DAE0D7" points="1106.92,604.75 1141.67,602.63 1152.68,624.66 1194.77,633.9 1203.34,623.03 1177.61,585.41 1151.49,588.61 1144.34,557.52 1142.94,591.61 "/>
<polygon fill="#CF4C39" points="1176.93,536.13 1177.16,544.73 1185.18,554.86 1196.17,563.97 1211.27,574.28 1218.42,574.39 1223.68,566.69 1227.78,567.18 1219.77,578.91 1206.84,576.34 1182.46,558.83 1169.47,544.63 1170.99,534.28 "/>
<polygon fill="#8C2241" points="1187.24,534.99 1187.09,541.73 1192.77,549.37 1200.73,556.1 1211.75,563.63 1217.15,563.45 1221.39,557.23 1224.48,557.45 1218,566.94 1208.33,565.4 1190.57,552.58 1181.29,541.93 1182.82,533.76 "/>
<polygon fill="#CF4C39" points="1152.03,668.13 1151.81,659.52 1143.79,649.4 1132.8,640.29 1117.69,629.97 1110.54,629.87 1105.29,637.56 1101.19,637.08 1109.2,625.34 1122.12,627.91 1146.5,645.43 1159.5,659.63 1157.97,669.98 "/>
<polygon fill="#8C2241" points="1142.57,668.7 1142.72,661.96 1137.04,654.32 1129.08,647.59 1118.06,640.06 1112.66,640.24 1108.41,646.46 1105.33,646.24 1111.81,636.75 1121.48,638.29 1139.24,651.11 1148.52,661.76 1146.99,669.93 "/>
</g>
<g id="f15_bug_right_legs" class="bug-right-legs">
<polygon fill="#B8CE04" points="1068.32,682.95 1066.25,668.6 1060.73,630.47 1071.39,628.72 1066.26,647.57 1070.44,669.77 1078.54,676.17 1094.78,659.31 1083.12,676.38 1099.78,688.52 1081.18,677.97 1077,688.87 1075.78,703.52 1078.88,719.13 1084.04,731.09 1088.27,733.98 1076.88,728.35 1075.91,717.8 1071.47,701.01 1071.57,692.05 1061.5,711.83 1056.98,728.52 1050.97,737.32 1050.27,729.53 1058.37,710.12 1068.21,691.45 1070.51,681 1071.08,674.51 1069.62,672.23 "/>
<polygon fill="#B0B902" points="1196.57,498.2 1183,499.85 1146.94,504.23 1150.15,514.05 1164.47,504.95 1185.9,503.26 1195.15,508.85 1187.55,527.24 1197.39,512.83 1215.51,524.56 1197.92,510.74 1205.66,504.4 1218.02,499.78 1233.16,498.73 1246,500.37 1250.44,503.41 1240.39,494.73 1230.66,496.44 1213.89,496.59 1206.03,498.85 1218.97,485.19 1231.66,477.16 1236.74,469.73 1229.56,471 1216.07,482.84 1204,496.03 1195.83,500.6 1190.36,502.67 1187.7,501.94 "/>
<polyline fill="#FFEC00" fill-opacity="0.8" points="1127.4,500.25 1134.04,503.36 1133.6,510.35 1127.51,504.87 1125.81,508.49 1118.71,505.16 1121.74,501.89 1123.8,494.29 1127.4,500.25 "/>
<polyline fill="#1C1468" fill-opacity="0.8" points="1192.78,650.18 1192.78,661.21 1182.98,665.07 1186.56,653.27 1180.55,653.27 1180.55,641.48 1186.95,643.52 1198.61,641.48 1192.78,650.18 "/>
</g>
<g id="f15_creature_0" class="creature">
<polygon fill="#802940" points="497.44,754.78 493.45,714.41 517.16,691.07 504.79,679.72 511.61,677.02 518.5,687.61 513.96,676.1 515.64,675.43 523.83,689.11 518.05,674.48 520.53,673.5 528.36,686.87 522.6,672.29 526.09,670.85 534.06,684.17 552.05,685.19 567.15,696.59 578.25,721.29 567.49,749.44 529.78,764.33 511.34,764.85 "/>
<circle fill="#802940" cx="532.77" cy="725.18" r="4.1"/>
<circle fill="#802940" cx="553.91" cy="727.94" r="5.26"/>
<circle fill="#F4E9D4" cx="519.28" cy="726.14" r="5.26"/>
<circle fill="#802940" cx="564.19" cy="703.31" r="5.26"/>
<circle fill="#802940" cx="563.09" cy="736.5" r="5.26"/>
<circle fill="#F4E9D4" cx="545.4" cy="715.85" r="5.26"/>
<circle fill="#8E8E18" cx="532.87" cy="721.28" r="4.36"/>
</g>
<g id="f15_creature_1" class="creature">
<polygon fill="#802940" points="611.51,770.18 650.19,757.95 677.92,776.33 686.48,761.88 690.52,768.01 681.58,776.93 691.91,770.11 692.91,771.62 681.21,782.45 694.34,773.78 695.81,776.01 684.34,786.42 697.42,777.78 699.54,780.9 688.16,791.44 690.87,809.25 682.83,826.38 660.95,842.35 631.19,837.63 608.84,803.8 604.53,785.86 "/>
<circle fill="#802940" cx="647.76" cy="798.65" r="4.1"/>
<circle fill="#802940" cx="649.42" cy="819.9" r="5.26"/>
<circle fill="#F4E9D4" cx="644.04" cy="785.64" r="5.26"/>
<circle fill="#802940" cx="675.65" cy="824.87" r="5.26"/>
<circle fill="#802940" cx="642.94" cy="830.65" r="5.26"/>
<circle fill="#F4E9D4" cx="659.5" cy="809.07" r="5.26"/>
<circle fill="#8E8E18" cx="651.6" cy="797.94" r="4.36"/>
</g>
<g id="f15_creature_2" class="creature">
<polygon opacity="0.9" fill="#E1E100" points="138.76,641.04 134.77,600.67 158.48,577.33 146.1,565.98 152.93,563.29 159.82,573.87 155.27,562.36 156.95,561.7 165.15,575.38 159.37,560.74 161.85,559.77 169.67,573.14 163.92,558.55 167.41,557.12 175.37,570.44 193.36,571.45 208.46,582.85 219.57,607.56 208.81,635.71 171.1,650.6 152.65,651.11 "/>
<circle fill="#802940" cx="174.09" cy="611.45" r="4.1"/>
<circle fill="#802940" cx="195.23" cy="614.21" r="5.26"/>
<circle fill="#F4E9D4" cx="160.6" cy="612.41" r="5.26"/>
<circle fill="#802940" cx="205.5" cy="589.58" r="5.26"/>
<circle fill="#802940" cx="204.41" cy="622.77" r="5.26"/>
<circle fill="#F4E9D4" cx="186.71" cy="602.11" r="5.26"/>
<circle fill="#8E8E18" cx="174.19" cy="607.55" r="4.36"/>
</g>
<g id="f15_creature_3" class="creature">
<polygon fill="#802940" points="305.32,715.26 340.23,694.6 371.4,706.25 376.47,690.24 381.79,695.29 375.1,706 383.62,697.02 384.93,698.27 375.99,711.47 386.81,700.05 388.75,701.89 379.93,714.63 390.72,703.25 393.49,705.81 384.78,718.65 391.45,735.39 387.49,753.89 369.78,774.39 339.72,776.51 310.31,748.61 302.05,732.11 "/>
<circle fill="#802940" cx="347.06" cy="734.8" r="4.1"/>
<circle fill="#802940" cx="353.48" cy="755.12" r="5.26"/>
<circle fill="#F4E9D4" cx="340.49" cy="722.97" r="5.26"/>
<circle fill="#802940" cx="380.15" cy="754.05" r="5.26"/>
<circle fill="#802940" cx="349.59" cy="767.06" r="5.26"/>
<circle fill="#F4E9D4" cx="360.85" cy="742.3" r="5.26"/>
<circle fill="#8E8E18" cx="350.64" cy="733.24" r="4.36"/>
</g>
<g id="f15_creature_4" class="creature">
<polygon fill="#802940" points="848.89,237.91 844.9,197.54 868.61,174.2 856.24,162.85 863.07,160.15 869.95,170.74 865.41,159.23 867.09,158.56 875.28,172.24 869.5,157.61 871.98,156.63 879.81,170 874.05,155.42 877.54,153.98 885.51,167.3 903.5,168.32 918.6,179.72 929.7,204.42 918.94,232.57 881.23,247.46 862.79,247.98 "/>
<circle fill="#802940" cx="884.22" cy="208.31" r="4.1"/>
<circle fill="#802940" cx="905.36" cy="211.07" r="5.26"/>
<circle fill="#F4E9D4" cx="870.73" cy="209.27" r="5.26"/>
<circle fill="#802940" cx="915.64" cy="186.44" r="5.26"/>
<circle fill="#802940" cx="914.54" cy="219.63" r="5.26"/>
<circle fill="#F4E9D4" cx="896.85" cy="198.98" r="5.26"/>
<circle fill="#8E8E18" cx="884.32" cy="204.41" r="4.36"/>
</g>
<g id="f15_creature_5" class="creature">
<polygon opacity="0.9" fill="#E1E100" points="1255.41,326.18 1284.65,298.06 1317.66,302.23 1318.91,285.49 1325.26,289.18 1321.2,301.14 1327.43,290.45 1328.99,291.35 1323.32,306.26 1331.24,292.66 1333.54,294 1327.88,308.43 1335.77,294.87 1339.06,296.73 1333.53,311.23 1343.87,325.99 1344.26,344.9 1331.74,368.92 1302.97,377.9 1267.93,357.5 1256.11,343.33 "/>
<circle fill="#802940" cx="1300.53" cy="335.61" r="4.1"/>
<circle fill="#802940" cx="1311.44" cy="353.92" r="5.26"/>
<circle fill="#F4E9D4" cx="1291.42" cy="325.61" r="5.26"/>
<circle fill="#802940" cx="1337.15" cy="346.74" r="5.26"/>
<circle fill="#802940" cx="1310.41" cy="366.43" r="5.26"/>
<circle fill="#F4E9D4" cx="1315.68" cy="339.74" r="5.26"/>
<circle fill="#8E8E18" cx="1303.66" cy="333.27" r="4.36"/>
</g>
<g id="f15_creature_6" class="creature">
<polygon fill="#802940" points="1160.02,241.12 1156.04,200.75 1179.74,177.41 1167.37,166.06 1174.2,163.37 1181.08,173.95 1176.54,162.44 1178.22,161.78 1186.41,175.46 1180.64,160.82 1183.11,159.84 1190.94,173.22 1185.18,158.63 1188.68,157.2 1196.64,170.52 1214.63,171.53 1229.73,182.93 1240.83,207.64 1230.08,235.79 1192.36,250.68 1173.92,251.19 "/>
<circle fill="#802940" cx="1195.36" cy="211.53" r="4.1"/>
<circle fill="#802940" cx="1216.49" cy="214.29" r="5.26"/>
<circle fill="#F4E9D4" cx="1181.86" cy="212.49" r="5.26"/>
<circle fill="#802940" cx="1226.77" cy="189.65" r="5.26"/>
<circle fill="#802940" cx="1225.67" cy="222.85" r="5.26"/>
<circle fill="#F4E9D4" cx="1207.98" cy="202.19" r="5.26"/>
<circle fill="#8E8E18" cx="1195.46" cy="207.62" r="4.36"/>
</g>
<g id="f15_creature_7" class="creature">
<polygon opacity="0.9" fill="#E1E100" points="1012.93,133.92 1034.69,99.69 1067.75,95.94 1065.01,79.37 1072.05,81.46 1070.94,94.04 1074.46,82.18 1076.19,82.69 1074.21,98.51 1078.68,83.43 1081.24,84.19 1079.15,99.54 1083.61,84.51 1087.25,85.54 1085.3,100.93 1098.84,112.83 1103.69,131.11 1097.2,157.41 1071.36,172.93 1032.5,161.39 1017.66,150.42 "/>
<circle fill="#802940" cx="1061.26" cy="130.16" r="4.1"/>
<circle fill="#F4E9D4" cx="1047.78" cy="124.86" r="5.26"/>
<circle fill="#F4E9D4" cx="1074.69" cy="132.86" r="5.26"/>
</g>
<g id="f15_creature_8" class="creature">
<polygon fill="#802940" points="1272.03,137.73 1268.04,97.36 1291.75,74.02 1279.38,62.67 1286.2,59.97 1293.09,70.56 1288.55,59.05 1290.23,58.39 1298.42,72.06 1292.64,57.43 1295.12,56.45 1302.95,69.83 1297.19,55.24 1300.68,53.81 1308.65,67.12 1326.64,68.14 1341.74,79.54 1352.84,104.25 1342.08,132.4 1304.37,147.28 1285.93,147.8 "/>
<circle fill="#802940" cx="1307.36" cy="108.14" r="4.1"/>
<circle fill="#802940" cx="1328.5" cy="110.9" r="5.26"/>
<circle fill="#F4E9D4" cx="1293.87" cy="109.1" r="5.26"/>
<circle fill="#802940" cx="1338.78" cy="86.26" r="5.26"/>
<circle fill="#802940" cx="1337.68" cy="119.46" r="5.26"/>
<circle fill="#F4E9D4" cx="1319.99" cy="98.8" r="5.26"/>
<circle fill="#8E8E18" cx="1307.46" cy="104.23" r="4.36"/>
</g>
<g id="f15_creature_9" class="creature">
<polygon fill="#802940" points="872.98,90.57 868.99,50.2 892.7,26.86 880.32,15.51 887.15,12.81 894.04,23.4 889.49,11.89 891.17,11.23 899.37,24.9 893.59,10.27 896.07,9.29 903.89,22.66 898.14,8.08 901.63,6.65 909.59,19.96 927.58,20.98 942.68,32.38 953.79,57.09 943.03,85.24 905.32,100.12 886.87,100.64 "/>
<circle fill="#802940" cx="908.31" cy="60.98" r="4.1"/>
<circle fill="#802940" cx="929.44" cy="63.73" r="5.26"/>
<circle fill="#F4E9D4" cx="894.82" cy="61.94" r="5.26"/>
<circle fill="#802940" cx="938.63" cy="72.29" r="5.26"/>
</g>
<g id="f15_creature_10" class="creature">
<polygon opacity="0.9" fill="#E1E100" points="190.5,862.37 186.52,822.01 210.22,798.67 197.85,787.31 204.68,784.62 211.56,795.2 207.02,783.69 208.7,783.03 216.89,796.71 211.12,782.08 213.6,781.1 221.42,794.47 215.66,779.88 219.16,778.45 227.12,791.77 245.11,792.78 260.21,804.19 271.32,828.89 260.56,857.04 222.85,871.93 204.4,872.45 "/>
<circle fill="#802940" cx="225.84" cy="832.78" r="4.1"/>
<circle fill="#802940" cx="246.97" cy="835.54" r="5.26"/>
<circle fill="#F4E9D4" cx="212.34" cy="833.74" r="5.26"/>
<circle fill="#802940" cx="257.25" cy="810.91" r="5.26"/>
<circle fill="#802940" cx="256.15" cy="844.1" r="5.26"/>
<circle fill="#F4E9D4" cx="238.46" cy="823.44" r="5.26"/>
<circle fill="#8E8E18" cx="225.94" cy="828.88" r="4.36"/>
</g>
<g id="f15_creature_11" class="creature">
<polygon opacity="0.9" fill="#E1E100" points="1226.11,536.13 1233.2,558.19 1236.68,568.26 1244.09,572.53 1233.35,599.79 1204.52,631.48 1192.53,670.48 1179.78,678.59 1170.46,686.17 1150.46,695.06 1130.78,690.52 1121.1,684.93 1107.24,676.93 1103.02,660.24 1100.54,649.52 1091.71,644.42 1075.7,638.89 1064.08,632.18 1061.51,626.98 1095.53,608.83 1130.79,582.09 1137.24,554.83 1138.46,518.36 1127.69,501.61 1127.05,496.28 1149.48,511.09 1160.34,522.32 1170.39,523.17 1177.13,519 1192.04,518.94 1211.53,522.75 1222.73,532.32 "/>
</g>
</svg>
