<?xml version="1.0" encoding="utf-8"?>
<svg version="1.1" xmlns="http://www.w3.org/2000/svg" viewBox="0 0 1440 900">
<rect id="f10_bg" class="scene-bg" fill="#F9F3B5" y="0.79" width="1440" height="898.79"/>
<g id="f10_pieces" class="red-pieces">
<polygon fill="#D60023" points="33.77,65.38 33.77,92 46.12,102.86 83.92,102.86 97.19,96.68 97.19,61.81 77.84,39.02 45.52,39.02 "/>
<polygon fill="#D60023" points="111.61,65.38 111.61,92 123.96,102.86 161.76,102.86 175.03,96.68 175.03,61.81 155.67,39.02 123.36,39.02 "/>
<polygon fill="#D60023" points="193.97,65.38 193.97,92 206.33,102.86 244.12,102.86 257.4,96.68 257.4,61.81 238.04,39.02 205.72,39.02 "/>
<polygon fill="#D60023" points="274.69,64.14 274.69,90.77 287.05,101.62 324.84,101.62 338.12,95.44 338.12,60.57 318.76,37.79 286.44,37.79 "/>
<polygon fill="#D60023" points="351.3,64.14 351.3,90.77 363.65,101.62 401.45,101.62 414.72,95.44 414.72,60.57 395.36,37.79 363.05,37.79 "/>
<polygon fill="#D60023" points="429.54,64.14 429.54,90.77 441.9,101.62 479.7,101.62 492.97,95.44 492.97,60.57 473.61,37.79 441.3,37.79 "/>
<polygon fill="#D60023" points="507.38,65.38 507.38,92 519.74,102.86 557.53,102.86 570.8,96.68 570.8,61.81 551.45,39.02 519.13,39.02 "/>
<polygon fill="#D60023" points="598.4,64.97 598.4,91.59 610.75,102.45 648.55,102.45 661.82,96.27 661.82,61.39 642.46,38.61 610.15,38.61 "/>
<polygon fill="#D60023" points="676.24,64.97 676.24,91.59 688.59,102.45 726.39,102.45 739.66,96.27 739.66,61.39 720.3,38.61 687.99,38.61 "/>
<polygon fill="#D60023" points="758.6,64.97 758.6,91.59 770.96,102.45 808.75,102.45 822.03,96.27 822.03,61.39 802.67,38.61 770.35,38.61 "/>
<polygon fill="#D60023" points="839.32,63.73 839.32,90.35 851.68,101.21 889.47,101.21 902.75,95.03 902.75,60.16 883.39,37.38 851.07,37.38 "/>
<polygon fill="#D60023" points="915.92,63.73 915.92,90.35 928.28,101.21 966.07,101.21 979.35,95.03 979.35,60.16 959.99,37.38 927.68,37.38 "/>
<polygon fill="#D60023" points="994.17,63.73 994.17,90.35 1006.53,101.21 1044.32,101.21 1057.6,95.03 1057.6,60.16 1038.24,37.38 1005.92,37.38 "/>
<polygon fill="#D60023" points="1072.01,64.97 1072.01,91.59 1084.37,102.45 1122.16,102.45 1135.43,96.27 1135.43,61.39 1116.08,38.61 1083.76,38.61 "/>
<polygon fill="#D60023" points="38.3,156.4 38.3,183.02 50.65,193.87 88.45,193.87 101.72,187.7 101.72,152.82 82.37,130.04 50.05,130.04 "/>
<polygon fill="#D60023" points="116.14,156.4 116.14,183.02 128.49,193.87 166.29,193.87 179.56,187.7 179.56,152.82 160.2,130.04 127.89,130.04 "/>
<polygon fill="#D60023" points="198.5,156.4 198.5,183.02 210.86,193.87 248.65,193.87 261.93,187.7 261.93,152.82 242.57,130.04 210.25,130.04 "/>
<polygon fill="#D60023" points="279.22,155.16 279.22,181.78 291.58,192.64 329.37,192.64 342.65,186.46 342.65,151.59 323.29,128.8 290.97,128.8 "/>
<polygon fill="#D60023" points="355.83,155.16 355.83,181.78 368.18,192.64 405.98,192.64 419.25,186.46 419.25,151.59 399.89,128.8 367.58,128.8 "/>
<polygon fill="#D60023" points="434.07,155.16 434.07,181.78 446.43,192.64 484.23,192.64 497.5,186.46 497.5,151.59 478.14,128.8 445.83,128.8 "/>
<polygon fill="#D60023" points="511.91,156.4 511.91,183.02 524.27,193.87 562.06,193.87 575.34,187.7 575.34,152.82 555.98,130.04 523.66,130.04 "/>
<polygon fill="#D60023" points="602.93,155.98 602.93,182.61 615.28,193.46 653.08,193.46 666.35,187.28 666.35,152.41 646.99,129.63 614.68,129.63 "/>
<polygon fill="#D60023" points="680.77,155.98 680.77,182.61 693.12,193.46 730.92,193.46 744.19,187.28 744.19,152.41 724.83,129.63 692.52,129.63 "/>
<polygon fill="#D60023" points="763.13,155.98 763.13,182.61 775.49,193.46 813.28,193.46 826.56,187.28 826.56,152.41 807.2,129.63 774.88,129.63 "/>
<polygon fill="#D60023" points="843.85,154.75 843.85,181.37 856.21,192.23 894,192.23 907.28,186.05 907.28,151.17 887.92,128.39 855.6,128.39 "/>
<polygon fill="#D60023" points="920.45,154.75 920.45,181.37 932.81,192.23 970.61,192.23 983.88,186.05 983.88,151.17 964.52,128.39 932.21,128.39 "/>
<polygon fill="#D60023" points="998.7,154.75 998.7,181.37 1011.06,192.23 1048.85,192.23 1062.13,186.05 1062.13,151.17 1042.77,128.39 1010.45,128.39 "/>
<polygon fill="#D60023" points="1076.54,155.98 1076.54,182.61 1088.9,193.46 1126.69,193.46 1139.96,187.28 1139.96,152.41 1120.61,129.63 1088.29,129.63 "/>
<polygon fill="#D60023" points="38.3,241.24 38.3,267.86 50.65,278.71 88.45,278.71 101.72,272.53 101.72,237.66 82.37,214.88 50.05,214.88 "/>
<polygon fill="#D60023" points="116.14,241.24 116.14,267.86 128.49,278.71 166.29,278.71 179.56,272.53 179.56,237.66 160.2,214.88 127.89,214.88 "/>
<polygon fill="#D60023" points="198.5,241.24 198.5,267.86 210.86,278.71 248.65,278.71 261.93,272.53 261.93,237.66 242.57,214.88 210.25,214.88 "/>
<polygon fill="#D60023" points="279.22,240 279.22,266.62 291.58,277.48 329.37,277.48 342.65,271.3 342.65,236.42 323.29,213.64 290.97,213.64 "/>
<polygon fill="#D60023" points="355.83,240 355.83,266.62 368.18,277.48 405.98,277.48 419.25,271.3 419.25,236.42 399.89,213.64 367.58,213.64 "/>
<polygon fill="#D60023" points="434.07,240 434.07,266.62 446.43,277.48 484.23,277.48 497.5,271.3 497.5,236.42 478.14,213.64 445.83,213.64 "/>
<polygon fill="#D60023" points="511.91,241.24 511.91,267.86 524.27,278.71 562.06,278.71 575.34,272.53 575.34,237.66 555.98,214.88 523.66,214.88 "/>
<polygon fill="#D60023" points="602.93,240.82 602.93,267.44 615.28,278.3 653.08,278.3 666.35,272.12 666.35,237.25 646.99,214.47 614.68,214.47 "/>
<polygon fill="#D60023" points="680.77,240.82 680.77,267.44 693.12,278.3 730.92,278.3 744.19,272.12 744.19,237.25 724.83,214.47 692.52,214.47 "/>
<polygon fill="#D60023" points="763.13,240.82 763.13,267.44 775.49,278.3 813.28,278.3 826.56,272.12 826.56,237.25 807.2,214.47 774.88,214.47 "/>
<polygon fill="#D60023" points="843.85,239.59 843.85,266.21 856.21,277.06 894,277.06 907.28,270.89 907.28,236.01 887.92,213.23 855.6,213.23 "/>
<polygon fill="#D60023" points="920.45,239.59 920.45,266.21 932.81,277.06 970.61,277.06 983.88,270.89 983.88,236.01 964.52,213.23 932.21,213.23 "/>
<polygon fill="#D60023" points="998.7,239.59 998.7,266.21 1011.06,277.06 1048.85,277.06 1062.13,270.89 1062.13,236.01 1042.77,213.23 1010.45,213.23 "/>
<polygon fill="#D60023" points="1076.54,240.82 1076.54,267.44 1088.9,278.3 1126.69,278.3 1139.96,272.12 1139.96,237.25 1120.61,214.47 1088.29,214.47 "/>
<polygon fill="#D60023" points="37.89,324.43 37.89,351.05 50.24,361.9 88.04,361.9 101.31,355.73 101.31,320.85 81.95,298.07 49.64,298.07 "/>
<polygon fill="#D60023" points="115.72,324.43 115.72,351.05 128.08,361.9 165.88,361.9 179.15,355.73 179.15,320.85 159.79,298.07 127.48,298.07 "/>
<polygon fill="#D60023" points="198.09,324.43 198.09,351.05 210.45,361.9 248.24,361.9 261.52,355.73 261.52,320.85 242.16,298.07 209.84,298.07 "/>
<polygon fill="#D60023" points="278.81,323.19 278.81,349.81 291.17,360.67 328.96,360.67 342.24,354.49 342.24,319.62 322.88,296.83 290.56,296.83 "/>
<polygon fill="#D60023" points="355.41,323.19 355.41,349.81 367.77,360.67 405.56,360.67 418.84,354.49 418.84,319.62 399.48,296.83 367.16,296.83 "/>
<polygon fill="#D60023" points="433.66,323.19 433.66,349.81 446.02,360.67 483.81,360.67 497.09,354.49 497.09,319.62 477.73,296.83 445.41,296.83 "/>
<polygon fill="#D60023" points="511.5,324.43 511.5,351.05 523.86,361.9 561.65,361.9 574.92,355.73 574.92,320.85 555.57,298.07 523.25,298.07 "/>
<polygon fill="#D60023" points="602.52,324.01 602.52,350.64 614.87,361.49 652.67,361.49 665.94,355.31 665.94,320.44 646.58,297.66 614.27,297.66 "/>
<polygon fill="#D60023" points="680.35,324.01 680.35,350.64 692.71,361.49 730.5,361.49 743.78,355.31 743.78,320.44 724.42,297.66 692.1,297.66 "/>
<polygon fill="#D60023" points="762.72,324.01 762.72,350.64 775.08,361.49 812.87,361.49 826.14,355.31 826.14,320.44 806.79,297.66 774.47,297.66 "/>
<polygon fill="#D60023" points="843.44,322.78 843.44,349.4 855.8,360.26 893.59,360.26 906.86,354.08 906.86,319.2 887.51,296.42 855.19,296.42 "/>
<polygon fill="#D60023" points="920.04,322.78 920.04,349.4 932.4,360.26 970.19,360.26 983.47,354.08 983.47,319.2 964.11,296.42 931.79,296.42 "/>
<polygon fill="#D60023" points="998.29,322.78 998.29,349.4 1010.65,360.26 1048.44,360.26 1061.71,354.08 1061.71,319.2 1042.36,296.42 1010.04,296.42 "/>
<polygon fill="#D60023" points="1076.13,324.01 1076.13,350.64 1088.48,361.49 1126.28,361.49 1139.55,355.31 1139.55,320.44 1120.2,297.66 1087.88,297.66 "/>
<polygon fill="#D60023" points="37.89,409.26 37.89,435.89 50.24,446.74 88.04,446.74 101.31,440.56 101.31,405.69 81.95,382.91 49.64,382.91 "/>
<polygon fill="#D60023" points="115.72,409.26 115.72,435.89 128.08,446.74 165.88,446.74 179.15,440.56 179.15,405.69 159.79,382.91 127.48,382.91 "/>
<polygon fill="#D60023" points="198.09,409.26 198.09,435.89 210.45,446.74 248.24,446.74 261.52,440.56 261.52,405.69 242.16,382.91 209.84,382.91 "/>
<polygon fill="#D60023" points="278.81,408.03 278.81,434.65 291.17,445.51 328.96,445.51 342.24,439.33 342.24,404.45 322.88,381.67 290.56,381.67 "/>
<polygon fill="#D60023" points="355.41,408.03 355.41,434.65 367.77,445.51 405.56,445.51 418.84,439.33 418.84,404.45 399.48,381.67 367.16,381.67 "/>
<polygon fill="#D60023" points="433.66,408.03 433.66,434.65 446.02,445.51 483.81,445.51 497.09,439.33 497.09,404.45 477.73,381.67 445.41,381.67 "/>
<polygon fill="#D60023" points="511.5,409.26 511.5,435.89 523.86,446.74 561.65,446.74 574.92,440.56 574.92,405.69 555.57,382.91 523.25,382.91 "/>
<polygon fill="#D60023" points="602.52,408.85 602.52,435.47 614.87,446.33 652.67,446.33 665.94,440.15 665.94,405.28 646.58,382.5 614.27,382.5 "/>
<polygon fill="#D60023" points="680.35,408.85 680.35,435.47 692.71,446.33 730.5,446.33 743.78,440.15 743.78,405.28 724.42,382.5 692.1,382.5 "/>
<polygon fill="#D60023" points="762.72,408.85 762.72,435.47 775.08,446.33 812.87,446.33 826.14,440.15 826.14,405.28 806.79,382.5 774.47,382.5 "/>
<polygon fill="#D60023" points="843.44,407.62 843.44,434.24 855.8,445.09 893.59,445.09 906.86,438.92 906.86,404.04 887.51,381.26 855.19,381.26 "/>
<polygon fill="#D60023" points="920.04,407.62 920.04,434.24 932.4,445.09 970.19,445.09 983.47,438.92 983.47,404.04 964.11,381.26 931.79,381.26 "/>
<polygon fill="#D60023" points="998.29,407.62 998.29,434.24 1010.65,445.09 1048.44,445.09 1061.71,438.92 1061.71,404.04 1042.36,381.26 1010.04,381.26 "/>
<polygon fill="#D60023" points="1076.54,407.21 1076.54,433.83 1088.9,444.68 1126.69,444.68 1139.96,438.51 1139.96,403.63 1120.61,380.85 1088.29,380.85 "/>
<polygon fill="#D60023" points="1153.53,68.24 1153.53,94.86 1165.89,105.72 1203.68,105.72 1216.96,99.54 1216.96,64.66 1197.6,41.88 1165.28,41.88 "/>
<polygon fill="#D60023" points="1234.25,67 1234.25,93.63 1246.61,104.48 1284.4,104.48 1297.68,98.3 1297.68,63.43 1278.32,40.65 1246,40.65 "/>
<polygon fill="#D60023" points="1310.86,67 1310.86,93.63 1323.21,104.48 1361.01,104.48 1374.28,98.3 1374.28,63.43 1354.92,40.65 1322.61,40.65 "/>
<polygon fill="#D60023" points="1158.06,159.26 1158.06,185.88 1170.42,196.73 1208.21,196.73 1221.49,190.56 1221.49,155.68 1202.13,132.9 1169.81,132.9 "/>
<polygon fill="#D60023" points="1238.78,158.02 1238.78,184.64 1251.14,195.5 1288.93,195.5 1302.21,189.32 1302.21,154.44 1282.85,131.66 1250.54,131.66 "/>
<polygon fill="#D60023" points="1315.39,158.02 1315.39,184.64 1327.74,195.5 1365.54,195.5 1378.81,189.32 1378.81,154.44 1359.45,131.66 1327.14,131.66 "/>
<polygon fill="#D60023" points="1158.06,244.09 1158.06,270.72 1170.42,281.57 1208.21,281.57 1221.49,275.39 1221.49,240.52 1202.13,217.74 1169.81,217.74 "/>
<polygon fill="#D60023" points="1238.78,242.86 1238.78,269.48 1251.14,280.34 1288.93,280.34 1302.21,274.16 1302.21,239.28 1282.85,216.5 1250.54,216.5 "/>
<polygon fill="#D60023" points="1315.39,242.86 1315.39,269.48 1327.74,280.34 1365.54,280.34 1378.81,274.16 1378.81,239.28 1359.45,216.5 1327.14,216.5 "/>
<polygon fill="#D60023" points="1157.65,327.29 1157.65,353.91 1170.01,364.76 1207.8,364.76 1221.08,358.58 1221.08,323.71 1201.72,300.93 1169.4,300.93 "/>
<polygon fill="#D60023" points="1238.37,326.05 1238.37,352.67 1250.73,363.53 1288.52,363.53 1301.8,357.35 1301.8,322.47 1282.44,299.69 1250.12,299.69 "/>
<polygon fill="#D60023" points="1314.97,326.05 1314.97,352.67 1327.33,363.53 1365.12,363.53 1378.4,357.35 1378.4,322.47 1359.04,299.69 1326.72,299.69 "/>
<polygon fill="#D60023" points="1157.65,412.12 1157.65,438.75 1170.01,449.6 1207.8,449.6 1221.08,443.42 1221.08,408.55 1201.72,385.77 1169.4,385.77 "/>
<polygon fill="#D60023" points="1238.37,410.89 1238.37,437.51 1250.73,448.37 1288.52,448.37 1301.8,442.19 1301.8,407.31 1282.44,384.53 1250.12,384.53 "/>
<polygon fill="#D60023" points="1314.97,410.89 1314.97,437.51 1327.33,448.37 1365.12,448.37 1378.4,442.19 1378.4,407.31 1359.04,384.53 1326.72,384.53 "/>
<polygon fill="#D60023" points="46.35,481.77 46.35,492.47 51.31,496.83 66.51,496.83 71.84,494.35 71.84,480.33 64.06,471.17 51.07,471.17 "/>
<polygon fill="#D60023" points="77.64,481.77 77.64,492.47 82.6,496.83 97.79,496.83 103.13,494.35 103.13,480.33 95.35,471.17 82.36,471.17 "/>
<polygon fill="#D60023" points="110.74,481.77 110.74,492.47 115.71,496.83 130.9,496.83 136.24,494.35 136.24,480.33 128.46,471.17 115.47,471.17 "/>
<polygon fill="#D60023" points="143.19,481.27 143.19,491.97 148.16,496.34 163.35,496.34 168.69,493.85 168.69,479.84 160.9,470.68 147.91,470.68 "/>
<polygon fill="#D60023" points="173.98,481.27 173.98,491.97 178.95,496.34 194.14,496.34 199.48,493.85 199.48,479.84 191.7,470.68 178.71,470.68 "/>
<polygon fill="#D60023" points="205.44,481.27 205.44,491.97 210.4,496.34 225.59,496.34 230.93,493.85 230.93,479.84 223.15,470.68 210.16,470.68 "/>
<polygon fill="#D60023" points="236.72,481.77 236.72,492.47 241.69,496.83 256.88,496.83 262.22,494.35 262.22,480.33 254.44,471.17 241.45,471.17 "/>
<polygon fill="#D60023" points="273.31,481.6 273.31,492.3 278.28,496.67 293.47,496.67 298.8,494.18 298.8,480.17 291.02,471.01 278.03,471.01 "/>
<polygon fill="#D60023" points="304.6,481.6 304.6,492.3 309.56,496.67 324.76,496.67 330.09,494.18 330.09,480.17 322.31,471.01 309.32,471.01 "/>
<polygon fill="#D60023" points="337.71,481.6 337.71,492.3 342.67,496.67 357.86,496.67 363.2,494.18 363.2,480.17 355.42,471.01 342.43,471.01 "/>
<polygon fill="#D60023" points="370.15,481.11 370.15,491.81 375.12,496.17 390.31,496.17 395.65,493.69 395.65,479.67 387.87,470.51 374.88,470.51 "/>
<polygon fill="#D60023" points="400.94,481.11 400.94,491.81 405.91,496.17 421.1,496.17 426.44,493.69 426.44,479.67 418.66,470.51 405.67,470.51 "/>
<polygon fill="#D60023" points="432.4,481.11 432.4,491.81 437.36,496.17 452.56,496.17 457.89,493.69 457.89,479.67 450.11,470.51 437.12,470.51 "/>
<polygon fill="#D60023" points="463.69,481.6 463.69,492.3 468.65,496.67 483.84,496.67 489.18,494.18 489.18,480.17 481.4,471.01 468.41,471.01 "/>
<polygon fill="#D60023" points="46.14,520.85 46.14,531.55 51.11,535.92 66.3,535.92 71.64,533.43 71.64,519.41 63.86,510.26 50.87,510.26 "/>
<polygon fill="#D60023" points="77.43,520.85 77.43,531.55 82.4,535.92 97.59,535.92 102.93,533.43 102.93,519.41 95.15,510.26 82.16,510.26 "/>
<polygon fill="#D60023" points="110.54,520.85 110.54,531.55 115.51,535.92 130.7,535.92 136.03,533.43 136.03,519.41 128.25,510.26 115.26,510.26 "/>
<polygon fill="#D60023" points="142.99,520.35 142.99,531.06 147.95,535.42 163.15,535.42 168.48,532.94 168.48,518.92 160.7,509.76 147.71,509.76 "/>
<polygon fill="#D60023" points="173.78,520.35 173.78,531.06 178.75,535.42 193.94,535.42 199.27,532.94 199.27,518.92 191.49,509.76 178.5,509.76 "/>
<polygon fill="#D60023" points="205.23,520.35 205.23,531.06 210.2,535.42 225.39,535.42 230.73,532.94 230.73,518.92 222.95,509.76 209.96,509.76 "/>
<polygon fill="#D60023" points="236.52,520.85 236.52,531.55 241.49,535.92 256.68,535.92 262.01,533.43 262.01,519.41 254.23,510.26 241.24,510.26 "/>
<polygon fill="#D60023" points="273.11,520.69 273.11,531.39 278.07,535.75 293.26,535.75 298.6,533.27 298.6,519.25 290.82,510.09 277.83,510.09 "/>
<polygon fill="#D60023" points="304.39,520.69 304.39,531.39 309.36,535.75 324.55,535.75 329.89,533.27 329.89,519.25 322.11,510.09 309.12,510.09 "/>
<polygon fill="#D60023" points="337.5,520.69 337.5,531.39 342.47,535.75 357.66,535.75 363,533.27 363,519.25 355.22,510.09 342.23,510.09 "/>
<polygon fill="#D60023" points="369.95,520.19 369.95,530.89 374.92,535.25 390.11,535.25 395.44,532.77 395.44,518.75 387.66,509.59 374.67,509.59 "/>
<polygon fill="#D60023" points="400.74,520.19 400.74,530.89 405.71,535.25 420.9,535.25 426.23,532.77 426.23,518.75 418.45,509.59 405.46,509.59 "/>
<polygon fill="#D60023" points="432.19,520.19 432.19,530.89 437.16,535.25 452.35,535.25 457.69,532.77 457.69,518.75 449.91,509.59 436.92,509.59 "/>
<polygon fill="#D60023" points="463.48,520.69 463.48,531.39 468.45,535.75 483.64,535.75 488.98,533.27 488.98,519.25 481.2,510.09 468.21,510.09 "/>
<polygon fill="#D60023" points="28.14,558.86 28.14,569.56 33.11,573.92 48.3,573.92 53.64,571.44 53.64,557.42 45.85,548.26 32.86,548.26 "/>
<polygon fill="#D60023" points="59.43,558.86 59.43,569.56 64.4,573.92 79.59,573.92 84.92,571.44 84.92,557.42 77.14,548.26 64.15,548.26 "/>
<polygon fill="#D60023" points="92.54,558.86 92.54,569.56 97.5,573.92 112.7,573.92 118.03,571.44 118.03,557.42 110.25,548.26 97.26,548.26 "/>
<polygon fill="#D60023" points="124.99,558.36 124.99,569.06 129.95,573.43 145.14,573.43 150.48,570.94 150.48,556.93 142.7,547.77 129.71,547.77 "/>
<polygon fill="#D60023" points="155.78,558.36 155.78,569.06 160.74,573.43 175.94,573.43 181.27,570.94 181.27,556.93 173.49,547.77 160.5,547.77 "/>
<polygon fill="#D60023" points="187.23,558.36 187.23,569.06 192.2,573.43 207.39,573.43 212.72,570.94 212.72,556.93 204.94,547.77 191.95,547.77 "/>
<polygon fill="#D60023" points="218.52,558.86 218.52,569.56 223.48,573.92 238.68,573.92 244.01,571.44 244.01,557.42 236.23,548.26 223.24,548.26 "/>
<polygon fill="#D60023" points="255.1,558.69 255.1,569.39 260.07,573.76 275.26,573.76 280.6,571.27 280.6,557.26 272.82,548.1 259.83,548.1 "/>
<polygon fill="#D60023" points="286.39,558.69 286.39,569.39 291.36,573.76 306.55,573.76 311.89,571.27 311.89,557.26 304.1,548.1 291.11,548.1 "/>
<polygon fill="#D60023" points="319.5,558.69 319.5,569.39 324.47,573.76 339.66,573.76 344.99,571.27 344.99,557.26 337.21,548.1 324.22,548.1 "/>
<polygon fill="#D60023" points="351.95,558.2 351.95,568.9 356.91,573.26 372.11,573.26 377.44,570.78 377.44,556.76 369.66,547.6 356.67,547.6 "/>
<polygon fill="#D60023" points="382.74,558.2 382.74,568.9 387.7,573.26 402.9,573.26 408.23,570.78 408.23,556.76 400.45,547.6 387.46,547.6 "/>
<polygon fill="#D60023" points="414.19,558.2 414.19,568.9 419.16,573.26 434.35,573.26 439.69,570.78 439.69,556.76 431.9,547.6 418.91,547.6 "/>
<polygon fill="#D60023" points="445.48,558.69 445.48,569.39 450.45,573.76 465.64,573.76 470.97,571.27 470.97,557.26 463.19,548.1 450.2,548.1 "/>
<polygon fill="#D60023" points="27.99,593.79 27.99,604.49 32.96,608.85 48.15,608.85 53.48,606.37 53.48,592.35 45.7,583.19 32.71,583.19 "/>
<polygon fill="#D60023" points="59.28,593.79 59.28,604.49 64.24,608.85 79.44,608.85 84.77,606.37 84.77,592.35 76.99,583.19 64,583.19 "/>
<polygon fill="#D60023" points="92.39,593.79 92.39,604.49 97.35,608.85 112.55,608.85 117.88,606.37 117.88,592.35 110.1,583.19 97.11,583.19 "/>
<polygon fill="#D60023" points="124.83,593.29 124.83,603.99 129.8,608.36 144.99,608.36 150.33,605.87 150.33,591.85 142.55,582.7 129.56,582.7 "/>
<polygon fill="#D60023" points="155.63,593.29 155.63,603.99 160.59,608.36 175.78,608.36 181.12,605.87 181.12,591.85 173.34,582.7 160.35,582.7 "/>
<polygon fill="#D60023" points="187.08,593.29 187.08,603.99 192.04,608.36 207.24,608.36 212.57,605.87 212.57,591.85 204.79,582.7 191.8,582.7 "/>
<polygon fill="#D60023" points="218.37,593.79 218.37,604.49 223.33,608.85 238.53,608.85 243.86,606.37 243.86,592.35 236.08,583.19 223.09,583.19 "/>
<polygon fill="#D60023" points="254.95,593.62 254.95,604.32 259.92,608.69 275.11,608.69 280.45,606.2 280.45,592.19 272.67,583.03 259.68,583.03 "/>
<polygon fill="#D60023" points="286.24,593.62 286.24,604.32 291.21,608.69 306.4,608.69 311.73,606.2 311.73,592.19 303.95,583.03 290.96,583.03 "/>
<polygon fill="#D60023" points="319.35,593.62 319.35,604.32 324.31,608.69 339.51,608.69 344.84,606.2 344.84,592.19 337.06,583.03 324.07,583.03 "/>
<polygon fill="#D60023" points="351.8,593.13 351.8,603.83 356.76,608.19 371.95,608.19 377.29,605.71 377.29,591.69 369.51,582.53 356.52,582.53 "/>
<polygon fill="#D60023" points="382.59,593.13 382.59,603.83 387.55,608.19 402.75,608.19 408.08,605.71 408.08,591.69 400.3,582.53 387.31,582.53 "/>
<polygon fill="#D60023" points="414.04,593.13 414.04,603.83 419.01,608.19 434.2,608.19 439.53,605.71 439.53,591.69 431.75,582.53 418.76,582.53 "/>
<polygon fill="#D60023" points="445.33,593.62 445.33,604.32 450.29,608.69 465.49,608.69 470.82,606.2 470.82,592.19 463.04,583.03 450.05,583.03 "/>
<polygon fill="#D60023" points="28.95,629.23 28.95,639.93 33.91,644.29 49.11,644.29 54.44,641.81 54.44,627.79 46.66,618.63 33.67,618.63 "/>
<polygon fill="#D60023" points="60.24,629.23 60.24,639.93 65.2,644.29 80.39,644.29 85.73,641.81 85.73,627.79 77.95,618.63 64.96,618.63 "/>
<polygon fill="#D60023" points="93.34,629.23 93.34,639.93 98.31,644.29 113.5,644.29 118.84,641.81 118.84,627.79 111.06,618.63 98.07,618.63 "/>
<polygon fill="#D60023" points="125.79,628.73 125.79,639.43 130.76,643.8 145.95,643.8 151.29,641.31 151.29,627.29 143.5,618.14 130.51,618.14 "/>
<polygon fill="#D60023" points="156.58,628.73 156.58,639.43 161.55,643.8 176.74,643.8 182.08,641.31 182.08,627.29 174.3,618.14 161.31,618.14 "/>
<polygon fill="#D60023" points="188.04,628.73 188.04,639.43 193,643.8 208.2,643.8 213.53,641.31 213.53,627.29 205.75,618.14 192.76,618.14 "/>
<polygon fill="#D60023" points="219.32,629.23 219.32,639.93 224.29,644.29 239.48,644.29 244.82,641.81 244.82,627.79 237.04,618.63 224.05,618.63 "/>
<polygon fill="#D60023" points="255.91,629.06 255.91,639.76 260.88,644.13 276.07,644.13 281.4,641.64 281.4,627.62 273.62,618.47 260.63,618.47 "/>
<polygon fill="#D60023" points="287.2,629.06 287.2,639.76 292.16,644.13 307.36,644.13 312.69,641.64 312.69,627.62 304.91,618.47 291.92,618.47 "/>
<polygon fill="#D60023" points="320.31,629.06 320.31,639.76 325.27,644.13 340.47,644.13 345.8,641.64 345.8,627.62 338.02,618.47 325.03,618.47 "/>
<polygon fill="#D60023" points="352.75,628.57 352.75,639.27 357.72,643.63 372.91,643.63 378.25,641.15 378.25,627.13 370.47,617.97 357.48,617.97 "/>
<polygon fill="#D60023" points="383.54,628.57 383.54,639.27 388.51,643.63 403.7,643.63 409.04,641.15 409.04,627.13 401.26,617.97 388.27,617.97 "/>
<polygon fill="#D60023" points="415,628.57 415,639.27 419.96,643.63 435.16,643.63 440.49,641.15 440.49,627.13 432.71,617.97 419.72,617.97 "/>
<polygon fill="#D60023" points="446.29,629.06 446.29,639.76 451.25,644.13 466.44,644.13 471.78,641.64 471.78,627.62 464,618.47 451.01,618.47 "/>
<polygon fill="#D60023" points="31.19,668.78 31.19,679.48 36.16,683.85 51.35,683.85 56.69,681.36 56.69,667.35 48.91,658.19 35.92,658.19 "/>
<polygon fill="#D60023" points="62.48,668.78 62.48,679.48 67.45,683.85 82.64,683.85 87.97,681.36 87.97,667.35 80.19,658.19 67.2,658.19 "/>
<polygon fill="#D60023" points="95.59,668.78 95.59,679.48 100.56,683.85 115.75,683.85 121.08,681.36 121.08,667.35 113.3,658.19 100.31,658.19 "/>
<polygon fill="#D60023" points="128.04,668.29 128.04,678.99 133,683.35 148.2,683.35 153.53,680.87 153.53,666.85 145.75,657.69 132.76,657.69 "/>
<polygon fill="#D60023" points="158.83,668.29 158.83,678.99 163.79,683.35 178.99,683.35 184.32,680.87 184.32,666.85 176.54,657.69 163.55,657.69 "/>
<polygon fill="#D60023" points="190.28,668.29 190.28,678.99 195.25,683.35 210.44,683.35 215.78,680.87 215.78,666.85 207.99,657.69 195,657.69 "/>
<polygon fill="#D60023" points="221.57,668.78 221.57,679.48 226.54,683.85 241.73,683.85 247.06,681.36 247.06,667.35 239.28,658.19 226.29,658.19 "/>
<polygon fill="#D60023" points="258.15,668.62 258.15,679.32 263.12,683.68 278.31,683.68 283.65,681.2 283.65,667.18 275.87,658.02 262.88,658.02 "/>
<polygon fill="#D60023" points="289.44,668.62 289.44,679.32 294.41,683.68 309.6,683.68 314.94,681.2 314.94,667.18 307.16,658.02 294.17,658.02 "/>
<polygon fill="#D60023" points="322.55,668.62 322.55,679.32 327.52,683.68 342.71,683.68 348.05,681.2 348.05,667.18 340.26,658.02 327.27,658.02 "/>
<polygon fill="#D60023" points="355,668.12 355,678.82 359.96,683.19 375.16,683.19 380.49,680.7 380.49,666.68 372.71,657.53 359.72,657.53 "/>
<polygon fill="#D60023" points="385.79,668.12 385.79,678.82 390.76,683.19 405.95,683.19 411.28,680.7 411.28,666.68 403.5,657.53 390.51,657.53 "/>
<polygon fill="#D60023" points="417.24,668.12 417.24,678.82 422.21,683.19 437.4,683.19 442.74,680.7 442.74,666.68 434.96,657.53 421.97,657.53 "/>
<polygon fill="#D60023" points="448.53,668.62 448.53,679.32 453.5,683.68 468.69,683.68 474.02,681.2 474.02,667.18 466.24,658.02 453.25,658.02 "/>
<polygon fill="#D60023" points="32.07,708.88 32.07,719.58 37.04,723.94 52.23,723.94 57.57,721.46 57.57,707.44 49.79,698.28 36.8,698.28 "/>
<polygon fill="#D60023" points="63.36,708.88 63.36,719.58 68.33,723.94 83.52,723.94 88.86,721.46 88.86,707.44 81.08,698.28 68.09,698.28 "/>
<polygon fill="#D60023" points="96.47,708.88 96.47,719.58 101.44,723.94 116.63,723.94 121.97,721.46 121.97,707.44 114.18,698.28 101.19,698.28 "/>
<polygon fill="#D60023" points="128.92,708.38 128.92,719.08 133.88,723.45 149.08,723.45 154.41,720.96 154.41,706.94 146.63,697.79 133.64,697.79 "/>
<polygon fill="#D60023" points="159.71,708.38 159.71,719.08 164.68,723.45 179.87,723.45 185.2,720.96 185.2,706.94 177.42,697.79 164.43,697.79 "/>
<polygon fill="#D60023" points="191.16,708.38 191.16,719.08 196.13,723.45 211.32,723.45 216.66,720.96 216.66,706.94 208.88,697.79 195.89,697.79 "/>
<polygon fill="#D60023" points="222.45,708.88 222.45,719.58 227.42,723.94 242.61,723.94 247.94,721.46 247.94,707.44 240.16,698.28 227.17,698.28 "/>
<polygon fill="#D60023" points="259.04,708.71 259.04,719.41 264,723.78 279.2,723.78 284.53,721.29 284.53,707.27 276.75,698.12 263.76,698.12 "/>
<polygon fill="#D60023" points="290.32,708.71 290.32,719.41 295.29,723.78 310.48,723.78 315.82,721.29 315.82,707.27 308.04,698.12 295.05,698.12 "/>
<polygon fill="#D60023" points="323.43,708.71 323.43,719.41 328.4,723.78 343.59,723.78 348.93,721.29 348.93,707.27 341.15,698.12 328.16,698.12 "/>
<polygon fill="#D60023" points="355.88,708.22 355.88,718.92 360.85,723.28 376.04,723.28 381.37,720.8 381.37,706.78 373.59,697.62 360.6,697.62 "/>
<polygon fill="#D60023" points="386.67,708.22 386.67,718.92 391.64,723.28 406.83,723.28 412.17,720.8 412.17,706.78 404.38,697.62 391.39,697.62 "/>
<polygon fill="#D60023" points="418.12,708.22 418.12,718.92 423.09,723.28 438.28,723.28 443.62,720.8 443.62,706.78 435.84,697.62 422.85,697.62 "/>
<polygon fill="#D60023" points="449.41,708.71 449.41,719.41 454.38,723.78 469.57,723.78 474.91,721.29 474.91,707.27 467.13,698.12 454.14,698.12 "/>
<polygon fill="#D60023" points="31.92,743.81 31.92,754.51 36.89,758.87 52.08,758.87 57.42,756.39 57.42,742.37 49.64,733.21 36.65,733.21 "/>
<polygon fill="#D60023" points="63.21,743.81 63.21,754.51 68.18,758.87 83.37,758.87 88.7,756.39 88.7,742.37 80.92,733.21 67.93,733.21 "/>
<polygon fill="#D60023" points="96.32,743.81 96.32,754.51 101.29,758.87 116.48,758.87 121.81,756.39 121.81,742.37 114.03,733.21 101.04,733.21 "/>
<polygon fill="#D60023" points="128.77,743.31 128.77,754.01 133.73,758.37 148.93,758.37 154.26,755.89 154.26,741.87 146.48,732.72 133.49,732.72 "/>
<polygon fill="#D60023" points="159.56,743.31 159.56,754.01 164.52,758.37 179.72,758.37 185.05,755.89 185.05,741.87 177.27,732.72 164.28,732.72 "/>
<polygon fill="#D60023" points="191.01,743.31 191.01,754.01 195.98,758.37 211.17,758.37 216.51,755.89 216.51,741.87 208.72,732.72 195.73,732.72 "/>
<polygon fill="#D60023" points="222.3,743.81 222.3,754.51 227.27,758.87 242.46,758.87 247.79,756.39 247.79,742.37 240.01,733.21 227.02,733.21 "/>
<polygon fill="#D60023" points="258.88,743.64 258.88,754.34 263.85,758.71 279.04,758.71 284.38,756.22 284.38,742.2 276.6,733.05 263.61,733.05 "/>
<polygon fill="#D60023" points="290.17,743.64 290.17,754.34 295.14,758.71 310.33,758.71 315.67,756.22 315.67,742.2 307.89,733.05 294.9,733.05 "/>
<polygon fill="#D60023" points="323.28,743.64 323.28,754.34 328.25,758.71 343.44,758.71 348.78,756.22 348.78,742.2 340.99,733.05 328,733.05 "/>
<polygon fill="#D60023" points="355.73,743.14 355.73,753.85 360.69,758.21 375.89,758.21 381.22,755.73 381.22,741.71 373.44,732.55 360.45,732.55 "/>
<polygon fill="#D60023" points="386.52,743.14 386.52,753.85 391.49,758.21 406.68,758.21 412.01,755.73 412.01,741.71 404.23,732.55 391.24,732.55 "/>
<polygon fill="#D60023" points="417.97,743.14 417.97,753.85 422.94,758.21 438.13,758.21 443.47,755.73 443.47,741.71 435.69,732.55 422.7,732.55 "/>
<polygon fill="#D60023" points="449.26,743.64 449.26,754.34 454.23,758.71 469.42,758.71 474.75,756.22 474.75,742.2 466.97,733.05 453.98,733.05 "/>
<polygon fill="#D60023" points="32.88,779.25 32.88,789.95 37.85,794.31 53.04,794.31 58.37,791.83 58.37,777.81 50.59,768.65 37.6,768.65 "/>
<polygon fill="#D60023" points="64.17,779.25 64.17,789.95 69.14,794.31 84.33,794.31 89.66,791.83 89.66,777.81 81.88,768.65 68.89,768.65 "/>
<polygon fill="#D60023" points="97.28,779.25 97.28,789.95 102.24,794.31 117.44,794.31 122.77,791.83 122.77,777.81 114.99,768.65 102,768.65 "/>
<polygon fill="#D60023" points="129.72,778.75 129.72,789.45 134.69,793.81 149.88,793.81 155.22,791.33 155.22,777.31 147.44,768.15 134.45,768.15 "/>
<polygon fill="#D60023" points="160.52,778.75 160.52,789.45 165.48,793.81 180.67,793.81 186.01,791.33 186.01,777.31 178.23,768.15 165.24,768.15 "/>
<polygon fill="#D60023" points="191.97,778.75 191.97,789.45 196.94,793.81 212.13,793.81 217.46,791.33 217.46,777.31 209.68,768.15 196.69,768.15 "/>
<polygon fill="#D60023" points="223.26,779.25 223.26,789.95 228.22,794.31 243.42,794.31 248.75,791.83 248.75,777.81 240.97,768.65 227.98,768.65 "/>
<polygon fill="#D60023" points="259.84,779.08 259.84,789.78 264.81,794.14 280,794.14 285.34,791.66 285.34,777.64 277.56,768.49 264.57,768.49 "/>
<polygon fill="#D60023" points="291.13,779.08 291.13,789.78 296.1,794.14 311.29,794.14 316.62,791.66 316.62,777.64 308.84,768.49 295.85,768.49 "/>
<polygon fill="#D60023" points="324.24,779.08 324.24,789.78 329.21,794.14 344.4,794.14 349.73,791.66 349.73,777.64 341.95,768.49 328.96,768.49 "/>
<polygon fill="#D60023" points="356.69,778.58 356.69,789.28 361.65,793.65 376.84,793.65 382.18,791.16 382.18,777.15 374.4,767.99 361.41,767.99 "/>
<polygon fill="#D60023" points="387.48,778.58 387.48,789.28 392.44,793.65 407.64,793.65 412.97,791.16 412.97,777.15 405.19,767.99 392.2,767.99 "/>
<polygon fill="#D60023" points="418.93,778.58 418.93,789.28 423.9,793.65 439.09,793.65 444.42,791.16 444.42,777.15 436.64,767.99 423.65,767.99 "/>
<polygon fill="#D60023" points="450.22,779.08 450.22,789.78 455.19,794.14 470.38,794.14 475.71,791.66 475.71,777.64 467.93,768.49 454.94,768.49 "/>
<polygon fill="#D60023" points="35.13,818.8 35.13,829.5 40.09,833.87 55.28,833.87 60.62,831.38 60.62,817.36 52.84,808.21 39.85,808.21 "/>
<polygon fill="#D60023" points="66.41,818.8 66.41,829.5 71.38,833.87 86.57,833.87 91.91,831.38 91.91,817.36 84.13,808.21 71.14,808.21 "/>
<polygon fill="#D60023" points="99.52,818.8 99.52,829.5 104.49,833.87 119.68,833.87 125.02,831.38 125.02,817.36 117.24,808.21 104.25,808.21 "/>
<polygon fill="#D60023" points="131.97,818.3 131.97,829.01 136.94,833.37 152.13,833.37 157.46,830.89 157.46,816.87 149.68,807.71 136.69,807.71 "/>
<polygon fill="#D60023" points="162.76,818.3 162.76,829.01 167.73,833.37 182.92,833.37 188.25,830.89 188.25,816.87 180.47,807.71 167.48,807.71 "/>
<polygon fill="#D60023" points="194.21,818.3 194.21,829.01 199.18,833.37 214.37,833.37 219.71,830.89 219.71,816.87 211.93,807.71 198.94,807.71 "/>
<polygon fill="#D60023" points="225.5,818.8 225.5,829.5 230.47,833.87 245.66,833.87 251,831.38 251,817.36 243.22,808.21 230.23,808.21 "/>
<polygon fill="#D60023" points="262.09,818.64 262.09,829.34 267.05,833.7 282.25,833.7 287.58,831.22 287.58,817.2 279.8,808.04 266.81,808.04 "/>
<polygon fill="#D60023" points="293.38,818.64 293.38,829.34 298.34,833.7 313.53,833.7 318.87,831.22 318.87,817.2 311.09,808.04 298.1,808.04 "/>
<polygon fill="#D60023" points="326.48,818.64 326.48,829.34 331.45,833.7 346.64,833.7 351.98,831.22 351.98,817.2 344.2,808.04 331.21,808.04 "/>
<polygon fill="#D60023" points="358.93,818.14 358.93,828.84 363.9,833.2 379.09,833.2 384.43,830.72 384.43,816.7 376.64,807.54 363.65,807.54 "/>
<polygon fill="#D60023" points="389.72,818.14 389.72,828.84 394.69,833.2 409.88,833.2 415.22,830.72 415.22,816.7 407.44,807.54 394.45,807.54 "/>
<polygon fill="#D60023" points="421.18,818.14 421.18,828.84 426.14,833.2 441.33,833.2 446.67,830.72 446.67,816.7 438.89,807.54 425.9,807.54 "/>
<polygon fill="#D60023" points="452.46,818.64 452.46,829.34 457.43,833.7 472.62,833.7 477.96,831.22 477.96,817.2 470.18,808.04 457.19,808.04 "/>
<polygon fill="#D60023" points="504.27,481.88 504.27,492.58 509.24,496.94 524.43,496.94 529.77,494.46 529.77,480.44 521.99,471.28 509,471.28 "/>
<polygon fill="#D60023" points="535.56,481.88 535.56,492.58 540.53,496.94 555.72,496.94 561.05,494.46 561.05,480.44 553.27,471.28 540.28,471.28 "/>
<polygon fill="#D60023" points="568.67,481.88 568.67,492.58 573.64,496.94 588.83,496.94 594.16,494.46 594.16,480.44 586.38,471.28 573.39,471.28 "/>
<polygon fill="#D60023" points="601.12,481.38 601.12,492.08 606.08,496.45 621.27,496.45 626.61,493.96 626.61,479.94 618.83,470.79 605.84,470.79 "/>
<polygon fill="#D60023" points="631.91,481.38 631.91,492.08 636.87,496.45 652.07,496.45 657.4,493.96 657.4,479.94 649.62,470.79 636.63,470.79 "/>
<polygon fill="#D60023" points="663.36,481.38 663.36,492.08 668.33,496.45 683.52,496.45 688.85,493.96 688.85,479.94 681.07,470.79 668.08,470.79 "/>
<polygon fill="#D60023" points="694.65,481.88 694.65,492.58 699.61,496.94 714.81,496.94 720.14,494.46 720.14,480.44 712.36,471.28 699.37,471.28 "/>
<polygon fill="#D60023" points="731.23,481.71 731.23,492.41 736.2,496.78 751.39,496.78 756.73,494.29 756.73,480.28 748.95,471.12 735.96,471.12 "/>
<polygon fill="#D60023" points="762.52,481.71 762.52,492.41 767.49,496.78 782.68,496.78 788.02,494.29 788.02,480.28 780.24,471.12 767.25,471.12 "/>
<polygon fill="#D60023" points="795.63,481.71 795.63,492.41 800.6,496.78 815.79,496.78 821.12,494.29 821.12,480.28 813.34,471.12 800.35,471.12 "/>
<polygon fill="#D60023" points="828.08,481.22 828.08,491.92 833.04,496.28 848.24,496.28 853.57,493.8 853.57,479.78 845.79,470.62 832.8,470.62 "/>
<polygon fill="#D60023" points="858.87,481.22 858.87,491.92 863.84,496.28 879.03,496.28 884.36,493.8 884.36,479.78 876.58,470.62 863.59,470.62 "/>
<polygon fill="#D60023" points="890.32,481.22 890.32,491.92 895.29,496.28 910.48,496.28 915.82,493.8 915.82,479.78 908.04,470.62 895.05,470.62 "/>
<polygon fill="#D60023" points="921.61,481.71 921.61,492.41 926.58,496.78 941.77,496.78 947.1,494.29 947.1,480.28 939.32,471.12 926.33,471.12 "/>
<polygon fill="#D60023" points="504.12,516.81 504.12,527.51 509.09,531.87 524.28,531.87 529.61,529.39 529.61,515.37 521.83,506.21 508.84,506.21 "/>
<polygon fill="#D60023" points="535.41,516.81 535.41,527.51 540.38,531.87 555.57,531.87 560.9,529.39 560.9,515.37 553.12,506.21 540.13,506.21 "/>
<polygon fill="#D60023" points="568.52,516.81 568.52,527.51 573.48,531.87 588.68,531.87 594.01,529.39 594.01,515.37 586.23,506.21 573.24,506.21 "/>
<polygon fill="#D60023" points="600.96,516.31 600.96,527.01 605.93,531.38 621.12,531.38 626.46,528.89 626.46,514.87 618.68,505.72 605.69,505.72 "/>
<polygon fill="#D60023" points="631.76,516.31 631.76,527.01 636.72,531.38 651.91,531.38 657.25,528.89 657.25,514.87 649.47,505.72 636.48,505.72 "/>
<polygon fill="#D60023" points="663.21,516.31 663.21,527.01 668.18,531.38 683.37,531.38 688.7,528.89 688.7,514.87 680.92,505.72 667.93,505.72 "/>
<polygon fill="#D60023" points="694.5,516.81 694.5,527.51 699.46,531.87 714.66,531.87 719.99,529.39 719.99,515.37 712.21,506.21 699.22,506.21 "/>
<polygon fill="#D60023" points="731.08,516.64 731.08,527.34 736.05,531.71 751.24,531.71 756.58,529.22 756.58,515.2 748.8,506.05 735.81,506.05 "/>
<polygon fill="#D60023" points="762.37,516.64 762.37,527.34 767.34,531.71 782.53,531.71 787.86,529.22 787.86,515.2 780.08,506.05 767.09,506.05 "/>
<polygon fill="#D60023" points="795.48,516.64 795.48,527.34 800.45,531.71 815.64,531.71 820.97,529.22 820.97,515.2 813.19,506.05 800.2,506.05 "/>
<polygon fill="#D60023" points="827.93,516.15 827.93,526.85 832.89,531.21 848.08,531.21 853.42,528.73 853.42,514.71 845.64,505.55 832.65,505.55 "/>
<polygon fill="#D60023" points="858.72,516.15 858.72,526.85 863.68,531.21 878.88,531.21 884.21,528.73 884.21,514.71 876.43,505.55 863.44,505.55 "/>
<polygon fill="#D60023" points="890.17,516.15 890.17,526.85 895.14,531.21 910.33,531.21 915.66,528.73 915.66,514.71 907.88,505.55 894.89,505.55 "/>
<polygon fill="#D60023" points="921.46,516.64 921.46,527.34 926.42,531.71 941.62,531.71 946.95,529.22 946.95,515.2 939.17,506.05 926.18,506.05 "/>
<polygon fill="#D60023" points="486.88,552.25 486.88,562.95 491.85,567.31 507.04,567.31 512.37,564.83 512.37,550.81 504.59,541.65 491.6,541.65 "/>
<polygon fill="#D60023" points="518.17,552.25 518.17,562.95 523.13,567.31 538.33,567.31 543.66,564.83 543.66,550.81 535.88,541.65 522.89,541.65 "/>
<polygon fill="#D60023" points="551.28,552.25 551.28,562.95 556.24,567.31 571.44,567.31 576.77,564.83 576.77,550.81 568.99,541.65 556,541.65 "/>
<polygon fill="#D60023" points="583.72,551.75 583.72,562.45 588.69,566.81 603.88,566.81 609.22,564.33 609.22,550.31 601.44,541.15 588.45,541.15 "/>
<polygon fill="#D60023" points="614.52,551.75 614.52,562.45 619.48,566.81 634.67,566.81 640.01,564.33 640.01,550.31 632.23,541.15 619.24,541.15 "/>
<polygon fill="#D60023" points="645.97,551.75 645.97,562.45 650.93,566.81 666.13,566.81 671.46,564.33 671.46,550.31 663.68,541.15 650.69,541.15 "/>
<polygon fill="#D60023" points="677.26,552.25 677.26,562.95 682.22,567.31 697.42,567.31 702.75,564.83 702.75,550.81 694.97,541.65 681.98,541.65 "/>
<polygon fill="#D60023" points="713.84,552.08 713.84,562.78 718.81,567.15 734,567.15 739.34,564.66 739.34,550.64 731.56,541.49 718.57,541.49 "/>
<polygon fill="#D60023" points="745.13,552.08 745.13,562.78 750.1,567.15 765.29,567.15 770.62,564.66 770.62,550.64 762.84,541.49 749.85,541.49 "/>
<polygon fill="#D60023" points="778.24,552.08 778.24,562.78 783.21,567.15 798.4,567.15 803.73,564.66 803.73,550.64 795.95,541.49 782.96,541.49 "/>
<polygon fill="#D60023" points="810.69,551.58 810.69,562.28 815.65,566.65 830.84,566.65 836.18,564.17 836.18,550.15 828.4,540.99 815.41,540.99 "/>
<polygon fill="#D60023" points="841.48,551.58 841.48,562.28 846.44,566.65 861.64,566.65 866.97,564.17 866.97,550.15 859.19,540.99 846.2,540.99 "/>
<polygon fill="#D60023" points="872.93,551.58 872.93,562.28 877.9,566.65 893.09,566.65 898.42,564.17 898.42,550.15 890.64,540.99 877.65,540.99 "/>
<polygon fill="#D60023" points="904.22,552.08 904.22,562.78 909.18,567.15 924.38,567.15 929.71,564.66 929.71,550.64 921.93,541.49 908.94,541.49 "/>
<polygon fill="#D60023" points="489.13,591.8 489.13,602.5 494.09,606.87 509.28,606.87 514.62,604.38 514.62,590.36 506.84,581.21 493.85,581.21 "/>
<polygon fill="#D60023" points="520.41,591.8 520.41,602.5 525.38,606.87 540.57,606.87 545.91,604.38 545.91,590.36 538.13,581.21 525.14,581.21 "/>
<polygon fill="#D60023" points="553.52,591.8 553.52,602.5 558.49,606.87 573.68,606.87 579.02,604.38 579.02,590.36 571.24,581.21 558.25,581.21 "/>
<polygon fill="#D60023" points="585.97,591.31 585.97,602.01 590.94,606.37 606.13,606.37 611.46,603.89 611.46,589.87 603.68,580.71 590.69,580.71 "/>
<polygon fill="#D60023" points="616.76,591.31 616.76,602.01 621.73,606.37 636.92,606.37 642.25,603.89 642.25,589.87 634.47,580.71 621.48,580.71 "/>
<polygon fill="#D60023" points="648.21,591.31 648.21,602.01 653.18,606.37 668.37,606.37 673.71,603.89 673.71,589.87 665.93,580.71 652.94,580.71 "/>
<polygon fill="#D60023" points="679.5,591.8 679.5,602.5 684.47,606.87 699.66,606.87 705,604.38 705,590.36 697.21,581.21 684.22,581.21 "/>
<polygon fill="#D60023" points="716.09,591.64 716.09,602.34 721.05,606.7 736.25,606.7 741.58,604.22 741.58,590.2 733.8,581.04 720.81,581.04 "/>
<polygon fill="#D60023" points="747.37,591.64 747.37,602.34 752.34,606.7 767.53,606.7 772.87,604.22 772.87,590.2 765.09,581.04 752.1,581.04 "/>
<polygon fill="#D60023" points="780.48,591.64 780.48,602.34 785.45,606.7 800.64,606.7 805.98,604.22 805.98,590.2 798.2,581.04 785.21,581.04 "/>
<polygon fill="#D60023" points="812.93,591.14 812.93,601.84 817.9,606.2 833.09,606.2 838.42,603.72 838.42,589.7 830.64,580.54 817.65,580.54 "/>
<polygon fill="#D60023" points="843.72,591.14 843.72,601.84 848.69,606.2 863.88,606.2 869.22,603.72 869.22,589.7 861.44,580.54 848.45,580.54 "/>
<polygon fill="#D60023" points="875.18,591.14 875.18,601.84 880.14,606.2 895.33,606.2 900.67,603.72 900.67,589.7 892.89,580.54 879.9,580.54 "/>
<polygon fill="#D60023" points="906.46,591.64 906.46,602.34 911.43,606.7 926.62,606.7 931.96,604.22 931.96,590.2 924.18,581.04 911.19,581.04 "/>
<polygon fill="#D60023" points="490.92,631.98 490.92,642.68 495.88,647.05 511.08,647.05 516.41,644.56 516.41,630.55 508.63,621.39 495.64,621.39 "/>
<polygon fill="#D60023" points="522.2,631.98 522.2,642.68 527.17,647.05 542.36,647.05 547.7,644.56 547.7,630.55 539.92,621.39 526.93,621.39 "/>
<polygon fill="#D60023" points="555.31,631.98 555.31,642.68 560.28,647.05 575.47,647.05 580.81,644.56 580.81,630.55 573.03,621.39 560.04,621.39 "/>
<polygon fill="#D60023" points="587.76,631.49 587.76,642.19 592.73,646.55 607.92,646.55 613.25,644.07 613.25,630.05 605.47,620.89 592.48,620.89 "/>
<polygon fill="#D60023" points="618.55,631.49 618.55,642.19 623.52,646.55 638.71,646.55 644.05,644.07 644.05,630.05 636.26,620.89 623.27,620.89 "/>
<polygon fill="#D60023" points="650,631.49 650,642.19 654.97,646.55 670.16,646.55 675.5,644.07 675.5,630.05 667.72,620.89 654.73,620.89 "/>
<polygon fill="#D60023" points="681.29,631.98 681.29,642.68 686.26,647.05 701.45,647.05 706.79,644.56 706.79,630.55 699.01,621.39 686.02,621.39 "/>
<polygon fill="#D60023" points="717.88,631.82 717.88,642.52 722.84,646.88 738.04,646.88 743.37,644.4 743.37,630.38 735.59,621.22 722.6,621.22 "/>
<polygon fill="#D60023" points="749.17,631.82 749.17,642.52 754.13,646.88 769.32,646.88 774.66,644.4 774.66,630.38 766.88,621.22 753.89,621.22 "/>
<polygon fill="#D60023" points="782.27,631.82 782.27,642.52 787.24,646.88 802.43,646.88 807.77,644.4 807.77,630.38 799.99,621.22 787,621.22 "/>
<polygon fill="#D60023" points="814.72,631.32 814.72,642.02 819.69,646.39 834.88,646.39 840.22,643.9 840.22,629.88 832.43,620.73 819.45,620.73 "/>
<polygon fill="#D60023" points="845.51,631.32 845.51,642.02 850.48,646.39 865.67,646.39 871.01,643.9 871.01,629.88 863.23,620.73 850.24,620.73 "/>
<polygon fill="#D60023" points="876.97,631.32 876.97,642.02 881.93,646.39 897.13,646.39 902.46,643.9 902.46,629.88 894.68,620.73 881.69,620.73 "/>
<polygon fill="#D60023" points="908.25,631.82 908.25,642.52 913.22,646.88 928.41,646.88 933.75,644.4 933.75,630.38 925.97,621.22 912.98,621.22 "/>
<polygon fill="#D60023" points="490.76,666.91 490.76,677.61 495.73,681.98 510.92,681.98 516.26,679.49 516.26,665.48 508.48,656.32 495.49,656.32 "/>
<polygon fill="#D60023" points="522.05,666.91 522.05,677.61 527.02,681.98 542.21,681.98 547.55,679.49 547.55,665.48 539.77,656.32 526.78,656.32 "/>
<polygon fill="#D60023" points="555.16,666.91 555.16,677.61 560.13,681.98 575.32,681.98 580.66,679.49 580.66,665.48 572.88,656.32 559.89,656.32 "/>
<polygon fill="#D60023" points="587.61,666.42 587.61,677.12 592.57,681.48 607.77,681.48 613.1,679 613.1,664.98 605.32,655.82 592.33,655.82 "/>
<polygon fill="#D60023" points="618.4,666.42 618.4,677.12 623.37,681.48 638.56,681.48 643.89,679 643.89,664.98 636.11,655.82 623.12,655.82 "/>
<polygon fill="#D60023" points="649.85,666.42 649.85,677.12 654.82,681.48 670.01,681.48 675.35,679 675.35,664.98 667.57,655.82 654.58,655.82 "/>
<polygon fill="#D60023" points="681.14,666.91 681.14,677.61 686.11,681.98 701.3,681.98 706.64,679.49 706.64,665.48 698.85,656.32 685.86,656.32 "/>
<polygon fill="#D60023" points="717.73,666.75 717.73,677.45 722.69,681.81 737.89,681.81 743.22,679.33 743.22,665.31 735.44,656.15 722.45,656.15 "/>
<polygon fill="#D60023" points="749.01,666.75 749.01,677.45 753.98,681.81 769.17,681.81 774.51,679.33 774.51,665.31 766.73,656.15 753.74,656.15 "/>
<polygon fill="#D60023" points="782.12,666.75 782.12,677.45 787.09,681.81 802.28,681.81 807.62,679.33 807.62,665.31 799.84,656.15 786.85,656.15 "/>
<polygon fill="#D60023" points="814.57,666.25 814.57,676.95 819.54,681.31 834.73,681.31 840.06,678.83 840.06,664.81 832.28,655.66 819.29,655.66 "/>
<polygon fill="#D60023" points="845.36,666.25 845.36,676.95 850.33,681.31 865.52,681.31 870.86,678.83 870.86,664.81 863.07,655.66 850.08,655.66 "/>
<polygon fill="#D60023" points="876.81,666.25 876.81,676.95 881.78,681.31 896.97,681.31 902.31,678.83 902.31,664.81 894.53,655.66 881.54,655.66 "/>
<polygon fill="#D60023" points="908.1,666.75 908.1,677.45 913.07,681.81 928.26,681.81 933.6,679.33 933.6,665.31 925.82,656.15 912.83,656.15 "/>
<polygon fill="#D60023" points="491.72,702.35 491.72,713.05 496.69,717.42 511.88,717.42 517.22,714.93 517.22,700.91 509.44,691.76 496.45,691.76 "/>
<polygon fill="#D60023" points="523.01,702.35 523.01,713.05 527.98,717.42 543.17,717.42 548.5,714.93 548.5,700.91 540.72,691.76 527.73,691.76 "/>
<polygon fill="#D60023" points="556.12,702.35 556.12,713.05 561.09,717.42 576.28,717.42 581.61,714.93 581.61,700.91 573.83,691.76 560.84,691.76 "/>
<polygon fill="#D60023" points="588.57,701.85 588.57,712.56 593.53,716.92 608.73,716.92 614.06,714.44 614.06,700.42 606.28,691.26 593.29,691.26 "/>
<polygon fill="#D60023" points="619.36,701.85 619.36,712.56 624.32,716.92 639.52,716.92 644.85,714.44 644.85,700.42 637.07,691.26 624.08,691.26 "/>
<polygon fill="#D60023" points="650.81,701.85 650.81,712.56 655.78,716.92 670.97,716.92 676.3,714.44 676.3,700.42 668.52,691.26 655.53,691.26 "/>
<polygon fill="#D60023" points="682.1,702.35 682.1,713.05 687.07,717.42 702.26,717.42 707.59,714.93 707.59,700.91 699.81,691.76 686.82,691.76 "/>
<polygon fill="#D60023" points="718.68,702.19 718.68,712.89 723.65,717.25 738.84,717.25 744.18,714.77 744.18,700.75 736.4,691.59 723.41,691.59 "/>
<polygon fill="#D60023" points="749.97,702.19 749.97,712.89 754.94,717.25 770.13,717.25 775.47,714.77 775.47,700.75 767.69,691.59 754.7,691.59 "/>
<polygon fill="#D60023" points="783.08,702.19 783.08,712.89 788.05,717.25 803.24,717.25 808.58,714.77 808.58,700.75 800.79,691.59 787.8,691.59 "/>
<polygon fill="#D60023" points="815.53,701.69 815.53,712.39 820.49,716.75 835.69,716.75 841.02,714.27 841.02,700.25 833.24,691.09 820.25,691.09 "/>
<polygon fill="#D60023" points="846.32,701.69 846.32,712.39 851.29,716.75 866.48,716.75 871.81,714.27 871.81,700.25 864.03,691.09 851.04,691.09 "/>
<polygon fill="#D60023" points="877.77,701.69 877.77,712.39 882.74,716.75 897.93,716.75 903.27,714.27 903.27,700.25 895.49,691.09 882.5,691.09 "/>
<polygon fill="#D60023" points="909.06,702.19 909.06,712.89 914.03,717.25 929.22,717.25 934.55,714.77 934.55,700.75 926.77,691.59 913.78,691.59 "/>
<polygon fill="#D60023" points="493.97,741.91 493.97,752.61 498.93,756.97 514.13,756.97 519.46,754.49 519.46,740.47 511.68,731.31 498.69,731.31 "/>
<polygon fill="#D60023" points="525.26,741.91 525.26,752.61 530.22,756.97 545.41,756.97 550.75,754.49 550.75,740.47 542.97,731.31 529.98,731.31 "/>
<polygon fill="#D60023" points="558.36,741.91 558.36,752.61 563.33,756.97 578.52,756.97 583.86,754.49 583.86,740.47 576.08,731.31 563.09,731.31 "/>
<polygon fill="#D60023" points="590.81,741.41 590.81,752.11 595.78,756.47 610.97,756.47 616.31,753.99 616.31,739.97 608.52,730.82 595.53,730.82 "/>
<polygon fill="#D60023" points="621.6,741.41 621.6,752.11 626.57,756.47 641.76,756.47 647.1,753.99 647.1,739.97 639.32,730.82 626.33,730.82 "/>
<polygon fill="#D60023" points="653.06,741.41 653.06,752.11 658.02,756.47 673.21,756.47 678.55,753.99 678.55,739.97 670.77,730.82 657.78,730.82 "/>
<polygon fill="#D60023" points="684.34,741.91 684.34,752.61 689.31,756.97 704.5,756.97 709.84,754.49 709.84,740.47 702.06,731.31 689.07,731.31 "/>
<polygon fill="#D60023" points="720.93,741.74 720.93,752.44 725.9,756.81 741.09,756.81 746.42,754.32 746.42,740.3 738.64,731.15 725.65,731.15 "/>
<polygon fill="#D60023" points="752.22,741.74 752.22,752.44 757.18,756.81 772.38,756.81 777.71,754.32 777.71,740.3 769.93,731.15 756.94,731.15 "/>
<polygon fill="#D60023" points="785.33,741.74 785.33,752.44 790.29,756.81 805.48,756.81 810.82,754.32 810.82,740.3 803.04,731.15 790.05,731.15 "/>
<polygon fill="#D60023" points="817.77,741.24 817.77,751.95 822.74,756.31 837.93,756.31 843.27,753.83 843.27,739.81 835.49,730.65 822.5,730.65 "/>
<polygon fill="#D60023" points="848.56,741.24 848.56,751.95 853.53,756.31 868.72,756.31 874.06,753.83 874.06,739.81 866.28,730.65 853.29,730.65 "/>
<polygon fill="#D60023" points="880.02,741.24 880.02,751.95 884.98,756.31 900.18,756.31 905.51,753.83 905.51,739.81 897.73,730.65 884.74,730.65 "/>
<polygon fill="#D60023" points="911.31,741.74 911.31,752.44 916.27,756.81 931.46,756.81 936.8,754.32 936.8,740.3 929.02,731.15 916.03,731.15 "/>
<polygon fill="#D60023" points="494.93,778.99 494.93,789.69 499.89,794.05 515.08,794.05 520.42,791.57 520.42,777.55 512.64,768.39 499.65,768.39 "/>
<polygon fill="#D60023" points="526.21,778.99 526.21,789.69 531.18,794.05 546.37,794.05 551.71,791.57 551.71,777.55 543.93,768.39 530.94,768.39 "/>
<polygon fill="#D60023" points="559.32,778.99 559.32,789.69 564.29,794.05 579.48,794.05 584.82,791.57 584.82,777.55 577.04,768.39 564.05,768.39 "/>
<polygon fill="#D60023" points="591.77,778.49 591.77,789.19 596.74,793.56 611.93,793.56 617.26,791.07 617.26,777.06 609.48,767.9 596.49,767.9 "/>
<polygon fill="#D60023" points="622.56,778.49 622.56,789.19 627.53,793.56 642.72,793.56 648.05,791.07 648.05,777.06 640.27,767.9 627.28,767.9 "/>
<polygon fill="#D60023" points="654.01,778.49 654.01,789.19 658.98,793.56 674.17,793.56 679.51,791.07 679.51,777.06 671.73,767.9 658.74,767.9 "/>
<polygon fill="#D60023" points="685.3,778.99 685.3,789.69 690.27,794.05 705.46,794.05 710.8,791.57 710.8,777.55 703.02,768.39 690.03,768.39 "/>
<polygon fill="#D60023" points="721.89,778.82 721.89,789.52 726.85,793.89 742.05,793.89 747.38,791.41 747.38,777.39 739.6,768.23 726.61,768.23 "/>
<polygon fill="#D60023" points="753.18,778.82 753.18,789.52 758.14,793.89 773.33,793.89 778.67,791.41 778.67,777.39 770.89,768.23 757.9,768.23 "/>
<polygon fill="#D60023" points="786.28,778.82 786.28,789.52 791.25,793.89 806.44,793.89 811.78,791.41 811.78,777.39 804,768.23 791.01,768.23 "/>
<polygon fill="#D60023" points="818.73,778.33 818.73,789.03 823.7,793.39 838.89,793.39 844.23,790.91 844.23,776.89 836.44,767.73 823.45,767.73 "/>
<polygon fill="#D60023" points="849.52,778.33 849.52,789.03 854.49,793.39 869.68,793.39 875.02,790.91 875.02,776.89 867.24,767.73 854.25,767.73 "/>
<polygon fill="#D60023" points="880.98,778.33 880.98,789.03 885.94,793.39 901.13,793.39 906.47,790.91 906.47,776.89 898.69,767.73 885.7,767.73 "/>
<polygon fill="#D60023" points="912.26,778.82 912.26,789.52 917.23,793.89 932.42,793.89 937.76,791.41 937.76,777.39 929.98,768.23 916.99,768.23 "/>
<polygon fill="#D60023" points="495.88,814.43 495.88,825.13 500.85,829.49 516.04,829.49 521.38,827.01 521.38,812.99 513.6,803.83 500.61,803.83 "/>
<polygon fill="#D60023" points="527.17,814.43 527.17,825.13 532.14,829.49 547.33,829.49 552.67,827.01 552.67,812.99 544.89,803.83 531.9,803.83 "/>
<polygon fill="#D60023" points="560.28,814.43 560.28,825.13 565.25,829.49 580.44,829.49 585.77,827.01 585.77,812.99 577.99,803.83 565,803.83 "/>
<polygon fill="#D60023" points="592.73,813.93 592.73,824.63 597.69,829 612.89,829 618.22,826.51 618.22,812.49 610.44,803.34 597.45,803.34 "/>
<polygon fill="#D60023" points="623.52,813.93 623.52,824.63 628.48,829 643.68,829 649.01,826.51 649.01,812.49 641.23,803.34 628.24,803.34 "/>
<polygon fill="#D60023" points="654.97,813.93 654.97,824.63 659.94,829 675.13,829 680.47,826.51 680.47,812.49 672.69,803.34 659.7,803.34 "/>
<polygon fill="#D60023" points="686.26,814.43 686.26,825.13 691.23,829.49 706.42,829.49 711.75,827.01 711.75,812.99 703.97,803.83 690.98,803.83 "/>
<polygon fill="#D60023" points="722.85,814.26 722.85,824.96 727.81,829.33 743,829.33 748.34,826.84 748.34,812.83 740.56,803.67 727.57,803.67 "/>
<polygon fill="#D60023" points="754.13,814.26 754.13,824.96 759.1,829.33 774.29,829.33 779.63,826.84 779.63,812.83 771.85,803.67 758.86,803.67 "/>
<polygon fill="#D60023" points="787.24,814.26 787.24,824.96 792.21,829.33 807.4,829.33 812.74,826.84 812.74,812.83 804.96,803.67 791.97,803.67 "/>
<polygon fill="#D60023" points="819.69,813.77 819.69,824.47 824.66,828.83 839.85,828.83 845.18,826.35 845.18,812.33 837.4,803.17 824.41,803.17 "/>
<polygon fill="#D60023" points="850.48,813.77 850.48,824.47 855.45,828.83 870.64,828.83 875.97,826.35 875.97,812.33 868.19,803.17 855.2,803.17 "/>
<polygon fill="#D60023" points="881.93,813.77 881.93,824.47 886.9,828.83 902.09,828.83 907.43,826.35 907.43,812.33 899.65,803.17 886.66,803.17 "/>
<polygon fill="#D60023" points="913.22,814.26 913.22,824.96 918.19,829.33 933.38,829.33 938.72,826.84 938.72,812.83 930.93,803.67 917.95,803.67 "/>
<polygon fill="#D60023" points="498.13,853.98 498.13,864.68 503.1,869.05 518.29,869.05 523.62,866.57 523.62,852.55 515.84,843.39 502.85,843.39 "/>
<polygon fill="#D60023" points="529.42,853.98 529.42,864.68 534.38,869.05 549.58,869.05 554.91,866.57 554.91,852.55 547.13,843.39 534.14,843.39 "/>
<polygon fill="#D60023" points="562.53,853.98 562.53,864.68 567.49,869.05 582.68,869.05 588.02,866.57 588.02,852.55 580.24,843.39 567.25,843.39 "/>
<polygon fill="#D60023" points="594.97,853.49 594.97,864.19 599.94,868.55 615.13,868.55 620.47,866.07 620.47,852.05 612.69,842.89 599.7,842.89 "/>
<polygon fill="#D60023" points="625.76,853.49 625.76,864.19 630.73,868.55 645.92,868.55 651.26,866.07 651.26,852.05 643.48,842.89 630.49,842.89 "/>
<polygon fill="#D60023" points="657.22,853.49 657.22,864.19 662.18,868.55 677.38,868.55 682.71,866.07 682.71,852.05 674.93,842.89 661.94,842.89 "/>
<polygon fill="#D60023" points="688.51,853.98 688.51,864.68 693.47,869.05 708.66,869.05 714,866.57 714,852.55 706.22,843.39 693.23,843.39 "/>
<polygon fill="#D60023" points="725.09,853.82 725.09,864.52 730.06,868.88 745.25,868.88 750.58,866.4 750.58,852.38 742.8,843.22 729.81,843.22 "/>
<polygon fill="#D60023" points="756.38,853.82 756.38,864.52 761.34,868.88 776.54,868.88 781.87,866.4 781.87,852.38 774.09,843.22 761.1,843.22 "/>
<polygon fill="#D60023" points="789.49,853.82 789.49,864.52 794.45,868.88 809.65,868.88 814.98,866.4 814.98,852.38 807.2,843.22 794.21,843.22 "/>
<polygon fill="#D60023" points="821.93,853.32 821.93,864.02 826.9,868.39 842.09,868.39 847.43,865.9 847.43,851.88 839.65,842.73 826.66,842.73 "/>
<polygon fill="#D60023" points="852.73,853.32 852.73,864.02 857.69,868.39 872.88,868.39 878.22,865.9 878.22,851.88 870.44,842.73 857.45,842.73 "/>
<polygon fill="#D60023" points="884.18,853.32 884.18,864.02 889.15,868.39 904.34,868.39 909.67,865.9 909.67,851.88 901.89,842.73 888.9,842.73 "/>
<polygon fill="#D60023" points="915.47,853.82 915.47,864.52 920.43,868.88 935.63,868.88 940.96,866.4 940.96,852.38 933.18,843.22 920.19,843.22 "/>
<polygon fill="#D60023" points="962.44,482.18 962.44,492.88 967.41,497.24 982.6,497.24 987.93,494.76 987.93,480.74 980.15,471.58 967.16,471.58 "/>
<polygon fill="#D60023" points="993.73,482.67 993.73,493.38 998.69,497.74 1013.89,497.74 1019.22,495.26 1019.22,481.24 1011.44,472.08 998.45,472.08 "/>
<polygon fill="#D60023" points="1030.31,482.51 1030.31,493.21 1035.28,497.57 1050.47,497.57 1055.81,495.09 1055.81,481.07 1048.03,471.91 1035.04,471.91 "/>
<polygon fill="#D60023" points="1061.6,482.51 1061.6,493.21 1066.57,497.57 1081.76,497.57 1087.09,495.09 1087.09,481.07 1079.31,471.91 1066.32,471.91 "/>
<polygon fill="#D60023" points="1094.71,482.51 1094.71,493.21 1099.68,497.57 1114.87,497.57 1120.2,495.09 1120.2,481.07 1112.42,471.91 1099.43,471.91 "/>
<polygon fill="#D60023" points="1127.16,482.01 1127.16,492.71 1132.12,497.08 1147.31,497.08 1152.65,494.59 1152.65,480.58 1144.87,471.42 1131.88,471.42 "/>
<polygon fill="#D60023" points="1157.95,482.01 1157.95,492.71 1162.91,497.08 1178.11,497.08 1183.44,494.59 1183.44,480.58 1175.66,471.42 1162.67,471.42 "/>
<polygon fill="#D60023" points="1189.4,482.01 1189.4,492.71 1194.37,497.08 1209.56,497.08 1214.89,494.59 1214.89,480.58 1207.11,471.42 1194.12,471.42 "/>
<polygon fill="#D60023" points="1220.69,482.51 1220.69,493.21 1225.66,497.57 1240.85,497.57 1246.18,495.09 1246.18,481.07 1238.4,471.91 1225.41,471.91 "/>
<polygon fill="#D60023" points="963.27,516.61 963.27,527.31 968.24,531.68 983.43,531.68 988.77,529.19 988.77,515.18 980.99,506.02 968,506.02 "/>
<polygon fill="#D60023" points="994.56,517.11 994.56,527.81 999.53,532.17 1014.72,532.17 1020.05,529.69 1020.05,515.67 1012.27,506.51 999.28,506.51 "/>
<polygon fill="#D60023" points="1031.15,516.94 1031.15,527.64 1036.11,532.01 1051.3,532.01 1056.64,529.52 1056.64,515.51 1048.86,506.35 1035.87,506.35 "/>
<polygon fill="#D60023" points="1062.43,516.94 1062.43,527.64 1067.4,532.01 1082.59,532.01 1087.93,529.52 1087.93,515.51 1080.15,506.35 1067.16,506.35 "/>
<polygon fill="#D60023" points="1095.54,516.94 1095.54,527.64 1100.51,532.01 1115.7,532.01 1121.04,529.52 1121.04,515.51 1113.26,506.35 1100.27,506.35 "/>
<polygon fill="#D60023" points="1127.99,516.45 1127.99,527.15 1132.96,531.51 1148.15,531.51 1153.48,529.03 1153.48,515.01 1145.7,505.85 1132.71,505.85 "/>
<polygon fill="#D60023" points="1158.78,516.45 1158.78,527.15 1163.75,531.51 1178.94,531.51 1184.27,529.03 1184.27,515.01 1176.49,505.85 1163.5,505.85 "/>
<polygon fill="#D60023" points="1190.23,516.45 1190.23,527.15 1195.2,531.51 1210.39,531.51 1215.73,529.03 1215.73,515.01 1207.95,505.85 1194.96,505.85 "/>
<polygon fill="#D60023" points="1221.52,516.94 1221.52,527.64 1226.49,532.01 1241.68,532.01 1247.02,529.52 1247.02,515.51 1239.24,506.35 1226.25,506.35 "/>
<polygon fill="#D60023" points="944.92,551.54 944.92,562.24 949.89,566.61 965.08,566.61 970.42,564.12 970.42,550.1 962.64,540.95 949.65,540.95 "/>
<polygon fill="#D60023" points="976.21,552.04 976.21,562.74 981.18,567.1 996.37,567.1 1001.7,564.62 1001.7,550.6 993.92,541.44 980.93,541.44 "/>
<polygon fill="#D60023" points="1012.8,551.87 1012.8,562.57 1017.76,566.94 1032.95,566.94 1038.29,564.45 1038.29,550.44 1030.51,541.28 1017.52,541.28 "/>
<polygon fill="#D60023" points="1044.08,551.87 1044.08,562.57 1049.05,566.94 1064.24,566.94 1069.58,564.45 1069.58,550.44 1061.8,541.28 1048.81,541.28 "/>
<polygon fill="#D60023" points="1077.19,551.87 1077.19,562.57 1082.16,566.94 1097.35,566.94 1102.69,564.45 1102.69,550.44 1094.91,541.28 1081.92,541.28 "/>
<polygon fill="#D60023" points="1109.64,551.38 1109.64,562.08 1114.61,566.44 1129.8,566.44 1135.13,563.96 1135.13,549.94 1127.35,540.78 1114.36,540.78 "/>
<polygon fill="#D60023" points="1140.43,551.38 1140.43,562.08 1145.4,566.44 1160.59,566.44 1165.92,563.96 1165.92,549.94 1158.14,540.78 1145.15,540.78 "/>
<polygon fill="#D60023" points="1171.88,551.38 1171.88,562.08 1176.85,566.44 1192.04,566.44 1197.38,563.96 1197.38,549.94 1189.6,540.78 1176.61,540.78 "/>
<polygon fill="#D60023" points="1203.17,551.87 1203.17,562.57 1208.14,566.94 1223.33,566.94 1228.67,564.45 1228.67,550.44 1220.89,541.28 1207.9,541.28 "/>
<polygon fill="#D60023" points="945.88,586.98 945.88,597.68 950.85,602.05 966.04,602.05 971.37,599.56 971.37,585.54 963.59,576.39 950.6,576.39 "/>
<polygon fill="#D60023" points="977.17,587.48 977.17,598.18 982.13,602.54 997.33,602.54 1002.66,600.06 1002.66,586.04 994.88,576.88 981.89,576.88 "/>
<polygon fill="#D60023" points="1013.75,587.31 1013.75,598.01 1018.72,602.38 1033.91,602.38 1039.25,599.89 1039.25,585.87 1031.47,576.72 1018.48,576.72 "/>
<polygon fill="#D60023" points="1045.04,587.31 1045.04,598.01 1050.01,602.38 1065.2,602.38 1070.54,599.89 1070.54,585.87 1062.76,576.72 1049.77,576.72 "/>
<polygon fill="#D60023" points="1078.15,587.31 1078.15,598.01 1083.12,602.38 1098.31,602.38 1103.64,599.89 1103.64,585.87 1095.86,576.72 1082.87,576.72 "/>
<polygon fill="#D60023" points="1110.6,586.81 1110.6,597.52 1115.56,601.88 1130.76,601.88 1136.09,599.4 1136.09,585.38 1128.31,576.22 1115.32,576.22 "/>
<polygon fill="#D60023" points="1141.39,586.81 1141.39,597.52 1146.36,601.88 1161.55,601.88 1166.88,599.4 1166.88,585.38 1159.1,576.22 1146.11,576.22 "/>
<polygon fill="#D60023" points="1172.84,586.81 1172.84,597.52 1177.81,601.88 1193,601.88 1198.34,599.4 1198.34,585.38 1190.56,576.22 1177.57,576.22 "/>
<polygon fill="#D60023" points="1204.13,587.31 1204.13,598.01 1209.1,602.38 1224.29,602.38 1229.62,599.89 1229.62,585.87 1221.84,576.72 1208.85,576.72 "/>
<polygon fill="#D60023" points="948.13,626.54 948.13,637.24 953.09,641.6 968.28,641.6 973.62,639.12 973.62,625.1 965.84,615.94 952.85,615.94 "/>
<polygon fill="#D60023" points="979.41,627.03 979.41,637.73 984.38,642.1 999.57,642.1 1004.91,639.61 1004.91,625.6 997.13,616.44 984.14,616.44 "/>
<polygon fill="#D60023" points="1016,626.87 1016,637.57 1020.97,641.93 1036.16,641.93 1041.49,639.45 1041.49,625.43 1033.71,616.27 1020.72,616.27 "/>
<polygon fill="#D60023" points="1047.29,626.87 1047.29,637.57 1052.25,641.93 1067.45,641.93 1072.78,639.45 1072.78,625.43 1065,616.27 1052.01,616.27 "/>
<polygon fill="#D60023" points="1080.4,626.87 1080.4,637.57 1085.36,641.93 1100.55,641.93 1105.89,639.45 1105.89,625.43 1098.11,616.27 1085.12,616.27 "/>
<polygon fill="#D60023" points="1112.84,626.37 1112.84,637.07 1117.81,641.44 1133,641.44 1138.34,638.95 1138.34,624.93 1130.56,615.78 1117.57,615.78 "/>
<polygon fill="#D60023" points="1143.63,626.37 1143.63,637.07 1148.6,641.44 1163.79,641.44 1169.13,638.95 1169.13,624.93 1161.35,615.78 1148.36,615.78 "/>
<polygon fill="#D60023" points="1175.09,626.37 1175.09,637.07 1180.05,641.44 1195.25,641.44 1200.58,638.95 1200.58,624.93 1192.8,615.78 1179.81,615.78 "/>
<polygon fill="#D60023" points="1206.38,626.87 1206.38,637.57 1211.34,641.93 1226.53,641.93 1231.87,639.45 1231.87,625.43 1224.09,616.27 1211.1,616.27 "/>
<polygon fill="#D60023" points="949.08,663.62 949.08,674.32 954.05,678.68 969.24,678.68 974.58,676.2 974.58,662.18 966.8,653.02 953.81,653.02 "/>
<polygon fill="#D60023" points="980.37,664.12 980.37,674.82 985.34,679.18 1000.53,679.18 1005.87,676.7 1005.87,662.68 998.09,653.52 985.1,653.52 "/>
<polygon fill="#D60023" points="1016.96,663.95 1016.96,674.65 1021.92,679.01 1037.12,679.01 1042.45,676.53 1042.45,662.51 1034.67,653.35 1021.68,653.35 "/>
<polygon fill="#D60023" points="1048.24,663.95 1048.24,674.65 1053.21,679.01 1068.4,679.01 1073.74,676.53 1073.74,662.51 1065.96,653.35 1052.97,653.35 "/>
<polygon fill="#D60023" points="1081.35,663.95 1081.35,674.65 1086.32,679.01 1101.51,679.01 1106.85,676.53 1106.85,662.51 1099.07,653.35 1086.08,653.35 "/>
<polygon fill="#D60023" points="1113.8,663.45 1113.8,674.15 1118.77,678.52 1133.96,678.52 1139.29,676.03 1139.29,662.02 1131.51,652.86 1118.52,652.86 "/>
<polygon fill="#D60023" points="1144.59,663.45 1144.59,674.15 1149.56,678.52 1164.75,678.52 1170.09,676.03 1170.09,662.02 1162.31,652.86 1149.32,652.86 "/>
<polygon fill="#D60023" points="1176.05,663.45 1176.05,674.15 1181.01,678.52 1196.2,678.52 1201.54,676.03 1201.54,662.02 1193.76,652.86 1180.77,652.86 "/>
<polygon fill="#D60023" points="1207.33,663.95 1207.33,674.65 1212.3,679.01 1227.49,679.01 1232.83,676.53 1232.83,662.51 1225.05,653.35 1212.06,653.35 "/>
<polygon fill="#D60023" points="950.04,699.06 950.04,709.76 955.01,714.12 970.2,714.12 975.54,711.64 975.54,697.62 967.75,688.46 954.76,688.46 "/>
<polygon fill="#D60023" points="981.33,699.55 981.33,710.26 986.3,714.62 1001.49,714.62 1006.82,712.14 1006.82,698.12 999.04,688.96 986.05,688.96 "/>
<polygon fill="#D60023" points="1017.91,699.39 1017.91,710.09 1022.88,714.45 1038.07,714.45 1043.41,711.97 1043.41,697.95 1035.63,688.79 1022.64,688.79 "/>
<polygon fill="#D60023" points="1049.2,699.39 1049.2,710.09 1054.17,714.45 1069.36,714.45 1074.7,711.97 1074.7,697.95 1066.92,688.79 1053.93,688.79 "/>
<polygon fill="#D60023" points="1082.31,699.39 1082.31,710.09 1087.28,714.45 1102.47,714.45 1107.81,711.97 1107.81,697.95 1100.03,688.79 1087.04,688.79 "/>
<polygon fill="#D60023" points="1114.76,698.89 1114.76,709.59 1119.72,713.96 1134.92,713.96 1140.25,711.47 1140.25,697.45 1132.47,688.3 1119.48,688.3 "/>
<polygon fill="#D60023" points="1145.55,698.89 1145.55,709.59 1150.52,713.96 1165.71,713.96 1171.04,711.47 1171.04,697.45 1163.26,688.3 1150.27,688.3 "/>
<polygon fill="#D60023" points="1177,698.89 1177,709.59 1181.97,713.96 1197.16,713.96 1202.5,711.47 1202.5,697.45 1194.72,688.3 1181.73,688.3 "/>
<polygon fill="#D60023" points="1208.29,699.39 1208.29,710.09 1213.26,714.45 1228.45,714.45 1233.79,711.97 1233.79,697.95 1226,688.79 1213.01,688.79 "/>
<polygon fill="#D60023" points="952.29,738.61 952.29,749.31 957.25,753.68 972.45,753.68 977.78,751.19 977.78,737.18 970,728.02 957.01,728.02 "/>
<polygon fill="#D60023" points="983.57,739.11 983.57,749.81 988.54,754.17 1003.73,754.17 1009.07,751.69 1009.07,737.67 1001.29,728.52 988.3,728.52 "/>
<polygon fill="#D60023" points="1020.16,738.94 1020.16,749.65 1025.13,754.01 1040.32,754.01 1045.65,751.53 1045.65,737.51 1037.87,728.35 1024.88,728.35 "/>
<polygon fill="#D60023" points="1051.45,738.94 1051.45,749.65 1056.41,754.01 1071.61,754.01 1076.94,751.53 1076.94,737.51 1069.16,728.35 1056.17,728.35 "/>
<polygon fill="#D60023" points="1084.56,738.94 1084.56,749.65 1089.52,754.01 1104.72,754.01 1110.05,751.53 1110.05,737.51 1102.27,728.35 1089.28,728.35 "/>
<polygon fill="#D60023" points="1117,738.45 1117,749.15 1121.97,753.51 1137.16,753.51 1142.5,751.03 1142.5,737.01 1134.72,727.85 1121.73,727.85 "/>
<polygon fill="#D60023" points="1147.79,738.45 1147.79,749.15 1152.76,753.51 1167.95,753.51 1173.29,751.03 1173.29,737.01 1165.51,727.85 1152.52,727.85 "/>
<polygon fill="#D60023" points="1179.25,738.45 1179.25,749.15 1184.21,753.51 1199.41,753.51 1204.74,751.03 1204.74,737.01 1196.96,727.85 1183.97,727.85 "/>
<polygon fill="#D60023" points="1210.54,738.94 1210.54,749.65 1215.5,754.01 1230.69,754.01 1236.03,751.53 1236.03,737.51 1228.25,728.35 1215.26,728.35 "/>
<polygon fill="#D60023" points="952.86,778.62 952.86,789.32 957.83,793.68 973.02,793.68 978.35,791.2 978.35,777.18 970.57,768.02 957.58,768.02 "/>
<polygon fill="#D60023" points="984.15,779.12 984.15,789.82 989.12,794.18 1004.31,794.18 1009.64,791.7 1009.64,777.68 1001.86,768.52 988.87,768.52 "/>
<polygon fill="#D60023" points="1020.73,778.95 1020.73,789.65 1025.7,794.01 1040.89,794.01 1046.23,791.53 1046.23,777.51 1038.45,768.35 1025.46,768.35 "/>
<polygon fill="#D60023" points="1052.02,778.95 1052.02,789.65 1056.99,794.01 1072.18,794.01 1077.52,791.53 1077.52,777.51 1069.74,768.35 1056.75,768.35 "/>
<polygon fill="#D60023" points="1085.13,778.95 1085.13,789.65 1090.1,794.01 1105.29,794.01 1110.63,791.53 1110.63,777.51 1102.84,768.35 1089.85,768.35 "/>
<polygon fill="#D60023" points="1117.58,778.45 1117.58,789.15 1122.54,793.52 1137.74,793.52 1143.07,791.03 1143.07,777.02 1135.29,767.86 1122.3,767.86 "/>
<polygon fill="#D60023" points="1148.37,778.45 1148.37,789.15 1153.34,793.52 1168.53,793.52 1173.86,791.03 1173.86,777.02 1166.08,767.86 1153.09,767.86 "/>
<polygon fill="#D60023" points="1179.82,778.45 1179.82,789.15 1184.79,793.52 1199.98,793.52 1205.32,791.03 1205.32,777.02 1197.54,767.86 1184.55,767.86 "/>
<polygon fill="#D60023" points="1211.11,778.95 1211.11,789.65 1216.08,794.01 1231.27,794.01 1236.6,791.53 1236.6,777.51 1228.82,768.35 1215.83,768.35 "/>
<polygon fill="#D60023" points="954.65,818.8 954.65,829.5 959.62,833.86 974.81,833.86 980.15,831.38 980.15,817.36 972.37,808.2 959.38,808.2 "/>
<polygon fill="#D60023" points="985.94,819.3 985.94,830 990.91,834.36 1006.1,834.36 1011.43,831.88 1011.43,817.86 1003.65,808.7 990.66,808.7 "/>
<polygon fill="#D60023" points="1022.53,819.13 1022.53,829.83 1027.49,834.2 1042.68,834.2 1048.02,831.71 1048.02,817.69 1040.24,808.54 1027.25,808.54 "/>
<polygon fill="#D60023" points="1053.81,819.13 1053.81,829.83 1058.78,834.2 1073.97,834.2 1079.31,831.71 1079.31,817.69 1071.53,808.54 1058.54,808.54 "/>
<polygon fill="#D60023" points="1086.92,819.13 1086.92,829.83 1091.89,834.2 1107.08,834.2 1112.42,831.71 1112.42,817.69 1104.64,808.54 1091.65,808.54 "/>
<polygon fill="#D60023" points="1119.37,818.63 1119.37,829.34 1124.34,833.7 1139.53,833.7 1144.86,831.22 1144.86,817.2 1137.08,808.04 1124.09,808.04 "/>
<polygon fill="#D60023" points="1150.16,818.63 1150.16,829.34 1155.13,833.7 1170.32,833.7 1175.65,831.22 1175.65,817.2 1167.87,808.04 1154.88,808.04 "/>
<polygon fill="#D60023" points="1181.61,818.63 1181.61,829.34 1186.58,833.7 1201.77,833.7 1207.11,831.22 1207.11,817.2 1199.33,808.04 1186.34,808.04 "/>
<polygon fill="#D60023" points="1212.9,819.13 1212.9,829.83 1217.87,834.2 1233.06,834.2 1238.4,831.71 1238.4,817.69 1230.62,808.54 1217.63,808.54 "/>
<polygon fill="#D60023" points="954.5,853.73 954.5,864.43 959.47,868.79 974.66,868.79 979.99,866.31 979.99,852.29 972.21,843.13 959.22,843.13 "/>
<polygon fill="#D60023" points="985.79,854.23 985.79,864.93 990.76,869.29 1005.95,869.29 1011.28,866.81 1011.28,852.79 1003.5,843.63 990.51,843.63 "/>
<polygon fill="#D60023" points="1022.37,854.06 1022.37,864.76 1027.34,869.12 1042.53,869.12 1047.87,866.64 1047.87,852.62 1040.09,843.47 1027.1,843.47 "/>
<polygon fill="#D60023" points="1053.66,854.06 1053.66,864.76 1058.63,869.12 1073.82,869.12 1079.16,866.64 1079.16,852.62 1071.38,843.47 1058.39,843.47 "/>
<polygon fill="#D60023" points="1086.77,854.06 1086.77,864.76 1091.74,869.12 1106.93,869.12 1112.26,866.64 1112.26,852.62 1104.48,843.47 1091.49,843.47 "/>
<polygon fill="#D60023" points="1119.22,853.56 1119.22,864.26 1124.18,868.63 1139.38,868.63 1144.71,866.14 1144.71,852.13 1136.93,842.97 1123.94,842.97 "/>
<polygon fill="#D60023" points="1150.01,853.56 1150.01,864.26 1154.98,868.63 1170.17,868.63 1175.5,866.14 1175.5,852.13 1167.72,842.97 1154.73,842.97 "/>
<polygon fill="#D60023" points="1181.46,853.56 1181.46,864.26 1186.43,868.63 1201.62,868.63 1206.96,866.14 1206.96,852.13 1199.18,842.97 1186.19,842.97 "/>
<polygon fill="#D60023" points="1212.75,854.06 1212.75,864.76 1217.72,869.12 1232.91,869.12 1238.24,866.64 1238.24,852.62 1230.46,843.47 1217.47,843.47 "/>
<polygon fill="#D60023" points="33.71,854.15 33.71,864.85 38.68,869.22 53.87,869.22 59.21,866.73 59.21,852.72 51.43,843.56 38.44,843.56 "/>
<polygon fill="#D60023" points="65,854.15 65,864.85 69.97,869.22 85.16,869.22 90.5,866.73 90.5,852.72 82.72,843.56 69.73,843.56 "/>
<polygon fill="#D60023" points="98.11,854.15 98.11,864.85 103.08,869.22 118.27,869.22 123.61,866.73 123.61,852.72 115.82,843.56 102.84,843.56 "/>
<polygon fill="#D60023" points="130.56,853.66 130.56,864.36 135.52,868.72 150.72,868.72 156.05,866.24 156.05,852.22 148.27,843.06 135.28,843.06 "/>
<polygon fill="#D60023" points="161.35,853.66 161.35,864.36 166.32,868.72 181.51,868.72 186.84,866.24 186.84,852.22 179.06,843.06 166.07,843.06 "/>
<polygon fill="#D60023" points="192.8,853.66 192.8,864.36 197.77,868.72 212.96,868.72 218.3,866.24 218.3,852.22 210.52,843.06 197.53,843.06 "/>
<polygon fill="#D60023" points="224.09,854.15 224.09,864.85 229.06,869.22 244.25,869.22 249.59,866.73 249.59,852.72 241.8,843.56 228.81,843.56 "/>
<polygon fill="#D60023" points="260.68,853.99 260.68,864.69 265.64,869.05 280.84,869.05 286.17,866.57 286.17,852.55 278.39,843.39 265.4,843.39 "/>
<polygon fill="#D60023" points="291.96,853.99 291.96,864.69 296.93,869.05 312.12,869.05 317.46,866.57 317.46,852.55 309.68,843.39 296.69,843.39 "/>
<polygon fill="#D60023" points="328.19,854.36 328.19,865.07 333.16,869.43 348.35,869.43 353.68,866.95 353.68,852.93 345.9,843.77 332.91,843.77 "/>
<polygon fill="#D60023" points="360.64,853.87 360.64,864.57 365.6,868.93 380.8,868.93 386.13,866.45 386.13,852.43 378.35,843.27 365.36,843.27 "/>
<polygon fill="#D60023" points="391.43,853.87 391.43,864.57 396.39,868.93 411.59,868.93 416.92,866.45 416.92,852.43 409.14,843.27 396.15,843.27 "/>
<polygon fill="#D60023" points="422.88,853.87 422.88,864.57 427.85,868.93 443.04,868.93 448.38,866.45 448.38,852.43 440.59,843.27 427.61,843.27 "/>
<polygon fill="#D60023" points="454.17,854.36 454.17,865.07 459.14,869.43 474.33,869.43 479.66,866.95 479.66,852.93 471.88,843.77 458.89,843.77 "/>
<polygon fill="#D60023" points="1254.14,480.97 1254.14,491.67 1259.11,496.03 1274.3,496.03 1279.64,493.55 1279.64,479.53 1271.85,470.38 1258.86,470.38 "/>
<polygon fill="#D60023" points="1254.97,515.4 1254.97,526.11 1259.94,530.47 1275.13,530.47 1280.47,527.99 1280.47,513.97 1272.69,504.81 1259.7,504.81 "/>
<polygon fill="#D60023" points="1233.27,551.29 1233.27,561.99 1238.24,566.36 1253.43,566.36 1258.77,563.87 1258.77,549.85 1250.99,540.7 1238,540.7 "/>
<polygon fill="#D60023" points="1237.58,585.77 1237.58,596.47 1242.55,600.84 1257.74,600.84 1263.08,598.35 1263.08,584.34 1255.3,575.18 1242.31,575.18 "/>
<polygon fill="#D60023" points="1239.83,625.33 1239.83,636.03 1244.79,640.39 1259.99,640.39 1265.32,637.91 1265.32,623.89 1257.54,614.73 1244.55,614.73 "/>
<polygon fill="#D60023" points="1240.79,662.41 1240.79,673.11 1245.75,677.48 1260.95,677.48 1266.28,674.99 1266.28,660.97 1258.5,651.82 1245.51,651.82 "/>
<polygon fill="#D60023" points="1241.74,697.85 1241.74,708.55 1246.71,712.91 1261.9,712.91 1267.24,710.43 1267.24,696.41 1259.46,687.26 1246.47,687.26 "/>
<polygon fill="#D60023" points="1243.99,737.41 1243.99,748.11 1248.96,752.47 1264.15,752.47 1269.48,749.99 1269.48,735.97 1261.7,726.81 1248.71,726.81 "/>
<polygon fill="#D60023" points="1244.56,777.41 1244.56,788.11 1249.53,792.48 1264.72,792.48 1270.06,789.99 1270.06,775.97 1262.28,766.82 1249.29,766.82 "/>
<polygon fill="#D60023" points="1246.35,817.59 1246.35,828.29 1251.32,832.66 1266.51,832.66 1271.85,830.17 1271.85,816.15 1264.07,807 1251.08,807 "/>
<polygon fill="#D60023" points="1246.2,852.52 1246.2,863.22 1251.17,867.59 1266.36,867.59 1271.7,865.1 1271.7,851.08 1263.92,841.93 1250.93,841.93 "/>
<polygon fill="#D60023" points="1288.14,480.97 1288.14,491.67 1293.11,496.03 1308.3,496.03 1313.64,493.55 1313.64,479.53 1305.86,470.38 1292.87,470.38 "/>
<polygon fill="#D60023" points="1288.98,515.4 1288.98,526.11 1293.94,530.47 1309.14,530.47 1314.47,527.99 1314.47,513.97 1306.69,504.81 1293.7,504.81 "/>
<polygon fill="#D60023" points="1291.7,551.29 1291.7,561.99 1296.67,566.36 1311.86,566.36 1317.19,563.87 1317.19,549.85 1309.41,540.7 1296.42,540.7 "/>
<polygon fill="#D60023" points="1271.59,585.77 1271.59,596.47 1276.55,600.84 1291.74,600.84 1297.08,598.35 1297.08,584.34 1289.3,575.18 1276.31,575.18 "/>
<polygon fill="#D60023" points="1273.83,625.33 1273.83,636.03 1278.8,640.39 1293.99,640.39 1299.32,637.91 1299.32,623.89 1291.54,614.73 1278.55,614.73 "/>
<polygon fill="#D60023" points="1274.79,662.41 1274.79,673.11 1279.75,677.48 1294.95,677.48 1300.28,674.99 1300.28,660.97 1292.5,651.82 1279.51,651.82 "/>
<polygon fill="#D60023" points="1275.75,697.85 1275.75,708.55 1280.71,712.91 1295.9,712.91 1301.24,710.43 1301.24,696.41 1293.46,687.26 1280.47,687.26 "/>
<polygon fill="#D60023" points="1277.99,737.41 1277.99,748.11 1282.96,752.47 1298.15,752.47 1303.48,749.99 1303.48,735.97 1295.7,726.81 1282.71,726.81 "/>
<polygon fill="#D60023" points="1278.57,777.41 1278.57,788.11 1283.53,792.48 1298.72,792.48 1304.06,789.99 1304.06,775.97 1296.28,766.82 1283.29,766.82 "/>
<polygon fill="#D60023" points="1280.36,817.59 1280.36,828.29 1285.32,832.66 1300.52,832.66 1305.85,830.17 1305.85,816.15 1298.07,807 1285.08,807 "/>
<polygon fill="#D60023" points="1280.21,852.52 1280.21,863.22 1285.17,867.59 1300.36,867.59 1305.7,865.1 1305.7,851.08 1297.92,841.93 1284.93,841.93 "/>
<polygon fill="#D60023" points="1307.02,585.77 1307.02,596.47 1311.99,600.84 1327.18,600.84 1332.52,598.35 1332.52,584.34 1324.74,575.18 1311.75,575.18 "/>
<polygon fill="#D60023" points="1309.27,625.33 1309.27,636.03 1314.24,640.39 1329.43,640.39 1334.76,637.91 1334.76,623.89 1326.98,614.73 1313.99,614.73 "/>
<polygon fill="#D60023" points="1310.23,662.41 1310.23,673.11 1315.19,677.48 1330.39,677.48 1335.72,674.99 1335.72,660.97 1327.94,651.82 1314.95,651.82 "/>
<polygon fill="#D60023" points="1311.18,697.85 1311.18,708.55 1316.15,712.91 1331.34,712.91 1336.68,710.43 1336.68,696.41 1328.9,687.26 1315.91,687.26 "/>
<polygon fill="#D60023" points="1313.43,737.41 1313.43,748.11 1318.4,752.47 1333.59,752.47 1338.92,749.99 1338.92,735.97 1331.14,726.81 1318.15,726.81 "/>
<polygon fill="#D60023" points="1314,777.41 1314,788.11 1318.97,792.48 1334.16,792.48 1339.5,789.99 1339.5,775.97 1331.72,766.82 1318.73,766.82 "/>
<polygon fill="#D60023" points="1315.8,817.59 1315.8,828.29 1320.76,832.66 1335.95,832.66 1341.29,830.17 1341.29,816.15 1333.51,807 1320.52,807 "/>
<polygon fill="#D60023" points="1324.24,482.61 1324.24,493.31 1329.21,497.67 1344.4,497.67 1349.74,495.19 1349.74,481.17 1341.96,472.02 1328.97,472.02 "/>
<polygon fill="#D60023" points="1325.08,517.04 1325.08,527.75 1330.04,532.11 1345.24,532.11 1350.57,529.63 1350.57,515.61 1342.79,506.45 1329.8,506.45 "/>
<polygon fill="#D60023" points="1307.68,587.41 1307.68,598.11 1312.65,602.48 1327.84,602.48 1333.18,599.99 1333.18,585.98 1325.4,576.82 1312.41,576.82 "/>
<polygon fill="#D60023" points="1309.93,626.97 1309.93,637.67 1314.9,642.03 1330.09,642.03 1335.42,639.55 1335.42,625.53 1327.64,616.37 1314.65,616.37 "/>
<polygon fill="#D60023" points="1310.89,664.05 1310.89,674.75 1315.85,679.12 1331.05,679.12 1336.38,676.63 1336.38,662.61 1328.6,653.46 1315.61,653.46 "/>
<polygon fill="#D60023" points="1311.85,699.49 1311.85,710.19 1316.81,714.55 1332,714.55 1337.34,712.07 1337.34,698.05 1329.56,688.89 1316.57,688.89 "/>
<polygon fill="#D60023" points="1314.09,739.05 1314.09,749.75 1319.06,754.11 1334.25,754.11 1339.58,751.63 1339.58,737.61 1331.8,728.45 1318.81,728.45 "/>
<polygon fill="#D60023" points="1314.66,779.05 1314.66,789.75 1319.63,794.12 1334.82,794.12 1340.16,791.63 1340.16,777.61 1332.38,768.46 1319.39,768.46 "/>
<polygon fill="#D60023" points="1316.46,819.23 1316.46,829.93 1321.42,834.3 1336.61,834.3 1341.95,831.81 1341.95,817.79 1334.17,808.64 1321.18,808.64 "/>
<polygon fill="#D60023" points="1316.3,854.16 1316.3,864.86 1321.27,869.23 1336.46,869.23 1341.8,866.74 1341.8,852.72 1334.02,843.57 1321.03,843.57 "/>
<polygon fill="#D60023" points="1358.24,482.61 1358.24,493.31 1363.21,497.67 1378.4,497.67 1383.74,495.19 1383.74,481.17 1375.96,472.02 1362.97,472.02 "/>
<polygon fill="#D60023" points="1359.08,517.04 1359.08,527.75 1364.04,532.11 1379.24,532.11 1384.57,529.63 1384.57,515.61 1376.79,506.45 1363.8,506.45 "/>
<polygon fill="#D60023" points="1361.8,552.93 1361.8,563.63 1366.77,568 1381.96,568 1387.29,565.51 1387.29,551.49 1379.51,542.34 1366.52,542.34 "/>
<polygon fill="#D60023" points="1341.69,587.41 1341.69,598.11 1346.65,602.48 1361.85,602.48 1367.18,599.99 1367.18,585.98 1359.4,576.82 1346.41,576.82 "/>
<polygon fill="#D60023" points="1343.93,626.97 1343.93,637.67 1348.9,642.03 1364.09,642.03 1369.43,639.55 1369.43,625.53 1361.64,616.37 1348.65,616.37 "/>
<polygon fill="#D60023" points="1344.89,664.05 1344.89,674.75 1349.86,679.12 1365.05,679.12 1370.38,676.63 1370.38,662.61 1362.6,653.46 1349.61,653.46 "/>
<polygon fill="#D60023" points="1345.85,699.49 1345.85,710.19 1350.81,714.55 1366.01,714.55 1371.34,712.07 1371.34,698.05 1363.56,688.89 1350.57,688.89 "/>
<polygon fill="#D60023" points="1348.09,739.05 1348.09,749.75 1353.06,754.11 1368.25,754.11 1373.59,751.63 1373.59,737.61 1365.81,728.45 1352.82,728.45 "/>
<polygon fill="#D60023" points="1348.67,779.05 1348.67,789.75 1353.63,794.12 1368.83,794.12 1374.16,791.63 1374.16,777.61 1366.38,768.46 1353.39,768.46 "/>
<polygon fill="#D60023" points="1350.46,819.23 1350.46,829.93 1355.42,834.3 1370.62,834.3 1375.95,831.81 1375.95,817.79 1368.17,808.64 1355.18,808.64 "/>
<polygon fill="#D60023" points="1350.31,854.16 1350.31,864.86 1355.27,869.23 1370.47,869.23 1375.8,866.74 1375.8,852.72 1368.02,843.57 1355.03,843.57 "/>
<polygon fill="#D60023" points="1377.13,587.41 1377.13,598.11 1382.09,602.48 1397.28,602.48 1402.62,599.99 1402.62,585.98 1394.84,576.82 1381.85,576.82 "/>
<polygon fill="#D60023" points="1379.37,626.97 1379.37,637.67 1384.34,642.03 1399.53,642.03 1404.86,639.55 1404.86,625.53 1397.08,616.37 1384.09,616.37 "/>
<polygon fill="#D60023" points="1380.33,664.05 1380.33,674.75 1385.29,679.12 1400.49,679.12 1405.82,676.63 1405.82,662.61 1398.04,653.46 1385.05,653.46 "/>
<polygon fill="#D60023" points="1381.29,699.49 1381.29,710.19 1386.25,714.55 1401.44,714.55 1406.78,712.07 1406.78,698.05 1399,688.89 1386.01,688.89 "/>
<polygon fill="#D60023" points="1383.53,739.05 1383.53,749.75 1388.5,754.11 1403.69,754.11 1409.03,751.63 1409.03,737.61 1401.24,728.45 1388.25,728.45 "/>
<polygon fill="#D60023" points="1384.11,779.05 1384.11,789.75 1389.07,794.12 1404.26,794.12 1409.6,791.63 1409.6,777.61 1401.82,768.46 1388.83,768.46 "/>
<polygon fill="#D60023" points="1385.9,819.23 1385.9,829.93 1390.86,834.3 1406.06,834.3 1411.39,831.81 1411.39,817.79 1403.61,808.64 1390.62,808.64 "/>
</g>
</svg>
