<?xml version="1.0" encoding="utf-8"?>
<svg version="1.1" xmlns="http://www.w3.org/2000/svg" viewBox="0 0 1440 900">
<rect id="f11_bg" class="scene-bg" fill="#F9F3B5" x="-0.13" y="0.79" width="1441.06" height="898.79"/>
<g id="f11_row0" class="row">
<g id="f11_row0_red" class="red">
<polygon fill="#D60023" points="131.18,70.43 131.18,99.06 144.46,110.74 185.12,110.74 199.39,104.09 199.39,66.58 178.57,42.08 143.81,42.08 "/>
<polygon fill="#D60023" points="214.9,70.43 214.9,99.06 228.18,110.74 268.84,110.74 283.11,104.09 283.11,66.58 262.29,42.08 227.53,42.08 "/>
<polygon fill="#D60023" points="303.49,70.43 303.49,99.06 316.78,110.74 357.43,110.74 371.7,104.09 371.7,66.58 350.89,42.08 316.13,42.08 "/>
<polygon fill="#D60023" points="390.31,69.1 390.31,97.73 403.6,109.41 444.25,109.41 458.53,102.76 458.53,65.25 437.71,40.75 402.95,40.75 "/>
<polygon fill="#D60023" points="472.7,69.1 472.7,97.73 485.99,109.41 526.64,109.41 540.92,102.76 540.92,65.25 520.1,40.75 485.34,40.75 "/>
<polygon fill="#D60023" points="556.86,69.1 556.86,97.73 570.15,109.41 610.8,109.41 625.08,102.76 625.08,65.25 604.26,40.75 569.5,40.75 "/>
<polygon fill="#D60023" points="640.58,70.43 640.58,99.06 653.87,110.74 694.52,110.74 708.8,104.09 708.8,66.58 687.98,42.08 653.22,42.08 "/>
<polygon fill="#D60023" points="738.48,69.98 738.48,98.62 751.77,110.29 792.42,110.29 806.69,103.65 806.69,66.14 785.88,41.63 751.12,41.63 "/>
<polygon fill="#D60023" points="822.2,69.98 822.2,98.62 835.49,110.29 876.14,110.29 890.41,103.65 890.41,66.14 869.6,41.63 834.84,41.63 "/>
<polygon fill="#D60023" points="910.79,69.98 910.79,98.62 924.08,110.29 964.73,110.29 979.01,103.65 979.01,66.14 958.19,41.63 923.43,41.63 "/>
<polygon fill="#D60023" points="997.61,68.65 997.61,97.29 1010.9,108.96 1051.55,108.96 1065.83,102.32 1065.83,64.81 1045.01,40.3 1010.25,40.3 "/>
<polygon fill="#D60023" points="1080,68.65 1080,97.29 1093.29,108.96 1133.94,108.96 1148.22,102.32 1148.22,64.81 1127.4,40.3 1092.64,40.3 "/>
<polygon fill="#D60023" points="1164.17,68.65 1164.17,97.29 1177.45,108.96 1218.11,108.96 1232.38,102.32 1232.38,64.81 1211.56,40.3 1176.8,40.3 "/>
<polygon fill="#D60023" points="1247.89,69.98 1247.89,98.62 1261.17,110.29 1301.83,110.29 1316.1,103.65 1316.1,66.14 1295.28,41.63 1260.52,41.63 "/>
<polygon fill="#D60023" points="136.05,168.32 136.05,196.95 149.34,208.63 189.99,208.63 204.26,201.99 204.26,164.48 183.45,139.97 148.69,139.97 "/>
<polygon fill="#D60023" points="219.77,168.32 219.77,196.95 233.06,208.63 273.71,208.63 287.98,201.99 287.98,164.48 267.17,139.97 232.41,139.97 "/>
<polygon fill="#D60023" points="308.36,168.32 308.36,196.95 321.65,208.63 362.3,208.63 376.58,201.99 376.58,164.48 355.76,139.97 321,139.97 "/>
<polygon fill="#D60023" points="395.18,166.99 395.18,195.63 408.47,207.3 449.12,207.3 463.4,200.66 463.4,163.15 442.58,138.64 407.82,138.64 "/>
<polygon fill="#D60023" points="477.57,166.99 477.57,195.63 490.86,207.3 531.51,207.3 545.79,200.66 545.79,163.15 524.97,138.64 490.21,138.64 "/>
<polygon fill="#D60023" points="561.74,166.99 561.74,195.63 575.02,207.3 615.68,207.3 629.95,200.66 629.95,163.15 609.13,138.64 574.37,138.64 "/>
<polygon fill="#D60023" points="645.46,168.32 645.46,196.95 658.74,208.63 699.4,208.63 713.67,201.99 713.67,164.48 692.85,139.97 658.09,139.97 "/>
<polygon fill="#D60023" points="743.35,167.88 743.35,196.51 756.64,208.19 797.29,208.19 811.57,201.54 811.57,164.03 790.75,139.53 755.99,139.53 "/>
<polygon fill="#D60023" points="827.07,167.88 827.07,196.51 840.36,208.19 881.01,208.19 895.29,201.54 895.29,164.03 874.47,139.53 839.71,139.53 "/>
<polygon fill="#D60023" points="915.66,167.88 915.66,196.51 928.95,208.19 969.6,208.19 983.88,201.54 983.88,164.03 963.06,139.53 928.3,139.53 "/>
<polygon fill="#D60023" points="1002.48,166.55 1002.48,195.18 1015.77,206.86 1056.42,206.86 1070.7,200.21 1070.7,162.7 1049.88,138.2 1015.12,138.2 "/>
<polygon fill="#D60023" points="1084.88,166.55 1084.88,195.18 1098.16,206.86 1138.82,206.86 1153.09,200.21 1153.09,162.7 1132.27,138.2 1097.51,138.2 "/>
<polygon fill="#D60023" points="1169.04,166.55 1169.04,195.18 1182.33,206.86 1222.98,206.86 1237.25,200.21 1237.25,162.7 1216.44,138.2 1181.68,138.2 "/>
<polygon fill="#D60023" points="1252.76,167.88 1252.76,196.51 1266.05,208.19 1306.7,208.19 1320.97,201.54 1320.97,164.03 1300.16,139.53 1265.4,139.53 "/>
<polygon fill="#D60023" points="50.79,67.46 50.79,94.08 63.15,104.94 100.95,104.94 114.22,98.76 114.22,63.89 94.86,41.1 62.55,41.1 "/>
<polygon fill="#D60023" points="55.33,158.48 55.33,185.1 67.68,195.96 105.48,195.96 118.75,189.78 118.75,154.9 99.39,132.12 67.08,132.12 "/>
<polygon fill="#D60023" points="1346.28,66.84 1346.28,93.46 1358.63,104.31 1396.43,104.31 1409.7,98.14 1409.7,63.26 1390.35,40.48 1358.03,40.48 "/>
<polygon fill="#D60023" points="1350.81,157.85 1350.81,184.47 1363.16,195.33 1400.96,195.33 1414.23,189.15 1414.23,154.28 1394.88,131.49 1362.56,131.49 "/>
</g>
<g id="f11_row0_purple_front" class="purple-front">
<polygon fill="#860256" points="462.07,171.42 462.07,212.6 507.69,280.83 573.25,299.44 628.94,299.44 672.92,268.87 685.4,235.43 697.73,180.28 686.21,139.97 687.54,75.74 650.77,57.14 600.27,67.33 526.74,72.64 505.92,114.28 "/>
<polygon fill="#860256" points="159.08,171.42 159.08,212.6 204.71,280.83 270.27,299.44 325.96,299.44 369.93,268.87 382.41,235.43 394.74,180.28 383.22,139.97 384.55,75.74 347.78,57.14 297.29,67.33 223.75,72.64 202.94,114.28 "/>
<polygon fill="#860256" points="1064.5,163.45 1064.5,204.63 1110.12,272.86 1175.68,291.46 1231.37,291.46 1275.35,260.9 1287.83,227.46 1300.16,172.31 1288.64,132 1289.97,67.77 1253.2,49.16 1202.7,59.35 1129.17,64.67 1108.35,106.31 "/>
<polygon fill="#860256" points="761.51,163.45 761.51,204.63 807.14,272.86 872.7,291.46 928.39,291.46 972.36,260.9 984.84,227.46 997.17,172.31 985.65,132 986.98,67.77 950.21,49.16 899.72,59.35 826.18,64.67 805.37,106.31 "/>
</g>
</g>
<g id="f11_row1" class="row">
<g id="f11_row1_purple_behind" class="purple-behind">
<polygon fill="#860256" points="439.04,430.11 439.04,471.29 484.66,539.52 550.22,558.13 605.91,558.13 649.89,527.56 662.36,494.12 674.69,438.97 663.17,398.66 664.5,334.43 627.74,315.83 577.24,326.02 503.71,331.33 482.89,372.97 "/>
<polygon fill="#860256" points="136.05,430.11 136.05,471.29 181.67,539.52 247.23,558.13 302.92,558.13 346.9,527.56 359.38,494.12 371.7,438.97 360.19,398.66 361.52,334.43 324.75,315.83 274.25,326.02 200.72,331.33 179.9,372.97 "/>
<polygon fill="#860256" points="1041.46,422.14 1041.46,463.32 1087.09,531.55 1152.65,550.16 1208.34,550.16 1252.32,519.59 1264.79,486.15 1277.12,431 1265.6,390.69 1266.93,326.46 1230.17,307.85 1179.67,318.04 1106.14,323.36 1085.32,365 "/>
<polygon fill="#860256" points="738.48,422.14 738.48,463.32 784.1,531.55 849.66,550.16 905.35,550.16 949.33,519.59 961.81,486.15 974.13,431 962.62,390.69 963.95,326.46 927.18,307.85 876.68,318.04 803.15,323.36 782.33,365 "/>
</g>
<g id="f11_row1_red_front" class="red-front">
<polygon fill="#D60023" points="136.05,259.57 136.05,288.21 149.34,299.88 189.99,299.88 204.26,293.24 204.26,255.73 183.45,231.22 148.69,231.22 "/>
<polygon fill="#D60023" points="219.77,259.57 219.77,288.21 233.06,299.88 273.71,299.88 287.98,293.24 287.98,255.73 267.17,231.22 232.41,231.22 "/>
<polygon fill="#D60023" points="308.36,259.57 308.36,288.21 321.65,299.88 362.3,299.88 376.58,293.24 376.58,255.73 355.76,231.22 321,231.22 "/>
<polygon fill="#D60023" points="395.18,258.24 395.18,286.88 408.47,298.55 449.12,298.55 463.4,291.91 463.4,254.4 442.58,229.89 407.82,229.89 "/>
<polygon fill="#D60023" points="477.57,258.24 477.57,286.88 490.86,298.55 531.51,298.55 545.79,291.91 545.79,254.4 524.97,229.89 490.21,229.89 "/>
<polygon fill="#D60023" points="561.74,258.24 561.74,286.88 575.02,298.55 615.68,298.55 629.95,291.91 629.95,254.4 609.13,229.89 574.37,229.89 "/>
<polygon fill="#D60023" points="645.46,259.57 645.46,288.21 658.74,299.88 699.4,299.88 713.67,293.24 713.67,255.73 692.85,231.22 658.09,231.22 "/>
<polygon fill="#D60023" points="743.35,259.13 743.35,287.76 756.64,299.44 797.29,299.44 811.57,292.79 811.57,255.28 790.75,230.78 755.99,230.78 "/>
<polygon fill="#D60023" points="827.07,259.13 827.07,287.76 840.36,299.44 881.01,299.44 895.29,292.79 895.29,255.28 874.47,230.78 839.71,230.78 "/>
<polygon fill="#D60023" points="915.66,259.13 915.66,287.76 928.95,299.44 969.6,299.44 983.88,292.79 983.88,255.28 963.06,230.78 928.3,230.78 "/>
<polygon fill="#D60023" points="1002.48,257.8 1002.48,286.43 1015.77,298.11 1056.42,298.11 1070.7,291.46 1070.7,253.95 1049.88,229.45 1015.12,229.45 "/>
<polygon fill="#D60023" points="1084.88,257.8 1084.88,286.43 1098.16,298.11 1138.82,298.11 1153.09,291.46 1153.09,253.95 1132.27,229.45 1097.51,229.45 "/>
<polygon fill="#D60023" points="1169.04,257.8 1169.04,286.43 1182.33,298.11 1222.98,298.11 1237.25,291.46 1237.25,253.95 1216.44,229.45 1181.68,229.45 "/>
<polygon fill="#D60023" points="1252.76,259.13 1252.76,287.76 1266.05,299.44 1306.7,299.44 1320.97,292.79 1320.97,255.28 1300.16,230.78 1265.4,230.78 "/>
<polygon fill="#D60023" points="55.33,243.32 55.33,269.94 67.68,280.79 105.48,280.79 118.75,274.62 118.75,239.74 99.39,216.96 67.08,216.96 "/>
<polygon fill="#D60023" points="1350.81,242.69 1350.81,269.31 1363.16,280.17 1400.96,280.17 1414.23,273.99 1414.23,239.11 1394.88,216.33 1362.56,216.33 "/>
</g>
</g>
<g id="f11_row2" class="row">
<g id="f11_row2_red" class="red">
<polygon fill="#D60023" points="135.61,349.05 135.61,377.68 148.89,389.36 189.55,389.36 203.82,382.72 203.82,345.2 183,320.7 148.24,320.7 "/>
<polygon fill="#D60023" points="219.33,349.05 219.33,377.68 232.61,389.36 273.27,389.36 287.54,382.72 287.54,345.2 266.72,320.7 231.96,320.7 "/>
<polygon fill="#D60023" points="307.92,349.05 307.92,377.68 321.21,389.36 361.86,389.36 376.13,382.72 376.13,345.2 355.31,320.7 320.56,320.7 "/>
<polygon fill="#D60023" points="394.74,347.72 394.74,376.35 408.03,388.03 448.68,388.03 462.95,381.39 462.95,343.88 442.14,319.37 407.38,319.37 "/>
<polygon fill="#D60023" points="477.13,347.72 477.13,376.35 490.42,388.03 531.07,388.03 545.35,381.39 545.35,343.88 524.53,319.37 489.77,319.37 "/>
<polygon fill="#D60023" points="561.29,347.72 561.29,376.35 574.58,388.03 615.23,388.03 629.51,381.39 629.51,343.88 608.69,319.37 573.93,319.37 "/>
<polygon fill="#D60023" points="645.01,349.05 645.01,377.68 658.3,389.36 698.95,389.36 713.23,382.72 713.23,345.2 692.41,320.7 657.65,320.7 "/>
<polygon fill="#D60023" points="742.91,348.61 742.91,377.24 756.2,388.92 796.85,388.92 811.12,382.27 811.12,344.76 790.3,320.26 755.55,320.26 "/>
<polygon fill="#D60023" points="826.63,348.61 826.63,377.24 839.92,388.92 880.57,388.92 894.84,382.27 894.84,344.76 874.02,320.26 839.27,320.26 "/>
<polygon fill="#D60023" points="915.22,348.61 915.22,377.24 928.51,388.92 969.16,388.92 983.44,382.27 983.44,344.76 962.62,320.26 927.86,320.26 "/>
<polygon fill="#D60023" points="1002.04,347.28 1002.04,375.91 1015.33,387.59 1055.98,387.59 1070.26,380.94 1070.26,343.43 1049.44,318.93 1014.68,318.93 "/>
<polygon fill="#D60023" points="1084.43,347.28 1084.43,375.91 1097.72,387.59 1138.37,387.59 1152.65,380.94 1152.65,343.43 1131.83,318.93 1097.07,318.93 "/>
<polygon fill="#D60023" points="1168.6,347.28 1168.6,375.91 1181.88,387.59 1222.54,387.59 1236.81,380.94 1236.81,343.43 1215.99,318.93 1181.23,318.93 "/>
<polygon fill="#D60023" points="1252.32,348.61 1252.32,377.24 1265.6,388.92 1306.26,388.92 1320.53,382.27 1320.53,344.76 1299.71,320.26 1264.95,320.26 "/>
<polygon fill="#D60023" points="135.61,440.3 135.61,468.93 148.89,480.61 189.55,480.61 203.82,473.97 203.82,436.45 183,411.95 148.24,411.95 "/>
<polygon fill="#D60023" points="219.33,440.3 219.33,468.93 232.61,480.61 273.27,480.61 287.54,473.97 287.54,436.45 266.72,411.95 231.96,411.95 "/>
<polygon fill="#D60023" points="307.92,440.3 307.92,468.93 321.21,480.61 361.86,480.61 376.13,473.97 376.13,436.45 355.31,411.95 320.56,411.95 "/>
<polygon fill="#D60023" points="394.74,438.97 394.74,467.61 408.03,479.28 448.68,479.28 462.95,472.64 462.95,435.13 442.14,410.62 407.38,410.62 "/>
<polygon fill="#D60023" points="477.13,438.97 477.13,467.61 490.42,479.28 531.07,479.28 545.35,472.64 545.35,435.13 524.53,410.62 489.77,410.62 "/>
<polygon fill="#D60023" points="561.29,438.97 561.29,467.61 574.58,479.28 615.23,479.28 629.51,472.64 629.51,435.13 608.69,410.62 573.93,410.62 "/>
<polygon fill="#D60023" points="645.01,440.3 645.01,468.93 658.3,480.61 698.95,480.61 713.23,473.97 713.23,436.45 692.41,411.95 657.65,411.95 "/>
<polygon fill="#D60023" points="742.91,439.86 742.91,468.49 756.2,480.17 796.85,480.17 811.12,473.52 811.12,436.01 790.3,411.51 755.55,411.51 "/>
<polygon fill="#D60023" points="826.63,439.86 826.63,468.49 839.92,480.17 880.57,480.17 894.84,473.52 894.84,436.01 874.02,411.51 839.27,411.51 "/>
<polygon fill="#D60023" points="915.22,439.86 915.22,468.49 928.51,480.17 969.16,480.17 983.44,473.52 983.44,436.01 962.62,411.51 927.86,411.51 "/>
<polygon fill="#D60023" points="1002.04,438.53 1002.04,467.16 1015.33,478.84 1055.98,478.84 1070.26,472.19 1070.26,434.68 1049.44,410.18 1014.68,410.18 "/>
<polygon fill="#D60023" points="1084.43,438.53 1084.43,467.16 1097.72,478.84 1138.37,478.84 1152.65,472.19 1152.65,434.68 1131.83,410.18 1097.07,410.18 "/>
<polygon fill="#D60023" points="1168.6,438.53 1168.6,467.16 1181.88,478.84 1222.54,478.84 1236.81,472.19 1236.81,434.68 1215.99,410.18 1181.23,410.18 "/>
<polygon fill="#D60023" points="1276.68,442.96 1276.68,471.59 1289.97,483.27 1330.62,483.27 1344.89,476.62 1344.89,439.11 1324.08,414.61 1289.32,414.61 "/>
<polygon fill="#D60023" points="147.26,512.45 147.26,522.35 151.86,526.39 165.91,526.39 170.84,524.09 170.84,511.12 163.65,502.65 151.63,502.65 "/>
<polygon fill="#D60023" points="176.2,512.45 176.2,522.35 180.8,526.39 194.85,526.39 199.78,524.09 199.78,511.12 192.59,502.65 180.57,502.65 "/>
<polygon fill="#D60023" points="206.83,512.45 206.83,522.35 211.42,526.39 225.47,526.39 230.41,524.09 230.41,511.12 223.21,502.65 211.2,502.65 "/>
<polygon fill="#D60023" points="236.84,511.99 236.84,521.89 241.43,525.93 255.49,525.93 260.42,523.63 260.42,510.66 253.22,502.19 241.21,502.19 "/>
<polygon fill="#D60023" points="265.32,511.99 265.32,521.89 269.91,525.93 283.97,525.93 288.9,523.63 288.9,510.66 281.7,502.19 269.69,502.19 "/>
<polygon fill="#D60023" points="294.41,511.99 294.41,521.89 299.01,525.93 313.06,525.93 317.99,523.63 317.99,510.66 310.8,502.19 298.78,502.19 "/>
<polygon fill="#D60023" points="323.35,512.45 323.35,522.35 327.95,526.39 342,526.39 346.93,524.09 346.93,511.12 339.74,502.65 327.72,502.65 "/>
<polygon fill="#D60023" points="357.19,512.3 357.19,522.2 361.79,526.23 375.84,526.23 380.77,523.94 380.77,510.97 373.58,502.5 361.56,502.5 "/>
<polygon fill="#D60023" points="386.13,512.3 386.13,522.2 390.73,526.23 404.78,526.23 409.71,523.94 409.71,510.97 402.52,502.5 390.5,502.5 "/>
<polygon fill="#D60023" points="416.76,512.3 416.76,522.2 421.35,526.23 435.4,526.23 440.34,523.94 440.34,510.97 433.14,502.5 421.13,502.5 "/>
<polygon fill="#D60023" points="446.77,511.84 446.77,521.74 451.36,525.78 465.41,525.78 470.35,523.48 470.35,510.51 463.15,502.04 451.14,502.04 "/>
<polygon fill="#D60023" points="475.25,511.84 475.25,521.74 479.84,525.78 493.9,525.78 498.83,523.48 498.83,510.51 491.63,502.04 479.62,502.04 "/>
<polygon fill="#D60023" points="504.34,511.84 504.34,521.74 508.94,525.78 522.99,525.78 527.92,523.48 527.92,510.51 520.73,502.04 508.71,502.04 "/>
<polygon fill="#D60023" points="533.28,512.3 533.28,522.2 537.88,526.23 551.93,526.23 556.86,523.94 556.86,510.97 549.67,502.5 537.65,502.5 "/>
<polygon fill="#D60023" points="147.08,548.6 147.08,558.5 151.67,562.54 165.72,562.54 170.66,560.24 170.66,547.27 163.46,538.8 151.44,538.8 "/>
<polygon fill="#D60023" points="176.02,548.6 176.02,558.5 180.61,562.54 194.66,562.54 199.6,560.24 199.6,547.27 192.4,538.8 180.38,538.8 "/>
<polygon fill="#D60023" points="206.64,548.6 206.64,558.5 211.23,562.54 225.29,562.54 230.22,560.24 230.22,547.27 223.02,538.8 211.01,538.8 "/>
<polygon fill="#D60023" points="236.65,548.14 236.65,558.04 241.24,562.08 255.3,562.08 260.23,559.78 260.23,546.81 253.04,538.34 241.02,538.34 "/>
<polygon fill="#D60023" points="265.13,548.14 265.13,558.04 269.73,562.08 283.78,562.08 288.71,559.78 288.71,546.81 281.52,538.34 269.5,538.34 "/>
<polygon fill="#D60023" points="294.22,548.14 294.22,558.04 298.82,562.08 312.87,562.08 317.81,559.78 317.81,546.81 310.61,538.34 298.59,538.34 "/>
<polygon fill="#D60023" points="323.16,548.6 323.16,558.5 327.76,562.54 341.81,562.54 346.75,560.24 346.75,547.27 339.55,538.8 327.53,538.8 "/>
<polygon fill="#D60023" points="357,548.45 357,558.35 361.6,562.38 375.65,562.38 380.59,560.09 380.59,547.12 373.39,538.65 361.37,538.65 "/>
<polygon fill="#D60023" points="385.94,548.45 385.94,558.35 390.54,562.38 404.59,562.38 409.53,560.09 409.53,547.12 402.33,538.65 390.31,538.65 "/>
<polygon fill="#D60023" points="416.57,548.45 416.57,558.35 421.16,562.38 435.21,562.38 440.15,560.09 440.15,547.12 432.95,538.65 420.94,538.65 "/>
<polygon fill="#D60023" points="446.58,547.99 446.58,557.89 451.17,561.92 465.23,561.92 470.16,559.63 470.16,546.66 462.96,538.19 450.95,538.19 "/>
<polygon fill="#D60023" points="475.06,547.99 475.06,557.89 479.65,561.92 493.71,561.92 498.64,559.63 498.64,546.66 491.45,538.19 479.43,538.19 "/>
<polygon fill="#D60023" points="504.15,547.99 504.15,557.89 508.75,561.92 522.8,561.92 527.73,559.63 527.73,546.66 520.54,538.19 508.52,538.19 "/>
<polygon fill="#D60023" points="533.09,548.45 533.09,558.35 537.69,562.38 551.74,562.38 556.67,560.09 556.67,547.12 549.48,538.65 537.46,538.65 "/>
<polygon fill="#D60023" points="130.42,583.76 130.42,593.66 135.02,597.69 149.07,597.69 154,595.4 154,582.43 146.81,573.96 134.79,573.96 "/>
<polygon fill="#D60023" points="159.36,583.76 159.36,593.66 163.96,597.69 178.01,597.69 182.94,595.4 182.94,582.43 175.75,573.96 163.73,573.96 "/>
<polygon fill="#D60023" points="189.99,583.76 189.99,593.66 194.58,597.69 208.63,597.69 213.57,595.4 213.57,582.43 206.37,573.96 194.36,573.96 "/>
<polygon fill="#D60023" points="220,583.3 220,593.2 224.59,597.23 238.65,597.23 243.58,594.94 243.58,581.97 236.38,573.5 224.37,573.5 "/>
<polygon fill="#D60023" points="248.48,583.3 248.48,593.2 253.07,597.23 267.13,597.23 272.06,594.94 272.06,581.97 264.86,573.5 252.85,573.5 "/>
<polygon fill="#D60023" points="277.57,583.3 277.57,593.2 282.17,597.23 296.22,597.23 301.15,594.94 301.15,581.97 293.96,573.5 281.94,573.5 "/>
<polygon fill="#D60023" points="306.51,583.76 306.51,593.66 311.11,597.69 325.16,597.69 330.09,595.4 330.09,582.43 322.9,573.96 310.88,573.96 "/>
<polygon fill="#D60023" points="340.35,583.61 340.35,593.5 344.95,597.54 359,597.54 363.93,595.24 363.93,582.28 356.74,573.81 344.72,573.81 "/>
<polygon fill="#D60023" points="369.29,583.61 369.29,593.5 373.89,597.54 387.94,597.54 392.87,595.24 392.87,582.28 385.68,573.81 373.66,573.81 "/>
<polygon fill="#D60023" points="399.92,583.61 399.92,593.5 404.51,597.54 418.56,597.54 423.5,595.24 423.5,582.28 416.3,573.81 404.29,573.81 "/>
<polygon fill="#D60023" points="429.93,583.15 429.93,593.04 434.52,597.08 448.58,597.08 453.51,594.78 453.51,581.82 446.31,573.35 434.3,573.35 "/>
<polygon fill="#D60023" points="458.41,583.15 458.41,593.04 463,597.08 477.06,597.08 481.99,594.78 481.99,581.82 474.79,573.35 462.78,573.35 "/>
<polygon fill="#D60023" points="487.5,583.15 487.5,593.04 492.1,597.08 506.15,597.08 511.08,594.78 511.08,581.82 503.89,573.35 491.87,573.35 "/>
<polygon fill="#D60023" points="516.44,583.61 516.44,593.5 521.04,597.54 535.09,597.54 540.02,595.24 540.02,582.28 532.83,573.81 520.81,573.81 "/>
<polygon fill="#D60023" points="130.28,616.07 130.28,625.96 134.88,630 148.93,630 153.86,627.7 153.86,614.74 146.67,606.27 134.65,606.27 "/>
<polygon fill="#D60023" points="159.22,616.07 159.22,625.96 163.82,630 177.87,630 182.8,627.7 182.8,614.74 175.61,606.27 163.59,606.27 "/>
<polygon fill="#D60023" points="189.85,616.07 189.85,625.96 194.44,630 208.49,630 213.43,627.7 213.43,614.74 206.23,606.27 194.22,606.27 "/>
<polygon fill="#D60023" points="219.86,615.61 219.86,625.51 224.45,629.54 238.51,629.54 243.44,627.24 243.44,614.28 236.24,605.81 224.23,605.81 "/>
<polygon fill="#D60023" points="248.34,615.61 248.34,625.51 252.93,629.54 266.99,629.54 271.92,627.24 271.92,614.28 264.72,605.81 252.71,605.81 "/>
<polygon fill="#D60023" points="277.43,615.61 277.43,625.51 282.03,629.54 296.08,629.54 301.01,627.24 301.01,614.28 293.82,605.81 281.8,605.81 "/>
<polygon fill="#D60023" points="306.37,616.07 306.37,625.96 310.97,630 325.02,630 329.95,627.7 329.95,614.74 322.76,606.27 310.74,606.27 "/>
<polygon fill="#D60023" points="340.21,615.91 340.21,625.81 344.81,629.85 358.86,629.85 363.79,627.55 363.79,614.58 356.6,606.11 344.58,606.11 "/>
<polygon fill="#D60023" points="369.15,615.91 369.15,625.81 373.75,629.85 387.8,629.85 392.73,627.55 392.73,614.58 385.54,606.11 373.52,606.11 "/>
<polygon fill="#D60023" points="399.78,615.91 399.78,625.81 404.37,629.85 418.42,629.85 423.36,627.55 423.36,614.58 416.16,606.11 404.15,606.11 "/>
<polygon fill="#D60023" points="429.79,615.45 429.79,625.35 434.38,629.39 448.44,629.39 453.37,627.09 453.37,614.12 446.17,605.65 434.16,605.65 "/>
<polygon fill="#D60023" points="458.27,615.45 458.27,625.35 462.86,629.39 476.92,629.39 481.85,627.09 481.85,614.12 474.65,605.65 462.64,605.65 "/>
<polygon fill="#D60023" points="487.36,615.45 487.36,625.35 491.96,629.39 506.01,629.39 510.94,627.09 510.94,614.12 503.75,605.65 491.73,605.65 "/>
<polygon fill="#D60023" points="516.3,615.91 516.3,625.81 520.9,629.85 534.95,629.85 539.88,627.55 539.88,614.58 532.69,606.11 520.67,606.11 "/>
<polygon fill="#D60023" points="131.17,648.85 131.17,658.74 135.76,662.78 149.82,662.78 154.75,660.48 154.75,647.52 147.55,639.05 135.54,639.05 "/>
<polygon fill="#D60023" points="160.11,648.85 160.11,658.74 164.7,662.78 178.76,662.78 183.69,660.48 183.69,647.52 176.49,639.05 164.48,639.05 "/>
<polygon fill="#D60023" points="190.73,648.85 190.73,658.74 195.33,662.78 209.38,662.78 214.31,660.48 214.31,647.52 207.12,639.05 195.1,639.05 "/>
<polygon fill="#D60023" points="220.75,648.39 220.75,658.28 225.34,662.32 239.39,662.32 244.33,660.02 244.33,647.06 237.13,638.59 225.11,638.59 "/>
<polygon fill="#D60023" points="249.23,648.39 249.23,658.28 253.82,662.32 267.87,662.32 272.81,660.02 272.81,647.06 265.61,638.59 253.6,638.59 "/>
<polygon fill="#D60023" points="278.32,648.39 278.32,658.28 282.91,662.32 296.97,662.32 301.9,660.02 301.9,647.06 294.7,638.59 282.69,638.59 "/>
<polygon fill="#D60023" points="307.26,648.85 307.26,658.74 311.85,662.78 325.91,662.78 330.84,660.48 330.84,647.52 323.64,639.05 311.63,639.05 "/>
<polygon fill="#D60023" points="341.1,648.69 341.1,658.59 345.69,662.63 359.75,662.63 364.68,660.33 364.68,647.36 357.48,638.89 345.47,638.89 "/>
<polygon fill="#D60023" points="370.04,648.69 370.04,658.59 374.63,662.63 388.68,662.63 393.62,660.33 393.62,647.36 386.42,638.89 374.41,638.89 "/>
<polygon fill="#D60023" points="400.66,648.69 400.66,658.59 405.26,662.63 419.31,662.63 424.24,660.33 424.24,647.36 417.05,638.89 405.03,638.89 "/>
<polygon fill="#D60023" points="430.68,648.23 430.68,658.13 435.27,662.17 449.32,662.17 454.26,659.87 454.26,646.9 447.06,638.43 435.04,638.43 "/>
<polygon fill="#D60023" points="459.16,648.23 459.16,658.13 463.75,662.17 477.8,662.17 482.74,659.87 482.74,646.9 475.54,638.43 463.52,638.43 "/>
<polygon fill="#D60023" points="488.25,648.23 488.25,658.13 492.84,662.17 506.89,662.17 511.83,659.87 511.83,646.9 504.63,638.43 492.62,638.43 "/>
<polygon fill="#D60023" points="517.19,648.69 517.19,658.59 521.78,662.63 535.83,662.63 540.77,660.33 540.77,647.36 533.57,638.89 521.56,638.89 "/>
<polygon fill="#D60023" points="133.25,685.43 133.25,695.33 137.84,699.37 151.89,699.37 156.83,697.07 156.83,684.1 149.63,675.63 137.62,675.63 "/>
<polygon fill="#D60023" points="162.19,685.43 162.19,695.33 166.78,699.37 180.83,699.37 185.77,697.07 185.77,684.1 178.57,675.63 166.56,675.63 "/>
<polygon fill="#D60023" points="192.81,685.43 192.81,695.33 197.4,699.37 211.46,699.37 216.39,697.07 216.39,684.1 209.19,675.63 197.18,675.63 "/>
<polygon fill="#D60023" points="222.82,684.97 222.82,694.87 227.42,698.91 241.47,698.91 246.4,696.61 246.4,683.64 239.21,675.17 227.19,675.17 "/>
<polygon fill="#D60023" points="251.3,684.97 251.3,694.87 255.9,698.91 269.95,698.91 274.88,696.61 274.88,683.64 267.69,675.17 255.67,675.17 "/>
<polygon fill="#D60023" points="280.4,684.97 280.4,694.87 284.99,698.91 299.04,698.91 303.98,696.61 303.98,683.64 296.78,675.17 284.76,675.17 "/>
<polygon fill="#D60023" points="309.34,685.43 309.34,695.33 313.93,699.37 327.98,699.37 332.92,697.07 332.92,684.1 325.72,675.63 313.7,675.63 "/>
<polygon fill="#D60023" points="343.18,685.28 343.18,695.18 347.77,699.21 361.82,699.21 366.76,696.92 366.76,683.95 359.56,675.48 347.54,675.48 "/>
<polygon fill="#D60023" points="372.12,685.28 372.12,695.18 376.71,699.21 390.76,699.21 395.7,696.92 395.7,683.95 388.5,675.48 376.48,675.48 "/>
<polygon fill="#D60023" points="402.74,685.28 402.74,695.18 407.33,699.21 421.39,699.21 426.32,696.92 426.32,683.95 419.12,675.48 407.11,675.48 "/>
<polygon fill="#D60023" points="432.75,684.82 432.75,694.72 437.35,698.75 451.4,698.75 456.33,696.46 456.33,683.49 449.14,675.02 437.12,675.02 "/>
<polygon fill="#D60023" points="461.23,684.82 461.23,694.72 465.83,698.75 479.88,698.75 484.81,696.46 484.81,683.49 477.62,675.02 465.6,675.02 "/>
<polygon fill="#D60023" points="490.33,684.82 490.33,694.72 494.92,698.75 508.97,698.75 513.91,696.46 513.91,683.49 506.71,675.02 494.69,675.02 "/>
<polygon fill="#D60023" points="519.27,685.28 519.27,695.18 523.86,699.21 537.91,699.21 542.85,696.92 542.85,683.95 535.65,675.48 523.63,675.48 "/>
<polygon fill="#D60023" points="134.06,722.52 134.06,732.42 138.66,736.45 152.71,736.45 157.64,734.16 157.64,721.19 150.45,712.72 138.43,712.72 "/>
<polygon fill="#D60023" points="163,722.52 163,732.42 167.6,736.45 181.65,736.45 186.58,734.16 186.58,721.19 179.39,712.72 167.37,712.72 "/>
<polygon fill="#D60023" points="193.63,722.52 193.63,732.42 198.22,736.45 212.27,736.45 217.21,734.16 217.21,721.19 210.01,712.72 197.99,712.72 "/>
<polygon fill="#D60023" points="223.64,722.06 223.64,731.96 228.23,735.99 242.28,735.99 247.22,733.7 247.22,720.73 240.02,712.26 228.01,712.26 "/>
<polygon fill="#D60023" points="252.12,722.06 252.12,731.96 256.71,735.99 270.76,735.99 275.7,733.7 275.7,720.73 268.5,712.26 256.49,712.26 "/>
<polygon fill="#D60023" points="281.21,722.06 281.21,731.96 285.8,735.99 299.86,735.99 304.79,733.7 304.79,720.73 297.6,712.26 285.58,712.26 "/>
<polygon fill="#D60023" points="310.15,722.52 310.15,732.42 314.74,736.45 328.8,736.45 333.73,734.16 333.73,721.19 326.54,712.72 314.52,712.72 "/>
<polygon fill="#D60023" points="343.99,722.37 343.99,732.26 348.58,736.3 362.64,736.3 367.57,734 367.57,721.04 360.38,712.57 348.36,712.57 "/>
<polygon fill="#D60023" points="372.93,722.37 372.93,732.26 377.52,736.3 391.58,736.3 396.51,734 396.51,721.04 389.32,712.57 377.3,712.57 "/>
<polygon fill="#D60023" points="403.56,722.37 403.56,732.26 408.15,736.3 422.2,736.3 427.14,734 427.14,721.04 419.94,712.57 407.92,712.57 "/>
<polygon fill="#D60023" points="433.57,721.91 433.57,731.8 438.16,735.84 452.21,735.84 457.15,733.54 457.15,720.58 449.95,712.11 437.94,712.11 "/>
<polygon fill="#D60023" points="462.05,721.91 462.05,731.8 466.64,735.84 480.69,735.84 485.63,733.54 485.63,720.58 478.43,712.11 466.42,712.11 "/>
<polygon fill="#D60023" points="491.14,721.91 491.14,731.8 495.73,735.84 509.79,735.84 514.72,733.54 514.72,720.58 507.52,712.11 495.51,712.11 "/>
<polygon fill="#D60023" points="520.08,722.37 520.08,732.26 524.67,736.3 538.73,736.3 543.66,734 543.66,721.04 536.46,712.57 524.45,712.57 "/>
<polygon fill="#D60023" points="133.92,754.83 133.92,764.72 138.52,768.76 152.57,768.76 157.5,766.46 157.5,753.5 150.31,745.03 138.29,745.03 "/>
<polygon fill="#D60023" points="162.86,754.83 162.86,764.72 167.46,768.76 181.51,768.76 186.44,766.46 186.44,753.5 179.25,745.03 167.23,745.03 "/>
<polygon fill="#D60023" points="193.49,754.83 193.49,764.72 198.08,768.76 212.13,768.76 217.07,766.46 217.07,753.5 209.87,745.03 197.85,745.03 "/>
<polygon fill="#D60023" points="223.5,754.37 223.5,764.27 228.09,768.3 242.14,768.3 247.08,766 247.08,753.04 239.88,744.57 227.87,744.57 "/>
<polygon fill="#D60023" points="251.98,754.37 251.98,764.27 256.57,768.3 270.62,768.3 275.56,766 275.56,753.04 268.36,744.57 256.35,744.57 "/>
<polygon fill="#D60023" points="281.07,754.37 281.07,764.27 285.66,768.3 299.72,768.3 304.65,766 304.65,753.04 297.46,744.57 285.44,744.57 "/>
<polygon fill="#D60023" points="310.01,754.83 310.01,764.72 314.6,768.76 328.66,768.76 333.59,766.46 333.59,753.5 326.4,745.03 314.38,745.03 "/>
<polygon fill="#D60023" points="343.85,754.67 343.85,764.57 348.44,768.61 362.5,768.61 367.43,766.31 367.43,753.34 360.23,744.87 348.22,744.87 "/>
<polygon fill="#D60023" points="372.79,754.67 372.79,764.57 377.38,768.61 391.44,768.61 396.37,766.31 396.37,753.34 389.17,744.87 377.16,744.87 "/>
<polygon fill="#D60023" points="403.42,754.67 403.42,764.57 408.01,768.61 422.06,768.61 427,766.31 427,753.34 419.8,744.87 407.78,744.87 "/>
<polygon fill="#D60023" points="433.43,754.21 433.43,764.11 438.02,768.15 452.07,768.15 457.01,765.85 457.01,752.89 449.81,744.41 437.8,744.41 "/>
<polygon fill="#D60023" points="461.91,754.21 461.91,764.11 466.5,768.15 480.55,768.15 485.49,765.85 485.49,752.89 478.29,744.41 466.28,744.41 "/>
<polygon fill="#D60023" points="491,754.21 491,764.11 495.59,768.15 509.65,768.15 514.58,765.85 514.58,752.89 507.38,744.41 495.37,744.41 "/>
<polygon fill="#D60023" points="519.94,754.67 519.94,764.57 524.53,768.61 538.59,768.61 543.52,766.31 543.52,753.34 536.32,744.87 524.31,744.87 "/>
<polygon fill="#D60023" points="134.81,787.61 134.81,797.5 139.4,801.54 153.45,801.54 158.39,799.24 158.39,786.28 151.19,777.81 139.18,777.81 "/>
<polygon fill="#D60023" points="163.75,787.61 163.75,797.5 168.34,801.54 182.39,801.54 187.33,799.24 187.33,786.28 180.13,777.81 168.12,777.81 "/>
<polygon fill="#D60023" points="194.37,787.61 194.37,797.5 198.97,801.54 213.02,801.54 217.95,799.24 217.95,786.28 210.76,777.81 198.74,777.81 "/>
<polygon fill="#D60023" points="224.38,787.15 224.38,797.04 228.98,801.08 243.03,801.08 247.96,798.78 247.96,785.82 240.77,777.35 228.75,777.35 "/>
<polygon fill="#D60023" points="252.86,787.15 252.86,797.04 257.46,801.08 271.51,801.08 276.44,798.78 276.44,785.82 269.25,777.35 257.23,777.35 "/>
<polygon fill="#D60023" points="281.96,787.15 281.96,797.04 286.55,801.08 300.6,801.08 305.54,798.78 305.54,785.82 298.34,777.35 286.33,777.35 "/>
<polygon fill="#D60023" points="310.9,787.61 310.9,797.5 315.49,801.54 329.54,801.54 334.48,799.24 334.48,786.28 327.28,777.81 315.27,777.81 "/>
<polygon fill="#D60023" points="344.74,787.45 344.74,797.35 349.33,801.39 363.38,801.39 368.32,799.09 368.32,786.12 361.12,777.65 349.11,777.65 "/>
<polygon fill="#D60023" points="373.68,787.45 373.68,797.35 378.27,801.39 392.32,801.39 397.26,799.09 397.26,786.12 390.06,777.65 378.05,777.65 "/>
<polygon fill="#D60023" points="404.3,787.45 404.3,797.35 408.89,801.39 422.95,801.39 427.88,799.09 427.88,786.12 420.69,777.65 408.67,777.65 "/>
<polygon fill="#D60023" points="434.31,786.99 434.31,796.89 438.91,800.93 452.96,800.93 457.89,798.63 457.89,785.66 450.7,777.19 438.68,777.19 "/>
<polygon fill="#D60023" points="462.79,786.99 462.79,796.89 467.39,800.93 481.44,800.93 486.37,798.63 486.37,785.66 479.18,777.19 467.16,777.19 "/>
<polygon fill="#D60023" points="491.89,786.99 491.89,796.89 496.48,800.93 510.53,800.93 515.47,798.63 515.47,785.66 508.27,777.19 496.26,777.19 "/>
<polygon fill="#D60023" points="520.83,787.45 520.83,797.35 525.42,801.39 539.47,801.39 544.41,799.09 544.41,786.12 537.21,777.65 525.2,777.65 "/>
<polygon fill="#D60023" points="136.88,824.19 136.88,834.09 141.48,838.13 155.53,838.13 160.46,835.83 160.46,822.86 153.27,814.39 141.25,814.39 "/>
<polygon fill="#D60023" points="165.82,824.19 165.82,834.09 170.42,838.13 184.47,838.13 189.4,835.83 189.4,822.86 182.21,814.39 170.19,814.39 "/>
<polygon fill="#D60023" points="196.45,824.19 196.45,834.09 201.04,838.13 215.09,838.13 220.03,835.83 220.03,822.86 212.83,814.39 200.82,814.39 "/>
<polygon fill="#D60023" points="226.46,823.73 226.46,833.63 231.05,837.67 245.11,837.67 250.04,835.37 250.04,822.4 242.84,813.93 230.83,813.93 "/>
<polygon fill="#D60023" points="254.94,823.73 254.94,833.63 259.53,837.67 273.59,837.67 278.52,835.37 278.52,822.4 271.32,813.93 259.31,813.93 "/>
<polygon fill="#D60023" points="284.03,823.73 284.03,833.63 288.63,837.67 302.68,837.67 307.61,835.37 307.61,822.4 300.42,813.93 288.4,813.93 "/>
<polygon fill="#D60023" points="312.97,824.19 312.97,834.09 317.57,838.13 331.62,838.13 336.55,835.83 336.55,822.86 329.36,814.39 317.34,814.39 "/>
<polygon fill="#D60023" points="346.81,824.04 346.81,833.94 351.41,837.97 365.46,837.97 370.39,835.68 370.39,822.71 363.2,814.24 351.18,814.24 "/>
<polygon fill="#D60023" points="375.75,824.04 375.75,833.94 380.35,837.97 394.4,837.97 399.33,835.68 399.33,822.71 392.14,814.24 380.12,814.24 "/>
<polygon fill="#D60023" points="406.38,824.04 406.38,833.94 410.97,837.97 425.02,837.97 429.96,835.68 429.96,822.71 422.76,814.24 410.75,814.24 "/>
<polygon fill="#D60023" points="436.39,823.58 436.39,833.48 440.98,837.52 455.04,837.52 459.97,835.22 459.97,822.25 452.77,813.78 440.76,813.78 "/>
<polygon fill="#D60023" points="464.87,823.58 464.87,833.48 469.46,837.52 483.52,837.52 488.45,835.22 488.45,822.25 481.25,813.78 469.24,813.78 "/>
<polygon fill="#D60023" points="493.96,823.58 493.96,833.48 498.56,837.52 512.61,837.52 517.54,835.22 517.54,822.25 510.35,813.78 498.33,813.78 "/>
<polygon fill="#D60023" points="522.9,824.04 522.9,833.94 527.5,837.97 541.55,837.97 546.48,835.68 546.48,822.71 539.29,814.24 527.27,814.24 "/>
<polygon fill="#D60023" points="570.82,512.55 570.82,522.45 575.42,526.49 589.47,526.49 594.4,524.19 594.4,511.23 587.21,502.75 575.19,502.75 "/>
<polygon fill="#D60023" points="599.76,512.55 599.76,522.45 604.36,526.49 618.41,526.49 623.34,524.19 623.34,511.23 616.15,502.75 604.13,502.75 "/>
<polygon fill="#D60023" points="630.39,512.55 630.39,522.45 634.98,526.49 649.03,526.49 653.97,524.19 653.97,511.23 646.77,502.75 634.76,502.75 "/>
<polygon fill="#D60023" points="660.4,512.09 660.4,521.99 664.99,526.03 679.05,526.03 683.98,523.73 683.98,510.77 676.78,502.3 664.77,502.3 "/>
<polygon fill="#D60023" points="688.88,512.09 688.88,521.99 693.47,526.03 707.53,526.03 712.46,523.73 712.46,510.77 705.26,502.3 693.25,502.3 "/>
<polygon fill="#D60023" points="717.97,512.09 717.97,521.99 722.57,526.03 736.62,526.03 741.55,523.73 741.55,510.77 734.36,502.3 722.34,502.3 "/>
<polygon fill="#D60023" points="746.91,512.55 746.91,522.45 751.51,526.49 765.56,526.49 770.49,524.19 770.49,511.23 763.3,502.75 751.28,502.75 "/>
<polygon fill="#D60023" points="780.75,512.4 780.75,522.3 785.35,526.34 799.4,526.34 804.33,524.04 804.33,511.07 797.14,502.6 785.12,502.6 "/>
<polygon fill="#D60023" points="809.69,512.4 809.69,522.3 814.29,526.34 828.34,526.34 833.27,524.04 833.27,511.07 826.08,502.6 814.06,502.6 "/>
<polygon fill="#D60023" points="840.32,512.4 840.32,522.3 844.91,526.34 858.96,526.34 863.9,524.04 863.9,511.07 856.7,502.6 844.69,502.6 "/>
<polygon fill="#D60023" points="870.33,511.94 870.33,521.84 874.92,525.88 888.97,525.88 893.91,523.58 893.91,510.61 886.71,502.14 874.7,502.14 "/>
<polygon fill="#D60023" points="898.81,511.94 898.81,521.84 903.4,525.88 917.46,525.88 922.39,523.58 922.39,510.61 915.19,502.14 903.18,502.14 "/>
<polygon fill="#D60023" points="927.9,511.94 927.9,521.84 932.5,525.88 946.55,525.88 951.48,523.58 951.48,510.61 944.29,502.14 932.27,502.14 "/>
<polygon fill="#D60023" points="956.84,512.4 956.84,522.3 961.44,526.34 975.49,526.34 980.42,524.04 980.42,511.07 973.23,502.6 961.21,502.6 "/>
<polygon fill="#D60023" points="570.68,544.86 570.68,554.76 575.28,558.8 589.33,558.8 594.26,556.5 594.26,543.53 587.07,535.06 575.05,535.06 "/>
<polygon fill="#D60023" points="599.62,544.86 599.62,554.76 604.22,558.8 618.27,558.8 623.2,556.5 623.2,543.53 616.01,535.06 603.99,535.06 "/>
<polygon fill="#D60023" points="630.25,544.86 630.25,554.76 634.84,558.8 648.89,558.8 653.83,556.5 653.83,543.53 646.63,535.06 634.62,535.06 "/>
<polygon fill="#D60023" points="660.26,544.4 660.26,554.3 664.85,558.34 678.91,558.34 683.84,556.04 683.84,543.07 676.64,534.6 664.63,534.6 "/>
<polygon fill="#D60023" points="688.74,544.4 688.74,554.3 693.33,558.34 707.39,558.34 712.32,556.04 712.32,543.07 705.12,534.6 693.11,534.6 "/>
<polygon fill="#D60023" points="717.83,544.4 717.83,554.3 722.43,558.34 736.48,558.34 741.41,556.04 741.41,543.07 734.22,534.6 722.2,534.6 "/>
<polygon fill="#D60023" points="746.77,544.86 746.77,554.76 751.37,558.8 765.42,558.8 770.35,556.5 770.35,543.53 763.16,535.06 751.14,535.06 "/>
<polygon fill="#D60023" points="780.61,544.71 780.61,554.61 785.21,558.64 799.26,558.64 804.19,556.35 804.19,543.38 797,534.91 784.98,534.91 "/>
<polygon fill="#D60023" points="809.55,544.71 809.55,554.61 814.15,558.64 828.2,558.64 833.13,556.35 833.13,543.38 825.94,534.91 813.92,534.91 "/>
<polygon fill="#D60023" points="840.18,544.71 840.18,554.61 844.77,558.64 858.82,558.64 863.76,556.35 863.76,543.38 856.56,534.91 844.55,534.91 "/>
<polygon fill="#D60023" points="870.19,544.25 870.19,554.15 874.78,558.18 888.83,558.18 893.77,555.89 893.77,542.92 886.57,534.45 874.56,534.45 "/>
<polygon fill="#D60023" points="898.67,544.25 898.67,554.15 903.26,558.18 917.32,558.18 922.25,555.89 922.25,542.92 915.05,534.45 903.04,534.45 "/>
<polygon fill="#D60023" points="927.76,544.25 927.76,554.15 932.36,558.18 946.41,558.18 951.34,555.89 951.34,542.92 944.15,534.45 932.13,534.45 "/>
<polygon fill="#D60023" points="956.7,544.71 956.7,554.61 961.3,558.64 975.35,558.64 980.28,556.35 980.28,543.38 973.09,534.91 961.07,534.91 "/>
<polygon fill="#D60023" points="554.74,577.64 554.74,587.54 559.33,591.58 573.38,591.58 578.32,589.28 578.32,576.31 571.12,567.84 559.11,567.84 "/>
<polygon fill="#D60023" points="583.68,577.64 583.68,587.54 588.27,591.58 602.32,591.58 607.26,589.28 607.26,576.31 600.06,567.84 588.05,567.84 "/>
<polygon fill="#D60023" points="614.3,577.64 614.3,587.54 618.89,591.58 632.95,591.58 637.88,589.28 637.88,576.31 630.68,567.84 618.67,567.84 "/>
<polygon fill="#D60023" points="644.31,577.18 644.31,587.08 648.91,591.12 662.96,591.12 667.89,588.82 667.89,575.85 660.7,567.38 648.68,567.38 "/>
<polygon fill="#D60023" points="672.79,577.18 672.79,587.08 677.39,591.12 691.44,591.12 696.37,588.82 696.37,575.85 689.18,567.38 677.16,567.38 "/>
<polygon fill="#D60023" points="701.89,577.18 701.89,587.08 706.48,591.12 720.53,591.12 725.47,588.82 725.47,575.85 718.27,567.38 706.26,567.38 "/>
<polygon fill="#D60023" points="730.83,577.64 730.83,587.54 735.42,591.58 749.47,591.58 754.41,589.28 754.41,576.31 747.21,567.84 735.19,567.84 "/>
<polygon fill="#D60023" points="764.67,577.49 764.67,587.39 769.26,591.42 783.31,591.42 788.25,589.13 788.25,576.16 781.05,567.69 769.03,567.69 "/>
<polygon fill="#D60023" points="793.61,577.49 793.61,587.39 798.2,591.42 812.25,591.42 817.19,589.13 817.19,576.16 809.99,567.69 797.97,567.69 "/>
<polygon fill="#D60023" points="824.23,577.49 824.23,587.39 828.82,591.42 842.88,591.42 847.81,589.13 847.81,576.16 840.61,567.69 828.6,567.69 "/>
<polygon fill="#D60023" points="854.24,577.03 854.24,586.93 858.84,590.96 872.89,590.96 877.82,588.67 877.82,575.7 870.63,567.23 858.61,567.23 "/>
<polygon fill="#D60023" points="882.72,577.03 882.72,586.93 887.32,590.96 901.37,590.96 906.3,588.67 906.3,575.7 899.11,567.23 887.09,567.23 "/>
<polygon fill="#D60023" points="911.82,577.03 911.82,586.93 916.41,590.96 930.46,590.96 935.4,588.67 935.4,575.7 928.2,567.23 916.18,567.23 "/>
<polygon fill="#D60023" points="940.76,577.49 940.76,587.39 945.35,591.42 959.4,591.42 964.34,589.13 964.34,576.16 957.14,567.69 945.12,567.69 "/>
<polygon fill="#D60023" points="556.81,614.23 556.81,624.13 561.41,628.16 575.46,628.16 580.39,625.87 580.39,612.9 573.2,604.43 561.18,604.43 "/>
<polygon fill="#D60023" points="585.75,614.23 585.75,624.13 590.35,628.16 604.4,628.16 609.33,625.87 609.33,612.9 602.14,604.43 590.12,604.43 "/>
<polygon fill="#D60023" points="616.38,614.23 616.38,624.13 620.97,628.16 635.02,628.16 639.96,625.87 639.96,612.9 632.76,604.43 620.75,604.43 "/>
<polygon fill="#D60023" points="646.39,613.77 646.39,623.67 650.98,627.7 665.04,627.7 669.97,625.41 669.97,612.44 662.77,603.97 650.76,603.97 "/>
<polygon fill="#D60023" points="674.87,613.77 674.87,623.67 679.46,627.7 693.52,627.7 698.45,625.41 698.45,612.44 691.25,603.97 679.24,603.97 "/>
<polygon fill="#D60023" points="703.96,613.77 703.96,623.67 708.56,627.7 722.61,627.7 727.54,625.41 727.54,612.44 720.35,603.97 708.33,603.97 "/>
<polygon fill="#D60023" points="732.9,614.23 732.9,624.13 737.5,628.16 751.55,628.16 756.48,625.87 756.48,612.9 749.29,604.43 737.27,604.43 "/>
<polygon fill="#D60023" points="766.74,614.08 766.74,623.97 771.34,628.01 785.39,628.01 790.32,625.71 790.32,612.75 783.13,604.28 771.11,604.28 "/>
<polygon fill="#D60023" points="795.68,614.08 795.68,623.97 800.28,628.01 814.33,628.01 819.26,625.71 819.26,612.75 812.07,604.28 800.05,604.28 "/>
<polygon fill="#D60023" points="826.31,614.08 826.31,623.97 830.9,628.01 844.95,628.01 849.89,625.71 849.89,612.75 842.69,604.28 830.68,604.28 "/>
<polygon fill="#D60023" points="856.32,613.62 856.32,623.51 860.91,627.55 874.96,627.55 879.9,625.25 879.9,612.29 872.7,603.82 860.69,603.82 "/>
<polygon fill="#D60023" points="884.8,613.62 884.8,623.51 889.39,627.55 903.44,627.55 908.38,625.25 908.38,612.29 901.18,603.82 889.17,603.82 "/>
<polygon fill="#D60023" points="913.89,613.62 913.89,623.51 918.49,627.55 932.54,627.55 937.47,625.25 937.47,612.29 930.28,603.82 918.26,603.82 "/>
<polygon fill="#D60023" points="942.83,614.08 942.83,623.97 947.43,628.01 961.48,628.01 966.41,625.71 966.41,612.75 959.22,604.28 947.2,604.28 "/>
<polygon fill="#D60023" points="558.47,651.39 558.47,661.29 563.06,665.33 577.12,665.33 582.05,663.03 582.05,650.07 574.85,641.6 562.84,641.6 "/>
<polygon fill="#D60023" points="587.41,651.39 587.41,661.29 592,665.33 606.06,665.33 610.99,663.03 610.99,650.07 603.79,641.6 591.78,641.6 "/>
<polygon fill="#D60023" points="618.03,651.39 618.03,661.29 622.63,665.33 636.68,665.33 641.61,663.03 641.61,650.07 634.42,641.6 622.4,641.6 "/>
<polygon fill="#D60023" points="648.05,650.94 648.05,660.83 652.64,664.87 666.69,664.87 671.63,662.57 671.63,649.61 664.43,641.14 652.41,641.14 "/>
<polygon fill="#D60023" points="676.53,650.94 676.53,660.83 681.12,664.87 695.17,664.87 700.11,662.57 700.11,649.61 692.91,641.14 680.9,641.14 "/>
<polygon fill="#D60023" points="705.62,650.94 705.62,660.83 710.21,664.87 724.27,664.87 729.2,662.57 729.2,649.61 722,641.14 709.99,641.14 "/>
<polygon fill="#D60023" points="734.56,651.39 734.56,661.29 739.15,665.33 753.21,665.33 758.14,663.03 758.14,650.07 750.94,641.6 738.93,641.6 "/>
<polygon fill="#D60023" points="768.4,651.24 768.4,661.14 772.99,665.18 787.05,665.18 791.98,662.88 791.98,649.91 784.78,641.44 772.77,641.44 "/>
<polygon fill="#D60023" points="797.34,651.24 797.34,661.14 801.93,665.18 815.99,665.18 820.92,662.88 820.92,649.91 813.72,641.44 801.71,641.44 "/>
<polygon fill="#D60023" points="827.96,651.24 827.96,661.14 832.56,665.18 846.61,665.18 851.54,662.88 851.54,649.91 844.35,641.44 832.33,641.44 "/>
<polygon fill="#D60023" points="857.98,650.78 857.98,660.68 862.57,664.72 876.62,664.72 881.56,662.42 881.56,649.45 874.36,640.98 862.34,640.98 "/>
<polygon fill="#D60023" points="886.46,650.78 886.46,660.68 891.05,664.72 905.1,664.72 910.04,662.42 910.04,649.45 902.84,640.98 890.82,640.98 "/>
<polygon fill="#D60023" points="915.55,650.78 915.55,660.68 920.14,664.72 934.19,664.72 939.13,662.42 939.13,649.45 931.93,640.98 919.92,640.98 "/>
<polygon fill="#D60023" points="944.49,651.24 944.49,661.14 949.08,665.18 963.13,665.18 968.07,662.88 968.07,649.91 960.87,641.44 948.86,641.44 "/>
<polygon fill="#D60023" points="558.33,683.7 558.33,693.6 562.92,697.64 576.98,697.64 581.91,695.34 581.91,682.37 574.71,673.9 562.7,673.9 "/>
<polygon fill="#D60023" points="587.27,683.7 587.27,693.6 591.86,697.64 605.92,697.64 610.85,695.34 610.85,682.37 603.65,673.9 591.64,673.9 "/>
<polygon fill="#D60023" points="617.89,683.7 617.89,693.6 622.49,697.64 636.54,697.64 641.47,695.34 641.47,682.37 634.28,673.9 622.26,673.9 "/>
<polygon fill="#D60023" points="647.91,683.24 647.91,693.14 652.5,697.18 666.55,697.18 671.49,694.88 671.49,681.91 664.29,673.44 652.27,673.44 "/>
<polygon fill="#D60023" points="676.39,683.24 676.39,693.14 680.98,697.18 695.03,697.18 699.97,694.88 699.97,681.91 692.77,673.44 680.76,673.44 "/>
<polygon fill="#D60023" points="705.48,683.24 705.48,693.14 710.07,697.18 724.13,697.18 729.06,694.88 729.06,681.91 721.86,673.44 709.85,673.44 "/>
<polygon fill="#D60023" points="734.42,683.7 734.42,693.6 739.01,697.64 753.07,697.64 758,695.34 758,682.37 750.8,673.9 738.79,673.9 "/>
<polygon fill="#D60023" points="768.26,683.55 768.26,693.45 772.85,697.48 786.9,697.48 791.84,695.19 791.84,682.22 784.64,673.75 772.63,673.75 "/>
<polygon fill="#D60023" points="797.2,683.55 797.2,693.45 801.79,697.48 815.84,697.48 820.78,695.19 820.78,682.22 813.58,673.75 801.57,673.75 "/>
<polygon fill="#D60023" points="827.82,683.55 827.82,693.45 832.42,697.48 846.47,697.48 851.4,695.19 851.4,682.22 844.21,673.75 832.19,673.75 "/>
<polygon fill="#D60023" points="857.84,683.09 857.84,692.99 862.43,697.02 876.48,697.02 881.42,694.73 881.42,681.76 874.22,673.29 862.2,673.29 "/>
<polygon fill="#D60023" points="886.32,683.09 886.32,692.99 890.91,697.02 904.96,697.02 909.9,694.73 909.9,681.76 902.7,673.29 890.68,673.29 "/>
<polygon fill="#D60023" points="915.41,683.09 915.41,692.99 920,697.02 934.05,697.02 938.99,694.73 938.99,681.76 931.79,673.29 919.78,673.29 "/>
<polygon fill="#D60023" points="944.35,683.55 944.35,693.45 948.94,697.48 962.99,697.48 967.93,695.19 967.93,682.22 960.73,673.75 948.72,673.75 "/>
<polygon fill="#D60023" points="559.22,716.48 559.22,726.38 563.81,730.42 577.86,730.42 582.8,728.12 582.8,715.15 575.6,706.68 563.58,706.68 "/>
<polygon fill="#D60023" points="588.16,716.48 588.16,726.38 592.75,730.42 606.8,730.42 611.74,728.12 611.74,715.15 604.54,706.68 592.52,706.68 "/>
<polygon fill="#D60023" points="618.78,716.48 618.78,726.38 623.37,730.42 637.43,730.42 642.36,728.12 642.36,715.15 635.16,706.68 623.15,706.68 "/>
<polygon fill="#D60023" points="648.79,716.02 648.79,725.92 653.39,729.96 667.44,729.96 672.37,727.66 672.37,714.69 665.18,706.22 653.16,706.22 "/>
<polygon fill="#D60023" points="677.27,716.02 677.27,725.92 681.87,729.96 695.92,729.96 700.85,727.66 700.85,714.69 693.66,706.22 681.64,706.22 "/>
<polygon fill="#D60023" points="706.37,716.02 706.37,725.92 710.96,729.96 725.01,729.96 729.95,727.66 729.95,714.69 722.75,706.22 710.73,706.22 "/>
<polygon fill="#D60023" points="735.31,716.48 735.31,726.38 739.9,730.42 753.95,730.42 758.89,728.12 758.89,715.15 751.69,706.68 739.67,706.68 "/>
<polygon fill="#D60023" points="769.14,716.33 769.14,726.23 773.74,730.26 787.79,730.26 792.73,727.97 792.73,715 785.53,706.53 773.51,706.53 "/>
<polygon fill="#D60023" points="798.08,716.33 798.08,726.23 802.68,730.26 816.73,730.26 821.67,727.97 821.67,715 814.47,706.53 802.45,706.53 "/>
<polygon fill="#D60023" points="828.71,716.33 828.71,726.23 833.3,730.26 847.36,730.26 852.29,727.97 852.29,715 845.09,706.53 833.08,706.53 "/>
<polygon fill="#D60023" points="858.72,715.87 858.72,725.77 863.31,729.8 877.37,729.8 882.3,727.51 882.3,714.54 875.1,706.07 863.09,706.07 "/>
<polygon fill="#D60023" points="887.2,715.87 887.2,725.77 891.8,729.8 905.85,729.8 910.78,727.51 910.78,714.54 903.59,706.07 891.57,706.07 "/>
<polygon fill="#D60023" points="916.29,715.87 916.29,725.77 920.89,729.8 934.94,729.8 939.88,727.51 939.88,714.54 932.68,706.07 920.66,706.07 "/>
<polygon fill="#D60023" points="945.23,716.33 945.23,726.23 949.83,730.26 963.88,730.26 968.82,727.97 968.82,715 961.62,706.53 949.6,706.53 "/>
<polygon fill="#D60023" points="561.29,753.07 561.29,762.97 565.89,767 579.94,767 584.87,764.71 584.87,751.74 577.68,743.27 565.66,743.27 "/>
<polygon fill="#D60023" points="590.23,753.07 590.23,762.97 594.83,767 608.88,767 613.81,764.71 613.81,751.74 606.62,743.27 594.6,743.27 "/>
<polygon fill="#D60023" points="620.86,753.07 620.86,762.97 625.45,767 639.5,767 644.44,764.71 644.44,751.74 637.24,743.27 625.23,743.27 "/>
<polygon fill="#D60023" points="650.87,752.61 650.87,762.51 655.46,766.54 669.51,766.54 674.45,764.25 674.45,751.28 667.25,742.81 655.24,742.81 "/>
<polygon fill="#D60023" points="679.35,752.61 679.35,762.51 683.94,766.54 697.99,766.54 702.93,764.25 702.93,751.28 695.73,742.81 683.72,742.81 "/>
<polygon fill="#D60023" points="708.44,752.61 708.44,762.51 713.04,766.54 727.09,766.54 732.02,764.25 732.02,751.28 724.83,742.81 712.81,742.81 "/>
<polygon fill="#D60023" points="737.38,753.07 737.38,762.97 741.98,767 756.03,767 760.96,764.71 760.96,751.74 753.77,743.27 741.75,743.27 "/>
<polygon fill="#D60023" points="771.22,752.92 771.22,762.81 775.82,766.85 789.87,766.85 794.8,764.55 794.8,751.59 787.61,743.12 775.59,743.12 "/>
<polygon fill="#D60023" points="800.16,752.92 800.16,762.81 804.76,766.85 818.81,766.85 823.74,764.55 823.74,751.59 816.55,743.12 804.53,743.12 "/>
<polygon fill="#D60023" points="830.79,752.92 830.79,762.81 835.38,766.85 849.43,766.85 854.37,764.55 854.37,751.59 847.17,743.12 835.15,743.12 "/>
<polygon fill="#D60023" points="860.8,752.46 860.8,762.35 865.39,766.39 879.44,766.39 884.38,764.09 884.38,751.13 877.18,742.66 865.17,742.66 "/>
<polygon fill="#D60023" points="889.28,752.46 889.28,762.35 893.87,766.39 907.92,766.39 912.86,764.09 912.86,751.13 905.66,742.66 893.65,742.66 "/>
<polygon fill="#D60023" points="918.37,752.46 918.37,762.35 922.96,766.39 937.02,766.39 941.95,764.09 941.95,751.13 934.76,742.66 922.74,742.66 "/>
<polygon fill="#D60023" points="947.31,752.92 947.31,762.81 951.9,766.85 965.96,766.85 970.89,764.55 970.89,751.59 963.7,743.12 951.68,743.12 "/>
<polygon fill="#D60023" points="562.18,787.37 562.18,797.27 566.77,801.3 580.82,801.3 585.76,799.01 585.76,786.04 578.56,777.57 566.55,777.57 "/>
<polygon fill="#D60023" points="591.12,787.37 591.12,797.27 595.71,801.3 609.76,801.3 614.7,799.01 614.7,786.04 607.5,777.57 595.49,777.57 "/>
<polygon fill="#D60023" points="621.74,787.37 621.74,797.27 626.34,801.3 640.39,801.3 645.32,799.01 645.32,786.04 638.13,777.57 626.11,777.57 "/>
<polygon fill="#D60023" points="651.75,786.91 651.75,796.81 656.35,800.84 670.4,800.84 675.34,798.55 675.34,785.58 668.14,777.11 656.12,777.11 "/>
<polygon fill="#D60023" points="680.24,786.91 680.24,796.81 684.83,800.84 698.88,800.84 703.82,798.55 703.82,785.58 696.62,777.11 684.6,777.11 "/>
<polygon fill="#D60023" points="709.33,786.91 709.33,796.81 713.92,800.84 727.97,800.84 732.91,798.55 732.91,785.58 725.71,777.11 713.7,777.11 "/>
<polygon fill="#D60023" points="738.27,787.37 738.27,797.27 742.86,801.3 756.91,801.3 761.85,799.01 761.85,786.04 754.65,777.57 742.64,777.57 "/>
<polygon fill="#D60023" points="772.11,787.22 772.11,797.11 776.7,801.15 790.75,801.15 795.69,798.85 795.69,785.89 788.49,777.42 776.48,777.42 "/>
<polygon fill="#D60023" points="801.05,787.22 801.05,797.11 805.64,801.15 819.69,801.15 824.63,798.85 824.63,785.89 817.43,777.42 805.42,777.42 "/>
<polygon fill="#D60023" points="831.67,787.22 831.67,797.11 836.27,801.15 850.32,801.15 855.25,798.85 855.25,785.89 848.06,777.42 836.04,777.42 "/>
<polygon fill="#D60023" points="861.68,786.76 861.68,796.65 866.28,800.69 880.33,800.69 885.26,798.39 885.26,785.43 878.07,776.96 866.05,776.96 "/>
<polygon fill="#D60023" points="890.16,786.76 890.16,796.65 894.76,800.69 908.81,800.69 913.75,798.39 913.75,785.43 906.55,776.96 894.53,776.96 "/>
<polygon fill="#D60023" points="919.26,786.76 919.26,796.65 923.85,800.69 937.9,800.69 942.84,798.39 942.84,785.43 935.64,776.96 923.63,776.96 "/>
<polygon fill="#D60023" points="948.2,787.22 948.2,797.11 952.79,801.15 966.84,801.15 971.78,798.85 971.78,785.89 964.58,777.42 952.57,777.42 "/>
<polygon fill="#D60023" points="563.06,820.15 563.06,830.05 567.66,834.08 581.71,834.08 586.65,831.79 586.65,818.82 579.45,810.35 567.43,810.35 "/>
<polygon fill="#D60023" points="592,820.15 592,830.05 596.6,834.08 610.65,834.08 615.59,831.79 615.59,818.82 608.39,810.35 596.37,810.35 "/>
<polygon fill="#D60023" points="622.63,820.15 622.63,830.05 627.22,834.08 641.27,834.08 646.21,831.79 646.21,818.82 639.01,810.35 627,810.35 "/>
<polygon fill="#D60023" points="652.64,819.69 652.64,829.59 657.23,833.62 671.29,833.62 676.22,831.33 676.22,818.36 669.02,809.89 657.01,809.89 "/>
<polygon fill="#D60023" points="681.12,819.69 681.12,829.59 685.71,833.62 699.77,833.62 704.7,831.33 704.7,818.36 697.5,809.89 685.49,809.89 "/>
<polygon fill="#D60023" points="710.21,819.69 710.21,829.59 714.81,833.62 728.86,833.62 733.79,831.33 733.79,818.36 726.6,809.89 714.58,809.89 "/>
<polygon fill="#D60023" points="739.15,820.15 739.15,830.05 743.75,834.08 757.8,834.08 762.73,831.79 762.73,818.82 755.54,810.35 743.52,810.35 "/>
<polygon fill="#D60023" points="772.99,820 772.99,829.89 777.59,833.93 791.64,833.93 796.57,831.63 796.57,818.67 789.38,810.2 777.36,810.2 "/>
<polygon fill="#D60023" points="801.93,820 801.93,829.89 806.53,833.93 820.58,833.93 825.51,831.63 825.51,818.67 818.32,810.2 806.3,810.2 "/>
<polygon fill="#D60023" points="832.56,820 832.56,829.89 837.15,833.93 851.2,833.93 856.14,831.63 856.14,818.67 848.94,810.2 836.93,810.2 "/>
<polygon fill="#D60023" points="862.57,819.54 862.57,829.43 867.16,833.47 881.22,833.47 886.15,831.17 886.15,818.21 878.95,809.74 866.94,809.74 "/>
<polygon fill="#D60023" points="891.05,819.54 891.05,829.43 895.64,833.47 909.7,833.47 914.63,831.17 914.63,818.21 907.43,809.74 895.42,809.74 "/>
<polygon fill="#D60023" points="920.14,819.54 920.14,829.43 924.74,833.47 938.79,833.47 943.72,831.17 943.72,818.21 936.53,809.74 924.51,809.74 "/>
<polygon fill="#D60023" points="949.08,820 949.08,829.89 953.68,833.93 967.73,833.93 972.66,831.63 972.66,818.67 965.47,810.2 953.45,810.2 "/>
<polygon fill="#D60023" points="565.14,856.74 565.14,866.63 569.73,870.67 583.79,870.67 588.72,868.37 588.72,855.41 581.52,846.94 569.51,846.94 "/>
<polygon fill="#D60023" points="594.08,856.74 594.08,866.63 598.67,870.67 612.73,870.67 617.66,868.37 617.66,855.41 610.46,846.94 598.45,846.94 "/>
<polygon fill="#D60023" points="624.71,856.74 624.71,866.63 629.3,870.67 643.35,870.67 648.29,868.37 648.29,855.41 641.09,846.94 629.07,846.94 "/>
<polygon fill="#D60023" points="654.72,856.28 654.72,866.17 659.31,870.21 673.36,870.21 678.3,867.91 678.3,854.95 671.1,846.48 659.09,846.48 "/>
<polygon fill="#D60023" points="683.2,856.28 683.2,866.17 687.79,870.21 701.84,870.21 706.78,867.91 706.78,854.95 699.58,846.48 687.57,846.48 "/>
<polygon fill="#D60023" points="712.29,856.28 712.29,866.17 716.88,870.21 730.94,870.21 735.87,867.91 735.87,854.95 728.67,846.48 716.66,846.48 "/>
<polygon fill="#D60023" points="741.23,856.74 741.23,866.63 745.82,870.67 759.88,870.67 764.81,868.37 764.81,855.41 757.61,846.94 745.6,846.94 "/>
<polygon fill="#D60023" points="775.07,856.58 775.07,866.48 779.66,870.52 793.72,870.52 798.65,868.22 798.65,855.25 791.45,846.78 779.44,846.78 "/>
<polygon fill="#D60023" points="804.01,856.58 804.01,866.48 808.6,870.52 822.66,870.52 827.59,868.22 827.59,855.25 820.39,846.78 808.38,846.78 "/>
<polygon fill="#D60023" points="834.63,856.58 834.63,866.48 839.23,870.52 853.28,870.52 858.22,868.22 858.22,855.25 851.02,846.78 839,846.78 "/>
<polygon fill="#D60023" points="864.65,856.12 864.65,866.02 869.24,870.06 883.29,870.06 888.23,867.76 888.23,854.79 881.03,846.32 869.02,846.32 "/>
<polygon fill="#D60023" points="893.13,856.12 893.13,866.02 897.72,870.06 911.77,870.06 916.71,867.76 916.71,854.79 909.51,846.32 897.5,846.32 "/>
<polygon fill="#D60023" points="922.22,856.12 922.22,866.02 926.81,870.06 940.87,870.06 945.8,867.76 945.8,854.79 938.6,846.32 926.59,846.32 "/>
<polygon fill="#D60023" points="951.16,856.58 951.16,866.48 955.75,870.52 969.81,870.52 974.74,868.22 974.74,855.25 967.54,846.78 955.53,846.78 "/>
<polygon fill="#D60023" points="994.61,512.83 994.61,522.73 999.2,526.77 1013.25,526.77 1018.19,524.47 1018.19,511.5 1010.99,503.03 998.98,503.03 "/>
<polygon fill="#D60023" points="1023.55,513.29 1023.55,523.19 1028.14,527.23 1042.19,527.23 1047.13,524.93 1047.13,511.96 1039.93,503.49 1027.92,503.49 "/>
<polygon fill="#D60023" points="1057.39,513.14 1057.39,523.04 1061.98,527.07 1076.03,527.07 1080.97,524.78 1080.97,511.81 1073.77,503.34 1061.76,503.34 "/>
<polygon fill="#D60023" points="1086.33,513.14 1086.33,523.04 1090.92,527.07 1104.97,527.07 1109.91,524.78 1109.91,511.81 1102.71,503.34 1090.7,503.34 "/>
<polygon fill="#D60023" points="1116.95,513.14 1116.95,523.04 1121.54,527.07 1135.6,527.07 1140.53,524.78 1140.53,511.81 1133.34,503.34 1121.32,503.34 "/>
<polygon fill="#D60023" points="1146.96,512.68 1146.96,522.58 1151.56,526.61 1165.61,526.61 1170.54,524.32 1170.54,511.35 1163.35,502.88 1151.33,502.88 "/>
<polygon fill="#D60023" points="1175.44,512.68 1175.44,522.58 1180.04,526.61 1194.09,526.61 1199.02,524.32 1199.02,511.35 1191.83,502.88 1179.81,502.88 "/>
<polygon fill="#D60023" points="1204.54,512.68 1204.54,522.58 1209.13,526.61 1223.18,526.61 1228.12,524.32 1228.12,511.35 1220.92,502.88 1208.91,502.88 "/>
<polygon fill="#D60023" points="1233.48,513.14 1233.48,523.04 1238.07,527.07 1252.12,527.07 1257.06,524.78 1257.06,511.81 1249.86,503.34 1237.85,503.34 "/>
<polygon fill="#D60023" points="995.38,544.68 995.38,554.58 999.97,558.62 1014.02,558.62 1018.96,556.32 1018.96,543.35 1011.76,534.88 999.75,534.88 "/>
<polygon fill="#D60023" points="1024.32,545.14 1024.32,555.04 1028.91,559.08 1042.96,559.08 1047.9,556.78 1047.9,543.81 1040.7,535.34 1028.69,535.34 "/>
<polygon fill="#D60023" points="1058.16,544.99 1058.16,554.89 1062.75,558.92 1076.8,558.92 1081.74,556.63 1081.74,543.66 1074.54,535.19 1062.53,535.19 "/>
<polygon fill="#D60023" points="1087.1,544.99 1087.1,554.89 1091.69,558.92 1105.74,558.92 1110.68,556.63 1110.68,543.66 1103.48,535.19 1091.47,535.19 "/>
<polygon fill="#D60023" points="1117.72,544.99 1117.72,554.89 1122.32,558.92 1136.37,558.92 1141.3,556.63 1141.3,543.66 1134.11,535.19 1122.09,535.19 "/>
<polygon fill="#D60023" points="1147.73,544.53 1147.73,554.43 1152.33,558.46 1166.38,558.46 1171.31,556.17 1171.31,543.2 1164.12,534.73 1152.1,534.73 "/>
<polygon fill="#D60023" points="1176.21,544.53 1176.21,554.43 1180.81,558.46 1194.86,558.46 1199.79,556.17 1199.79,543.2 1192.6,534.73 1180.58,534.73 "/>
<polygon fill="#D60023" points="1205.31,544.53 1205.31,554.43 1209.9,558.46 1223.95,558.46 1228.89,556.17 1228.89,543.2 1221.69,534.73 1209.68,534.73 "/>
<polygon fill="#D60023" points="1234.25,544.99 1234.25,554.89 1238.84,558.92 1252.89,558.92 1257.83,556.63 1257.83,543.66 1250.63,535.19 1238.62,535.19 "/>
<polygon fill="#D60023" points="978.41,576.99 978.41,586.89 983,590.92 997.05,590.92 1001.99,588.63 1001.99,575.66 994.79,567.19 982.77,567.19 "/>
<polygon fill="#D60023" points="1007.35,577.45 1007.35,587.35 1011.94,591.38 1025.99,591.38 1030.93,589.09 1030.93,576.12 1023.73,567.65 1011.71,567.65 "/>
<polygon fill="#D60023" points="1041.19,577.3 1041.19,587.19 1045.78,591.23 1059.83,591.23 1064.77,588.93 1064.77,575.97 1057.57,567.5 1045.55,567.5 "/>
<polygon fill="#D60023" points="1070.12,577.3 1070.12,587.19 1074.72,591.23 1088.77,591.23 1093.71,588.93 1093.71,575.97 1086.51,567.5 1074.49,567.5 "/>
<polygon fill="#D60023" points="1100.75,577.3 1100.75,587.19 1105.34,591.23 1119.4,591.23 1124.33,588.93 1124.33,575.97 1117.13,567.5 1105.12,567.5 "/>
<polygon fill="#D60023" points="1130.76,576.84 1130.76,586.74 1135.35,590.77 1149.41,590.77 1154.34,588.47 1154.34,575.51 1147.15,567.04 1135.13,567.04 "/>
<polygon fill="#D60023" points="1159.24,576.84 1159.24,586.74 1163.84,590.77 1177.89,590.77 1182.82,588.47 1182.82,575.51 1175.63,567.04 1163.61,567.04 "/>
<polygon fill="#D60023" points="1188.33,576.84 1188.33,586.74 1192.93,590.77 1206.98,590.77 1211.92,588.47 1211.92,575.51 1204.72,567.04 1192.7,567.04 "/>
<polygon fill="#D60023" points="1217.27,577.3 1217.27,587.19 1221.87,591.23 1235.92,591.23 1240.86,588.93 1240.86,575.97 1233.66,567.5 1221.64,567.5 "/>
<polygon fill="#D60023" points="979.29,609.77 979.29,619.67 983.88,623.7 997.94,623.7 1002.87,621.41 1002.87,608.44 995.68,599.97 983.66,599.97 "/>
<polygon fill="#D60023" points="1008.23,610.23 1008.23,620.13 1012.82,624.16 1026.88,624.16 1031.81,621.87 1031.81,608.9 1024.62,600.43 1012.6,600.43 "/>
<polygon fill="#D60023" points="1042.07,610.08 1042.07,619.97 1046.66,624.01 1060.72,624.01 1065.65,621.71 1065.65,608.75 1058.45,600.28 1046.44,600.28 "/>
<polygon fill="#D60023" points="1071.01,610.08 1071.01,619.97 1075.6,624.01 1089.66,624.01 1094.59,621.71 1094.59,608.75 1087.39,600.28 1075.38,600.28 "/>
<polygon fill="#D60023" points="1101.64,610.08 1101.64,619.97 1106.23,624.01 1120.28,624.01 1125.22,621.71 1125.22,608.75 1118.02,600.28 1106,600.28 "/>
<polygon fill="#D60023" points="1131.65,609.62 1131.65,619.51 1136.24,623.55 1150.29,623.55 1155.23,621.25 1155.23,608.29 1148.03,599.82 1136.02,599.82 "/>
<polygon fill="#D60023" points="1160.13,609.62 1160.13,619.51 1164.72,623.55 1178.77,623.55 1183.71,621.25 1183.71,608.29 1176.51,599.82 1164.5,599.82 "/>
<polygon fill="#D60023" points="1189.22,609.62 1189.22,619.51 1193.81,623.55 1207.87,623.55 1212.8,621.25 1212.8,608.29 1205.6,599.82 1193.59,599.82 "/>
<polygon fill="#D60023" points="1218.16,610.08 1218.16,619.97 1222.75,624.01 1236.81,624.01 1241.74,621.71 1241.74,608.75 1234.54,600.28 1222.53,600.28 "/>
<polygon fill="#D60023" points="981.37,646.36 981.37,656.25 985.96,660.29 1000.01,660.29 1004.95,657.99 1004.95,645.03 997.75,636.56 985.74,636.56 "/>
<polygon fill="#D60023" points="1010.31,646.82 1010.31,656.71 1014.9,660.75 1028.95,660.75 1033.89,658.45 1033.89,645.49 1026.69,637.02 1014.68,637.02 "/>
<polygon fill="#D60023" points="1044.15,646.66 1044.15,656.56 1048.74,660.6 1062.79,660.6 1067.73,658.3 1067.73,645.33 1060.53,636.86 1048.52,636.86 "/>
<polygon fill="#D60023" points="1073.09,646.66 1073.09,656.56 1077.68,660.6 1091.73,660.6 1096.67,658.3 1096.67,645.33 1089.47,636.86 1077.46,636.86 "/>
<polygon fill="#D60023" points="1103.71,646.66 1103.71,656.56 1108.31,660.6 1122.36,660.6 1127.29,658.3 1127.29,645.33 1120.1,636.86 1108.08,636.86 "/>
<polygon fill="#D60023" points="1133.72,646.2 1133.72,656.1 1138.32,660.14 1152.37,660.14 1157.3,657.84 1157.3,644.87 1150.11,636.4 1138.09,636.4 "/>
<polygon fill="#D60023" points="1162.2,646.2 1162.2,656.1 1166.8,660.14 1180.85,660.14 1185.78,657.84 1185.78,644.87 1178.59,636.4 1166.57,636.4 "/>
<polygon fill="#D60023" points="1191.3,646.2 1191.3,656.1 1195.89,660.14 1209.94,660.14 1214.88,657.84 1214.88,644.87 1207.68,636.4 1195.67,636.4 "/>
<polygon fill="#D60023" points="1220.24,646.66 1220.24,656.56 1224.83,660.6 1238.88,660.6 1243.82,658.3 1243.82,645.33 1236.62,636.86 1224.61,636.86 "/>
<polygon fill="#D60023" points="982.25,680.66 982.25,690.55 986.85,694.59 1000.9,694.59 1005.83,692.29 1005.83,679.33 998.64,670.86 986.62,670.86 "/>
<polygon fill="#D60023" points="1011.19,681.12 1011.19,691.01 1015.79,695.05 1029.84,695.05 1034.77,692.75 1034.77,679.79 1027.58,671.32 1015.56,671.32 "/>
<polygon fill="#D60023" points="1045.03,680.96 1045.03,690.86 1049.63,694.9 1063.68,694.9 1068.61,692.6 1068.61,679.63 1061.42,671.16 1049.4,671.16 "/>
<polygon fill="#D60023" points="1073.97,680.96 1073.97,690.86 1078.57,694.9 1092.62,694.9 1097.55,692.6 1097.55,679.63 1090.36,671.16 1078.34,671.16 "/>
<polygon fill="#D60023" points="1104.6,680.96 1104.6,690.86 1109.19,694.9 1123.24,694.9 1128.18,692.6 1128.18,679.63 1120.98,671.16 1108.97,671.16 "/>
<polygon fill="#D60023" points="1134.61,680.5 1134.61,690.4 1139.2,694.44 1153.26,694.44 1158.19,692.14 1158.19,679.17 1150.99,670.7 1138.98,670.7 "/>
<polygon fill="#D60023" points="1163.09,680.5 1163.09,690.4 1167.68,694.44 1181.74,694.44 1186.67,692.14 1186.67,679.17 1179.47,670.7 1167.46,670.7 "/>
<polygon fill="#D60023" points="1192.18,680.5 1192.18,690.4 1196.78,694.44 1210.83,694.44 1215.76,692.14 1215.76,679.17 1208.57,670.7 1196.55,670.7 "/>
<polygon fill="#D60023" points="1221.12,680.96 1221.12,690.86 1225.72,694.9 1239.77,694.9 1244.7,692.6 1244.7,679.63 1237.51,671.16 1225.49,671.16 "/>
<polygon fill="#D60023" points="983.14,713.44 983.14,723.33 987.73,727.37 1001.79,727.37 1006.72,725.07 1006.72,712.11 999.52,703.64 987.51,703.64 "/>
<polygon fill="#D60023" points="1012.08,713.9 1012.08,723.79 1016.67,727.83 1030.73,727.83 1035.66,725.53 1035.66,712.57 1028.46,704.1 1016.45,704.1 "/>
<polygon fill="#D60023" points="1045.92,713.74 1045.92,723.64 1050.51,727.68 1064.57,727.68 1069.5,725.38 1069.5,712.41 1062.3,703.94 1050.29,703.94 "/>
<polygon fill="#D60023" points="1074.86,713.74 1074.86,723.64 1079.45,727.68 1093.51,727.68 1098.44,725.38 1098.44,712.41 1091.24,703.94 1079.23,703.94 "/>
<polygon fill="#D60023" points="1105.48,713.74 1105.48,723.64 1110.08,727.68 1124.13,727.68 1129.06,725.38 1129.06,712.41 1121.87,703.94 1109.85,703.94 "/>
<polygon fill="#D60023" points="1135.5,713.28 1135.5,723.18 1140.09,727.22 1154.14,727.22 1159.08,724.92 1159.08,711.95 1151.88,703.48 1139.86,703.48 "/>
<polygon fill="#D60023" points="1163.98,713.28 1163.98,723.18 1168.57,727.22 1182.62,727.22 1187.56,724.92 1187.56,711.95 1180.36,703.48 1168.35,703.48 "/>
<polygon fill="#D60023" points="1193.07,713.28 1193.07,723.18 1197.66,727.22 1211.72,727.22 1216.65,724.92 1216.65,711.95 1209.45,703.48 1197.44,703.48 "/>
<polygon fill="#D60023" points="1222.01,713.74 1222.01,723.64 1226.6,727.68 1240.66,727.68 1245.59,725.38 1245.59,712.41 1238.39,703.94 1226.38,703.94 "/>
<polygon fill="#D60023" points="985.22,750.02 985.22,759.92 989.81,763.96 1003.86,763.96 1008.8,761.66 1008.8,748.69 1001.6,740.22 989.59,740.22 "/>
<polygon fill="#D60023" points="1014.16,750.48 1014.16,760.38 1018.75,764.42 1032.8,764.42 1037.74,762.12 1037.74,749.15 1030.54,740.68 1018.53,740.68 "/>
<polygon fill="#D60023" points="1048,750.33 1048,760.23 1052.59,764.26 1066.64,764.26 1071.58,761.97 1071.58,749 1064.38,740.53 1052.37,740.53 "/>
<polygon fill="#D60023" points="1076.94,750.33 1076.94,760.23 1081.53,764.26 1095.58,764.26 1100.52,761.97 1100.52,749 1093.32,740.53 1081.31,740.53 "/>
<polygon fill="#D60023" points="1107.56,750.33 1107.56,760.23 1112.15,764.26 1126.21,764.26 1131.14,761.97 1131.14,749 1123.94,740.53 1111.93,740.53 "/>
<polygon fill="#D60023" points="1137.57,749.87 1137.57,759.77 1142.17,763.8 1156.22,763.8 1161.15,761.51 1161.15,748.54 1153.96,740.07 1141.94,740.07 "/>
<polygon fill="#D60023" points="1166.05,749.87 1166.05,759.77 1170.65,763.8 1184.7,763.8 1189.63,761.51 1189.63,748.54 1182.44,740.07 1170.42,740.07 "/>
<polygon fill="#D60023" points="1195.15,749.87 1195.15,759.77 1199.74,763.8 1213.79,763.8 1218.73,761.51 1218.73,748.54 1211.53,740.07 1199.51,740.07 "/>
<polygon fill="#D60023" points="1224.09,750.33 1224.09,760.23 1228.68,764.26 1242.73,764.26 1247.67,761.97 1247.67,749 1240.47,740.53 1228.45,740.53 "/>
<polygon fill="#D60023" points="985.75,787.03 985.75,796.92 990.34,800.96 1004.39,800.96 1009.33,798.66 1009.33,785.7 1002.13,777.23 990.12,777.23 "/>
<polygon fill="#D60023" points="1014.69,787.49 1014.69,797.38 1019.28,801.42 1033.33,801.42 1038.27,799.12 1038.27,786.16 1031.07,777.69 1019.06,777.69 "/>
<polygon fill="#D60023" points="1048.53,787.33 1048.53,797.23 1053.12,801.27 1067.17,801.27 1072.11,798.97 1072.11,786 1064.91,777.53 1052.9,777.53 "/>
<polygon fill="#D60023" points="1077.47,787.33 1077.47,797.23 1082.06,801.27 1096.11,801.27 1101.05,798.97 1101.05,786 1093.85,777.53 1081.84,777.53 "/>
<polygon fill="#D60023" points="1108.09,787.33 1108.09,797.23 1112.69,801.27 1126.74,801.27 1131.67,798.97 1131.67,786 1124.48,777.53 1112.46,777.53 "/>
<polygon fill="#D60023" points="1138.1,786.87 1138.1,796.77 1142.7,800.81 1156.75,800.81 1161.68,798.51 1161.68,785.54 1154.49,777.07 1142.47,777.07 "/>
<polygon fill="#D60023" points="1166.58,786.87 1166.58,796.77 1171.18,800.81 1185.23,800.81 1190.16,798.51 1190.16,785.54 1182.97,777.07 1170.95,777.07 "/>
<polygon fill="#D60023" points="1195.68,786.87 1195.68,796.77 1200.27,800.81 1214.32,800.81 1219.26,798.51 1219.26,785.54 1212.06,777.07 1200.05,777.07 "/>
<polygon fill="#D60023" points="1224.62,787.33 1224.62,797.23 1229.21,801.27 1243.26,801.27 1248.2,798.97 1248.2,786 1241,777.53 1228.99,777.53 "/>
<polygon fill="#D60023" points="987.4,824.19 987.4,834.09 992,838.13 1006.05,838.13 1010.99,835.83 1010.99,822.86 1003.79,814.39 991.77,814.39 "/>
<polygon fill="#D60023" points="1016.34,824.65 1016.34,834.55 1020.94,838.59 1034.99,838.59 1039.93,836.29 1039.93,823.32 1032.73,814.85 1020.71,814.85 "/>
<polygon fill="#D60023" points="1050.18,824.5 1050.18,834.4 1054.78,838.43 1068.83,838.43 1073.77,836.14 1073.77,823.17 1066.57,814.7 1054.55,814.7 "/>
<polygon fill="#D60023" points="1079.12,824.5 1079.12,834.4 1083.72,838.43 1097.77,838.43 1102.71,836.14 1102.71,823.17 1095.51,814.7 1083.49,814.7 "/>
<polygon fill="#D60023" points="1109.75,824.5 1109.75,834.4 1114.34,838.43 1128.39,838.43 1133.33,836.14 1133.33,823.17 1126.13,814.7 1114.12,814.7 "/>
<polygon fill="#D60023" points="1139.76,824.04 1139.76,833.94 1144.35,837.97 1158.41,837.97 1163.34,835.68 1163.34,822.71 1156.14,814.24 1144.13,814.24 "/>
<polygon fill="#D60023" points="1168.24,824.04 1168.24,833.94 1172.83,837.97 1186.89,837.97 1191.82,835.68 1191.82,822.71 1184.62,814.24 1172.61,814.24 "/>
<polygon fill="#D60023" points="1197.33,824.04 1197.33,833.94 1201.93,837.97 1215.98,837.97 1220.91,835.68 1220.91,822.71 1213.72,814.24 1201.7,814.24 "/>
<polygon fill="#D60023" points="1226.27,824.5 1226.27,834.4 1230.87,838.43 1244.92,838.43 1249.85,836.14 1249.85,823.17 1242.66,814.7 1230.64,814.7 "/>
<polygon fill="#D60023" points="987.26,856.5 987.26,866.4 991.86,870.43 1005.91,870.43 1010.85,868.14 1010.85,855.17 1003.65,846.7 991.63,846.7 "/>
<polygon fill="#D60023" points="1016.2,856.96 1016.2,866.86 1020.8,870.89 1034.85,870.89 1039.79,868.6 1039.79,855.63 1032.59,847.16 1020.57,847.16 "/>
<polygon fill="#D60023" points="1050.04,856.81 1050.04,866.7 1054.64,870.74 1068.69,870.74 1073.62,868.44 1073.62,855.48 1066.43,847.01 1054.41,847.01 "/>
<polygon fill="#D60023" points="1078.98,856.81 1078.98,866.7 1083.58,870.74 1097.63,870.74 1102.56,868.44 1102.56,855.48 1095.37,847.01 1083.35,847.01 "/>
<polygon fill="#D60023" points="1109.61,856.81 1109.61,866.7 1114.2,870.74 1128.25,870.74 1133.19,868.44 1133.19,855.48 1125.99,847.01 1113.98,847.01 "/>
<polygon fill="#D60023" points="1139.62,856.35 1139.62,866.24 1144.21,870.28 1158.27,870.28 1163.2,867.98 1163.2,855.02 1156,846.55 1143.99,846.55 "/>
<polygon fill="#D60023" points="1168.1,856.35 1168.1,866.24 1172.69,870.28 1186.75,870.28 1191.68,867.98 1191.68,855.02 1184.48,846.55 1172.47,846.55 "/>
<polygon fill="#D60023" points="1197.19,856.35 1197.19,866.24 1201.79,870.28 1215.84,870.28 1220.77,867.98 1220.77,855.02 1213.58,846.55 1201.56,846.55 "/>
<polygon fill="#D60023" points="1226.13,856.81 1226.13,866.7 1230.73,870.74 1244.78,870.74 1249.71,868.44 1249.71,855.48 1242.52,847.01 1230.5,847.01 "/>
<polygon fill="#D60023" points="135.58,856.89 135.58,866.79 140.17,870.83 154.22,870.83 159.16,868.53 159.16,855.56 151.96,847.09 139.95,847.09 "/>
<polygon fill="#D60023" points="164.52,856.89 164.52,866.79 169.11,870.83 183.16,870.83 188.1,868.53 188.1,855.56 180.9,847.09 168.89,847.09 "/>
<polygon fill="#D60023" points="195.14,856.89 195.14,866.79 199.74,870.83 213.79,870.83 218.72,868.53 218.72,855.56 211.53,847.09 199.51,847.09 "/>
<polygon fill="#D60023" points="225.15,856.43 225.15,866.33 229.75,870.37 243.8,870.37 248.74,868.07 248.74,855.1 241.54,846.63 229.52,846.63 "/>
<polygon fill="#D60023" points="253.64,856.43 253.64,866.33 258.23,870.37 272.28,870.37 277.22,868.07 277.22,855.1 270.02,846.63 258,846.63 "/>
<polygon fill="#D60023" points="282.73,856.43 282.73,866.33 287.32,870.37 301.37,870.37 306.31,868.07 306.31,855.1 299.11,846.63 287.1,846.63 "/>
<polygon fill="#D60023" points="311.67,856.89 311.67,866.79 316.26,870.83 330.31,870.83 335.25,868.53 335.25,855.56 328.05,847.09 316.04,847.09 "/>
<polygon fill="#D60023" points="345.51,856.74 345.51,866.64 350.1,870.67 364.15,870.67 369.09,868.38 369.09,855.41 361.89,846.94 349.88,846.94 "/>
<polygon fill="#D60023" points="374.45,856.74 374.45,866.64 379.04,870.67 393.09,870.67 398.03,868.38 398.03,855.41 390.83,846.94 378.82,846.94 "/>
<polygon fill="#D60023" points="407.96,857.09 407.96,866.99 412.55,871.02 426.6,871.02 431.54,868.73 431.54,855.76 424.34,847.29 412.32,847.29 "/>
<polygon fill="#D60023" points="437.97,856.63 437.97,866.53 442.56,870.56 456.61,870.56 461.55,868.27 461.55,855.3 454.35,846.83 442.34,846.83 "/>
<polygon fill="#D60023" points="466.45,856.63 466.45,866.53 471.04,870.56 485.09,870.56 490.03,868.27 490.03,855.3 482.83,846.83 470.82,846.83 "/>
<polygon fill="#D60023" points="495.54,856.63 495.54,866.53 500.13,870.56 514.19,870.56 519.12,868.27 519.12,855.3 511.92,846.83 499.91,846.83 "/>
<polygon fill="#D60023" points="524.48,857.09 524.48,866.99 529.07,871.02 543.13,871.02 548.06,868.73 548.06,855.76 540.86,847.29 528.85,847.29 "/>
<polygon fill="#D60023" points="1264.42,511.71 1264.42,521.61 1269.01,525.65 1283.06,525.65 1288,523.35 1288,510.39 1280.8,501.92 1268.79,501.92 "/>
<polygon fill="#D60023" points="1265.19,543.57 1265.19,553.46 1269.78,557.5 1283.84,557.5 1288.77,555.2 1288.77,542.24 1281.57,533.77 1269.56,533.77 "/>
<polygon fill="#D60023" points="1265.05,575.87 1265.05,585.77 1269.64,589.81 1283.7,589.81 1288.63,587.51 1288.63,574.54 1281.43,566.07 1269.42,566.07 "/>
<polygon fill="#D60023" points="1249.1,608.65 1249.1,618.55 1253.7,622.59 1267.75,622.59 1272.68,620.29 1272.68,607.32 1265.49,598.85 1253.47,598.85 "/>
<polygon fill="#D60023" points="1251.18,645.24 1251.18,655.14 1255.77,659.17 1269.83,659.17 1274.76,656.88 1274.76,643.91 1267.56,635.44 1255.55,635.44 "/>
<polygon fill="#D60023" points="1252.07,679.54 1252.07,689.44 1256.66,693.47 1270.71,693.47 1275.65,691.18 1275.65,678.21 1268.45,669.74 1256.43,669.74 "/>
<polygon fill="#D60023" points="1252.95,712.32 1252.95,722.22 1257.55,726.25 1271.6,726.25 1276.53,723.96 1276.53,710.99 1269.34,702.52 1257.32,702.52 "/>
<polygon fill="#D60023" points="1255.03,748.91 1255.03,758.8 1259.62,762.84 1273.67,762.84 1278.61,760.54 1278.61,747.58 1271.41,739.11 1259.4,739.11 "/>
<polygon fill="#D60023" points="1255.56,785.91 1255.56,795.81 1260.15,799.84 1274.21,799.84 1279.14,797.55 1279.14,784.58 1271.94,776.11 1259.93,776.11 "/>
<polygon fill="#D60023" points="1257.22,823.07 1257.22,832.97 1261.81,837.01 1275.86,837.01 1280.8,834.71 1280.8,821.75 1273.6,813.28 1261.59,813.28 "/>
<polygon fill="#D60023" points="1257.08,855.38 1257.08,865.28 1261.67,869.32 1275.72,869.32 1280.66,867.02 1280.66,854.05 1273.46,845.58 1261.45,845.58 "/>
<polygon fill="#D60023" points="1295.87,511.71 1295.87,521.61 1300.46,525.65 1314.52,525.65 1319.45,523.35 1319.45,510.39 1312.25,501.92 1300.24,501.92 "/>
<polygon fill="#D60023" points="1296.64,543.57 1296.64,553.46 1301.23,557.5 1315.29,557.5 1320.22,555.2 1320.22,542.24 1313.02,533.77 1301.01,533.77 "/>
<polygon fill="#D60023" points="1296.5,575.87 1296.5,585.77 1301.09,589.81 1315.15,589.81 1320.08,587.51 1320.08,574.54 1312.88,566.07 1300.87,566.07 "/>
<polygon fill="#D60023" points="1280.55,608.65 1280.55,618.55 1285.15,622.59 1299.2,622.59 1304.13,620.29 1304.13,607.32 1296.94,598.85 1284.92,598.85 "/>
<polygon fill="#D60023" points="1282.63,645.24 1282.63,655.14 1287.22,659.17 1301.28,659.17 1306.21,656.88 1306.21,643.91 1299.01,635.44 1287,635.44 "/>
<polygon fill="#D60023" points="1283.52,679.54 1283.52,689.44 1288.11,693.47 1302.16,693.47 1307.1,691.18 1307.1,678.21 1299.9,669.74 1287.89,669.74 "/>
<polygon fill="#D60023" points="1284.4,712.32 1284.4,722.22 1289,726.25 1303.05,726.25 1307.98,723.96 1307.98,710.99 1300.79,702.52 1288.77,702.52 "/>
<polygon fill="#D60023" points="1286.48,748.91 1286.48,758.8 1291.07,762.84 1305.12,762.84 1310.06,760.54 1310.06,747.58 1302.86,739.11 1290.85,739.11 "/>
<polygon fill="#D60023" points="1287.01,785.91 1287.01,795.81 1291.6,799.84 1305.66,799.84 1310.59,797.55 1310.59,784.58 1303.39,776.11 1291.38,776.11 "/>
<polygon fill="#D60023" points="1288.67,823.07 1288.67,832.97 1293.26,837.01 1307.31,837.01 1312.25,834.71 1312.25,821.75 1305.05,813.28 1293.04,813.28 "/>
<polygon fill="#D60023" points="1288.53,855.38 1288.53,865.28 1293.12,869.32 1307.17,869.32 1312.11,867.02 1312.11,854.05 1304.91,845.58 1292.9,845.58 "/>
<polygon fill="#D60023" points="1313.33,608.65 1313.33,618.55 1317.93,622.59 1331.98,622.59 1336.91,620.29 1336.91,607.32 1329.72,598.85 1317.7,598.85 "/>
<polygon fill="#D60023" points="1315.41,645.24 1315.41,655.14 1320,659.17 1334.06,659.17 1338.99,656.88 1338.99,643.91 1331.79,635.44 1319.78,635.44 "/>
<polygon fill="#D60023" points="1316.3,679.54 1316.3,689.44 1320.89,693.47 1334.94,693.47 1339.88,691.18 1339.88,678.21 1332.68,669.74 1320.66,669.74 "/>
<polygon fill="#D60023" points="1317.18,712.32 1317.18,722.22 1321.78,726.25 1335.83,726.25 1340.76,723.96 1340.76,710.99 1333.57,702.52 1321.55,702.52 "/>
<polygon fill="#D60023" points="1319.26,748.91 1319.26,758.8 1323.85,762.84 1337.9,762.84 1342.84,760.54 1342.84,747.58 1335.64,739.11 1323.63,739.11 "/>
<polygon fill="#D60023" points="1319.79,785.91 1319.79,795.81 1324.38,799.84 1338.44,799.84 1343.37,797.55 1343.37,784.58 1336.17,776.11 1324.16,776.11 "/>
<polygon fill="#D60023" points="1321.45,823.07 1321.45,832.97 1326.04,837.01 1340.09,837.01 1345.03,834.71 1345.03,821.75 1337.83,813.28 1325.81,813.28 "/>
<polygon fill="#D60023" points="1321.31,855.38 1321.31,865.28 1325.9,869.32 1339.95,869.32 1344.89,867.02 1344.89,854.05 1337.69,845.58 1325.67,845.58 "/>
<polygon fill="#D60023" points="54.91,326.51 54.91,353.13 67.27,363.99 105.06,363.99 118.34,357.81 118.34,322.93 98.98,300.15 66.66,300.15 "/>
<polygon fill="#D60023" points="54.91,411.35 54.91,437.97 67.27,448.82 105.06,448.82 118.34,442.65 118.34,407.77 98.98,384.99 66.66,384.99 "/>
<polygon fill="#D60023" points="16.82,483.85 16.82,494.55 21.79,498.92 36.98,498.92 42.32,496.43 42.32,482.41 34.54,473.26 21.55,473.26 "/>
<polygon fill="#D60023" points="49.93,483.85 49.93,494.55 54.9,498.92 70.09,498.92 75.43,496.43 75.43,482.41 67.65,473.26 54.66,473.26 "/>
<polygon fill="#D60023" points="82.38,483.35 82.38,494.06 87.35,498.42 102.54,498.42 107.87,495.94 107.87,481.92 100.09,472.76 87.1,472.76 "/>
<polygon fill="#D60023" points="16.62,522.93 16.62,533.63 21.59,538 36.78,538 42.11,535.51 42.11,521.5 34.33,512.34 21.34,512.34 "/>
<polygon fill="#D60023" points="49.73,522.93 49.73,533.63 54.7,538 69.89,538 75.22,535.51 75.22,521.5 67.44,512.34 54.45,512.34 "/>
<polygon fill="#D60023" points="82.18,522.44 82.18,533.14 87.14,537.5 102.33,537.5 107.67,535.02 107.67,521 99.89,511.84 86.9,511.84 "/>
<polygon fill="#D60023" points="31.73,560.94 31.73,571.64 36.69,576.01 51.89,576.01 57.22,573.52 57.22,559.5 49.44,550.35 36.45,550.35 "/>
<polygon fill="#D60023" points="64.17,560.44 64.17,571.15 69.14,575.51 84.33,575.51 89.67,573.03 89.67,559.01 81.89,549.85 68.9,549.85 "/>
<polygon fill="#D60023" points="94.97,560.44 94.97,571.15 99.93,575.51 115.12,575.51 120.46,573.03 120.46,559.01 112.68,549.85 99.69,549.85 "/>
<polygon fill="#D60023" points="31.58,595.87 31.58,606.57 36.54,610.93 51.73,610.93 57.07,608.45 57.07,594.43 49.29,585.28 36.3,585.28 "/>
<polygon fill="#D60023" points="64.02,595.37 64.02,606.07 68.99,610.44 84.18,610.44 89.52,607.96 89.52,593.94 81.74,584.78 68.75,584.78 "/>
<polygon fill="#D60023" points="94.81,595.37 94.81,606.07 99.78,610.44 114.97,610.44 120.31,607.96 120.31,593.94 112.53,584.78 99.54,584.78 "/>
<polygon fill="#D60023" points="32.53,631.31 32.53,642.01 37.5,646.37 52.69,646.37 58.03,643.89 58.03,629.87 50.25,620.71 37.26,620.71 "/>
<polygon fill="#D60023" points="64.98,630.81 64.98,641.51 69.95,645.88 85.14,645.88 90.47,643.39 90.47,629.38 82.69,620.22 69.7,620.22 "/>
<polygon fill="#D60023" points="95.77,630.81 95.77,641.51 100.74,645.88 115.93,645.88 121.27,643.39 121.27,629.38 113.48,620.22 100.49,620.22 "/>
<polygon fill="#D60023" points="34.78,670.86 34.78,681.57 39.74,685.93 54.94,685.93 60.27,683.45 60.27,669.43 52.49,660.27 39.5,660.27 "/>
<polygon fill="#D60023" points="67.23,670.37 67.23,681.07 72.19,685.43 87.38,685.43 92.72,682.95 92.72,668.93 84.94,659.77 71.95,659.77 "/>
<polygon fill="#D60023" points="98.02,670.37 98.02,681.07 102.98,685.43 118.18,685.43 123.51,682.95 123.51,668.93 115.73,659.77 102.74,659.77 "/>
<polygon fill="#D60023" points="35.66,710.96 35.66,721.66 40.63,726.02 55.82,726.02 61.15,723.54 61.15,709.52 53.37,700.36 40.38,700.36 "/>
<polygon fill="#D60023" points="68.11,710.46 68.11,721.16 73.07,725.53 88.27,725.53 93.6,723.04 93.6,709.03 85.82,699.87 72.83,699.87 "/>
<polygon fill="#D60023" points="98.9,710.46 98.9,721.16 103.86,725.53 119.06,725.53 124.39,723.04 124.39,709.03 116.61,699.87 103.62,699.87 "/>
<polygon fill="#D60023" points="35.51,745.89 35.51,756.59 40.47,760.95 55.67,760.95 61,758.47 61,744.45 53.22,735.29 40.23,735.29 "/>
<polygon fill="#D60023" points="67.96,745.39 67.96,756.09 72.92,760.46 88.11,760.46 93.45,757.97 93.45,743.96 85.67,734.8 72.68,734.8 "/>
<polygon fill="#D60023" points="98.75,745.39 98.75,756.09 103.71,760.46 118.91,760.46 124.24,757.97 124.24,743.96 116.46,734.8 103.47,734.8 "/>
<polygon fill="#D60023" points="36.47,781.33 36.47,792.03 41.43,796.39 56.63,796.39 61.96,793.91 61.96,779.89 54.18,770.73 41.19,770.73 "/>
<polygon fill="#D60023" points="68.91,780.83 68.91,791.53 73.88,795.9 89.07,795.9 94.41,793.41 94.41,779.39 86.63,770.24 73.64,770.24 "/>
<polygon fill="#D60023" points="99.7,780.83 99.7,791.53 104.67,795.9 119.86,795.9 125.2,793.41 125.2,779.39 117.42,770.24 104.43,770.24 "/>
<polygon fill="#D60023" points="38.71,820.88 38.71,831.58 43.68,835.95 58.87,835.95 64.21,833.46 64.21,819.45 56.42,810.29 43.43,810.29 "/>
<polygon fill="#D60023" points="71.16,820.39 71.16,831.09 76.12,835.45 91.32,835.45 96.65,832.97 96.65,818.95 88.87,809.79 75.88,809.79 "/>
<polygon fill="#D60023" points="101.95,820.39 101.95,831.09 106.92,835.45 122.11,835.45 127.44,832.97 127.44,818.95 119.66,809.79 106.67,809.79 "/>
<polygon fill="#D60023" points="37.3,856.23 37.3,866.94 42.27,871.3 57.46,871.3 62.79,868.82 62.79,854.8 55.01,845.64 42.02,845.64 "/>
<polygon fill="#D60023" points="69.75,855.74 69.75,866.44 74.71,870.8 89.91,870.8 95.24,868.32 95.24,854.3 87.46,845.14 74.47,845.14 "/>
<polygon fill="#D60023" points="100.54,855.74 100.54,866.44 105.5,870.8 120.7,870.8 126.03,868.32 126.03,854.3 118.25,845.14 105.26,845.14 "/>
<polygon fill="#D60023" points="1350.4,325.88 1350.4,352.5 1362.75,363.36 1400.55,363.36 1413.82,357.18 1413.82,322.31 1394.46,299.52 1362.15,299.52 "/>
<polygon fill="#D60023" points="1350.4,410.72 1350.4,437.34 1362.75,448.2 1400.55,448.2 1413.82,442.02 1413.82,407.14 1394.46,384.36 1362.15,384.36 "/>
<polygon fill="#D60023" points="1312.31,483.22 1312.31,493.92 1317.27,498.29 1332.47,498.29 1337.8,495.81 1337.8,481.79 1330.02,472.63 1317.03,472.63 "/>
<polygon fill="#D60023" points="1345.42,483.22 1345.42,493.92 1350.38,498.29 1365.58,498.29 1370.91,495.81 1370.91,481.79 1363.13,472.63 1350.14,472.63 "/>
<polygon fill="#D60023" points="1377.86,482.73 1377.86,493.43 1382.83,497.79 1398.02,497.79 1403.36,495.31 1403.36,481.29 1395.58,472.13 1382.59,472.13 "/>
<polygon fill="#D60023" points="1327.1,558.31 1327.1,569.01 1332.07,573.37 1347.26,573.37 1352.6,570.89 1352.6,556.87 1344.82,547.71 1331.83,547.71 "/>
<polygon fill="#D60023" points="1345.21,522.31 1345.21,533.01 1350.18,537.37 1365.37,537.37 1370.71,534.89 1370.71,520.87 1362.93,511.71 1349.94,511.71 "/>
<polygon fill="#D60023" points="1377.66,521.81 1377.66,532.51 1382.63,536.87 1397.82,536.87 1403.15,534.39 1403.15,520.37 1395.37,511.21 1382.38,511.21 "/>
<polygon fill="#D60023" points="1359.66,559.82 1359.66,570.52 1364.62,574.88 1379.82,574.88 1385.15,572.4 1385.15,558.38 1377.37,549.22 1364.38,549.22 "/>
<polygon fill="#D60023" points="1390.45,559.82 1390.45,570.52 1395.42,574.88 1410.61,574.88 1415.94,572.4 1415.94,558.38 1408.16,549.22 1395.17,549.22 "/>
<polygon fill="#D60023" points="1359.51,594.75 1359.51,605.45 1364.47,609.81 1379.66,609.81 1385,607.33 1385,593.31 1377.22,584.15 1364.23,584.15 "/>
<polygon fill="#D60023" points="1390.3,594.75 1390.3,605.45 1395.26,609.81 1410.46,609.81 1415.79,607.33 1415.79,593.31 1408.01,584.15 1395.02,584.15 "/>
<polygon fill="#D60023" points="1360.46,630.19 1360.46,640.89 1365.43,645.25 1380.62,645.25 1385.96,642.77 1385.96,628.75 1378.18,619.59 1365.19,619.59 "/>
<polygon fill="#D60023" points="1391.26,630.19 1391.26,640.89 1396.22,645.25 1411.41,645.25 1416.75,642.77 1416.75,628.75 1408.97,619.59 1395.98,619.59 "/>
<polygon fill="#D60023" points="1362.71,669.74 1362.71,680.44 1367.68,684.81 1382.87,684.81 1388.2,682.32 1388.2,668.3 1380.42,659.15 1367.43,659.15 "/>
<polygon fill="#D60023" points="1393.5,669.74 1393.5,680.44 1398.47,684.81 1413.66,684.81 1418.99,682.32 1418.99,668.3 1411.21,659.15 1398.22,659.15 "/>
<polygon fill="#D60023" points="1363.59,709.84 1363.59,720.54 1368.56,724.9 1383.75,724.9 1389.08,722.42 1389.08,708.4 1381.3,699.24 1368.31,699.24 "/>
<polygon fill="#D60023" points="1394.38,709.84 1394.38,720.54 1399.35,724.9 1414.54,724.9 1419.88,722.42 1419.88,708.4 1412.1,699.24 1399.11,699.24 "/>
<polygon fill="#D60023" points="1363.44,744.77 1363.44,755.47 1368.41,759.83 1383.6,759.83 1388.93,757.35 1388.93,743.33 1381.15,734.17 1368.16,734.17 "/>
<polygon fill="#D60023" points="1394.23,744.77 1394.23,755.47 1399.2,759.83 1414.39,759.83 1419.72,757.35 1419.72,743.33 1411.94,734.17 1398.95,734.17 "/>
<polygon fill="#D60023" points="1364.4,780.2 1364.4,790.91 1369.36,795.27 1384.56,795.27 1389.89,792.79 1389.89,778.77 1382.11,769.61 1369.12,769.61 "/>
<polygon fill="#D60023" points="1395.19,780.2 1395.19,790.91 1400.15,795.27 1415.35,795.27 1420.68,792.79 1420.68,778.77 1412.9,769.61 1399.91,769.61 "/>
<polygon fill="#D60023" points="1366.64,819.76 1366.64,830.46 1371.61,834.82 1386.8,834.82 1392.14,832.34 1392.14,818.32 1384.36,809.17 1371.37,809.17 "/>
<polygon fill="#D60023" points="1397.43,819.76 1397.43,830.46 1402.4,834.82 1417.59,834.82 1422.93,832.34 1422.93,818.32 1415.15,809.17 1402.16,809.17 "/>
<polygon fill="#D60023" points="1332.78,855.61 1332.78,866.31 1337.75,870.67 1352.94,870.67 1358.28,868.19 1358.28,854.17 1350.5,845.01 1337.51,845.01 "/>
<polygon fill="#D60023" points="1365.23,855.11 1365.23,865.81 1370.2,870.18 1385.39,870.18 1390.72,867.69 1390.72,853.67 1382.94,844.52 1369.95,844.52 "/>
<polygon fill="#D60023" points="1396.02,855.11 1396.02,865.81 1400.99,870.18 1416.18,870.18 1421.52,867.69 1421.52,853.67 1413.74,844.52 1400.75,844.52 "/>
</g>
<g id="f11_row2_purple_front" class="purple-front">
<polygon fill="#860256" points="142.25,701.65 142.25,742.83 187.87,811.06 253.43,829.66 309.13,829.66 353.1,799.1 365.58,765.66 377.91,710.51 366.39,670.2 367.72,605.97 330.95,587.36 280.45,597.55 206.92,602.87 186.1,644.51 "/>
<polygon fill="#860256" points="445.24,701.65 445.24,742.83 490.86,811.06 556.42,829.66 612.11,829.66 656.09,799.1 668.57,765.66 680.89,710.51 669.38,670.2 670.7,605.97 633.94,587.36 583.44,597.55 509.91,602.87 489.09,644.51 "/>
<polygon fill="#860256" points="744.68,693.68 744.68,734.86 790.3,803.09 855.86,821.69 911.56,821.69 955.53,791.13 968.01,757.68 980.34,702.53 968.82,662.22 970.15,598 933.38,579.39 882.88,589.58 809.35,594.89 788.53,636.53 "/>
<polygon fill="#860256" points="1047.67,693.68 1047.67,734.86 1093.29,803.09 1158.85,821.69 1214.54,821.69 1258.52,791.13 1271,757.68 1283.32,702.53 1271.81,662.22 1273.13,598 1236.37,579.39 1185.87,589.58 1112.34,594.89 1091.52,636.53 "/>
</g>
</g>
</svg>
