<?xml version="1.0" encoding="utf-8"?>
<svg version="1.1" xmlns="http://www.w3.org/2000/svg" viewBox="0 0 1440 900">
<rect id="f07_bg" class="scene-bg" opacity="0.6" fill="#FF9800" y="0" width="1440" height="900"/>
<g id="f07_back" class="layer-back">
<polygon fill="#5D2F47" points="4.17,472.39 53.14,456.56 96.45,456.56 130.37,440.25 181.23,428.7 273.91,437.54 357.16,412.39 417.82,389.63 487.51,369.58 564.74,375.7 652.52,321.68 787.77,267.66 895.52,233.68 986.68,254.07 1068.81,281.59 1173.54,341.72 1213.09,382.73 1280.16,574.8 1337.8,629.84 1378.86,701.19 1412.39,772.2 1437.85,807.97 1437.85,863.71 1415.41,864.27 1191.63,611.83 975.76,493.94 851.44,418.51 602.04,484.42 433.26,562.57 326.65,561.21 220.39,548.98 110.78,533.69 28.65,536.41 4.17,537.88 "/>
</g>
<g id="f07_left_blob" class="layer-left">
<polygon fill="#FF9800" points="254.35,496.45 297.05,496.45 326.84,641.25 348.97,442.59 388.2,453.6 415.3,419.83 438.49,419.83 389.89,685.46 397.31,899.24 295.26,899.24 "/>
<polyline fill="#FFA100" points="381.64,1.18 409.12,163.48 470.81,163.48 458.28,1.18 372.1,1.18 "/>
</g>
<g id="f07_center" class="layer-center">
<polygon fill="#FF7800" points="462.88,1.18 478.19,178.79 449.83,499.7 557.46,499.7 514.74,182.28 521.5,1.18 "/>
<polygon fill="#E07689" points="720.89,1.08 695.6,204.26 754.89,204.26 767.88,73.75 767.88,1.08 "/>
<polygon fill="#FFB8A2" points="687.48,479.73 687.48,720.34 687.48,899.14 752.84,899.14 772.75,504.48 794.78,397.95 759.76,397.95 741.13,469.53 723.62,377.66 687.48,377.66 "/>
<polygon fill="#FFAD00" points="814.95,198.92 767.28,387.19 809.92,392.54 857.56,204.72 "/>
<polygon fill="#FF9380" points="686.97,208.34 686.97,361.09 723.11,361.09 755.3,217.91 733.84,218.92 732.59,208.34 "/>
<polygon fill="#FFBD27" points="525.93,1.08 541.56,1.08 621.92,1.08 612.99,145.48 535.45,133.13 "/>
<polygon fill="#DFCBD7" points="648.78,1.09 619.15,144.74 694.66,162.48 712.77,1.04 "/>
<polygon fill="#FF7173" points="558.97,347.12 621.73,337.48 621.73,554.23 612.8,744.02 605.36,900.04 550.3,900.04 573.73,516.81 "/>
<polygon fill="#B76D54" points="632.15,424.15 670.71,424.15 678.12,900 615.02,900 "/>
<polygon fill="#FFBF79" points="619.25,146.8 687.58,165.45 679.13,335.43 627.72,332.28 "/>
<polygon fill="#FF9800" points="530.77,138.68 546.94,281.09 609.44,284.86 612.65,147.25 "/>
</g>
<g id="f07_mid" class="layer-mid">
<polygon fill="#FF7400" points="785.6,120.88 840.71,107.02 879.72,203.47 888.02,301.33 847.72,296.79 866.35,197.5 811.57,185.9 "/>
<polygon fill="#5A3B42" points="781.08,1.08 829.06,1.08 836.81,96.51 785.6,118.51 778.2,104.65 "/>
<polygon fill="#FF9800" points="898.96,1.08 944.36,1.08 933.79,103.35 898.96,100.68 "/>
<polygon fill="#E07689" points="899.42,102.51 889.96,163.65 894.69,231.14 922.12,231.14 933.12,105.69 "/>
<polygon fill="#5A3B42" points="888.94,325.34 915.93,325.34 921.73,240.92 893.68,235.26 "/>
<polygon fill="#A4858F" points="546.94,288.79 551.66,347.25 621.12,333.64 609.44,285.77 "/>
<polygon fill="#FAB96C" points="627.11,341.36 627.11,407.86 674.57,407.86 674.57,335.43 "/>
<polygon fill="#B76D54" points="1015.87,10.68 1029.54,64.68 1039.44,343.51 1130.75,333.21 1113.7,122.12 1124.05,10.68 "/>
<polygon fill="#FF9800" points="1039.44,351.86 1130.75,333.21 1130.75,407.57 1219.31,249.75 1238.01,261.04 1130.75,498.19 1138.73,636.73 1024.08,636.73 "/>
</g>
<g id="f07_right_bug" class="layer-right">
<polygon fill="#5F4047" points="1024.08,647.41 1024.08,896.36 1141,900.04 1141,647.41 "/>
<polygon fill="#B69E17" points="1167.85,10.68 1203.77,10.68 1191.09,177.1 1203.77,277.45 1221.51,400.46 1260.01,508.95 1213.93,527.8 1167.85,249.75 "/>
<polygon fill="#FF9380" points="1219.31,650.82 1282.64,650.82 1294.11,899.14 1229.12,899.14 "/>
<polygon fill="#D7C762" points="1244.61,10.68 1251.7,177.1 1289.16,183.97 1292.67,97.33 1276.73,10.68 "/>
<polygon fill="#DFCBD7" points="1249.01,185.44 1285.86,194.77 1274.31,373.46 1279.81,643.95 1219.31,643.95 1205.88,527.8 1221.51,400.46 "/>
</g>
<g id="f07_towers" class="layer-towers">
<polygon fill="#CDD700" points="1365.78,10.68 1365.61,167.77 1346.91,291.97 1285.86,291.97 1300.16,81.37 1280.91,10.68 "/>
<polygon fill="#5A3B42" points="1301.04,880.21 1415.52,899.14 1389.29,779.41 1367.94,651.14 1358.28,530.01 1351.13,412.55 1354.71,295.9 1286.14,297.78 1282.56,558.89 "/>
</g>
<g id="f07_ground" class="layer-ground">
<polygon opacity="0.9" fill="#CDD700" points="639.12,899.14 728.89,757.7 1037.1,693.22 1265.03,693.22 1408.15,816.63 1439.79,899.14 "/>
<polygon fill="#F8F8F8" fill-opacity="0.9" points="1068.53,773.27 1138.9,829.08 1089.46,864.41 1190.19,845.47 1245.59,858.93 1327.02,800.74 1161.67,812.81 "/>
</g>
</svg>
