<?xml version="1.0" encoding="utf-8"?>
<svg version="1.1" xmlns="http://www.w3.org/2000/svg" viewBox="0 0 1440 900">
<rect id="f13_bg" class="scene-bg" fill="#C2D1C0" width="1440" height="900"/>
<g id="f13_bg_layers" class="layer-bg">
<polygon fill="#B5849B" points="0,588.99 0,723.77 697,0 "/>
<polygon fill="#827E9F" points="1,137.08 552.99,2 648.81,2 1,532.1 "/>
<polygon opacity="0.8" fill="#C1BB51" points="1,899 1440,899 1439.74,858.94 1346.86,851.22 1213.4,770.05 1026.13,808.85 749.27,859.22 465.35,873.9 109.6,761.82 1,687.25 "/>
<polygon fill="#B2AB6A" points="0.71,0 472.62,0 311.25,30.12 200.89,63.13 106.79,22.43 45.62,81.67 1,97.68 "/>
<polygon opacity="0.9" fill="#C1BB51" points="1.42,272.22 170.15,242.35 326.85,202.1 498.77,124.77 737.12,77.29 895.86,95.38 1032.78,120.7 1376.16,19.86 1439,19.86 1438.97,71.43 1287.87,64.18 1065.75,168.19 708.72,185.82 472.1,272.22 220.35,371.68 1.27,431.37 "/>
<polygon fill="#B8BE82" points="-1,310.23 -1,435.43 184.3,372.83 577.32,195.82 817.18,181.77 662.44,121.21 512.73,135.23 371.24,235.61 135.03,381.23 "/>
<polygon fill="#D60023" points="107.1,520.51 107.1,530.62 111.59,534.74 125.35,534.74 130.18,532.39 130.18,519.16 123.14,510.51 111.37,510.51 "/>
<polygon fill="#D60023" points="135.43,520.51 135.43,530.62 139.92,534.74 153.68,534.74 158.51,532.39 158.51,519.16 151.46,510.51 139.7,510.51 "/>
<polygon fill="#D60023" points="165.4,520.51 165.4,530.62 169.9,534.74 183.66,534.74 188.49,532.39 188.49,519.16 181.44,510.51 169.68,510.51 "/>
<polygon fill="#D60023" points="194.78,520.04 194.78,530.15 199.28,534.27 213.03,534.27 217.86,531.92 217.86,518.69 210.82,510.04 199.06,510.04 "/>
<polygon fill="#D60023" points="222.66,520.04 222.66,530.15 227.16,534.27 240.91,534.27 245.74,531.92 245.74,518.69 238.7,510.04 226.94,510.04 "/>
<polygon fill="#D60023" points="383.79,592.68 383.79,602.79 388.29,606.91 402.05,606.91 406.88,604.56 406.88,591.33 399.83,582.68 388.07,582.68 "/>
<polygon fill="#D60023" points="383.66,625.66 383.66,635.77 388.15,639.89 401.91,639.89 406.74,637.55 406.74,624.31 399.7,615.66 387.93,615.66 "/>
<polygon fill="#D60023" points="384.53,659.13 384.53,669.23 389.02,673.35 402.78,673.35 407.61,671.01 407.61,657.77 400.56,649.12 388.8,649.12 "/>
<polygon fill="#D60023" points="412.4,659.13 412.4,669.23 416.9,673.35 430.66,673.35 435.49,671.01 435.49,657.77 428.44,649.12 416.68,649.12 "/>
<polygon fill="#D60023" points="440.88,659.13 440.88,669.23 445.38,673.35 459.14,673.35 463.97,671.01 463.97,657.77 456.92,649.12 445.16,649.12 "/>
<polygon fill="#D60023" points="469.21,659.6 469.21,669.7 473.71,673.82 487.46,673.82 492.29,671.48 492.29,658.24 485.25,649.59 473.49,649.59 "/>
<polygon fill="#D60023" points="386.56,696.48 386.56,706.58 391.05,710.71 404.81,710.71 409.64,708.36 409.64,695.12 402.6,686.48 390.83,686.48 "/>
<polygon fill="#D60023" points="414.44,696.48 414.44,706.58 418.93,710.71 432.69,710.71 437.52,708.36 437.52,695.12 430.48,686.48 418.71,686.48 "/>
<polygon fill="#D60023" points="442.92,696.48 442.92,706.58 447.41,710.71 461.17,710.71 466,708.36 466,695.12 458.95,686.48 447.19,686.48 "/>
<polygon fill="#D60023" points="471.24,696.95 471.24,707.05 475.74,711.17 489.5,711.17 494.33,708.83 494.33,695.59 487.28,686.94 475.52,686.94 "/>
<polygon fill="#D60023" points="387.36,734.34 387.36,744.44 391.85,748.57 405.61,748.57 410.44,746.22 410.44,732.98 403.39,724.34 391.63,724.34 "/>
<polygon fill="#D60023" points="415.24,734.34 415.24,744.44 419.73,748.57 433.49,748.57 438.32,746.22 438.32,732.98 431.27,724.34 419.51,724.34 "/>
<polygon fill="#D60023" points="443.71,734.34 443.71,744.44 448.21,748.57 461.97,748.57 466.8,746.22 466.8,732.98 459.75,724.34 447.99,724.34 "/>
<polygon fill="#D60023" points="472.04,734.81 472.04,744.91 476.54,749.03 490.3,749.03 495.13,746.69 495.13,733.45 488.08,724.8 476.32,724.8 "/>
<polygon fill="#D60023" points="387.22,767.32 387.22,777.43 391.72,781.55 405.47,781.55 410.3,779.2 410.3,765.97 403.26,757.32 391.5,757.32 "/>
<polygon fill="#D60023" points="415.1,767.32 415.1,777.43 419.59,781.55 433.35,781.55 438.18,779.2 438.18,765.97 431.14,757.32 419.37,757.32 "/>
<polygon fill="#D60023" points="443.58,767.32 443.58,777.43 448.07,781.55 461.83,781.55 466.66,779.2 466.66,765.97 459.61,757.32 447.85,757.32 "/>
<polygon fill="#D60023" points="471.91,767.79 471.91,777.9 476.4,782.02 490.16,782.02 494.99,779.67 494.99,766.43 487.94,757.79 476.18,757.79 "/>
<polygon fill="#D60023" points="388.09,800.79 388.09,810.89 392.58,815.01 406.34,815.01 411.17,812.67 411.17,799.43 404.12,790.78 392.36,790.78 "/>
<polygon fill="#D60023" points="472.77,801.26 472.77,811.36 477.27,815.48 491.03,815.48 495.86,813.14 495.86,799.9 488.81,791.25 477.05,791.25 "/>
<polygon fill="#D60023" points="390.12,838.14 390.12,848.24 394.62,852.36 408.37,852.36 413.2,850.02 413.2,836.78 406.16,828.13 394.4,828.13 "/>
<polygon fill="#D60023" points="446.48,838.14 446.48,848.24 450.97,852.36 464.73,852.36 469.56,850.02 469.56,836.78 462.51,828.13 450.75,828.13 "/>
<polygon fill="#D60023" points="474.81,838.61 474.81,848.71 479.3,852.83 493.06,852.83 497.89,850.49 497.89,837.25 490.84,828.6 479.08,828.6 "/>
<polygon fill="#D60023" points="769.77,586.91 769.77,597.01 774.27,601.13 788.02,601.13 792.85,598.79 792.85,585.55 785.81,576.9 774.05,576.9 "/>
<polygon fill="#D60023" points="827.03,586.44 827.03,596.54 831.53,600.66 845.28,600.66 850.11,598.32 850.11,585.08 843.07,576.43 831.31,576.43 "/>
<polygon fill="#D60023" points="855.51,586.44 855.51,596.54 860,600.66 873.76,600.66 878.59,598.32 878.59,585.08 871.55,576.43 859.78,576.43 "/>
<polygon fill="#D60023" points="883.84,586.91 883.84,597.01 888.33,601.13 902.09,601.13 906.92,598.79 906.92,585.55 899.87,576.9 888.11,576.9 "/>
<polygon fill="#D60023" points="771.8,624.26 771.8,634.36 776.3,638.48 790.06,638.48 794.89,636.14 794.89,622.9 787.84,614.25 776.08,614.25 "/>
<polygon fill="#D60023" points="829.06,623.79 829.06,633.89 833.56,638.01 847.31,638.01 852.14,635.67 852.14,622.43 845.1,613.78 833.34,613.78 "/>
<polygon fill="#D60023" points="857.54,623.79 857.54,633.89 862.04,638.01 875.79,638.01 880.62,635.67 880.62,622.43 873.58,613.78 861.82,613.78 "/>
<polygon fill="#D60023" points="885.87,624.26 885.87,634.36 890.37,638.48 904.12,638.48 908.95,636.14 908.95,622.9 901.91,614.25 890.15,614.25 "/>
<polygon fill="#D60023" points="567.93,662.36 567.93,672.46 572.43,676.58 586.18,676.58 591.01,674.24 591.01,661 583.97,652.35 572.21,652.35 "/>
<polygon fill="#D60023" points="653.66,661.89 653.66,671.99 658.16,676.11 671.92,676.11 676.75,673.77 676.75,660.53 669.7,651.88 657.94,651.88 "/>
<polygon fill="#D60023" points="715.12,662.2 715.12,672.3 719.62,676.42 733.37,676.42 738.2,674.08 738.2,660.84 731.16,652.2 719.4,652.2 "/>
<polygon fill="#D60023" points="743.45,662.2 743.45,672.3 747.94,676.42 761.7,676.42 766.53,674.08 766.53,660.84 759.49,652.2 747.72,652.2 "/>
<polygon fill="#D60023" points="773.43,662.2 773.43,672.3 777.92,676.42 791.68,676.42 796.51,674.08 796.51,660.84 789.46,652.2 777.7,652.2 "/>
<polygon fill="#D60023" points="802.8,661.73 802.8,671.84 807.3,675.96 821.06,675.96 825.89,673.61 825.89,660.37 818.84,651.73 807.08,651.73 "/>
<polygon fill="#D60023" points="830.68,661.73 830.68,671.84 835.18,675.96 848.94,675.96 853.77,673.61 853.77,660.37 846.72,651.73 834.96,651.73 "/>
<polygon fill="#D60023" points="859.16,661.73 859.16,671.84 863.66,675.96 877.41,675.96 882.24,673.61 882.24,660.37 875.2,651.73 863.44,651.73 "/>
<polygon fill="#D60023" points="887.49,662.2 887.49,672.3 891.99,676.42 905.74,676.42 910.57,674.08 910.57,660.84 903.53,652.2 891.77,652.2 "/>
<polygon fill="#D60023" points="681.86,695.34 681.86,705.44 686.35,709.56 700.11,709.56 704.94,707.22 704.94,693.98 697.89,685.33 686.13,685.33 "/>
<polygon fill="#D60023" points="714.98,695.18 714.98,705.29 719.48,709.41 733.23,709.41 738.06,707.06 738.06,693.83 731.02,685.18 719.26,685.18 "/>
<polygon fill="#D60023" points="743.31,695.18 743.31,705.29 747.81,709.41 761.56,709.41 766.39,707.06 766.39,693.83 759.35,685.18 747.59,685.18 "/>
<polygon fill="#D60023" points="568.66,728.8 568.66,738.91 573.16,743.03 586.91,743.03 591.74,740.68 591.74,727.45 584.7,718.8 572.94,718.8 "/>
<polygon fill="#D60023" points="654.39,728.33 654.39,738.44 658.89,742.56 672.65,742.56 677.48,740.21 677.48,726.98 670.43,718.33 658.67,718.33 "/>
<polygon fill="#D60023" points="715.85,728.65 715.85,738.75 720.35,742.87 734.1,742.87 738.93,740.53 738.93,727.29 731.89,718.64 720.13,718.64 "/>
<polygon fill="#D60023" points="774.16,728.65 774.16,738.75 778.65,742.87 792.41,742.87 797.24,740.53 797.24,727.29 790.19,718.64 778.43,718.64 "/>
<polygon fill="#D60023" points="656.43,765.69 656.43,775.79 660.92,779.91 674.68,779.91 679.51,777.57 679.51,764.33 672.47,755.68 660.7,755.68 "/>
<polygon fill="#D60023" points="746.21,766 746.21,776.1 750.71,780.22 764.46,780.22 769.29,777.88 769.29,764.64 762.25,755.99 750.49,755.99 "/>
<polygon fill="#D60023" points="833.45,765.53 833.45,775.63 837.94,779.75 851.7,779.75 856.53,777.41 856.53,764.17 849.48,755.52 837.72,755.52 "/>
<polygon fill="#D60023" points="657.29,800.7 657.29,810.81 661.79,814.93 675.55,814.93 680.38,812.58 680.38,799.34 673.33,790.7 661.57,790.7 "/>
<polygon fill="#D60023" points="685.62,801.17 685.62,811.27 690.12,815.4 703.88,815.4 708.71,813.05 708.71,799.81 701.66,791.17 689.9,791.17 "/>
<polygon fill="#D60023" points="718.75,801.01 718.75,811.12 723.25,815.24 737,815.24 741.83,812.89 741.83,799.66 734.79,791.01 723.03,791.01 "/>
<polygon fill="#D60023" points="747.08,801.01 747.08,811.12 751.57,815.24 765.33,815.24 770.16,812.89 770.16,799.66 763.12,791.01 751.35,791.01 "/>
<polygon fill="#D60023" points="806.43,800.54 806.43,810.65 810.93,814.77 824.69,814.77 829.52,812.42 829.52,799.19 822.47,790.54 810.71,790.54 "/>
<polygon fill="#D60023" points="834.31,800.54 834.31,810.65 838.81,814.77 852.57,814.77 857.4,812.42 857.4,799.19 850.35,790.54 838.59,790.54 "/>
<polygon fill="#D60023" points="514.12,834.63 514.12,844.74 518.62,848.86 532.37,848.86 537.2,846.51 537.2,833.28 530.16,824.63 518.4,824.63 "/>
<polygon fill="#D60023" points="542.45,834.63 542.45,844.74 546.94,848.86 560.7,848.86 565.53,846.51 565.53,833.28 558.49,824.63 546.72,824.63 "/>
<polygon fill="#D60023" points="572.43,834.63 572.43,844.74 576.92,848.86 590.68,848.86 595.51,846.51 595.51,833.28 588.46,824.63 576.7,824.63 "/>
<polygon fill="#D60023" points="601.8,834.16 601.8,844.27 606.3,848.39 620.06,848.39 624.89,846.05 624.89,832.81 617.84,824.16 606.08,824.16 "/>
<polygon fill="#D60023" points="629.68,834.16 629.68,844.27 634.18,848.39 647.94,848.39 652.77,846.05 652.77,832.81 645.72,824.16 633.96,824.16 "/>
<polygon fill="#D60023" points="686.49,834.63 686.49,844.74 690.99,848.86 704.74,848.86 709.57,846.51 709.57,833.28 702.53,824.63 690.77,824.63 "/>
<polygon fill="#D60023" points="719.62,834.48 719.62,844.58 724.11,848.7 737.87,848.7 742.7,846.36 742.7,833.12 735.65,824.47 723.89,824.47 "/>
<polygon fill="#D60023" points="777.92,834.48 777.92,844.58 782.42,848.7 796.18,848.7 801.01,846.36 801.01,833.12 793.96,824.47 782.2,824.47 "/>
<polygon fill="#D60023" points="891.99,834.48 891.99,844.58 896.49,848.7 910.24,848.7 915.07,846.36 915.07,833.12 908.03,824.47 896.27,824.47 "/>
<polygon fill="#D60023" points="516.15,871.99 516.15,882.09 520.65,886.21 534.4,886.21 539.23,883.87 539.23,870.63 532.19,861.98 520.43,861.98 "/>
<polygon fill="#D60023" points="544.48,871.99 544.48,882.09 548.98,886.21 562.73,886.21 567.56,883.87 567.56,870.63 560.52,861.98 548.76,861.98 "/>
<polygon fill="#D60023" points="603.84,871.52 603.84,881.62 608.33,885.74 622.09,885.74 626.92,883.4 626.92,870.16 619.87,861.51 608.11,861.51 "/>
<polygon fill="#D60023" points="631.72,871.52 631.72,881.62 636.21,885.74 649.97,885.74 654.8,883.4 654.8,870.16 647.75,861.51 635.99,861.51 "/>
<polygon fill="#D60023" points="660.19,871.52 660.19,881.62 664.69,885.74 678.45,885.74 683.28,883.4 683.28,870.16 676.23,861.51 664.47,861.51 "/>
<polygon fill="#D60023" points="749.98,871.83 749.98,881.93 754.47,886.05 768.23,886.05 773.06,883.71 773.06,870.47 766.02,861.82 754.25,861.82 "/>
<polygon fill="#D60023" points="837.21,871.36 837.21,881.46 841.71,885.58 855.47,885.58 860.3,883.24 860.3,870 853.25,861.36 841.49,861.36 "/>
<polygon fill="#D60023" points="894.02,871.83 894.02,881.93 898.52,886.05 912.27,886.05 917.1,883.71 917.1,870.47 910.06,861.82 898.3,861.82 "/>
<polygon fill="#D60023" points="920.69,586.4 920.69,596.5 925.19,600.62 938.94,600.62 943.77,598.28 943.77,585.04 936.73,576.39 924.97,576.39 "/>
<polygon fill="#D60023" points="949.02,586.87 949.02,596.97 953.52,601.09 967.27,601.09 972.1,598.75 972.1,585.51 965.06,576.86 953.3,576.86 "/>
<polygon fill="#D60023" points="982.15,586.71 982.15,596.82 986.64,600.94 1000.4,600.94 1005.23,598.59 1005.23,585.35 998.18,576.71 986.42,576.71 "/>
<polygon fill="#D60023" points="1010.47,586.71 1010.47,596.82 1014.97,600.94 1028.73,600.94 1033.56,598.59 1033.56,585.35 1026.51,576.71 1014.75,576.71 "/>
<polygon fill="#D60023" points="1040.45,586.71 1040.45,596.82 1044.95,600.94 1058.7,600.94 1063.54,598.59 1063.54,585.35 1056.49,576.71 1044.73,576.71 "/>
<polygon fill="#D60023" points="1069.83,586.24 1069.83,596.35 1074.33,600.47 1088.08,600.47 1092.91,598.12 1092.91,584.88 1085.87,576.24 1074.11,576.24 "/>
<polygon fill="#D60023" points="1097.71,586.24 1097.71,596.35 1102.21,600.47 1115.96,600.47 1120.79,598.12 1120.79,584.88 1113.75,576.24 1101.99,576.24 "/>
<polygon fill="#D60023" points="1126.19,586.24 1126.19,596.35 1130.69,600.47 1144.44,600.47 1149.27,598.12 1149.27,584.88 1142.23,576.24 1130.47,576.24 "/>
<polygon fill="#D60023" points="1154.52,586.71 1154.52,596.82 1159.01,600.94 1172.77,600.94 1177.6,598.59 1177.6,585.35 1170.56,576.71 1158.79,576.71 "/>
<polygon fill="#D60023" points="921.56,619.86 921.56,629.97 926.06,634.09 939.81,634.09 944.64,631.74 944.64,618.5 937.6,609.86 925.84,609.86 "/>
<polygon fill="#D60023" points="949.89,620.33 949.89,630.44 954.38,634.56 968.14,634.56 972.97,632.21 972.97,618.97 965.93,610.33 954.16,610.33 "/>
<polygon fill="#D60023" points="983.01,620.17 983.01,630.28 987.51,634.4 1001.27,634.4 1006.1,632.05 1006.1,618.82 999.05,610.17 987.29,610.17 "/>
<polygon fill="#D60023" points="1011.34,620.17 1011.34,630.28 1015.84,634.4 1029.59,634.4 1034.42,632.05 1034.42,618.82 1027.38,610.17 1015.62,610.17 "/>
<polygon fill="#D60023" points="1041.32,620.17 1041.32,630.28 1045.82,634.4 1059.57,634.4 1064.4,632.05 1064.4,618.82 1057.36,610.17 1045.6,610.17 "/>
<polygon fill="#D60023" points="1070.7,619.71 1070.7,629.81 1075.19,633.93 1088.95,633.93 1093.78,631.59 1093.78,618.35 1086.74,609.7 1074.97,609.7 "/>
<polygon fill="#D60023" points="1098.58,619.71 1098.58,629.81 1103.07,633.93 1116.83,633.93 1121.66,631.59 1121.66,618.35 1114.61,609.7 1102.85,609.7 "/>
<polygon fill="#D60023" points="1127.06,619.71 1127.06,629.81 1131.55,633.93 1145.31,633.93 1150.14,631.59 1150.14,618.35 1143.09,609.7 1131.33,609.7 "/>
<polygon fill="#D60023" points="1155.38,620.17 1155.38,630.28 1159.88,634.4 1173.64,634.4 1178.47,632.05 1178.47,618.82 1171.42,610.17 1159.66,610.17 "/>
<polygon fill="#D60023" points="923.59,657.21 923.59,667.32 928.09,671.44 941.84,671.44 946.67,669.09 946.67,655.86 939.63,647.21 927.87,647.21 "/>
<polygon fill="#D60023" points="951.92,657.68 951.92,667.79 956.42,671.91 970.17,671.91 975,669.56 975,656.32 967.96,647.68 956.2,647.68 "/>
<polygon fill="#D60023" points="985.05,657.53 985.05,667.63 989.54,671.75 1003.3,671.75 1008.13,669.41 1008.13,656.17 1001.08,647.52 989.32,647.52 "/>
<polygon fill="#D60023" points="1013.37,657.53 1013.37,667.63 1017.87,671.75 1031.63,671.75 1036.46,669.41 1036.46,656.17 1029.41,647.52 1017.65,647.52 "/>
<polygon fill="#D60023" points="1043.35,657.53 1043.35,667.63 1047.85,671.75 1061.6,671.75 1066.44,669.41 1066.44,656.17 1059.39,647.52 1047.63,647.52 "/>
<polygon fill="#D60023" points="1100.61,657.06 1100.61,667.16 1105.11,671.28 1118.86,671.28 1123.69,668.94 1123.69,655.7 1116.65,647.05 1104.89,647.05 "/>
<polygon fill="#D60023" points="1129.09,657.06 1129.09,667.16 1133.59,671.28 1147.34,671.28 1152.17,668.94 1152.17,655.7 1145.13,647.05 1133.37,647.05 "/>
<polygon fill="#D60023" points="1157.42,657.53 1157.42,667.63 1161.91,671.75 1175.67,671.75 1180.5,669.41 1180.5,656.17 1173.46,647.52 1161.69,647.52 "/>
<polygon fill="#D60023" points="1130.82,725.54 1130.82,735.64 1135.32,739.76 1149.08,739.76 1153.91,737.42 1153.91,724.18 1146.86,715.53 1135.1,715.53 "/>
<polygon fill="#D60023" points="1159.15,726.01 1159.15,736.11 1163.65,740.23 1177.4,740.23 1182.24,737.89 1182.24,724.65 1175.19,716 1163.43,716 "/>
<polygon fill="#D60023" points="1132.86,762.89 1132.86,772.99 1137.35,777.11 1151.11,777.11 1155.94,774.77 1155.94,761.53 1148.89,752.88 1137.13,752.88 "/>
<polygon fill="#D60023" points="1161.18,763.36 1161.18,773.46 1165.68,777.58 1179.44,777.58 1184.27,775.24 1184.27,762 1177.22,753.35 1165.46,753.35 "/>
<polygon fill="#D60023" points="1163.19,872.06 1163.19,882.16 1167.69,886.28 1181.44,886.28 1186.27,883.94 1186.27,870.7 1179.23,862.05 1167.47,862.05 "/>
<polygon fill="#D60023" points="419.54,871.88 419.54,881.98 424.04,886.1 437.79,886.1 442.63,883.76 442.63,870.52 435.58,861.87 423.82,861.87 "/>
<polygon fill="#D60023" points="448.02,871.88 448.02,881.98 452.52,886.1 466.27,886.1 471.1,883.76 471.1,870.52 464.06,861.87 452.3,861.87 "/>
<polygon fill="#D60023" points="476.35,872.34 476.35,882.45 480.85,886.57 494.6,886.57 499.43,884.22 499.43,870.99 492.39,862.34 480.63,862.34 "/>
<polygon fill="#D60023" points="1201.28,585.26 1201.28,595.36 1205.78,599.48 1219.54,599.48 1224.37,597.14 1224.37,583.9 1217.32,575.25 1205.56,575.25 "/>
<polygon fill="#D60023" points="1185.67,618.72 1185.67,628.83 1190.17,632.95 1203.93,632.95 1208.76,630.6 1208.76,617.36 1201.71,608.72 1189.95,608.72 "/>
<polygon fill="#D60023" points="1187.71,656.07 1187.71,666.18 1192.2,670.3 1205.96,670.3 1210.79,667.95 1210.79,654.72 1203.74,646.07 1191.98,646.07 "/>
<polygon fill="#D60023" points="1189.44,724.55 1189.44,734.66 1193.94,738.78 1207.69,738.78 1212.52,736.43 1212.52,723.2 1205.48,714.55 1193.72,714.55 "/>
<polygon fill="#D60023" points="1191.47,761.9 1191.47,772.01 1195.97,776.13 1209.73,776.13 1214.56,773.78 1214.56,760.55 1207.51,751.9 1195.75,751.9 "/>
<polygon fill="#D60023" points="1191.99,799.68 1191.99,809.78 1196.49,813.9 1210.25,813.9 1215.08,811.56 1215.08,798.32 1208.03,789.68 1196.27,789.68 "/>
<polygon fill="#D60023" points="1193.62,837.62 1193.62,847.73 1198.11,851.85 1211.87,851.85 1216.7,849.5 1216.7,836.26 1209.65,827.62 1197.89,827.62 "/>
<polygon fill="#D60023" points="1193.48,870.6 1193.48,880.71 1197.98,884.83 1211.73,884.83 1216.56,882.48 1216.56,869.25 1209.52,860.6 1197.76,860.6 "/>
<polygon fill="#D60023" points="1232.07,585.26 1232.07,595.36 1236.57,599.48 1250.32,599.48 1255.15,597.14 1255.15,583.9 1248.11,575.25 1236.35,575.25 "/>
<polygon fill="#D60023" points="1216.46,618.72 1216.46,628.83 1220.96,632.95 1234.71,632.95 1239.54,630.6 1239.54,617.36 1232.5,608.72 1220.74,608.72 "/>
<polygon fill="#D60023" points="1218.49,656.07 1218.49,666.18 1222.99,670.3 1236.75,670.3 1241.58,667.95 1241.58,654.72 1234.53,646.07 1222.77,646.07 "/>
<polygon fill="#D60023" points="1219.36,691.09 1219.36,701.19 1223.86,705.31 1237.61,705.31 1242.44,702.97 1242.44,689.73 1235.4,681.08 1223.64,681.08 "/>
<polygon fill="#D60023" points="1220.23,724.55 1220.23,734.66 1224.72,738.78 1238.48,738.78 1243.31,736.43 1243.31,723.2 1236.27,714.55 1224.5,714.55 "/>
<polygon fill="#D60023" points="1222.26,761.9 1222.26,772.01 1226.76,776.13 1240.51,776.13 1245.34,773.78 1245.34,760.55 1238.3,751.9 1226.54,751.9 "/>
<polygon fill="#D60023" points="1222.78,799.68 1222.78,809.78 1227.28,813.9 1241.03,813.9 1245.86,811.56 1245.86,798.32 1238.82,789.68 1227.06,789.68 "/>
<polygon fill="#D60023" points="1224.4,837.62 1224.4,847.73 1228.9,851.85 1242.65,851.85 1247.49,849.5 1247.49,836.26 1240.44,827.62 1228.68,827.62 "/>
<polygon fill="#D60023" points="1224.27,870.6 1224.27,880.71 1228.76,884.83 1242.52,884.83 1247.35,882.48 1247.35,869.25 1240.3,860.6 1228.54,860.6 "/>
<polygon fill="#D60023" points="1263.54,519.76 1263.54,529.86 1268.04,533.98 1281.79,533.98 1286.62,531.64 1286.62,518.4 1279.58,509.76 1267.82,509.76 "/>
<polygon fill="#D60023" points="1264.29,552.27 1264.29,562.38 1268.79,566.5 1282.55,566.5 1287.38,564.16 1287.38,550.92 1280.33,542.27 1268.57,542.27 "/>
<polygon fill="#D60023" points="1264.16,585.26 1264.16,595.36 1268.65,599.48 1282.41,599.48 1287.24,597.14 1287.24,583.9 1280.2,575.25 1268.43,575.25 "/>
<polygon fill="#D60023" points="1248.55,618.72 1248.55,628.83 1253.04,632.95 1266.8,632.95 1271.63,630.6 1271.63,617.36 1264.59,608.72 1252.82,608.72 "/>
<polygon fill="#D60023" points="1250.58,656.07 1250.58,666.18 1255.08,670.3 1268.83,670.3 1273.66,667.95 1273.66,654.72 1266.62,646.07 1254.86,646.07 "/>
<polygon fill="#D60023" points="1251.45,691.09 1251.45,701.19 1255.94,705.31 1269.7,705.31 1274.53,702.97 1274.53,689.73 1267.49,681.08 1255.72,681.08 "/>
<polygon fill="#D60023" points="1252.31,724.55 1252.31,734.66 1256.81,738.78 1270.57,738.78 1275.4,736.43 1275.4,723.2 1268.35,714.55 1256.59,714.55 "/>
<polygon fill="#D60023" points="1254.35,761.9 1254.35,772.01 1258.84,776.13 1272.6,776.13 1277.43,773.78 1277.43,760.55 1270.39,751.9 1258.62,751.9 "/>
<polygon fill="#D60023" points="1254.87,799.68 1254.87,809.78 1259.36,813.9 1273.12,813.9 1277.95,811.56 1277.95,798.32 1270.91,789.68 1259.14,789.68 "/>
<polygon fill="#D60023" points="1256.49,837.62 1256.49,847.73 1260.99,851.85 1274.74,851.85 1279.57,849.5 1279.57,836.26 1272.53,827.62 1260.77,827.62 "/>
<polygon fill="#D60023" points="1256.35,870.6 1256.35,880.71 1260.85,884.83 1274.6,884.83 1279.44,882.48 1279.44,869.25 1272.39,860.6 1260.63,860.6 "/>
</g>
<g id="f13_leaves" class="leaves-white">
<polygon fill="#F7EBDF" points="169.85,145.45 121.16,236.05 136.74,442.42 253.03,564.19 370.52,632.86 499.42,619.84 565.29,561.66 656.5,455.53 679.87,352.64 758.61,212.98 703.05,126.71 584.48,86.86 423.08,7.88 329.93,73.81 "/>
<polygon fill="#F7EBDF" points="1173.76,754.75 1230.97,669.73 1235.43,462.78 1131.5,329.4 1021.26,248.72 891.75,248.11 820.59,299.07 719.58,395.07 686.39,494.97 594.54,625.64 641.47,717.31 755.58,769.43 908.52,864.99 1007.58,809.19 "/>
</g>
<g id="f13_bug_left_body" class="bug-left-body">
<polygon fill="#6D8B5C" points="286.32,688.88 300.5,625.76 336.28,571.25 397.71,515.29 429.2,489.39 466.57,531.08 521.92,556.9 516.52,599.94 482.77,680.28 458.47,716.14 439.39,747.18 426.06,764.2 404.12,769.68 341,764.2 297.12,706.82 "/>
<polygon fill="#6D8B5C" points="474.29,464.3 539.7,519.27 555.58,485.49 546.69,459 528.91,447.08 518.11,445.09 500.33,450.39 "/>
<ellipse fill="#F4C837" cx="533.34" cy="482.5" rx="16.07" ry="16.75"/>
<ellipse opacity="0.2" fill="#C7B16F" cx="531.77" cy="484.54" rx="16.07" ry="16.75"/>
<ellipse opacity="0.4" fill="#EE9D20" cx="533.53" cy="482.3" rx="13.91" ry="14.51"/>
<ellipse opacity="0.3" fill="#F7E0B8" cx="503.6" cy="461.09" rx="14.38" ry="14.96"/>
<ellipse fill="#F5DBA9" cx="506.34" cy="463.38" rx="14.38" ry="14.92"/>
<polygon fill="#F4957E" points="529.76,446.54 541.12,458.39 554.05,438.78 "/>
<ellipse fill="#BCAB8E" cx="506.3" cy="463.3" rx="6.27" ry="6.54"/>
<ellipse fill="#746B40" cx="505.32" cy="462.27" rx="3.33" ry="3.47"/>
<ellipse fill="#745C2B" cx="505.32" cy="462.27" rx="2.16" ry="2.25"/>
<ellipse fill="#FAE9CC" cx="535.49" cy="481.07" rx="6.47" ry="6.74"/>
<ellipse fill="#7A8455" cx="535.49" cy="481.07" rx="3.33" ry="3.47"/>
<polygon fill="#F0BA8A" points="331.54,732.29 383.59,621.26 411.43,631.46 360.63,747.76 "/>
<polygon fill="#9DA12D" points="382,538.39 409.52,570.26 432.38,581.52 463.5,529.2 433.65,491.45 "/>
<polygon fill="#E5E1A2" points="355.54,751.03 464.4,527.88 470.48,531.23 362.3,754.38 "/>
<polygon fill="#E1CF58" points="384.46,622.88 410.75,632.52 435.78,584.04 409.55,571.59 "/>
<polygon opacity="0.3" fill="#F2DF9C" points="385.39,623.66 411.05,632.82 435.47,586.74 409.88,574.9 "/>
<polygon fill="#F5AE51" points="351.1,704.71 362.53,711.33 389.2,648.41 395.55,650.4 406.98,629.87 387.29,619.02 379.04,630.57 "/>
<polygon fill="#BCBBB0" points="338.42,735.03 349.64,711.03 353.06,714.78 341.75,737.46 "/>
<polygon fill="#ECA08E" points="365.07,717.95 394.28,648.41 399.99,652.39 410.16,636.49 412.9,636.49 373.18,724 "/>
<polygon fill="#DFB155" points="344.75,738.48 358.08,713.98 361.26,717.29 347.92,740.47 "/>
<polygon fill="#BCBBB0" points="350.82,741.89 363.52,718.71 366.7,722.69 353.99,744.54 "/>
<polygon fill="#DEB381" points="371.42,662.98 374.59,664.97 394.91,623.25 390.47,621.41 "/>
<polygon fill="#CCBFAB" points="378.92,667.01 382.1,669 402.42,627.27 397.97,625.44 "/>
<polygon fill="#B6AF9C" points="385.27,670.98 388.45,672.97 408.77,631.25 404.32,629.41 "/>
<polygon fill="#98C196" points="433.65,492.11 443.65,481.12 463.5,470.92 474.93,464.3 539.07,519.93 530.81,544.43 521.92,557.02 466.67,531.19 "/>
<polygon fill="#A99E5C" points="373.16,759.48 474.65,535.29 475.09,539.33 373.78,763.58 "/>
<polygon fill="#B9D5B9" points="387.24,764.22 496.3,542.63 497.17,546.82 388.33,768.48 "/>
<polygon fill="#EBDFA2" points="402.79,769.38 511.86,547.79 512.73,551.98 403.88,773.64 "/>
<polygon fill="#9DA12D" points="523.19,558.34 521.92,567.22 540.97,576.89 547.84,564.46 528.27,550.4 "/>
<polygon fill="#98C196" points="546.69,572.29 560.14,583.51 611.79,519.54 669.37,515.61 669.37,512.12 613.41,516.17 559.46,577.9 547.66,570.46 "/>
<polygon fill="#B6AF9C" points="406.98,484.54 405.04,476.04 407.78,474.33 425.26,491.45 418.52,496.8 "/>
<polygon fill="#9DA12D" points="405.04,472.19 395.02,458.8 410.12,443.77 433.65,430.2 445.08,423.24 453.97,405.36 461.59,359.66 457.38,359.66 443.81,418.6 422.75,434.04 400.17,446.13 392.81,458.39 402.67,474.33 "/>
<polygon fill="#DEB381" points="339.03,515.96 344.08,509.26 346.02,506.68 373.16,535.29 363.85,546.13 "/>
<polygon fill="#E5E1A2" points="327.84,496.8 299.5,526.41 283.56,557.02 276.16,564.97 272.35,568.28 281.79,571.59 279.34,566.95 303.34,527.88 326.33,502.71 339.03,512.45 344.08,509.26 "/>
<polygon fill="#6D8B5C" points="489.17,669 497.17,669 514.94,674.24 516.61,671.62 493.35,662.98 "/>
<polygon fill="#DEB381" points="516.71,674.24 542.45,754.38 542.45,763.58 550.05,763.58 546.69,756.37 521.09,672.97 516.71,667.48 "/>
<polygon fill="#B9D5B9" points="453.97,725.9 483.18,736.5 485.09,735.17 459.05,720.6 "/>
<polygon fill="#ECA08E" points="487.35,737.59 483.47,795.21 487.11,797.51 487.3,778.92 490.14,742.62 489.73,735.7 "/>
<polygon fill="#9DA12D" points="486.2,797.43 483.18,806.7 495.25,804.05 "/>
<polygon fill="#ECA08E" points="275.53,625.23 272.99,639.14 294.58,646.43 297.75,633.18 "/>
<polygon fill="#9DA12D" points="272.99,630.52 250.76,623.91 247.41,621.26 204.4,696.1 199.32,706.03 205.67,708.68 206.31,698.75 248.86,625.9 271.08,634.51 "/>
<polygon fill="#ECA08E" points="188.08,666.76 196.94,677.48 215.84,664.37 207.86,653.55 "/>
<polygon fill="#DEB381" points="244.97,634.67 236.8,634.72 233.67,634.74 238.21,594.78 252.14,595.62 "/>
<polygon opacity="0.3" fill="#F2DF9C" points="215.09,658.35 230.78,663.49 245.72,637.64 230.07,631 "/>
<polygon opacity="0.3" fill="#F2DF9C" points="506.61,684.91 532.27,694.07 556.7,647.98 531.1,636.15 "/>
<polygon fill="#DEB381" points="547.69,660.37 539.52,660.43 536.38,660.45 540.93,620.49 554.86,621.33 "/>
<polygon fill="#ECA08E" points="513.79,678.14 522.66,688.86 541.55,675.75 533.58,664.93 "/>
<polygon fill="#E5E1A2" points="308.88,665.88 320.23,669.09 311.32,674.69 306.67,685.04 296.24,684.36 304.42,674.86 299.02,672.22 303.98,661.16 "/>
<polygon fill="#ECA08E" points="577.58,625.84 603.61,589.01 656.72,546.53 660.24,536.88 660.21,544.94 606.59,592.13 "/>
<polygon fill="#E5E1A2" points="319.74,548.95 345.77,512.12 398.88,469.64 402.4,460 402.37,468.05 348.75,515.25 "/>
<polyline fill="#FF8C00" fill-opacity="0.8" points="388.3,577.51 388.3,591.67 376.25,596.62 380.65,581.49 373.26,581.49 373.26,566.35 381.13,568.97 395.47,566.35 388.3,577.51 "/>
</g>
<g id="f13_bug_left_legs" class="bug-left-legs">
<polygon fill="#BCAB8E" points="546.69,459 591.14,434.5 632.49,442.76 644.16,445.09 657.92,445.09 657.92,456.76 592.39,438.78 549.4,462.27 "/>
<polygon fill="#BCAB8E" points="525.73,443.11 523.83,392.11 475.09,333.91 467.94,323.23 463.5,332.24 491.97,359.66 511.51,383.17 521.92,402.2 520.72,443.11 "/>
<polygon fill="#D4BDB0" points="447.27,484.04 416.47,438.25 97.4,751.97 97.4,775.92 401.64,475.93 415.33,464.03 418.75,455.3 431.68,471.96 442.33,487.83 "/>
<polygon fill="#D4BDB0" points="368.72,768.78 396.36,809.87 682.68,528.35 682.68,506.86 409.67,776.06 397.38,786.74 394.31,794.57 382.71,779.62 373.15,765.38 "/>
<polyline fill="#BCAB8E" points="525.18,525.96 520.53,536.32 510.1,535.63 518.28,526.14 512.88,523.5 517.84,512.43 522.74,517.15 534.09,520.36 525.18,525.96 "/>
</g>
<g id="f13_bug_right_body" class="bug-right-body">
<polygon fill="#4C4475" points="948.48,759.91 1000.23,807.87 963.87,838.23 1037.95,821.96 1078.69,833.52 1138.58,783.52 1016.97,793.88 "/>
<polygon opacity="0.9" fill="#E1E100" points="1191.34,406.34 1200.69,436.71 1205.29,450.56 1215.07,456.45 1200.89,493.97 1162.84,537.59 1147.02,591.28 1130.18,602.44 1117.89,612.88 1091.48,625.12 1065.5,618.86 1052.73,611.17 1034.43,600.16 1028.87,577.19 1025.6,562.42 1013.94,555.41 992.8,547.79 977.47,538.56 974.07,531.4 1018.98,506.41 1065.53,469.61 1074.03,432.09 1075.65,381.89 1061.43,358.83 1060.58,351.49 1090.19,371.88 1104.53,387.34 1117.79,388.5 1126.69,382.77 1146.37,382.67 1172.09,387.92 1186.88,401.1 "/>
<polygon fill="#92C199" points="861.09,484.78 853.7,452.66 849.99,437.98 840.34,431.11 857.79,393.53 900.34,351.59 920.7,297.45 938.92,287.3 952.39,277.53 980.58,267.04 1006.93,275.62 1019.53,284.6 1037.6,297.46 1041.62,321.63 1043.9,337.14 1055.41,345.34 1076.66,354.92 1091.8,365.7 1094.77,373.37 1046.53,395.51 995.72,429.71 984.13,467.76 978.69,519.45 991.65,544.42 991.97,552.07 962.93,528.61 949.28,511.48 935.68,509.2 926.06,514.39 905.74,512.88 879.58,505.36 865.3,490.56 "/>
<polygon opacity="0.9" fill="#D6DF00" points="865.69,480.76 858.55,449.74 854.97,435.57 845.65,428.92 862.5,392.63 903.6,352.13 923.26,299.84 940.86,290.03 953.87,280.6 981.09,270.46 1006.54,278.75 1018.72,287.42 1036.17,299.85 1040.05,323.19 1042.25,338.17 1053.36,346.09 1073.89,355.34 1088.51,365.75 1091.38,373.16 1044.79,394.54 995.72,427.57 984.52,464.32 979.27,514.25 991.78,538.37 992.1,545.75 964.05,523.09 950.87,506.54 937.73,504.34 928.44,509.36 908.81,507.9 883.55,500.64 869.75,486.34 "/>
<polygon fill="#CCA002" points="862.26,400.36 889.92,398.06 912.15,415.65 940.33,419 958.02,422.27 964.05,422.7 961.6,416.81 916.32,406.7 897.93,389.69 866.46,388.73 "/>
<polygon fill="#CCA002" points="920.42,308.92 929.35,335.24 953.07,350.54 967.01,375.63 976.76,391.05 979.5,396.5 973.51,396 947.09,357.09 925.37,345.18 912.17,316.31 "/>
<polygon fill="#6AAF96" points="860.12,438.42 875.48,429.13 895.95,432.59 915.53,442.69 938.53,459.07 940.92,472.21 928.86,490.62 930.98,497.69 949.38,469.6 940.82,448.53 902.18,423.08 872.93,414.99 854.99,429.49 "/>
<polygon fill="#6AAF96" points="955.99,284.97 954.23,302.44 965.78,320.96 982.81,336.64 1006.78,353.71 1019.31,352.05 1030.47,335.01 1037.56,334.92 1020.54,360.91 998.47,359.06 960.02,329.76 940.74,304.23 946.02,282.75 "/>
<polygon fill="#CCB02F" points="996.73,533.02 992.86,526.99 990.07,508.28 985.98,493.36 989.13,470.74 996.87,446.04 1006.65,428.79 1022.43,409.62 1033.31,399.07 1046.17,393.01 1063.07,381.52 1077.32,375.63 1089.75,371.17 1097.2,377.19 1085.72,367.91 1071.7,373.99 1045.02,384.34 1018.09,400.38 1008.95,412.68 998.12,421.89 989.15,453.35 979.54,477.51 977.56,504.16 986.57,517.07 985.05,530.35 "/>
<ellipse fill="#E9D102" fill-opacity="0.8" transform="matrix(0.3438 -0.9391 0.9391 0.3438 368.7245 1127.1218)" cx="990.8" cy="299.74" rx="25.59" ry="31.06"/>
<ellipse fill="#D99C26" transform="matrix(0.3438 -0.9391 0.9391 0.3438 370.5883 1122.3535)" cx="988.32" cy="296.03" rx="22.78" ry="27.65"/>
<ellipse fill="#B4BE9B" transform="matrix(0.3438 -0.9391 0.9391 0.3438 374.4457 1121.5776)" cx="989.7" cy="292.88" rx="19.59" ry="23.78"/>
<ellipse fill="#060604" transform="matrix(0.3438 -0.9391 0.9391 0.3438 376.097 1120.2175)" cx="989.55" cy="291.02" rx="18.52" ry="22.48"/>
<ellipse fill="#E9D102" fill-opacity="0.8" transform="matrix(0.3438 -0.9391 0.9391 0.3438 147.6675 1154.6956)" cx="900" cy="471.69" rx="32.14" ry="39.01"/>
<ellipse fill="#D99C26" transform="matrix(0.3438 -0.9391 0.9391 0.3438 142.085 1158.3459)" cx="899.82" cy="477.51" rx="26.53" ry="32.21"/>
<ellipse fill="#B4BE9B" transform="matrix(0.3438 -0.9391 0.9391 0.3438 137.5918 1159.2498)" cx="898.22" cy="481.18" rx="22.82" ry="27.7"/>
<ellipse fill="#060604" transform="matrix(0.3438 -0.9391 0.9391 0.3438 135.6685 1160.8339)" cx="898.4" cy="483.35" rx="21.57" ry="26.18"/>
<polygon fill="#D75F5B" points="861.14,396.64 858.34,357.64 876.79,343.38 876.79,312.04 895.79,299.14 916.51,294.13 915.52,319.42 895.79,353.01 865.61,383.26 "/>
<polygon fill="#E5E1A2" points="854.8,508.25 876.61,545.09 899.16,565.81 905.01,575.43 907.45,580.39 909.89,568.11 906.47,571.31 877.69,540.1 859.15,510.22 866.33,493.7 863.98,487.14 "/>
<ellipse fill="#E5E1A2" transform="matrix(0.4795 -0.8776 0.8776 0.4795 135.4859 1072.9962)" cx="972.24" cy="422.29" rx="6.75" ry="2.45"/>
<ellipse fill="#E5E1A2" transform="matrix(0.4795 -0.8776 0.8776 0.4795 155.0554 1072.4821)" cx="981.59" cy="405.54" rx="6.75" ry="2.45"/>
<polygon opacity="0.4" fill="#DAE0D7" points="883.52,382.75 914.15,380.8 923.86,401.06 960.96,409.55 968.51,399.55 945.83,364.97 922.81,367.91 916.51,339.33 915.27,370.67 "/>
<polygon fill="#DCFC85" points="951.08,421.78 956.53,469.09 967.37,508.45 969.7,501.94 976.88,504.52 962.76,466.52 955.99,422.97 "/>
<polygon fill="#DCFC85" points="972.78,384.76 1017.03,374.1 1056.13,370.76 1051.16,374.94 1056.07,380.41 1016.99,380.41 975.62,388.7 "/>
<polygon fill="#865470" points="992.22,526.26 1000.25,488.06 1021.84,479.89 1030.44,449.87 1052.19,443.19 1073.41,444.57 1065.52,468.51 1037.4,494.8 1000.18,514.77 "/>
<polygon fill="#93C6A9" points="1102.52,393.42 1102.98,412.48 1120.02,434.9 1143.36,455.08 1175.45,477.93 1190.64,478.16 1201.79,461.12 1210.51,462.19 1193.49,488.18 1166.04,482.49 1114.26,443.7 1086.65,412.25 1089.9,389.32 "/>
<polygon fill="#93C6A9" points="1007.74,528.3 1025.5,520.96 1052.04,528.87 1078.66,544.04 1110.75,566.9 1116.16,582.05 1104.25,600.24 1108.23,608.55 1126.39,580.81 1111.74,555.58 1058.19,519.48 1019.7,504.66 999.64,517.31 "/>
<polygon opacity="0.4" fill="#DAE0D7" points="1034.01,500.8 1079.88,497.88 1094.42,528.21 1149.97,540.93 1161.28,525.96 1127.32,474.18 1092.85,478.58 1083.41,435.79 1081.55,482.71 "/>
<polygon fill="#CF4C39" points="1126.43,406.34 1126.72,418.19 1137.31,432.12 1151.81,444.66 1171.75,458.86 1181.19,459 1188.12,448.41 1193.54,449.08 1182.96,465.23 1165.9,461.7 1133.73,437.59 1116.57,418.04 1118.59,403.79 "/>
<polygon fill="#8C2241" points="1140.02,404.78 1139.83,414.05 1147.33,424.56 1157.84,433.83 1172.39,444.19 1179.51,443.94 1185.11,435.38 1189.18,435.69 1180.62,448.76 1167.87,446.64 1144.43,428.99 1132.17,414.33 1134.2,403.08 "/>
<polygon fill="#CF4C39" points="1093.56,588.04 1093.27,576.2 1082.68,562.26 1068.18,549.72 1048.23,535.52 1038.8,535.38 1031.86,545.97 1026.45,545.3 1037.02,529.15 1054.08,532.69 1086.26,556.79 1103.42,576.34 1101.4,590.59 "/>
<polygon fill="#8C2241" points="1081.08,588.83 1081.27,579.56 1073.77,569.04 1063.27,559.77 1048.71,549.41 1041.6,549.66 1035.99,558.22 1031.92,557.91 1040.48,544.85 1053.23,546.96 1076.67,564.62 1088.93,579.28 1086.91,590.52 "/>
<ellipse fill="#F4F3EB" transform="matrix(0.3438 -0.9391 0.9391 0.3438 387.8256 1128.3927)" cx="1001.26" cy="286.71" rx="3.65" ry="4.43"/>
<ellipse fill="#F4F3EB" transform="matrix(0.3438 -0.9391 0.9391 0.3438 122.0071 1151.3115)" cx="884.75" cy="488.36" rx="4.25" ry="5.16"/>
</g>
<g id="f13_bug_right_legs" class="bug-right-legs">
<polygon fill="#B8CE04" points="983.07,608.44 980.33,588.69 973.05,536.2 987.12,533.79 980.34,559.74 985.86,590.31 996.56,599.11 1018,575.91 1002.61,599.41 1024.59,616.11 1000.04,601.59 994.52,616.6 992.91,636.76 997,658.25 1003.81,674.71 1009.4,678.69 994.36,670.94 993.09,656.42 987.22,633.3 987.36,620.97 974.07,648.2 968.1,671.18 960.17,683.29 959.25,672.56 969.93,645.85 982.92,620.14 985.96,605.77 986.7,596.83 984.79,593.69 "/>
<polygon fill="#B0B902" points="1152.34,354.13 1134.43,356.4 1086.84,362.43 1091.07,375.94 1109.98,363.43 1138.27,361.09 1150.48,368.79 1140.44,394.11 1153.43,374.27 1177.35,390.42 1154.13,371.39 1164.34,362.67 1180.66,356.3 1200.64,354.85 1217.59,357.12 1223.45,361.3 1210.19,349.35 1197.35,351.7 1175.2,351.92 1164.84,355.03 1181.91,336.22 1198.67,325.16 1205.36,314.94 1195.89,316.69 1178.08,332.99 1162.16,351.15 1151.37,357.43 1144.15,360.28 1140.64,359.28 "/>
<polyline fill="#FFEC00" fill-opacity="0.8" points="1061.04,356.96 1069.81,361.24 1069.23,370.86 1061.19,363.31 1058.95,368.29 1049.58,363.72 1053.58,359.21 1056.3,348.75 1061.04,356.96 "/>
<polyline fill="#1C1468" fill-opacity="0.8" points="1147.34,563.33 1147.34,578.52 1134.41,583.83 1139.13,567.6 1131.2,567.6 1131.2,551.36 1139.64,554.16 1155.04,551.36 1147.34,563.33 "/>
</g>
<g id="f13_dots" class="dots">
<ellipse fill="#802940" cx="501.88" cy="724.21" rx="3.92" ry="4.09"/>
<ellipse fill="#802940" cx="522.09" cy="726.96" rx="5.03" ry="5.25"/>
<ellipse fill="#802940" cx="531.91" cy="702.4" rx="5.03" ry="5.25"/>
<ellipse fill="#802940" cx="530.86" cy="735.5" rx="5.03" ry="5.25"/>
<ellipse fill="#F4E9D4" cx="513.95" cy="714.9" rx="5.03" ry="5.25"/>
<ellipse fill="#8E8E18" cx="501.97" cy="720.32" rx="4.17" ry="4.34"/>
<ellipse fill="#802940" cx="638.49" cy="823.63" rx="5.03" ry="5.25"/>
<ellipse fill="#802940" cx="607.22" cy="829.39" rx="5.03" ry="5.25"/>
<ellipse fill="#F4E9D4" cx="623.06" cy="807.87" rx="5.03" ry="5.25"/>
<ellipse fill="#802940" cx="158.9" cy="610.79" rx="3.92" ry="4.09"/>
<ellipse fill="#802940" cx="179.11" cy="613.54" rx="5.03" ry="5.25"/>
<ellipse fill="#F4E9D4" cx="146" cy="611.75" rx="5.03" ry="5.25"/>
<ellipse fill="#802940" cx="188.94" cy="588.98" rx="5.03" ry="5.25"/>
<ellipse fill="#802940" cx="187.89" cy="622.08" rx="5.03" ry="5.25"/>
<ellipse fill="#F4E9D4" cx="170.97" cy="601.48" rx="5.03" ry="5.25"/>
<ellipse fill="#8E8E18" cx="159" cy="606.9" rx="4.17" ry="4.34"/>
<ellipse fill="#802940" cx="324.3" cy="733.8" rx="3.92" ry="4.09"/>
<ellipse fill="#802940" cx="330.43" cy="754.07" rx="5.03" ry="5.25"/>
<ellipse fill="#F4E9D4" cx="318.02" cy="722.01" rx="5.03" ry="5.25"/>
<ellipse fill="#802940" cx="355.93" cy="753" rx="5.03" ry="5.25"/>
<ellipse fill="#F4E9D4" cx="337.48" cy="741.28" rx="5.03" ry="5.25"/>
<ellipse fill="#8E8E18" cx="327.72" cy="732.25" rx="4.17" ry="4.34"/>
<ellipse fill="#802940" cx="837.94" cy="208.78" rx="3.92" ry="4.09"/>
<ellipse fill="#802940" cx="858.15" cy="211.53" rx="5.03" ry="5.25"/>
<ellipse fill="#F4E9D4" cx="825.03" cy="209.73" rx="5.03" ry="5.25"/>
<ellipse fill="#802940" cx="867.97" cy="186.96" rx="5.03" ry="5.25"/>
<ellipse fill="#802940" cx="866.93" cy="220.06" rx="5.03" ry="5.25"/>
<ellipse fill="#F4E9D4" cx="850.01" cy="199.46" rx="5.03" ry="5.25"/>
<ellipse fill="#8E8E18" cx="838.03" cy="204.88" rx="4.17" ry="4.34"/>
<ellipse fill="#802940" cx="1236.01" cy="335.72" rx="3.92" ry="4.09"/>
<ellipse fill="#802940" cx="1246.45" cy="353.98" rx="5.03" ry="5.25"/>
<ellipse fill="#F4E9D4" cx="1227.3" cy="325.75" rx="5.03" ry="5.25"/>
<ellipse fill="#802940" cx="1271.03" cy="346.82" rx="5.03" ry="5.25"/>
<ellipse fill="#802940" cx="1245.45" cy="366.45" rx="5.03" ry="5.25"/>
<ellipse fill="#F4E9D4" cx="1250.49" cy="339.84" rx="5.03" ry="5.25"/>
<ellipse fill="#8E8E18" cx="1239" cy="333.39" rx="4.17" ry="4.34"/>
<ellipse fill="#802940" cx="1135.44" cy="211.98" rx="3.92" ry="4.09"/>
<ellipse fill="#802940" cx="1155.65" cy="214.73" rx="5.03" ry="5.25"/>
<ellipse fill="#F4E9D4" cx="1122.54" cy="212.94" rx="5.03" ry="5.25"/>
<ellipse fill="#802940" cx="1165.48" cy="190.17" rx="5.03" ry="5.25"/>
<ellipse fill="#802940" cx="1164.43" cy="223.27" rx="5.03" ry="5.25"/>
<ellipse fill="#F4E9D4" cx="1147.51" cy="202.67" rx="5.03" ry="5.25"/>
<ellipse fill="#8E8E18" cx="1135.54" cy="208.09" rx="4.17" ry="4.34"/>
<ellipse fill="#802940" cx="1007.22" cy="130.83" rx="3.92" ry="4.09"/>
<ellipse fill="#F4E9D4" cx="994.33" cy="125.55" rx="5.03" ry="5.25"/>
<ellipse fill="#F4E9D4" cx="1020.06" cy="133.53" rx="5.03" ry="5.25"/>
<ellipse fill="#802940" cx="1242.55" cy="108.88" rx="3.92" ry="4.09"/>
<ellipse fill="#802940" cx="1262.75" cy="111.63" rx="5.03" ry="5.25"/>
<ellipse fill="#F4E9D4" cx="1229.64" cy="109.83" rx="5.03" ry="5.25"/>
<ellipse fill="#802940" cx="1272.58" cy="87.06" rx="5.03" ry="5.25"/>
<ellipse fill="#802940" cx="1271.53" cy="120.16" rx="5.03" ry="5.25"/>
<ellipse fill="#F4E9D4" cx="1254.61" cy="99.56" rx="5.03" ry="5.25"/>
<ellipse fill="#8E8E18" cx="1242.64" cy="104.98" rx="4.17" ry="4.34"/>
<ellipse fill="#802940" cx="860.97" cy="61.85" rx="3.92" ry="4.09"/>
<ellipse fill="#802940" cx="881.18" cy="64.6" rx="5.03" ry="5.25"/>
<ellipse fill="#F4E9D4" cx="848.07" cy="62.8" rx="5.03" ry="5.25"/>
<ellipse fill="#802940" cx="891.01" cy="40.03" rx="5.03" ry="5.25"/>
<ellipse fill="#802940" cx="889.96" cy="73.13" rx="5.03" ry="5.25"/>
<ellipse fill="#F4E9D4" cx="873.04" cy="52.53" rx="5.03" ry="5.25"/>
<ellipse fill="#8E8E18" cx="861.06" cy="57.95" rx="4.17" ry="4.34"/>
<ellipse fill="#802940" cx="208.38" cy="831.51" rx="3.92" ry="4.09"/>
<ellipse fill="#802940" cx="228.59" cy="834.26" rx="5.03" ry="5.25"/>
<ellipse fill="#F4E9D4" cx="195.48" cy="832.47" rx="5.03" ry="5.25"/>
<ellipse fill="#802940" cx="238.42" cy="809.7" rx="5.03" ry="5.25"/>
<ellipse fill="#802940" cx="237.37" cy="842.8" rx="5.03" ry="5.25"/>
<ellipse fill="#F4E9D4" cx="220.45" cy="822.2" rx="5.03" ry="5.25"/>
<ellipse fill="#8E8E18" cx="208.48" cy="827.62" rx="4.17" ry="4.34"/>
</g>
</svg>
