<?xml version="1.0" encoding="utf-8"?>
<svg version="1.1" xmlns="http://www.w3.org/2000/svg" viewBox="0 0 1440 900">
<rect id="p01_bg" class="scene-bg" fill="#F9F3B5" width="1440" height="900"/>
<g id="p01_art" class="portada-art">
<polygon fill="#D3AD00" points="752.47,175.1 751.14,266.04 727.21,334.04 675.12,394.36 627.85,405.63 554.68,394.49 489.22,360.17 458.19,325.08 408.52,274.93 404.64,176.33 "/>
<polygon fill="#FF9800" points="1172.77,507.55 1213.55,471.5 1241.16,366.6 1202.2,285.41 1153.45,230.26 1084.69,213.48 1040.65,230.4 975.26,266.47 945.43,313.15 880.67,368.06 894.43,420.75 948.72,461.83 1018.35,529.99 1077.8,514.15 "/>
<polygon fill="#5D2F47" points="1235.39,207 1228.38,359.72 1179.9,434.09 1068.92,439.89 918.08,383.3 844.28,332.51 792.56,265.77 799.79,207 "/>
<polygon fill="#B2AB6A" points="533.88,229.7 940.07,229.7 801.18,254.56 706.19,281.81 625.19,248.22 572.54,297.11 534.13,310.32 "/>
<polygon opacity="0.9" fill="#CDD700" points="532.91,722.1 598.94,602.95 825.63,548.63 993.27,548.63 1098.54,652.59 1121.81,722.1 "/>
<polygon fill="#FFE6F3" fill-opacity="0.9" points="978.61,165.89 1061.42,216.25 1018.64,265.45 1116.75,225.39 1175.65,230.45 1246.11,149.4 1081.12,193.58 "/>
<polygon fill="#FFAE00" points="435.97,676.08 435.97,517.65 476.26,385.3 506.01,268.36 567.36,222.84 675.82,315.77 856.79,610.97 873.91,676.08 "/>
<polygon fill="#4C4475" points="747.65,597.88 667.96,558 571.04,475.37 602.04,392.12 676.24,378.26 781.14,327.26 932.38,436.09 947.67,484.84 934.11,520.46 "/>
<polygon fill="#BCAB8E" points="681.84,190.89 680.2,148.8 638.25,100.77 632.1,91.95 628.27,99.39 652.78,122.02 669.6,141.42 678.56,157.13 677.53,190.89 "/>
<polygon fill="#BCAB8E" points="752.64,188.56 790.91,168.33 826.49,175.15 836.54,177.08 848.39,177.08 848.39,186.71 791.98,171.87 754.98,191.26 "/>
<polygon fill="#B0B902" points="1210.75,537.38 1195.33,539.25 1154.36,544.23 1158.01,555.38 1174.28,545.05 1198.63,543.12 1209.14,549.47 1200.5,570.38 1211.68,554 1232.27,567.33 1212.28,551.62 1221.07,544.43 1235.12,539.17 1252.32,537.98 1266.91,539.85 1271.95,543.29 1260.54,533.44 1249.49,535.37 1230.42,535.55 1221.5,538.12 1236.2,522.59 1250.62,513.47 1256.38,505.03 1248.23,506.48 1232.9,519.93 1219.2,534.92 1209.91,540.1 1203.7,542.46 1200.68,541.63 "/>
<polygon fill="#B8CE04" points="1076.21,685.39 1073.85,669.09 1067.59,625.77 1079.69,623.78 1073.86,645.2 1078.61,670.42 1087.82,677.69 1106.27,658.54 1093.02,677.93 1111.94,691.72 1090.82,679.74 1086.06,692.12 1084.68,708.76 1088.2,726.49 1094.06,740.08 1098.87,743.37 1085.93,736.97 1084.83,724.98 1079.78,705.91 1079.9,695.73 1068.46,718.2 1063.32,737.17 1056.5,747.16 1055.7,738.31 1064.9,716.26 1076.08,695.05 1078.69,683.18 1079.34,675.8 1077.69,673.21 "/>
<polygon fill="#FFCB00" points="769.26,649.21 769.26,492.7 809.37,361.97 838.98,246.45 900.07,201.49 1008.05,293.28 1188.21,584.89 1205.25,649.21 "/>
<polygon fill="#F4957E" points="726.63,166.62 739.37,172 743.58,152.81 "/>
<polygon fill="#D60023" points="857.32,410.09 880.61,361.95 862.67,254.85 791.96,193.81 722.96,160.43 651.19,169.8 616.82,201.41 570.36,258.49 561.83,312.51 523.86,386.8 558.9,430.58 627.22,448.94 721.33,486.8 770.67,450.61 "/>
<polygon fill="#860256" points="733.81,605.17 733.81,639.87 772.25,697.35 827.48,713.03 874.41,713.03 911.46,687.28 921.97,659.1 932.36,612.63 922.66,578.67 923.78,524.55 892.8,508.88 850.25,517.46 788.3,521.94 770.75,557.02 "/>
<polygon fill="#D60023" points="1135.15,289.54 1135.15,313.67 1146.35,323.5 1180.6,323.5 1192.63,317.91 1192.63,286.3 1175.08,265.65 1145.8,265.65 "/>
<polygon fill="#D60023" points="432.99,670.85 432.99,694.98 444.18,704.82 478.44,704.82 490.46,699.22 490.46,667.61 472.92,646.97 443.64,646.97 "/>
</g>
</svg>
