<?xml version="1.0" encoding="utf-8"?>
<!-- Generator: Adobe Illustrator 28.2.0, SVG Export Plug-In . SVG Version: 6.00 Build 0)  -->
<svg version="1.1" id="Layer_1" xmlns="http://www.w3.org/2000/svg" xmlns:xlink="http://www.w3.org/1999/xlink" x="0px" y="0px"
	 viewBox="0 0 1440 900" style="enable-background:new 0 0 1440 900;" xml:space="preserve">
<style type="text/css">
	.st0{fill:#DEB381;}
	.st1{fill:#FFAE00;}
	.st2{fill:#F9F3B5;}
	.st3{opacity:0.6;fill:#FF9800;}
	.st4{fill:#4F2413;}
	.st5{fill:#6D8B5C;}
	.st6{fill:#F4C837;}
	.st7{opacity:0.2;fill:#C7B16F;}
	.st8{opacity:0.4;fill:#EE9D20;}
	.st9{opacity:0.3;fill:#F7E0B8;}
	.st10{fill:#F5DBA9;}
	.st11{fill:#F4957E;}
	.st12{fill:#BCAB8E;}
	.st13{fill:#746B40;}
	.st14{fill:#745C2B;}
	.st15{fill:#FAE9CC;}
	.st16{fill:#7A8455;}
	.st17{fill:#F0BA8A;}
	.st18{fill:#9DA12D;}
	.st19{fill:#E5E1A2;}
	.st20{fill:#E1CF58;}
	.st21{opacity:0.3;fill:#F2DF9C;}
	.st22{fill:#F5AE51;}
	.st23{fill:#BCBBB0;}
	.st24{fill:#ECA08E;}
	.st25{fill:#DFB155;}
	.st26{fill:#CCBFAB;}
	.st27{fill:#B6AF9C;}
	.st28{fill:#98C196;}
	.st29{fill:#A99E5C;}
	.st30{fill:#B9D5B9;}
	.st31{fill:#EBDFA2;}
	.st32{fill:#D4BDB0;}
	.st33{fill:#93C6A9;}
	.st34{fill:#CF4C39;}
	.st35{fill:#8C2241;}
	.st36{fill:#FF8C00;fill-opacity:0.8;}
	.st37{fill:#F4E9D4;}
	.st38{opacity:0.8;fill:#C1BB51;}
	.st39{opacity:0.9;fill:#C1BB51;}
	.st40{fill:#B8BE82;}
	.st41{fill:#C2D1C0;}
	.st42{fill:#B2AB6A;}
	.st43{fill:#757F42;fill-opacity:0.9;}
	.st44{fill:#D3AD00;}
	.st45{opacity:0.9;fill:#C2D1C0;}
	.st46{fill:#FF9800;}
	.st47{fill:#4C4475;}
	.st48{fill:#5D2F47;}
	.st49{fill:#FFCB00;}
	.st50{fill:#AEA87A;}
	.st51{opacity:0.9;fill:#CDD700;}
	.st52{fill:#F8F8F8;fill-opacity:0.9;}
	.st53{fill:#D60023;}
	.st54{fill:#B0B902;}
	.st55{fill:#B8CE04;}
	.st56{fill:#860256;}
	.st57{fill:#FFA100;}
	.st58{fill:#FF7800;}
	.st59{fill:#E07689;}
	.st60{fill:#FFB8A2;}
	.st61{fill:#FFAD00;}
	.st62{fill:#FF9380;}
	.st63{fill:#FFBD27;}
	.st64{fill:#DFCBD7;}
	.st65{fill:#FF7173;}
	.st66{fill:#B76D54;}
	.st67{fill:#FFBF79;}
	.st68{fill:#FF7400;}
	.st69{fill:#5A3B42;}
	.st70{fill:#A4858F;}
	.st71{fill:#FAB96C;}
	.st72{fill:#5F4047;}
	.st73{fill:#B69E17;}
	.st74{fill:#D7C762;}
	.st75{fill:#CDD700;}
	.st76{fill:#F4F3EB;}
	.st77{opacity:0.9;fill:#E1E100;}
	.st78{fill:#92C199;}
	.st79{opacity:0.9;fill:#D6DF00;}
	.st80{fill:#CCA002;}
	.st81{fill:#6AAF96;}
	.st82{fill:#CCB02F;}
	.st83{fill:#E9D102;fill-opacity:0.8;}
	.st84{fill:#D99C26;}
	.st85{fill:#B4BE9B;}
	.st86{fill:#060604;}
	.st87{fill:#FFEC00;fill-opacity:0.8;}
	.st88{fill:#D75F5B;}
	.st89{opacity:0.4;fill:#DAE0D7;}
	.st90{fill:#DCFC85;}
	.st91{fill:#865470;}
	.st92{fill:#1C1468;fill-opacity:0.8;}
	.st93{opacity:0.8;fill:#D60023;}
	.st94{opacity:0.8;fill:#FF9800;}
	.st95{opacity:0.8;fill:#FFCB00;}
	.st96{fill:#F7EBDF;}
	.st97{opacity:0.6;fill:#EA8200;}
	.st98{fill:#FFA500;}
	.st99{fill:#8B8057;}
	.st100{fill:#802940;}
	.st101{fill:#8E8E18;}
	.st102{fill:#B5849B;}
	.st103{fill:#827E9F;}
	.st104{fill:#B5D3FF;}
</style>
<polygon class="st4" points="219.62,179.16 171.31,265.34 186.76,461.64 302.13,577.47 418.67,642.79 546.55,630.41 611.89,575.06 
	702.37,474.11 725.55,376.25 803.66,243.4 748.55,161.34 630.92,123.43 470.81,48.31 378.41,111.02 "/>
<polygon class="st5" points="354.98,224 414.45,225.02 470.56,247.91 533.14,294.51 562.73,318.94 532.91,361.95 520.95,418.72 
	481.27,422.01 402.41,406.02 365.34,390.25 333.66,378.43 315.7,369.27 306.35,349.81 298.51,289.73 341.09,237.58 "/>
<polygon class="st5" points="594.35,356.7 558.28,428.51 591.78,436.81 613.73,423.36 620.83,404.43 620.43,393.95 612.08,378.35 
	"/>
<ellipse class="st6" cx="589.8" cy="415.4" rx="15.2" ry="15.4"/>
<circle class="st7" cx="587.81" cy="414.37" r="15.37"/>
<ellipse class="st8" cx="589.94" cy="415.94" rx="13.06" ry="12.94"/>
<ellipse transform="matrix(0.9774 -0.2113 0.2113 0.9774 -67.4046 136.0362)" class="st9" cx="602.82" cy="383.41" rx="13.41" ry="13.89"/>
<ellipse transform="matrix(0.9774 -0.2113 0.2113 0.9774 -68.0853 135.8412)" class="st10" cx="601.57" cy="386.5" rx="13.68" ry="13.92"/>
<polygon class="st11" points="621.48,405.12 613.15,418.04 633.35,426.33 "/>
<ellipse class="st12" cx="601.95" cy="385.97" rx="6.05" ry="5.97"/>
<circle class="st13" cx="602.5" cy="385.25" r="3.25"/>
<circle class="st14" cx="602.56" cy="385.19" r="2.19"/>
<circle class="st15" cx="591.67" cy="417.18" r="6.18"/>
<circle class="st16" cx="591.67" cy="417.18" r="3.18"/>
<polygon class="st17" points="325.2,275.15 435.28,302.3 431.76,330.31 317.22,305.35 "/>
<polygon class="st18" points="509.25,284.75 486.24,316.67 480.77,340.23 533.97,359.18 561.78,323.96 "/>
<polygon class="st19" points="313.26,301.23 535.34,359.77 533.57,366.11 311.62,308.2 "/>
<polygon class="st20" points="434,303.43 430.67,329.89 479.2,343.9 485.06,316.95 "/>
<polygon class="st21" points="433.49,304.45 430.46,330.22 476.72,344.13 482.16,317.9 "/>
<polygon class="st22" points="353.89,288.1 350.26,300.07 412.07,312.81 411.57,319.14 432.29,325.85 438.03,305.33 426.01,299.85 
	"/>
<polygon class="st23" points="324.14,282.12 347.92,287.96 345.25,291.89 322.64,285.71 "/>
<polygon class="st24" points="344.84,303.73 413.09,317.56 410.69,323.68 426.99,330.1 427.55,332.66 341.06,312.49 "/>
<polygon class="st25" points="322.32,288.7 346.99,296.43 344.66,300.04 321.18,292.06 "/>
<polygon class="st23" points="320.49,295.05 343.84,302.43 340.92,306.17 318.76,298.53 "/>
<polygon class="st0" points="395.41,299.01 394.27,302.36 435.79,313.28 436.53,308.77 "/>
<polygon class="st26" points="393.31,306.81 392.17,310.16 433.69,321.08 434.44,316.56 "/>
<polygon class="st27" points="391.04,313.52 389.9,316.87 431.41,327.78 432.16,323.27 "/>
<polygon class="st28" points="561.19,324.08 573.07,331.3 586.23,347.88 594.48,357.29 557.56,428.05 533.92,425.08 520.84,419.2 
	532.83,362.54 "/>
<polygon class="st29" points="309.24,319.34 530.76,370.79 527.23,371.99 305.69,320.72 "/>
<polygon class="st30" points="307.84,333.43 528.56,392.46 524.98,394.09 304.24,335.27 "/>
<polygon class="st31" points="306.36,348.97 527.08,408.01 523.5,409.63 302.75,350.82 "/>
<polygon class="st18" points="519.91,420.65 511.69,421.18 506.88,440.87 519.41,444.88 528.06,423.86 "/>
<polygon class="st28" points="512.16,445.32 504.81,460.08 572.61,495.98 587.77,549.05 590.9,548.37 575.96,496.83 509.71,458.35 
	514,445.88 "/>
<polygon class="st27" points="562.59,297.68 569.82,294.22 571.91,296.44 560.09,316.11 553.93,310.84 "/>
<polygon class="st18" points="573.27,293.47 583.25,281.5 599.78,292.71 616.71,312.08 625.26,321.42 643.09,326.27 685.6,324.54 
	684.75,320.6 629.16,319.34 611.06,302.63 595.65,283.86 583.17,279.35 570.88,291.67 "/>
<polygon class="st0" points="520.69,239.23 527.71,242.65 530.41,243.96 510.25,274.89 498.65,268.28 "/>
<polygon class="st19" points="535.6,226.05 503.32,205.29 472.66,196.32 464.04,190.94 460.3,188.02 459.24,197.49 462.9,194.29 
	502.78,209.17 530,225.78 523.83,239.55 527.71,243.65 "/>
<polygon class="st5" points="413.82,410.28 415.44,417.77 414.33,435.39 417.02,436.45 420.06,413.02 "/>
<polygon class="st0" points="414.68,437.05 348.04,476.65 339.79,478.44 341.32,485.55 347.11,481 416.71,440.91 420.75,435.74 "/>
<polygon class="st30" points="355.68,388.4 352.09,417.77 353.66,419.29 361.46,392.12 "/>
<polygon class="st24" points="350.95,417.88 298.5,425.42 297.17,429.27 313.88,425.84 347.01,421.46 353.13,419.73 "/>
<polygon class="st24" points="409.87,202.03 396.89,202.35 394.72,223.95 407.24,224.35 "/>
<polygon class="st18" points="404.62,200.68 406.05,178.61 407.75,174.96 331.96,149.26 322.02,146.43 320.93,152.88 329.96,151.55 
	403.89,177.22 400.66,199.67 "/>
<polygon class="st12" points="613.73,424.36 644.69,461.18 645.64,501.44 645.91,512.81 648.69,525.68 638.23,527.94 641.1,463.18 
	611.35,427.54 "/>
<polygon class="st12" points="623.75,400.69 669.09,389.02 711.41,332.17 719.54,323.41 710.57,321 691.74,352.94 674.61,375.77 
	659.65,389.19 622.73,396 "/>
<polygon class="st32" points="571.18,335.26 606.01,297.58 260.23,60.03 238.76,64.68 569.23,291.01 582.67,301.51 591.18,303.02 
	578.86,318.34 566.79,331.37 "/>
<polygon class="st32" points="300,316.99 268.75,350.8 579.04,563.96 598.31,559.8 301.75,356.69 289.7,347.28 282.06,345.92 
	293.11,332.17 303.94,320.48 "/>
<polygon class="st24" points="354.96,128.3 347.14,138.67 362.71,153.8 370.81,144.24 "/>
<polygon class="st0" points="395.24,175.28 393.53,167.66 392.88,164.73 429.63,161.23 431.7,174.42 "/>
<polygon class="st21" points="367.96,151.94 366.52,167.6 392.72,176.56 395.51,160.64 "/>
<polygon class="st21" points="403.08,429.68 400.06,455.45 446.31,469.35 451.75,443.12 "/>
<polygon class="st0" points="433.38,463.33 431.68,455.71 431.03,452.78 467.78,449.28 469.84,462.47 "/>
<polygon class="st24" points="410.6,435.08 402.78,445.45 418.35,460.57 426.45,451.02 "/>
<polygon class="st19" points="380.17,241.1 379.59,252.33 372.76,245.09 362.54,242.75 361.04,232.85 371.21,238.67 372.49,233.1 
	383.41,235.6 "/>
<polyline class="st12" points="549.34,416.23 539.12,413.89 537.62,404 547.79,409.81 549.07,404.25 559.99,406.75 556.75,412.24 
	556.17,423.48 549.34,416.23 "/>
<polygon class="st33" points="1148.94,588.54 1149.33,603.66 1163.43,621.46 1182.75,637.47 1209.31,655.61 1221.88,655.79 
	1231.11,642.27 1238.32,643.11 1224.24,663.74 1201.52,659.23 1158.66,628.44 1135.82,603.48 1138.5,585.28 "/>
<polygon class="st33" points="1070.51,695.58 1085.21,689.75 1107.17,696.03 1129.2,708.07 1155.76,726.21 1160.24,738.23 
	1150.38,752.67 1153.67,759.27 1168.71,737.25 1156.58,717.22 1112.26,688.58 1080.4,676.82 1063.8,686.86 "/>
<polygon class="st34" points="1168.74,598.79 1168.98,608.19 1177.74,619.25 1189.74,629.2 1206.25,640.47 1214.06,640.59 
	1219.8,632.18 1224.28,632.71 1215.53,645.53 1201.41,642.72 1174.78,623.59 1160.58,608.08 1162.25,596.77 "/>
<polygon class="st35" points="1179.99,597.56 1179.82,604.91 1186.03,613.26 1194.73,620.61 1206.77,628.83 1212.66,628.64 
	1217.3,621.84 1220.67,622.09 1213.59,632.46 1203.03,630.77 1183.64,616.76 1173.49,605.13 1175.16,596.21 "/>
<polygon class="st34" points="1141.53,742.99 1141.29,733.59 1132.53,722.53 1120.52,712.58 1104.02,701.31 1096.21,701.2 
	1090.47,709.6 1085.99,709.07 1094.74,696.25 1108.86,699.06 1135.49,718.19 1149.69,733.7 1148.02,745.01 "/>
<polygon class="st35" points="1131.2,743.61 1131.36,736.25 1125.16,727.91 1116.46,720.56 1104.42,712.33 1098.53,712.53 
	1093.89,719.32 1090.52,719.08 1097.6,708.71 1108.15,710.39 1127.55,724.4 1137.7,736.03 1136.02,744.96 "/>
<polyline class="st36" points="475.45,298.23 462.76,300.97 455.88,290.66 470.34,291.84 468.85,284.93 482.42,282 481.66,289.87 
	486.91,302.77 475.45,298.23 "/>
<ellipse transform="matrix(0.2863 -0.9581 0.9581 0.2863 67.7638 1387.8933)" class="st76" cx="965.48" cy="648.46" rx="2.91" ry="3.65"/>
</svg>
