<?xml version="1.0" encoding="utf-8"?>
<!-- Generator: Adobe Illustrator 28.2.0, SVG Export Plug-In . SVG Version: 6.00 Build 0)  -->
<svg version="1.1" id="Layer_1" xmlns="http://www.w3.org/2000/svg" xmlns:xlink="http://www.w3.org/1999/xlink" x="0px" y="0px"
	 viewBox="0 0 1440 900" style="enable-background:new 0 0 1440 900;" xml:space="preserve">
<style type="text/css">
	.st0{fill:#DEB381;}
	.st1{fill:#FFAE00;}
	.st2{fill:#F9F3B5;}
	.st3{opacity:0.6;fill:#FF9800;}
	.st4{fill:#4F2413;}
	.st5{fill:#6D8B5C;}
	.st6{fill:#F4C837;}
	.st7{opacity:0.2;fill:#C7B16F;}
	.st8{opacity:0.4;fill:#EE9D20;}
	.st9{opacity:0.3;fill:#F7E0B8;}
	.st10{fill:#F5DBA9;}
	.st11{fill:#F4957E;}
	.st12{fill:#BCAB8E;}
	.st13{fill:#746B40;}
	.st14{fill:#745C2B;}
	.st15{fill:#FAE9CC;}
	.st16{fill:#7A8455;}
	.st17{fill:#F0BA8A;}
	.st18{fill:#9DA12D;}
	.st19{fill:#E5E1A2;}
	.st20{fill:#E1CF58;}
	.st21{opacity:0.3;fill:#F2DF9C;}
	.st22{fill:#F5AE51;}
	.st23{fill:#BCBBB0;}
	.st24{fill:#ECA08E;}
	.st25{fill:#DFB155;}
	.st26{fill:#CCBFAB;}
	.st27{fill:#B6AF9C;}
	.st28{fill:#98C196;}
	.st29{fill:#A99E5C;}
	.st30{fill:#B9D5B9;}
	.st31{fill:#EBDFA2;}
	.st32{fill:#D4BDB0;}
	.st33{fill:#93C6A9;}
	.st34{fill:#CF4C39;}
	.st35{fill:#8C2241;}
	.st36{fill:#FF8C00;fill-opacity:0.8;}
	.st37{fill:#F4E9D4;}
	.st38{opacity:0.8;fill:#C1BB51;}
	.st39{opacity:0.9;fill:#C1BB51;}
	.st40{fill:#B8BE82;}
	.st41{fill:#C2D1C0;}
	.st42{fill:#B2AB6A;}
	.st43{fill:#757F42;fill-opacity:0.9;}
	.st44{fill:#D3AD00;}
	.st45{opacity:0.9;fill:#C2D1C0;}
	.st46{fill:#FF9800;}
	.st47{fill:#4C4475;}
	.st48{fill:#5D2F47;}
	.st49{fill:#FFCB00;}
	.st50{fill:#AEA87A;}
	.st51{opacity:0.9;fill:#CDD700;}
	.st52{fill:#F8F8F8;fill-opacity:0.9;}
	.st53{fill:#D60023;}
	.st54{fill:#B0B902;}
	.st55{fill:#B8CE04;}
	.st56{fill:#860256;}
	.st57{fill:#FFA100;}
	.st58{fill:#FF7800;}
	.st59{fill:#E07689;}
	.st60{fill:#FFB8A2;}
	.st61{fill:#FFAD00;}
	.st62{fill:#FF9380;}
	.st63{fill:#FFBD27;}
	.st64{fill:#DFCBD7;}
	.st65{fill:#FF7173;}
	.st66{fill:#B76D54;}
	.st67{fill:#FFBF79;}
	.st68{fill:#FF7400;}
	.st69{fill:#5A3B42;}
	.st70{fill:#A4858F;}
	.st71{fill:#FAB96C;}
	.st72{fill:#5F4047;}
	.st73{fill:#B69E17;}
	.st74{fill:#D7C762;}
	.st75{fill:#CDD700;}
	.st76{fill:#F4F3EB;}
	.st77{opacity:0.9;fill:#E1E100;}
	.st78{fill:#92C199;}
	.st79{opacity:0.9;fill:#D6DF00;}
	.st80{fill:#CCA002;}
	.st81{fill:#6AAF96;}
	.st82{fill:#CCB02F;}
	.st83{fill:#E9D102;fill-opacity:0.8;}
	.st84{fill:#D99C26;}
	.st85{fill:#B4BE9B;}
	.st86{fill:#060604;}
	.st87{fill:#FFEC00;fill-opacity:0.8;}
	.st88{fill:#D75F5B;}
	.st89{opacity:0.4;fill:#DAE0D7;}
	.st90{fill:#DCFC85;}
	.st91{fill:#865470;}
	.st92{fill:#1C1468;fill-opacity:0.8;}
	.st93{opacity:0.8;fill:#D60023;}
	.st94{opacity:0.8;fill:#FF9800;}
	.st95{opacity:0.8;fill:#FFCB00;}
	.st96{fill:#F7EBDF;}
	.st97{opacity:0.6;fill:#EA8200;}
	.st98{fill:#FFA500;}
	.st99{fill:#8B8057;}
	.st100{fill:#802940;}
	.st101{fill:#8E8E18;}
	.st102{fill:#B5849B;}
	.st103{fill:#827E9F;}
	.st104{fill:#B5D3FF;}
</style>
<rect x="0.6" y="1.83" class="st37" width="1438.48" height="897.5"/>
<polygon class="st38" points="-0.52,900.43 1440,900.43 1439.74,860.27 1346.77,852.53 1213.16,771.18 1025.69,810.07 
	748.54,860.56 464.33,875.27 108.2,762.93 -0.52,688.18 "/>
<polygon class="st39" points="-0.11,254.14 168.86,224.2 325.78,183.85 497.94,106.34 736.63,58.75 895.59,76.88 1032.71,102.26 
	1376.57,1.18 1439.49,1.18 1439.46,52.87 1288.15,45.6 1065.72,149.86 708.19,167.54 471.24,254.14 219.14,353.84 -0.25,413.66 "/>
<polygon class="st40" points="21.29,282.22 21.29,407.71 238.35,344.96 698.75,167.54 979.73,153.46 798.46,92.74 623.09,106.8 
	457.34,207.42 180.63,353.38 "/>
<polygon class="st41" points="-0.17,454.31 49.03,438.48 92.53,438.48 126.6,422.15 177.69,410.59 270.79,419.43 354.42,394.27 
	415.35,371.48 485.36,351.42 562.94,357.54 651.12,303.47 786.98,249.4 895.21,215.4 986.79,235.8 1069.29,263.34 1174.5,323.54 
	1214.22,364.57 1281.59,556.82 1339.49,611.91 1380.74,683.32 1414.43,754.39 1440,790.2 1440,845.99 1417.45,846.55 
	1192.66,593.88 975.82,475.88 850.93,400.39 600.41,466.36 430.87,544.58 323.77,543.21 217.03,530.97 106.93,515.67 24.43,518.39 
	-0.17,519.87 "/>
<polygon class="st42" points="-0.36,1 552.45,1 363.42,31.19 234.15,64.28 123.91,23.48 52.25,82.86 -0.01,98.91 "/>
<polygon class="st43" points="1134.4,767.77 1195.02,815.84 1152.43,846.28 1239.21,829.97 1286.93,841.56 1357.09,791.44 
	1214.64,801.83 "/>
</svg>
